<svg width="110" height="97" viewBox="0 0 110 97" fill="none" xmlns="http://www.w3.org/2000/svg">
<g clip-path="url(#clip0_215_1095)">
<path d="M28.2647 8.00577C22.2532 7.71641 17.0854 9.09891 11.9176 10.5779C11.2497 10.7708 10.6169 11.0601 10.0544 11.4459C2.6367 16.7187 -1.16004 23.4383 0.316466 32.2156C1.19534 37.3919 2.84763 42.3753 5.80065 46.9408C7.45293 49.545 8.99975 52.2136 10.5114 54.9143C13.0777 59.5119 15.5737 64.1095 19.7923 67.7426C21.9368 69.6074 23.7297 71.7936 25.4874 73.9799C27.7725 76.8414 30.1279 79.6707 32.4833 82.5C34.4871 84.9113 36.6667 87.1619 37.7565 90.1519C38.2487 91.5023 39.5494 92.7562 41.026 93.0777C43.0298 93.5278 45.0688 93.1098 47.0023 92.2096C48.6898 91.438 49.1468 89.8626 50.0608 88.6408C51.8537 86.2617 53.0138 83.561 53.3302 80.7317C53.506 79.317 53.7872 78.0631 54.5255 76.8414C55.1583 75.7804 55.9317 74.7515 56.459 73.6263C59.9745 66.2958 63.2088 58.8689 66.3376 51.3777C67.1813 49.3843 66.5485 47.9053 64.4743 46.8765C62.7518 46.0084 60.994 45.2046 59.2363 44.3687C56.2129 42.9862 53.2248 41.5716 49.8499 41.0571C48.6546 40.8642 47.0726 40.9607 46.3695 40.2855C45.5961 39.5782 46.5101 38.2278 46.6859 37.1347C46.7562 36.6524 46.7914 36.2023 46.8265 35.7201C47.2484 30.8652 48.3734 26.0426 47.1078 21.0913C46.0531 17.0081 44.5766 13.3429 40.5689 10.8672C36.6667 8.58449 32.413 7.74856 28.2647 8.00577Z" fill="#FEFEFE"/>
<path d="M110 25.2065C110.105 23.2132 109.613 21.3163 109.332 19.3872C108.418 12.9891 104.938 7.97353 99.8051 3.76173C96.9224 1.38255 93.3717 0.25726 89.6101 0.0322023C85.3915 -0.225007 81.3487 1.15749 77.4465 2.31493C70.6264 4.37261 64.9313 8.3272 59.6581 12.7319C55.5449 16.1721 51.9591 19.9981 50.6584 25.1744C49.9904 27.8429 49.0061 30.5436 49.1819 33.3086C49.3576 35.5914 49.4983 36.8453 52.8731 35.7843C53.7169 35.5271 53.9981 35.9129 54.4903 36.3308C55.8613 37.5526 57.373 38.5814 59.1659 39.2887C62.5408 40.5748 66.0211 41.6358 69.1499 43.4041C71.1186 44.5294 72.4545 45.7833 72.4193 48.3554C72.349 55.1393 70.2397 61.5373 67.9546 67.7425C65.3532 74.7514 61.6267 81.3746 58.3573 88.1585C57.2675 90.4091 56.3535 92.7561 54.9121 94.8459C54.5254 95.4246 54.4903 96.0998 54.9121 96.6464C55.0879 96.8714 55.5098 97.0643 56.0019 96.9679C57.8652 96.6142 59.3065 95.5532 60.8533 94.653C62.0134 93.9778 62.4001 92.7882 63.2439 91.9523C67.6382 87.6119 72.2084 83.4644 76.0754 78.706C79.3097 74.6871 82.8604 70.8612 86.4813 67.1316C89.3289 64.2059 91.4733 60.8622 93.8287 57.647C98.434 51.4097 102.899 45.0759 106.52 38.2921C108.805 34.1446 109.93 29.8042 110 25.2065Z" fill="#FEFEFE"/>
<path d="M28.2647 8.00557C32.3778 7.71621 36.6668 8.55214 40.569 10.9635C44.6118 13.4391 46.0531 17.1043 47.1078 21.1875C48.3734 26.1388 47.2484 30.9293 46.8266 35.8163C46.7914 36.2986 46.7562 36.7808 46.6859 37.231C46.5102 38.2919 45.561 39.6423 46.3695 40.3818C47.0726 41.0569 48.6546 40.9605 49.8499 41.1534C53.2248 41.6678 56.2129 43.0825 59.2363 44.465C60.994 45.2687 62.7518 46.1047 64.4744 46.9728C66.5485 48.0016 67.1813 49.4805 66.3376 51.4739C63.2088 58.9651 59.9745 66.392 56.459 73.7225C55.9317 74.8478 55.1583 75.8445 54.5255 76.9376C53.7872 78.1594 53.506 79.4133 53.3302 80.8279C52.9787 83.6572 51.8186 86.3579 50.0608 88.7371C49.1468 89.9588 48.6898 91.5342 47.0023 92.3059C45.0688 93.2061 42.9947 93.624 41.026 93.1739C39.5495 92.8203 38.2487 91.5664 37.7566 90.2482C36.6668 87.2581 34.4872 85.0076 32.4833 82.5962C30.1279 79.7669 27.8077 76.9376 25.4875 74.0762C23.7297 71.8899 21.9368 69.7036 19.7924 67.8388C15.6089 64.2058 13.0778 59.6082 10.5114 55.0105C9.03493 52.3098 7.48811 49.6413 5.80067 47.0371C2.8828 42.4716 1.23051 37.4882 0.316485 32.3118C-1.16003 23.4381 2.63672 16.7185 10.0896 11.4457C10.6169 11.0599 11.2848 10.7706 11.9528 10.5777C17.0854 9.13086 22.2884 7.71621 28.2647 8.00557ZM43.3814 84.5896C43.7329 83.4321 43.9087 82.1782 44.5415 81.1494C46.8617 77.3234 48.6546 73.2724 50.3069 69.1892C51.8537 65.4275 53.2951 61.6337 55.7911 58.2578C57.0918 56.4895 58.1816 54.6247 59.412 52.8243C59.9042 52.1169 59.9394 51.5061 59.0605 51.0881C55.6505 49.5448 52.2404 47.9051 48.7249 46.5548C46.4047 45.6546 43.8735 44.9794 41.3424 45.0437C39.0925 45.108 38.1784 44.6257 38.6706 42.761C39.3034 40.3175 39.6901 37.8418 39.8659 35.3662C40.1823 31.1544 41.2721 27.0069 40.1119 22.6986C39.0573 18.8405 37.2996 15.6897 33.327 13.7606C28.8624 11.6065 24.0461 11.6065 19.2299 12.0245C17.9291 12.1531 16.5933 12.3138 15.4331 13.0211C9.84349 16.4292 7.1014 21.4126 6.7147 27.2641C6.43346 31.9582 8.05059 36.5236 10.2302 40.7354C12.7965 45.6867 15.9253 50.4129 18.4213 55.3964C19.8978 58.3221 21.972 60.862 24.3625 63.1769C26.4718 65.2024 28.2647 67.3887 30.0928 69.6072C33.2919 73.4653 36.1043 77.5485 39.3034 81.4066C40.4283 82.7248 42.7134 82.6927 43.3814 84.5896Z" fill="#040404"/>
<path d="M110 25.2067C109.93 29.7722 108.805 34.1447 106.59 38.2279C102.969 45.0118 98.5043 51.3456 93.899 57.5829C91.5085 60.798 89.364 64.1418 86.5516 67.0675C82.9306 70.8292 79.38 74.6552 76.1457 78.6419C72.2787 83.4324 67.7085 87.5799 63.3141 91.8882C62.4353 92.7563 62.0486 93.9137 60.9236 94.5889C59.3768 95.4891 57.9354 96.5501 56.0722 96.9038C55.58 97.0002 55.1582 96.8073 54.9824 96.5823C54.5605 96.0357 54.5605 95.3605 54.9824 94.7818C56.4238 92.6598 57.3378 90.3449 58.4276 88.0944C61.697 81.3105 65.4234 74.6552 68.0249 67.6784C70.3451 61.4411 72.4193 55.043 72.4896 48.2912C72.5248 45.7513 71.1889 44.4653 69.2202 43.34C66.0914 41.5716 62.611 40.5107 59.2362 39.2246C57.4433 38.5494 55.9316 37.4885 54.5605 36.2667C54.1035 35.8487 53.7871 35.4629 52.9434 35.7201C49.6037 36.749 49.4279 35.4951 49.2521 33.2445C49.0412 30.4795 50.0607 27.811 50.7287 25.1103C52.0294 19.9339 55.6152 16.1079 59.7283 12.6678C65.0016 8.29521 70.6615 4.34062 77.5168 2.2508C81.419 1.0612 85.4618 -0.321294 89.6804 -0.0319341C93.442 0.193124 96.9926 1.31841 99.8754 3.6976C104.973 7.9094 108.488 12.925 109.402 19.3231C109.613 21.3486 110.105 23.2455 110 25.2067ZM69.6772 78.867C71.9623 76.2627 74.2474 73.6263 76.5324 71.0221C79.2745 67.9034 82.333 65.0098 84.6181 61.6018C89.1882 54.8179 93.9693 48.0983 97.977 40.9929C101.879 34.1126 104.129 27.0393 101.879 19.098C100.473 14.1467 97.5903 10.2243 93.5826 6.84841C90.9811 4.66213 87.6766 3.85835 84.3017 3.92266C81.4893 3.98696 78.8878 5.17655 76.5324 6.5269C69.5366 10.4172 62.9274 14.6933 58.4979 21.2521C57.7597 22.3453 57.5487 23.3741 57.7245 24.4029C57.9706 26.0105 58.6737 27.5537 58.5682 29.2578C58.5331 30.0294 58.7792 30.8653 59.4471 31.444C61.24 32.9551 63.0329 34.4984 65.4586 35.1414C68.5171 35.9452 71.2943 37.2634 74.0364 38.6459C76.9543 40.1248 79.3448 42.1504 79.2745 45.4619C79.2394 48.3234 78.8878 51.217 78.3956 54.0784C78.0089 56.4576 76.673 58.7404 76.2512 61.0552C75.0911 67.3569 71.6459 72.7904 69.2553 78.6098C69.1499 78.867 68.7632 79.1563 69.1499 79.3492C69.5014 79.4778 69.5717 79.092 69.6772 78.867Z" fill="#040404"/>
<path d="M43.3813 84.5894C42.7133 82.7247 40.4634 82.7247 39.3385 81.4065C36.1394 77.5483 33.327 73.433 30.1278 69.607C28.2998 67.4207 26.4717 65.2023 24.3976 63.1768C21.9719 60.8619 19.8977 58.3541 18.4564 55.3962C15.9604 50.4128 12.7964 45.6866 10.2653 40.7353C8.08566 36.5235 6.46853 31.958 6.74977 27.264C7.13648 21.4124 9.84341 16.429 15.4331 13.0532C16.5932 12.3458 17.9642 12.1851 19.2298 12.0565C24.046 11.6064 28.8623 11.6064 33.327 13.7926C37.2995 15.7217 39.0572 18.8404 40.1119 22.7306C41.3071 27.0389 40.1822 31.1864 39.8658 35.3982C39.69 37.8738 39.3033 40.3495 38.6705 42.793C38.1783 44.6899 39.0924 45.14 41.3423 45.0757C43.8735 45.0114 46.4046 45.6866 48.7248 46.5868C52.2403 47.9371 55.6152 49.5768 59.0604 51.1201C59.9744 51.5381 59.9041 52.1489 59.412 52.8563C58.1815 54.6567 57.0917 56.5215 55.791 58.2898C53.295 61.6657 51.8536 65.4274 50.3068 69.2212C48.6545 73.3044 46.8616 77.3554 44.5414 81.1814C43.9086 82.1781 43.7328 83.432 43.3813 84.5894Z" fill="#FEFEFE"/>
<path d="M69.2905 78.5775C71.7162 72.7581 75.1614 67.3246 76.2863 61.023C76.7082 58.6759 78.0089 56.4254 78.4308 54.0462C78.8878 51.2169 79.2394 48.3233 79.3097 45.4297C79.38 42.1181 76.9894 40.0604 74.0716 38.6136C71.3295 37.2311 68.5522 35.9129 65.4938 35.1092C63.0681 34.4661 61.2752 32.955 59.4823 31.4118C58.8143 30.833 58.5682 29.965 58.6034 29.2255C58.6737 27.5215 58.0057 25.9782 57.7597 24.3707C57.5839 23.3418 57.7948 22.2808 58.5331 21.2199C62.9978 14.6932 69.6069 10.3849 76.5676 6.49464C78.9581 5.17644 81.5244 3.9547 84.3368 3.89039C87.7117 3.82609 91.0163 4.59772 93.6178 6.81615C97.6254 10.192 100.473 14.1145 101.914 19.0657C104.164 26.9749 101.914 34.0482 98.0121 40.9607C94.0045 48.0661 89.2234 54.7535 84.6532 61.5695C82.3682 64.9776 79.3097 67.9033 76.5676 70.9898C74.2825 73.5941 71.9974 76.2305 69.7124 78.8347C69.5717 78.7704 69.4311 78.6739 69.2905 78.5775Z" fill="#FEFEFE"/>
<path d="M69.6772 78.8666C69.5718 79.0916 69.5014 79.4775 69.2202 79.3489C68.8335 79.1559 69.1851 78.8666 69.3257 78.6094C69.4311 78.6737 69.5718 78.7701 69.6772 78.8666Z" fill="#FEFEFE"/>
</g>
<defs>
<clipPath id="clip0_215_1095">
<rect width="110" height="97" fill="white"/>
</clipPath>
</defs>
</svg>
