<svg width="69" height="88" viewBox="0 0 69 88" fill="none" xmlns="http://www.w3.org/2000/svg">
<g clip-path="url(#clip0_215_1138)">
<path d="M41.8346 34.1403C41.9554 27.0768 40.4462 20.3664 36.7034 14.1858C34.2887 10.1831 31.4514 6.35705 29.6404 2.11892C28.6142 -0.294456 27.5276 -0.235593 25.7165 0.353036C23.6037 1.00053 21.6115 1.94233 19.2572 1.88347C17.3255 1.82461 15.937 4.94434 17.3255 5.94501C20.1627 8.00521 21.0682 11.1838 22.7585 13.8326C25.5958 18.3062 28.5538 22.8387 29.3989 28.0775C31.0892 38.2607 29.8215 48.3263 26.3202 57.9798C23.0604 66.927 19.3176 75.6387 15.0919 84.1738C13.8241 86.7637 14.5486 87.2346 17.4462 87.8821C20.1024 88.4708 21.2493 86.1751 23.3018 86.0574C25.3543 85.9397 26.7428 84.9979 27.5276 83.1142C29.58 78.2875 31.3911 73.4019 33.685 68.6928C38.8766 57.7443 42.0157 46.3249 41.8346 34.1403Z" fill="#FEFEFE"/>
<path d="M56.0814 57.2146C55.5381 59.8635 56.8058 62.1003 57.5302 64.337C58.0735 66.0441 59.643 66.7504 61.6352 65.8086C63.8688 64.8079 64.9554 62.8066 66.4646 61.1584C69.0604 58.3919 69.7848 55.0956 67.7323 51.9758C66.6457 50.3277 65.3176 48.6795 63.084 48.0909C61.0315 47.5023 60.4882 49.7979 60.2467 50.3277C59.1601 52.9176 54.9344 53.624 56.0814 57.2146Z" fill="#FEFEFE"/>
<path d="M50.1653 30.6675C49.9842 34.3759 54.4514 37.5545 57.5302 35.7297C60.0052 34.1993 61.6955 31.727 63.5669 29.5491C64.9554 27.8421 63.5066 26.4294 63.0236 25.2521C62.601 24.0749 65.0157 24.1926 63.4462 22.7799C60.8504 20.4254 57.7113 20.3076 55.4777 23.0153C54.5118 24.2515 53.6063 25.6642 52.2782 26.4882C50.6483 27.6066 50.2257 28.9605 50.1653 30.6675Z" fill="#FEFEFE"/>
<path d="M4.95013 65.338C6.33858 65.0437 8.57218 64.5728 9.41732 62.1005C9.65879 61.3942 9.83989 60.8644 10.5643 60.5112C12.315 59.6871 12.7375 58.039 12.315 56.5085C11.7113 54.2718 10.2021 52.5647 7.90813 51.7407C7.00262 51.3875 6.58005 52.1527 6.03674 52.8002C4.76903 54.3306 3.50131 55.9788 1.93176 57.0972C-0.241473 58.5688 -0.120738 60.5112 0.120732 62.4537C0.422569 64.455 1.99212 65.3968 4.95013 65.338Z" fill="#FEFEFE"/>
<path d="M4.34645 42.9108C5.85564 42.7342 7.72703 42.4399 8.39107 41.2626C9.90026 38.4372 12.3753 36.377 13.5223 33.1396C14.4882 30.2553 12.315 30.3141 11.4094 29.4901C10.2625 28.4894 8.81364 28.5483 7.72703 30.3141C6.82152 31.8446 5.43306 33.1984 4.04461 34.3757C1.99212 36.0827 1.08661 39.6733 2.53543 41.9101C2.83726 42.6165 3.38057 43.1463 4.34645 42.9108Z" fill="#FEFEFE"/>
<path d="M41.8346 34.1403C42.0157 46.3249 38.937 57.7443 33.6247 68.7517C31.3307 73.4607 29.5197 78.3463 27.4672 83.1731C26.6824 85.0567 25.294 85.9396 23.2415 86.1162C21.189 86.2339 19.9816 88.5296 17.3858 87.9409C14.5486 87.2935 13.7638 86.8226 15.0315 84.2326C19.2572 75.6975 23.0604 66.9269 26.2598 58.0386C29.7612 48.3851 31.0289 38.3195 29.3386 28.1363C28.4934 22.8975 25.5354 18.365 22.6982 13.8914C21.0079 11.1838 20.1024 8.06402 17.2651 6.00382C15.8766 4.94429 17.2651 1.88342 19.1968 1.94228C21.5512 2.00115 23.5433 1.05934 25.6562 0.411848C27.4672 -0.117918 28.5538 -0.235643 29.5801 2.17773C31.3911 6.41586 34.2283 10.2419 36.643 14.2446C40.4462 20.3664 41.9554 27.0767 41.8346 34.1403Z" fill="#040404"/>
<path d="M56.0814 57.2146C54.874 53.5651 59.1601 52.8587 60.3071 50.3276C60.5485 49.7978 61.0919 47.561 63.1443 48.0908C65.3779 48.6794 66.706 50.3276 67.7926 51.9758C69.7848 55.0366 69.0604 58.3329 66.5249 61.1584C65.0157 62.8065 63.9291 64.8079 61.6955 65.8085C59.643 66.7503 58.1338 66.044 57.5905 64.337C56.8661 62.1002 55.538 59.8634 56.0814 57.2146Z" fill="#040404"/>
<path d="M50.1653 30.6675C50.2257 28.9605 50.6483 27.5478 52.3386 26.4882C53.6063 25.6642 54.5118 24.2515 55.538 23.0153C57.7716 20.3076 60.9107 20.4254 63.5065 22.7799C65.0157 24.1926 62.601 24.0749 63.084 25.2521C63.5669 26.4294 65.0157 27.8421 63.6273 29.5491C61.7559 31.7859 60.126 34.2581 57.5905 35.7297C54.4514 37.5545 49.9842 34.3759 50.1653 30.6675Z" fill="#040404"/>
<path d="M4.95013 65.338C1.99212 65.3968 0.422569 64.455 0.120732 62.4537C-0.120738 60.5112 -0.241473 58.5688 1.93176 57.0972C3.56168 55.9788 4.76903 54.3306 6.03674 52.8002C6.58005 52.1527 6.94225 51.3875 7.90813 51.7407C10.2021 52.5647 11.7113 54.2718 12.315 56.5085C12.7375 58.039 12.315 59.6871 10.5643 60.5112C9.83989 60.8644 9.65879 61.3942 9.41732 62.1005C8.57218 64.6316 6.33858 65.0437 4.95013 65.338Z" fill="#040404"/>
<path d="M4.34645 42.9111C3.38058 43.1466 2.83727 42.558 2.4147 41.8516C1.02625 39.6148 1.87139 36.0242 3.92388 34.3171C5.31233 33.1399 6.70079 31.786 7.6063 30.2556C8.69291 28.4309 10.1417 28.372 11.2887 29.4315C12.1942 30.2556 14.4278 30.2556 13.4016 33.081C12.315 36.3185 9.77953 38.3787 8.27034 41.2041C7.72703 42.4402 5.85564 42.7345 4.34645 42.9111Z" fill="#040404"/>
</g>
<defs>
<clipPath id="clip0_215_1138">
<rect width="69" height="88" fill="white"/>
</clipPath>
</defs>
</svg>
