<svg width="42" height="58" viewBox="0 0 42 58" fill="none" xmlns="http://www.w3.org/2000/svg">
<g clip-path="url(#clip0_215_1149)">
<path d="M25.4646 22.5015C25.5381 17.846 24.6194 13.4233 22.3412 9.34967C20.8714 6.71155 19.1444 4.18981 18.042 1.3965C17.4173 -0.19414 16.7559 -0.155344 15.6535 0.232616C14.3674 0.659372 13.1549 1.28011 11.7218 1.24131C10.5459 1.20252 9.70078 3.2587 10.5459 3.91824C12.273 5.27609 12.8241 7.37108 13.853 9.1169C15.58 12.0654 17.3806 15.0527 17.895 18.5055C18.9239 25.2172 18.1522 31.8513 16.021 38.2139C14.0367 44.1109 11.7585 49.8527 9.18635 55.4781C8.41469 57.1851 8.85564 57.4955 10.6194 57.9223C12.2362 58.3102 12.9344 56.7972 14.1837 56.7196C15.4331 56.642 16.2782 56.0212 16.7559 54.7798C18.0052 51.5985 19.1076 48.3784 20.5039 45.2748C23.664 38.0587 25.5748 30.5323 25.4646 22.5015Z" fill="#FEFEFE"/>
<path d="M34.1365 37.7098C33.8058 39.4556 34.5774 40.9299 35.0184 42.4041C35.3491 43.5292 36.3045 43.9948 37.5171 43.374C38.8766 42.7145 39.5381 41.3954 40.4567 40.3091C42.0367 38.4857 42.4777 36.3131 41.2283 34.257C40.5669 33.1707 39.7585 32.0844 38.3989 31.6964C37.1496 31.3085 36.8189 32.8215 36.6719 33.1707C36.0105 34.8777 33.4383 35.3432 34.1365 37.7098Z" fill="#FEFEFE"/>
<path d="M30.5354 20.2127C30.4252 22.6569 33.1444 24.7519 35.0184 23.5492C36.5249 22.5405 37.5538 20.9111 38.6929 19.4756C39.5381 18.3505 38.6562 17.4194 38.3622 16.6435C38.105 15.8676 39.5748 15.9452 38.6194 15.0141C37.0394 13.4622 35.1286 13.3846 33.769 15.1693C33.1811 15.984 32.6299 16.9151 31.8215 17.4582C30.8294 18.1954 30.5722 19.0877 30.5354 20.2127Z" fill="#FEFEFE"/>
<path d="M3.01312 43.0637C3.85826 42.8697 5.21784 42.5593 5.73228 40.9299C5.87926 40.4644 5.9895 40.1152 6.43044 39.8824C7.49606 39.3393 7.75328 38.253 7.49606 37.2443C7.1286 35.77 6.20997 34.645 4.81364 34.1018C4.26246 33.869 4.00524 34.3734 3.67454 34.8001C2.90288 35.8088 2.13123 36.8951 1.17585 37.6323C-0.146986 38.6022 -0.0734955 39.8824 0.0734861 41.1627C0.257213 42.4818 1.21259 43.1025 3.01312 43.0637Z" fill="#FEFEFE"/>
<path d="M2.64567 28.2822C3.5643 28.1658 4.70341 27.9718 5.10761 27.1959C6.02625 25.3337 7.53281 23.9758 8.23097 21.842C8.8189 19.941 7.49606 19.9798 6.94488 19.4367C6.24672 18.7771 5.36483 18.8159 4.70341 19.9798C4.15223 20.9885 3.30709 21.8808 2.46194 22.6567C1.2126 23.7818 0.661418 26.1484 1.54331 27.6226C1.72703 28.0882 2.05774 28.4373 2.64567 28.2822Z" fill="#FEFEFE"/>
<path d="M25.4646 22.5016C25.5748 30.5324 23.7008 38.0588 20.4672 45.3137C19.0709 48.4174 17.9685 51.6374 16.7192 54.8187C16.2415 56.0602 15.3963 56.6421 14.147 56.7585C12.8976 56.8361 12.1627 58.3491 10.5827 57.9612C8.85564 57.5344 8.37795 57.224 9.1496 55.517C11.7218 49.8916 14.0367 44.111 15.9842 38.2528C18.1155 31.8903 18.8871 25.2561 17.8583 18.5444C17.3438 15.0916 15.5433 12.1043 13.8163 9.15582C12.7874 7.3712 12.2362 5.31501 10.5092 3.95715C9.66404 3.25883 10.5092 1.24143 11.685 1.28023C13.1181 1.31903 14.3307 0.69829 15.6168 0.271534C16.7192 -0.0776296 17.3806 -0.155222 18.0052 1.43541C19.1076 4.22872 20.8346 6.75046 22.3045 9.38859C24.6194 13.4234 25.5381 17.8461 25.4646 22.5016Z" fill="#040404"/>
<path d="M34.1365 37.7095C33.4016 35.3042 36.0105 34.8386 36.7087 33.1704C36.8556 32.8212 37.1863 31.347 38.4357 31.6962C39.7953 32.0841 40.6037 33.1704 41.2651 34.2567C42.4777 36.2741 42.0367 38.4467 40.4934 40.3089C39.5748 41.3952 38.9134 42.7142 37.5538 43.3738C36.3045 43.9945 35.3858 43.5289 35.0551 42.4039C34.6142 40.9296 33.8058 39.4554 34.1365 37.7095Z" fill="#040404"/>
<path d="M30.5354 20.2127C30.5722 19.0877 30.8294 18.1566 31.8583 17.4582C32.6299 16.9151 33.1811 15.984 33.8058 15.1693C35.1654 13.3846 37.0761 13.4622 38.6562 15.0141C39.5748 15.9452 38.105 15.8676 38.399 16.6435C38.6929 17.4194 39.5748 18.3505 38.7297 19.4756C37.5906 20.9499 36.5984 22.5793 35.0551 23.5492C33.1444 24.7519 30.4252 22.6569 30.5354 20.2127Z" fill="#040404"/>
<path d="M3.01312 43.0637C1.21259 43.1025 0.257213 42.4818 0.0734861 41.1627C-0.0734955 39.8824 -0.146986 38.6022 1.17585 37.6323C2.16797 36.8951 2.90288 35.8088 3.67454 34.8001C4.00524 34.3734 4.22572 33.869 4.81364 34.1018C6.20997 34.645 7.1286 35.77 7.49606 37.2443C7.75328 38.253 7.49606 39.3393 6.43044 39.8824C5.9895 40.1152 5.87926 40.4644 5.73228 40.9299C5.21784 42.5981 3.85826 42.8697 3.01312 43.0637Z" fill="#040404"/>
<path d="M2.64567 28.2824C2.05774 28.4376 1.72704 28.0496 1.46982 27.5841C0.624674 26.1098 1.13911 23.7433 2.38845 22.6182C3.2336 21.8423 4.07874 20.95 4.62992 19.9413C5.29134 18.7386 6.17323 18.6998 6.87139 19.3981C7.42257 19.9413 8.78215 19.9413 8.15748 21.8035C7.49607 23.9373 5.95276 25.2951 5.03412 27.1573C4.70341 27.9721 3.56431 28.166 2.64567 28.2824Z" fill="#040404"/>
</g>
<defs>
<clipPath id="clip0_215_1149">
<rect width="42" height="58" fill="white"/>
</clipPath>
</defs>
</svg>
