<svg width="101" height="88" viewBox="0 0 101 88" fill="none" xmlns="http://www.w3.org/2000/svg">
<g clip-path="url(#clip0_215_1103)">
<path d="M25.9521 7.26284C20.4324 7.00033 15.6875 8.25455 10.9425 9.59628C10.3292 9.77129 9.74819 10.0338 9.23173 10.3838C2.42092 15.1674 -1.06517 21.2635 0.29053 29.2264C1.0975 33.9224 2.6146 38.4435 5.32601 42.5853C6.8431 44.948 8.26337 47.3689 9.65135 49.819C12.0077 53.9901 14.2995 58.1611 18.1729 61.4571C20.1419 63.1488 21.7881 65.1322 23.4021 67.1157C25.5002 69.7116 27.6629 72.2784 29.8255 74.8452C31.6654 77.0328 33.6667 79.0746 34.6673 81.7872C35.1192 83.0123 36.3135 84.1498 37.6692 84.4415C39.5091 84.8498 41.3813 84.4707 43.1566 83.6539C44.706 82.9539 45.1256 81.5247 45.9649 80.4163C47.6111 78.2579 48.6763 75.8077 48.9668 73.241C49.1282 71.9576 49.3864 70.82 50.0643 69.7116C50.6453 68.7491 51.3554 67.8157 51.8396 66.7948C55.0675 60.1445 58.0371 53.4067 60.9099 46.6105C61.6846 44.8021 61.1036 43.4604 59.1991 42.527C57.6175 41.7395 56.0035 41.0103 54.3896 40.2519C51.6136 38.9977 48.87 37.7143 45.7712 37.2476C44.6737 37.0726 43.2212 37.1601 42.5756 36.5476C41.8655 35.9059 42.7047 34.6808 42.8661 33.6891C42.9307 33.2516 42.963 32.8432 42.9952 32.4057C43.3826 28.0013 44.4155 23.6261 43.2535 19.1342C42.2851 15.4299 40.9294 12.1047 37.2496 9.85879C33.6667 7.78786 29.761 7.02949 25.9521 7.26284Z" fill="#FEFEFE"/>
<path d="M101 22.8679C101.097 21.0595 100.645 19.3386 100.387 17.5885C99.5475 11.784 96.3519 7.23381 91.6392 3.4128C88.9923 1.25436 85.7322 0.233481 82.2784 0.0293051C78.4049 -0.204039 74.6929 1.05019 71.11 2.10024C64.8479 3.96699 59.6187 7.55466 54.7769 11.5507C51.0003 14.6717 47.7079 18.1427 46.5136 22.8387C45.9003 25.2597 44.9965 27.7098 45.1579 30.2182C45.3193 32.2892 45.4484 33.4267 48.5472 32.4642C49.3218 32.2308 49.5801 32.5808 50.032 32.96C51.2908 34.0684 52.6788 35.0018 54.325 35.6435C57.4238 36.8102 60.6194 37.7728 63.4922 39.377C65.2998 40.3979 66.5264 41.5354 66.4941 43.8689C66.4295 50.0233 64.4928 55.8278 62.3947 61.4572C60.0061 67.8158 56.5845 73.8245 53.5826 79.9789C52.582 82.0207 51.7427 84.15 50.4193 86.0459C50.0643 86.5709 50.032 87.1834 50.4193 87.6793C50.5807 87.8835 50.9681 88.0585 51.42 87.971C53.1307 87.6501 54.4542 86.6876 55.8744 85.8709C56.9396 85.2583 57.2947 84.1791 58.0694 83.4208C62.1042 79.4831 66.3004 75.7204 69.8511 71.4035C72.8207 67.7575 76.0809 64.2865 79.4056 60.903C82.0202 58.2487 83.9891 55.2152 86.1518 52.2984C90.3803 46.6398 94.4797 40.8937 97.8044 34.7393C99.9025 30.9766 100.935 27.0389 101 22.8679Z" fill="#FEFEFE"/>
<path d="M25.9521 7.26268C29.7287 7.00017 33.6667 7.75854 37.2496 9.94614C40.9616 12.1921 42.2851 15.5172 43.2534 19.2216C44.4155 23.7135 43.3825 28.0595 42.9952 32.493C42.9629 32.9306 42.9306 33.3681 42.8661 33.7764C42.7047 34.739 41.8332 35.964 42.5756 36.6349C43.2211 37.2474 44.6737 37.1599 45.7712 37.3349C48.8699 37.8016 51.6136 39.085 54.3896 40.3393C56.0035 41.0685 57.6174 41.8268 59.1991 42.6144C61.1035 43.5477 61.6846 44.8895 60.9099 46.6979C58.0371 53.494 55.0674 60.2319 51.8396 66.8822C51.3554 67.9031 50.6452 68.8073 50.0642 69.799C49.3864 70.9074 49.1281 72.0449 48.9668 73.3283C48.644 75.8951 47.5788 78.3452 45.9648 80.5037C45.1256 81.612 44.706 83.0413 43.1566 83.7413C41.3813 84.558 39.4768 84.9372 37.6692 84.5288C36.3135 84.208 35.1192 83.0704 34.6673 81.8746C33.6667 79.1619 31.6654 77.1202 29.8255 74.9326C27.6628 72.3658 25.5324 69.799 23.402 67.203C21.7881 65.2196 20.1419 63.2362 18.1729 61.5444C14.3317 58.2484 12.0077 54.0774 9.65132 49.9064C8.29561 47.4563 6.87535 45.0353 5.32597 42.6727C2.64684 38.5308 1.12974 34.0098 0.290496 29.3137C-1.06521 21.2633 2.42089 15.1672 9.26397 10.3837C9.74815 10.0336 10.3614 9.77113 10.9747 9.59613C15.6874 8.28356 20.4647 7.00017 25.9521 7.26268ZM39.8319 76.741C40.1547 75.6909 40.3161 74.5534 40.8971 73.62C43.0275 70.149 44.6737 66.4738 46.1908 62.7695C47.6111 59.3568 48.9345 55.915 51.2263 52.8523C52.4206 51.2481 53.4212 49.5564 54.551 47.9229C55.0029 47.2812 55.0351 46.7271 54.2282 46.3479C51.0971 44.9478 47.9661 43.4602 44.7382 42.2352C42.6079 41.4185 40.2838 40.8059 37.9597 40.8643C35.8939 40.9226 35.0546 40.4851 35.5065 38.7933C36.0876 36.5766 36.4426 34.3306 36.604 32.0847C36.8945 28.2637 37.8952 24.501 36.83 20.5925C35.8616 17.0923 34.2477 14.2338 30.6002 12.4838C26.5008 10.5295 22.0786 10.5295 17.6564 10.9087C16.4621 11.0254 15.2355 11.1712 14.1703 11.8129C9.03802 14.9047 6.52028 19.4258 6.16522 24.7343C5.90699 28.9929 7.39181 33.1347 9.39309 36.9558C11.7494 41.4476 14.6222 45.7353 16.914 50.2564C18.2697 52.9107 20.1742 55.215 22.3691 57.3151C24.3058 59.1526 25.9521 61.1361 27.6305 63.1487C30.5679 66.6488 33.1502 70.3532 36.0876 73.8533C37.1205 75.0492 39.2186 75.0201 39.8319 76.741Z" fill="#040404"/>
<path d="M101 22.8677C100.935 27.0096 99.9025 30.9764 97.869 34.6808C94.5443 40.8352 90.4449 46.5814 86.2164 52.24C84.0214 55.1568 82.0524 58.1902 79.4701 60.8445C76.1454 64.2572 72.8853 67.7282 69.9156 71.345C66.365 75.6911 62.1687 79.4537 58.1339 83.3623C57.3269 84.1498 56.9719 85.1998 55.939 85.8124C54.5187 86.6291 53.1953 87.5916 51.4845 87.9125C51.0326 88 50.6452 87.825 50.4839 87.6208C50.0965 87.1249 50.0965 86.5124 50.4839 85.9874C51.8073 84.0623 52.6465 81.9622 53.6472 79.9204C56.6491 73.766 60.0706 67.7282 62.4593 61.3987C64.5896 55.7401 66.4941 49.9357 66.5586 43.8104C66.5909 41.5061 65.3643 40.3394 63.5567 39.3185C60.6839 37.7143 57.4883 36.7517 54.3896 35.585C52.7434 34.9725 51.3554 34.0099 50.0965 32.9015C49.6769 32.5224 49.3864 32.1723 48.6117 32.4057C45.5452 33.3391 45.3838 32.2015 45.2224 30.1597C45.0288 27.6513 45.9648 25.2303 46.5781 22.7802C47.7724 18.0842 51.0649 14.6132 54.8415 11.4922C59.6833 7.52533 64.8802 3.93766 71.1745 2.04174C74.7574 0.962521 78.4695 -0.291705 82.3429 -0.0291926C85.7967 0.174984 89.0569 1.19587 91.7037 3.3543C96.3842 7.17532 99.612 11.7255 100.451 17.53C100.645 19.3676 101.097 21.0885 101 22.8677ZM63.9763 71.5492C66.0745 69.1866 68.1726 66.7948 70.2707 64.4322C72.7884 61.6029 75.5967 58.9778 77.6948 55.886C81.891 49.7315 86.2809 43.6354 89.9607 37.1892C93.5436 30.9473 95.6095 24.5303 93.5436 17.3258C92.2525 12.8339 89.6056 9.27541 85.9259 6.21277C83.5372 4.22934 80.503 3.50014 77.4043 3.55848C74.822 3.61681 72.4334 4.69603 70.2707 5.92109C63.8472 9.45042 57.7788 13.3298 53.7117 19.2801C53.0339 20.2718 52.8402 21.2051 53.0016 22.1385C53.2275 23.5969 53.8731 24.997 53.7763 26.5429C53.744 27.2429 53.97 28.0013 54.5833 28.5263C56.2295 29.8972 57.8757 31.2973 60.1029 31.8807C62.9112 32.6099 65.4612 33.8057 67.9789 35.06C70.658 36.4017 72.853 38.2393 72.7884 41.2436C72.7562 43.8396 72.4334 46.4647 71.9815 49.0606C71.6264 51.2191 70.3998 53.29 70.0125 55.3901C68.9473 61.107 65.784 66.0364 63.589 71.3159C63.4922 71.5492 63.1371 71.8117 63.4922 71.9867C63.815 72.1034 63.8795 71.7534 63.9763 71.5492Z" fill="#040404"/>
<path d="M39.8319 76.7409C39.2186 75.0492 37.1527 75.0491 36.1198 73.8533C33.1825 70.3531 30.6002 66.6196 27.6628 63.1486C25.9843 61.1652 24.3058 59.1526 22.4014 57.315C20.1742 55.2149 18.2697 52.9398 16.9463 50.2563C14.6545 45.7353 11.7494 41.4476 9.42535 36.9557C7.42408 33.1347 5.93926 28.9928 6.19749 24.7343C6.55255 19.4257 9.03801 14.9046 14.1703 11.842C15.2355 11.2003 16.4944 11.0545 17.6564 10.9378C22.0786 10.5294 26.5008 10.5294 30.6002 12.5129C34.2477 14.2629 35.8616 17.0922 36.83 20.6216C37.9274 24.5301 36.8945 28.2928 36.604 32.1138C36.4426 34.3597 36.0875 36.6057 35.5065 38.8224C35.0546 40.5434 35.8939 40.9517 37.9597 40.8934C40.2838 40.835 42.6078 41.4476 44.7382 42.2643C47.9661 43.4893 51.0649 44.9769 54.2282 46.377C55.0674 46.7561 55.0029 47.3103 54.551 47.952C53.4212 49.5854 52.4206 51.2772 51.2263 52.8814C48.9345 55.9441 47.611 59.3567 46.1908 62.7986C44.6737 66.5029 43.0275 70.1781 40.8971 73.6491C40.3161 74.5533 40.1547 75.6908 39.8319 76.7409Z" fill="#FEFEFE"/>
<path d="M63.6213 71.2866C65.8485 66.0072 69.0118 61.0778 70.0447 55.3608C70.4321 53.2316 71.6264 51.1898 72.0137 49.0314C72.4334 46.4646 72.7562 43.8395 72.8207 41.2143C72.8853 38.21 70.6903 36.3433 68.0112 35.0307C65.4934 33.7765 62.9434 32.5806 60.1352 31.8514C57.908 31.268 56.2617 29.8971 54.6155 28.4971C54.0022 27.972 53.7763 27.1845 53.8086 26.5136C53.8731 24.9677 53.2598 23.5677 53.0339 22.1093C52.8725 21.1759 53.0662 20.2133 53.744 19.2508C57.8434 13.3297 63.9118 9.42116 70.303 5.89183C72.4979 4.69594 74.8543 3.58755 77.4366 3.52921C80.5353 3.47088 83.5695 4.17091 85.9581 6.18351C89.6379 9.24615 92.2525 12.8047 93.5759 17.2965C95.6417 24.4719 93.5759 30.8888 89.993 37.16C86.3132 43.6061 81.9233 49.6731 77.7271 55.8567C75.629 58.9485 72.8207 61.6028 70.303 64.4029C68.2049 66.7655 66.1067 69.1573 64.0086 71.5199C63.8795 71.4616 63.7504 71.3741 63.6213 71.2866Z" fill="#FEFEFE"/>
<path d="M63.9763 71.5493C63.8795 71.7534 63.8149 72.1035 63.5567 71.9868C63.2017 71.8118 63.5244 71.5493 63.6536 71.3159C63.7504 71.3743 63.8795 71.4618 63.9763 71.5493Z" fill="#FEFEFE"/>
</g>
<defs>
<clipPath id="clip0_215_1103">
<rect width="101" height="88" fill="white"/>
</clipPath>
</defs>
</svg>
