<svg width="57" height="52" viewBox="0 0 57 52" fill="none" xmlns="http://www.w3.org/2000/svg">
<g clip-path="url(#clip0_215_1111)">
<path d="M57 23.8491C57.2967 17.1465 54.7153 11.5973 50.8579 6.54697C49.3446 4.55176 47.4753 2.96183 45.1906 1.99541C39.9386 -0.218023 34.4196 -0.436248 29.0193 0.623704C20.4144 2.30716 12.5216 5.95464 6.08279 12.4702C2.16608 16.4295 -0.237351 21.0122 0.0296972 26.9978C0.207729 31.2688 1.60232 35.3839 1.15723 39.7172C1.06822 40.5901 1.69133 40.6213 2.34412 40.559C3.50133 40.4654 4.18378 39.5302 5.10362 39.0002C6.91361 38.0026 7.21033 37.4103 6.8246 35.3839C6.34984 32.8275 5.87509 30.24 5.66739 27.6213C5.28165 23.1633 5.69706 18.8923 8.60492 15.2448C11.8985 11.1297 15.9933 8.32394 20.8595 6.67167C25.6367 5.05056 30.4732 4.64529 35.3988 5.20644C37.7429 5.45584 40.2056 5.73641 42.1343 7.13929C47.2973 10.9115 50.7392 16.0865 51.1843 22.7892C51.8074 32.4846 48.5435 40.4343 40.6804 46.0146C39.7606 46.6693 38.722 46.9498 37.6538 47.0745C32.6986 47.7292 28.3962 45.9522 24.3904 43.0841C23.2332 42.2736 22.3134 41.1513 21.72 39.8731C19.1682 34.1681 18.4264 28.3695 21.3046 22.5398C22.1354 20.8563 22.9662 19.204 24.9245 18.487C29.3753 16.8347 33.4701 17.8323 37.1494 20.5757C39.0484 21.9786 40.7101 23.8179 40.6211 26.6549C40.5617 28.5877 39.1375 29.71 38.2473 31.1441C37.2978 32.6717 36.0219 33.0769 34.3306 32.7028C32.8766 32.3911 31.4524 32.1729 30.1765 31.3C29.3753 30.77 29.6424 29.9594 29.6424 29.2112C29.6424 28.7748 29.9094 28.7124 30.2358 28.806C32.1645 29.1801 33.3217 27.4966 34.835 26.8419C35.3394 26.6237 35.9329 25.5638 35.3098 24.5973C34.924 23.9738 34.3603 23.9738 33.7668 23.8803C30.8886 23.4127 28.9006 25.5014 26.5565 26.5925C25.1619 27.2472 24.4795 28.5877 24.0641 30.053C23.3519 32.4534 24.0937 34.9786 25.8444 35.945C30.3249 38.4079 35.5175 38.439 39.8496 34.8227C41.7189 33.264 43.2915 31.3935 44.6565 29.3671C45.9027 27.559 46.8522 25.4702 46.1994 23.0697C44.6268 17.2088 39.7309 13.8108 34.3009 12.969C28.4258 12.0338 23.797 15.3383 19.1978 18.4247C18.3077 19.017 17.5955 19.9522 17.0318 20.9498C14.2129 25.7508 13.1447 30.9259 14.2426 36.475C15.4592 42.5853 18.1 47.4175 23.975 50.0362C29.0193 52.2808 33.9745 52.7484 38.9891 50.5661C42.9355 48.8515 46.4368 46.1705 49.4633 42.9906C54.4779 37.7532 56.4363 31.0817 57 23.8491Z" fill="#FEFEFE"/>
<path d="M57 23.849C56.4363 31.0504 54.4779 37.753 49.4633 42.9904C46.4368 46.1703 42.9355 48.8513 38.9891 50.566C34.0042 52.7482 29.0193 52.2806 23.975 50.036C18.0703 47.4485 15.4295 42.5852 14.2129 36.4748C13.1151 30.9257 14.2129 25.7506 17.0021 20.9497C17.5659 19.9521 18.278 19.048 19.1682 18.4245C23.7673 15.3382 28.3962 12.0336 34.2712 12.9689C39.7012 13.8106 44.5971 17.2087 46.1697 23.0696C46.8225 25.4701 45.8433 27.5588 44.6268 29.3669C43.2619 31.3933 41.6892 33.2326 39.8199 34.8226C35.4878 38.4389 30.3249 38.4077 25.8147 35.9449C24.0641 34.9784 23.3223 32.4533 24.0344 30.0528C24.4498 28.6187 25.1322 27.247 26.5268 26.5924C28.8413 25.5012 30.859 23.4125 33.7371 23.8801C34.3009 23.9737 34.8647 23.9737 35.2801 24.5972C35.9032 25.5948 35.3098 26.6547 34.8053 26.8418C33.2624 27.4964 32.1052 29.1799 30.2062 28.8058C29.8798 28.7434 29.6127 28.7746 29.6127 29.2111C29.6127 29.9593 29.316 30.7698 30.1468 31.2998C31.4227 32.1415 32.8766 32.3597 34.3009 32.7027C35.9922 33.0768 37.2681 32.7027 38.2176 31.1439C39.1078 29.7099 40.532 28.5876 40.5914 26.6547C40.6804 23.8178 39.0188 21.9784 37.1198 20.5756C33.4404 17.801 29.3457 16.8346 24.8652 18.4868C22.9068 19.2039 22.076 20.8873 21.2452 22.5396C18.367 28.3693 19.1385 34.1679 21.6606 39.8729C22.2541 41.1823 23.1739 42.2734 24.3311 43.084C28.3368 45.9209 32.6096 47.729 37.5945 47.0744C38.6627 46.9185 39.7012 46.6691 40.6211 46.0144C48.4841 40.4341 51.7481 32.4844 51.125 22.789C50.7392 16.0864 47.3269 10.9113 42.1343 7.13912C40.2056 5.73624 37.7429 5.45567 35.3988 5.20627C30.4732 4.64511 25.6367 5.05039 20.8595 6.67149C15.9636 8.32377 11.8985 11.1295 8.60492 15.2446C5.69706 18.8921 5.28165 23.1631 5.66739 27.6211C5.90476 30.2087 6.34984 32.7962 6.8246 35.3837C7.18066 37.4101 6.91361 38.0024 5.10362 39C4.18378 39.4988 3.50133 40.4341 2.34412 40.5588C1.69133 40.6211 1.06822 40.59 1.15723 39.7171C1.60232 35.4149 0.207729 31.2686 0.0296972 26.9976C-0.237351 21.012 2.16608 16.4293 6.08279 12.4701C12.5216 5.95447 20.4144 2.30699 29.0193 0.623532C34.3899 -0.43642 39.9386 -0.218195 45.1609 2.02641C47.4456 2.99284 49.315 4.61394 50.8282 6.57797C54.6856 11.5972 57.2671 17.1463 57 23.849Z" fill="#040404"/>
</g>
<defs>
<clipPath id="clip0_215_1111">
<rect width="57" height="52" fill="white"/>
</clipPath>
</defs>
</svg>
