<svg width="64" height="49" viewBox="0 0 64 49" fill="none" xmlns="http://www.w3.org/2000/svg">
<g clip-path="url(#clip0_215_1114)">
<path d="M64 22.4727C64.3332 16.1568 61.4347 10.9277 57.1036 6.16876C55.4045 4.28866 53.3056 2.79046 50.7402 1.87979C44.8433 -0.205942 38.6465 -0.411578 32.583 0.587223C22.9214 2.17355 14.0593 5.6106 6.82977 11.7503C2.43207 15.4811 -0.266528 19.7994 0.0333155 25.4397C0.233211 29.4643 1.79906 33.342 1.29932 37.4253C1.19937 38.2479 1.89901 38.2773 2.63196 38.2185C3.93128 38.1304 4.69755 37.2491 5.73035 36.7497C7.76262 35.8096 8.09578 35.2515 7.66267 33.342C7.12962 30.9331 6.59656 28.4949 6.36335 26.0273C5.93024 21.8264 6.39667 17.8018 9.66163 14.3648C13.3597 10.4871 17.9573 7.84322 23.4211 6.28626C28.785 4.75869 34.2155 4.37679 39.746 4.90557C42.3779 5.14058 45.1432 5.40497 47.3087 6.72691C53.1057 10.2815 56.9703 15.158 57.4701 21.4739C58.1697 30.61 54.5049 38.101 45.6762 43.3594C44.6434 43.9763 43.4774 44.2407 42.278 44.3582C36.7142 44.9751 31.8834 43.3006 27.3857 40.598C26.0864 39.8342 25.0536 38.7767 24.3873 37.5722C21.5221 32.1963 20.6892 26.7323 23.9209 21.2389C24.8537 19.6526 25.7866 18.0956 27.9854 17.42C32.9828 15.863 37.5804 16.803 41.7116 19.3882C43.8438 20.7101 45.7095 22.4433 45.6096 25.1166C45.5429 26.9379 43.9438 27.9955 42.9443 29.3468C41.8782 30.7863 40.4456 31.1682 38.5466 30.8156C36.9141 30.5219 35.3149 30.3162 33.8823 29.4937C32.9828 28.9943 33.2827 28.2305 33.2827 27.5255C33.2827 27.1142 33.5825 27.0554 33.949 27.1436C36.1145 27.4961 37.4138 25.9098 39.113 25.2929C39.6793 25.0872 40.3456 24.0884 39.646 23.1777C39.2129 22.5902 38.5799 22.5902 37.9136 22.5021C34.6819 22.0614 32.4498 24.0297 29.8178 25.0578C28.2519 25.6748 27.4857 26.9379 27.0193 28.3186C26.2197 30.5806 27.0526 32.9601 29.0182 33.8708C34.0489 36.1915 39.8792 36.2209 44.7434 32.8132C46.8423 31.3444 48.608 29.5818 50.1405 27.6724C51.5398 25.9685 52.6059 24.0003 51.873 21.7383C50.1072 16.2155 44.6101 13.0135 38.5133 12.2203C31.9167 11.339 26.7194 14.4529 21.5554 17.3612C20.556 17.9194 19.7564 18.8006 19.1234 19.7407C15.9584 24.2647 14.759 29.1412 15.9917 34.3702C17.3576 40.128 20.3227 44.6813 26.9193 47.149C32.583 49.2641 38.1468 49.7047 43.7772 47.6484C48.2082 46.0327 52.1395 43.5063 55.5377 40.5099C61.1681 35.5746 63.367 29.2881 64 22.4727Z" fill="#FEFEFE"/>
<path d="M64 22.4726C63.367 29.2586 61.1681 35.5746 55.5377 40.5098C52.1395 43.5062 48.2082 46.0326 43.7772 47.6483C38.1801 49.7047 32.583 49.264 26.9193 47.1489C20.2894 44.7106 17.3243 40.1279 15.9584 34.3701C14.7257 29.1411 15.9584 24.2646 19.0901 19.7406C19.7231 18.8006 20.5226 17.9487 21.5221 17.3611C26.6861 14.4529 31.8834 11.3389 38.48 12.2202C44.5768 13.0134 50.0739 16.2154 51.8397 21.7382C52.5726 24.0002 51.4732 25.9684 50.1072 27.6723C48.5747 29.5817 46.809 31.315 44.71 32.8132C39.8459 36.2208 34.0489 36.1915 28.9849 33.8707C27.0193 32.96 26.1864 30.5806 26.9859 28.3186C27.4524 26.9672 28.2186 25.6747 29.7845 25.0578C32.3831 24.0296 34.6486 22.0614 37.8803 22.502C38.5133 22.5901 39.1463 22.5901 39.6127 23.1777C40.3123 24.1177 39.646 25.1165 39.0796 25.2928C37.3472 25.9097 36.0479 27.496 33.9157 27.1435C33.5492 27.0847 33.2493 27.1141 33.2493 27.5254C33.2493 28.2304 32.9162 28.9942 33.849 29.4936C35.2816 30.2868 36.9141 30.4924 38.5133 30.8156C40.4123 31.1681 41.8449 30.8156 42.911 29.3467C43.9105 27.9954 45.5096 26.9379 45.5763 25.1165C45.6762 22.4433 43.8105 20.71 41.6783 19.3881C37.5471 16.7736 32.9495 15.8629 27.9188 17.4199C25.7199 18.0955 24.7871 19.6819 23.8542 21.2388C20.6226 26.7322 21.4888 32.1963 24.3207 37.5722C24.987 38.806 26.0198 39.8341 27.3191 40.5979C31.8168 43.2712 36.6143 44.975 42.2113 44.3581C43.4107 44.2112 44.5768 43.9762 45.6096 43.3593C54.4383 38.1009 58.1031 30.6099 57.4034 21.4738C56.9703 15.1579 53.139 10.2814 47.3087 6.72683C45.1432 5.40489 42.3779 5.1405 39.746 4.90549C34.2155 4.37671 28.785 4.75861 23.4211 6.28619C17.924 7.84314 13.3597 10.487 9.66163 14.3647C6.39667 17.8018 5.93024 21.8264 6.36335 26.0272C6.62988 28.4654 7.12962 30.9037 7.66267 33.3419C8.06247 35.2514 7.76262 35.8096 5.73035 36.7496C4.69755 37.2196 3.93129 38.1009 2.63196 38.2184C1.89901 38.2772 1.19937 38.2478 1.29932 37.4253C1.79906 33.3713 0.233211 29.4642 0.0333155 25.4397C-0.266528 19.7994 2.43207 15.481 6.82978 11.7502C14.0593 5.61053 22.9214 2.17348 32.583 0.587146C38.6132 -0.411655 44.8433 -0.20602 50.7069 1.90909C53.2723 2.81976 55.3712 4.34734 57.0703 6.19806C61.4014 10.9277 64.2998 16.1567 64 22.4726Z" fill="#040404"/>
</g>
<defs>
<clipPath id="clip0_215_1114">
<rect width="64" height="49" fill="white"/>
</clipPath>
</defs>
</svg>
