<svg width="137" height="116" viewBox="0 0 137 116" fill="none" xmlns="http://www.w3.org/2000/svg">
<g clip-path="url(#clip0_215_1117)">
<path d="M46.4508 55.5358C46.4881 54.2941 47.2349 53.3158 47.7204 52.2247C48.9152 49.6285 49.9981 46.769 52.1265 44.9629C57.5781 40.2974 63.2911 36.008 70.647 34.6159C75.0905 33.7881 79.4966 33.7505 83.94 34.1644C84.9109 34.2396 86.1431 34.5783 86.5538 35.406C87.0019 36.2714 85.6577 36.6853 85.2843 37.4378C85.2469 37.5507 85.1722 37.6636 85.1349 37.7764C79.982 45.6026 78.003 54.2565 78.4137 63.5877C78.4511 64.3025 78.4884 65.0551 78.7125 65.77C79.6833 69.4196 83.0439 71.7901 87.45 68.3285C90.6612 65.77 93.2377 62.7223 94.918 58.9597C96.8596 54.5951 99.3987 50.4187 100.22 45.6402C100.706 42.7807 101.191 39.8082 99.5855 37.0615C98.8013 35.6694 97.8678 34.3149 96.8223 33.1108C96.0382 32.1702 96.1128 31.7187 96.9717 30.9286C100.482 27.8056 104.029 24.7203 108.062 22.237C116.127 17.3081 122.998 10.5354 131.996 6.99862C133.826 6.28373 135.32 4.44007 136.627 2.78454C137.299 1.95678 137.037 0.978509 136.664 0.338873C136.253 -0.376016 135.469 0.301247 134.872 0.564627C132.295 1.76865 129.644 2.85979 127.18 4.25194C119.525 8.61652 112.916 14.5238 105.41 19.1517C101.154 21.7855 97.5317 25.3976 93.7978 28.7463C93.275 29.1978 92.9763 29.6869 92.0801 29.1978C90.0264 28.0314 87.7487 27.6175 85.3963 27.3541C79.0858 26.6769 73.0741 27.8433 67.2118 30.1008C63.5898 31.4929 60.5279 33.8257 57.3914 36.0457C50.4462 40.9746 43.8743 46.2046 40.9618 54.708C40.7005 55.4981 40.103 55.5734 39.3936 55.6486C36.7798 55.8368 34.2033 56.3259 31.7389 57.2289C24.4576 59.9003 18.8193 64.9798 13.3303 70.2098C10.0818 73.2951 8.10275 77.2458 6.38511 81.3094C4.29408 86.2383 2.42709 91.2425 1.41891 96.5854C0.709453 100.423 0.858813 104.299 0.410734 108.136C0.186695 109.98 0.186695 111.899 0.0373353 113.743C-4.53401e-06 114.495 -0.0373444 115.323 0.634773 115.774C1.38157 116.301 2.24039 115.812 2.83783 115.361C4.07004 114.42 5.19024 113.404 6.27309 112.313C6.60915 111.974 7.01989 111.109 6.83319 110.846C5.97438 109.642 6.60915 108.437 6.60915 107.271C6.53447 104.524 6.94521 101.815 7.13191 99.0687C7.46797 94.1021 8.70019 89.286 10.6045 84.658C12.1728 80.8202 13.5544 76.8695 15.9815 73.4832C20.9103 66.5977 27.8182 63.0985 36.033 62.045C38.1987 61.744 38.1987 61.8569 37.7506 64.1144C37.6386 64.6036 37.6013 65.0927 37.4892 65.5818C36.6678 69.8712 36.2197 74.2357 36.6304 78.6003C37.1158 83.454 39.6923 87.4423 42.6048 91.1297C44.0237 92.9357 45.7413 93.1238 47.9071 92.1456C48.6912 91.8069 49.4753 91.4683 50.1848 90.9792C54.5535 87.8562 58.1755 84.0184 61.2374 79.5786C63.6645 76.0794 63.6271 72.5049 61.8722 68.8553C60.9013 66.8235 59.7438 64.9046 58.3249 63.2114C55.151 59.4865 51.7904 55.9496 46.4508 55.5358Z" fill="#FEFEFE"/>
<path d="M46.4508 55.5354C51.7904 55.9492 55.151 59.4861 58.3249 63.2486C59.7811 64.9794 60.9387 66.8607 61.8722 68.8925C63.6271 72.5798 63.6645 76.1166 61.2374 79.6158C58.1755 84.0556 54.5535 87.8935 50.1848 91.0164C49.5127 91.5055 48.6912 91.8442 47.9071 92.1828C45.7413 93.1987 44.0237 92.9729 42.6048 91.1669C39.6923 87.442 37.0785 83.4913 36.6304 78.6375C36.2197 74.273 36.6304 69.9084 37.4892 65.619C37.6013 65.1299 37.6386 64.6408 37.7506 64.1516C38.1987 61.8941 38.1987 61.8189 36.033 62.0822C27.8182 63.1734 20.9103 66.6349 15.9815 73.5204C13.5544 76.9068 12.1728 80.8575 10.6045 84.6953C8.70019 89.3232 7.46797 94.1393 7.13191 99.1059C6.94521 101.815 6.57181 104.562 6.60915 107.308C6.64649 108.475 6.01171 109.679 6.83319 110.883C7.01989 111.109 6.60915 111.974 6.27309 112.35C5.19024 113.441 4.0327 114.457 2.83783 115.398C2.24039 115.849 1.41891 116.301 0.634773 115.812C-0.0373444 115.36 -4.53401e-06 114.532 0.0373353 113.78C0.149355 111.899 0.186695 110.017 0.410734 108.174C0.858813 104.336 0.709453 100.46 1.41891 96.6226C2.38975 91.3174 4.25674 86.2756 6.38511 81.3466C8.10275 77.283 10.0818 73.3323 13.3303 70.247C18.8193 65.017 24.495 59.9376 31.7389 57.2661C34.166 56.3631 36.7798 55.874 39.3936 55.6859C40.1404 55.6482 40.7005 55.5354 40.9618 54.7452C43.8743 46.2418 50.4088 40.9742 57.3914 36.0829C60.5279 33.863 63.5898 31.5302 67.2118 30.138C73.0741 27.8805 79.0858 26.7141 85.3963 27.3913C87.786 27.6547 90.0264 28.0686 92.0801 29.235C92.9389 29.7241 93.275 29.235 93.7978 28.7835C97.5317 25.4348 101.154 21.8227 105.41 19.1889C112.916 14.561 119.525 8.65375 127.18 4.28917C129.644 2.89702 132.295 1.80587 134.872 0.60185C135.469 0.338471 136.253 -0.376418 136.664 0.376096C137.037 1.01573 137.299 1.994 136.627 2.82177C135.282 4.4773 133.826 6.32096 131.996 7.03584C122.96 10.535 116.09 17.3077 108.024 22.2366C103.992 24.7199 100.444 27.7676 96.9343 30.9282C96.0382 31.7183 95.9635 32.1698 96.785 33.1105C97.8305 34.3145 98.7266 35.669 99.5481 37.0611C101.116 39.7702 100.668 42.7803 100.183 45.6398C99.3614 50.4183 96.785 54.5571 94.8806 58.9593C93.2003 62.7595 90.6612 65.8072 87.4126 68.3281C83.0439 71.7897 79.6833 69.4569 78.6751 65.7696C78.4884 65.017 78.4137 64.3022 78.3764 63.5873C77.9657 54.2937 79.982 45.6398 85.0976 37.776C85.1722 37.6632 85.2096 37.5503 85.2469 37.4374C85.6203 36.6849 86.9646 36.2334 86.5165 35.4056C86.1057 34.5779 84.9109 34.2768 83.9027 34.164C79.4592 33.7501 75.0531 33.7877 70.6097 34.6155C63.2537 35.97 57.5407 40.297 52.0891 44.9625C49.9607 46.7686 48.8779 49.6281 47.683 52.2243C47.2349 53.3154 46.4881 54.2937 46.4508 55.5354ZM56.4205 76.6434C56.3832 76.1542 56.5326 75.477 56.3085 74.9126C54.2548 69.3816 50.5582 65.2804 45.3679 62.5337C44.4718 62.0446 44.1357 62.3832 43.949 63.3991C43.5383 65.8072 43.4263 68.2529 43.1276 70.6609C42.4928 75.9661 44.2851 80.4059 47.2349 84.5824C48.6539 86.5766 50.1474 86.6518 51.7531 84.7705C52.9853 83.3031 54.1428 81.7228 55.375 80.2554C56.2338 79.2396 56.6072 78.1108 56.4205 76.6434ZM84.7615 58.7712C84.5375 59.7494 84.9482 60.7653 85.0602 61.8189C85.1349 62.5714 85.471 63.1734 86.2178 63.3239C87.0019 63.4744 87.1886 62.7595 87.4873 62.2327C89.653 58.2444 91.7441 54.1432 93.1256 49.8163C94.2832 46.1289 94.6566 42.2535 91.5947 38.9424C90.6986 37.9265 90.4372 37.776 89.7651 39.0553C86.4791 45.1507 84.7615 51.6599 84.7615 58.7712Z" fill="#040404"/>
<path d="M56.4206 76.6435C56.6073 78.1109 56.2339 79.2021 55.375 80.2556C54.1428 81.723 52.9853 83.3033 51.7531 84.7707C50.1848 86.652 48.6539 86.5767 47.2349 84.5825C44.2851 80.4437 42.4928 75.9663 43.1276 70.661C43.4263 68.253 43.5383 65.8073 43.949 63.3993C44.1357 62.3458 44.4718 62.0448 45.3679 62.5339C50.5582 65.2806 54.2548 69.3818 56.3085 74.9127C56.4952 75.5148 56.3832 76.192 56.4206 76.6435Z" fill="#FEFEFE"/>
<path d="M84.7615 58.7714C84.7615 51.6977 86.4791 45.1509 89.7651 39.0179C90.4372 37.7762 90.6986 37.9267 91.5947 38.905C94.6192 42.2161 94.2832 46.0915 93.1256 49.7788C91.7441 54.1058 89.6904 58.207 87.4873 62.1953C87.1886 62.7221 87.0392 63.4369 86.2178 63.2864C85.471 63.1359 85.1349 62.5716 85.0602 61.7814C84.9856 60.7655 84.5748 59.7496 84.7615 58.7714Z" fill="#FEFEFE"/>
</g>
<defs>
<clipPath id="clip0_215_1117">
<rect width="137" height="116" fill="white"/>
</clipPath>
</defs>
</svg>
