<svg width="47" height="85" viewBox="0 0 47 85" fill="none" xmlns="http://www.w3.org/2000/svg">
<g clip-path="url(#clip0_215_1127)">
<path d="M38.5304 50.6229C38.6181 53.0662 39.0131 55.4666 38.4426 57.867C37.4771 62.1106 34.9757 65.6254 32.5621 69.0974C30.5873 71.9265 28.3492 74.5412 25.6284 76.7273C24.8385 77.3703 24.0486 78.0561 23.127 76.7273C22.732 76.1272 22.0738 75.8271 21.8982 77.0274C21.8105 77.6275 21.1522 77.4989 20.7134 77.7132C19.3968 78.399 18.2558 79.4278 17.2026 80.4136C16.1933 81.3567 16.5005 83.1141 17.4659 84.1428C18.3436 85.043 19.7479 85.2144 20.9328 84.7001C22.6004 83.9714 24.3996 83.2427 25.8039 82.1711C34.3175 75.6557 41.3828 67.8972 45.2885 57.9099C47.3072 52.7233 48.0093 47.0652 44.5425 42.393C42.2605 39.3496 42.0411 36.4348 42.1289 33.1343C42.1289 33.0057 42.1289 32.8342 42.1289 32.7056C41.7339 28.6764 40.6368 24.99 36.8189 22.804C36.0728 22.3753 36.38 22.0324 36.5556 21.6895C37.6527 19.5034 38.0915 17.1887 38.2232 14.7455C38.662 4.62947 27.9543 -3.12898 17.3343 1.28605C12.2876 3.3864 8.29412 6.94414 4.43231 10.5876C2.98413 11.9593 2.19422 13.7167 2.28199 15.7742C2.36975 18.2175 3.77405 18.8176 6.23157 18.046C7.59198 17.6174 7.54809 16.1171 8.55743 15.9457C9.7423 15.7313 10.4006 15.0884 10.4445 14.1454C10.4883 13.0737 9.56677 12.4308 8.42578 12.2165C9.96172 10.0304 12.0243 8.78731 14.1746 7.88716C18.8263 5.95826 25.409 6.42977 28.8758 11.102C31.2895 14.3168 31.07 17.746 30.3679 21.3466C30.1923 22.161 29.6657 22.5039 28.8758 22.6325C18.7825 24.5614 11.366 30.6053 4.95892 37.9779C2.63306 40.6355 0.789922 43.7646 0.175543 47.3224C-0.0438783 48.6512 -0.263299 50.1514 0.921575 51.0516C2.01868 51.9088 3.15967 51.0516 4.30066 50.5372C14.2624 45.8221 22.6004 39.0495 29.9729 31.0768C31.2895 29.6622 32.0355 29.748 33.0448 31.3768C34.098 33.0057 34.2736 34.806 34.4052 36.6491C34.493 37.5493 33.9225 37.6779 33.3081 37.9779C24.3557 41.9214 18.0364 48.394 14.1307 57.1383C13.0775 59.4958 12.8142 62.0248 12.9897 64.5967C13.1653 67.1686 14.0868 67.8115 16.676 67.3829C19.0458 66.9971 21.1522 65.9255 23.0831 64.6396C29.0075 60.8246 34.3614 56.4096 38.5304 50.6229Z" fill="#FEFEFE"/>
<path d="M38.5303 50.6227C34.3613 56.4094 29.0075 60.8245 23.127 64.6823C21.1522 65.9682 19.0896 67.0398 16.7199 67.4256C14.1307 67.8542 13.2091 67.2113 13.0336 64.6394C12.8581 62.1104 13.1214 59.5385 14.1746 57.181C18.0803 48.4367 24.3996 41.9642 33.352 38.0206C33.9664 37.7634 34.493 37.592 34.4491 36.6918C34.3175 34.8487 34.1419 33.0484 33.0887 31.4195C32.0355 29.7907 31.2894 29.7049 30.0168 31.1195C22.6443 39.1351 14.2624 45.8648 4.30065 50.5799C3.15966 51.0943 2.01867 51.9515 0.921562 51.0943C-0.263312 50.1941 -0.0877749 48.6939 0.17553 47.3651C0.78991 43.7645 2.67693 40.6782 4.95891 38.0206C11.366 30.648 18.7824 24.6041 28.8758 22.6752C29.6657 22.5037 30.2362 22.2037 30.3679 21.3893C31.07 17.7887 31.2456 14.3595 28.8758 11.1447C25.3651 6.47248 18.7824 6.00097 14.1746 7.92986C11.9804 8.83001 9.96171 10.0731 8.42576 12.2592C9.56675 12.4306 10.4883 13.0736 10.4444 14.1881C10.4006 15.1739 9.78617 15.774 8.55742 15.9884C7.54808 16.1598 7.59196 17.6601 6.23155 18.0887C3.77404 18.8603 2.36974 18.2602 2.28197 15.8169C2.1942 13.7165 2.98412 11.9591 4.4323 10.5875C8.29411 6.94398 12.2876 3.38624 17.3343 1.28589C27.9104 -3.12914 38.6181 4.62931 38.2231 14.7024C38.1354 17.1886 37.6527 19.4604 36.5556 21.6465C36.38 22.0322 36.0728 22.3323 36.8189 22.7609C40.6368 24.947 41.7778 28.6333 42.1288 32.6626C42.1288 32.7912 42.1288 32.9626 42.1288 33.0912C41.9972 36.3918 42.2605 39.3066 44.5425 42.3499C48.0093 47.0221 47.3072 52.6802 45.2885 57.8668C41.3828 67.8971 34.3175 75.6127 25.8039 82.128C24.3557 83.2425 22.6004 83.9283 20.9328 84.657C19.7479 85.1714 18.2997 85 17.4659 84.0998C16.5005 83.0711 16.1933 81.3136 17.2026 80.3706C18.2558 79.3847 19.3968 78.3988 20.7133 77.6701C21.1083 77.4558 21.8105 77.5844 21.8982 76.9843C22.0738 75.7841 22.732 76.0842 23.127 76.6843C24.0485 78.0131 24.7946 77.3272 25.6284 76.6843C28.3931 74.5411 30.6312 71.8835 32.5621 69.0544C34.9757 65.5824 37.4771 62.0675 38.4426 57.824C38.9692 55.4664 38.6181 53.066 38.5303 50.6227ZM20.5378 60.1386C27.6909 57.5239 31.4211 52.4231 33.7908 46.122C34.098 45.3076 33.747 45.0075 32.8254 45.0075C31.0261 45.0075 29.1391 45.2647 27.9542 46.422C24.0924 50.0655 21.3277 54.3519 20.5378 60.1386ZM24.3996 30.4765C18.4314 30.4765 10.3567 36.8204 8.77684 42.6928C14.8767 39.6923 19.9234 35.706 24.3996 30.4765Z" fill="#040404"/>
<path d="M20.5378 60.1384C21.3716 54.3946 24.1363 50.0653 27.9542 46.4218C29.1391 45.2645 31.07 45.0073 32.8254 45.0073C33.7031 45.0073 34.098 45.3074 33.7908 46.1218C31.4211 52.4229 27.6909 57.4809 20.5378 60.1384Z" fill="#FEFEFE"/>
<path d="M24.3996 30.4766C19.9234 35.706 14.8768 39.6924 8.77686 42.7358C10.3567 36.8205 18.4314 30.4766 24.3996 30.4766Z" fill="#FEFEFE"/>
</g>
<defs>
<clipPath id="clip0_215_1127">
<rect width="47" height="85" fill="white"/>
</clipPath>
</defs>
</svg>
