<svg width="120" height="111" viewBox="0 0 120 111" fill="none" xmlns="http://www.w3.org/2000/svg">
<g clip-path="url(#clip0_215_1132)">
<path d="M41.4143 54.147C40.9775 53.3615 40.8779 52.6121 40.9993 51.869C41.6663 47.6445 42.3967 43.4612 43.0955 39.2573C43.6628 35.8813 44.4095 32.576 44.6714 29.1846C44.8255 27.0017 44.1423 25.5542 42.5737 25.5415C39.3732 25.475 36.0838 24.7117 33.1949 27.2215C31.562 28.628 29.399 29.4626 27.4906 30.5992C22.7612 33.3766 18.2757 36.4033 14.9264 40.943C13.2781 43.2071 11.4286 45.295 9.64248 47.4241C6.98012 50.7656 4.09575 53.9631 1.64542 57.5334C1.2911 58.0798 0.809923 58.544 1.30921 59.233C1.86195 60.048 4.96193 60.8254 5.40958 60.0656C6.35746 58.5344 8.04836 57.9416 9.11403 56.715C11.2871 54.1977 13.3015 51.5774 15.7391 49.2773C18.9823 46.2211 21.3149 42.3462 24.5789 39.2579C28.1565 35.825 32.5007 33.7111 36.9264 31.1935C36.2032 34.8793 35.4674 38.2373 34.8792 41.6454C34.108 46.0306 32.968 50.3593 33.2398 54.8729C33.3566 56.638 34.2709 58.007 35.8839 58.3681C39.6689 59.2702 43.386 59.4434 47.0352 57.2896C52.1523 54.2616 56.8554 50.6911 61.7387 47.3288C64.2851 45.5557 66.6076 43.3636 69.6297 41.899C69.5318 43.0226 69.4638 43.8916 69.3959 44.7607C68.9844 49.4248 66.7488 53.6366 66.0419 58.2005C65.6685 60.6521 64.7596 63.3043 66.7939 65.3083C68.3833 66.8868 70.5934 66.8133 72.8462 66.8131C77.7938 66.8255 82.1724 65.1448 86.368 62.8432C91.0565 60.2677 95.5212 57.2731 100.21 54.6976C101.342 54.0624 102.357 52.985 103.882 52.9244C103.629 54.3579 103.606 55.7129 103.331 57.0409C102.536 61.0455 100.105 64.3086 98.4543 67.8955C97.2708 70.4154 97.2817 72.066 98.7669 73.8053C99.8488 75.0547 102.019 75.3206 104.15 74.4655C104.906 74.1337 105.409 73.775 105.36 72.7389C105.3 71.65 104.998 70.4493 105.717 69.4092C107.511 66.7826 109.029 64.0236 110.115 61.0293C111.584 57.0966 111.883 52.9532 111.824 48.8059C111.819 47.9806 111.758 46.7541 110.558 46.798C107.285 46.9127 104.027 46.0324 100.787 48.0408C96.143 50.9647 90.9996 53.1996 86.4297 56.2173C82.4154 58.8647 78.3566 61.1637 73.7026 62.5745C73.5358 61.2336 73.5069 60.0278 73.7407 58.764C74.2482 55.8971 75.3148 53.2102 76.086 50.423C76.9088 47.4866 77.458 44.5555 77.4064 41.5087C77.3756 38.4297 75.9131 36.9335 72.7868 36.9608C70.2605 36.9662 67.7604 36.1668 65.2548 37.738C60.4321 40.7288 56.0345 44.3147 51.3396 47.5253C48.1118 49.7239 44.9701 52.2067 41.4143 54.147Z" fill="#FEFEFE"/>
<path d="M41.4143 54.1468C44.9384 52.1859 48.0801 49.7031 51.3813 47.4608C56.0553 44.2823 60.453 40.6964 65.2965 37.6735C67.8021 36.1023 70.3022 36.9017 72.8285 36.8963C75.934 36.9011 77.4173 38.3652 77.4481 41.4442C77.468 44.4704 76.9188 47.4016 76.1277 50.3585C75.3565 53.1457 74.2899 55.8326 73.7824 58.6995C73.5486 59.9633 73.5567 61.2013 73.7443 62.51C78.3666 61.0787 82.4462 58.7475 86.4714 56.1528C91.073 53.1556 96.1847 50.9002 100.829 47.9763C104.037 45.9474 107.327 46.8482 110.6 46.7335C111.8 46.6896 111.829 47.8955 111.866 48.7414C111.925 52.8887 111.646 57 110.157 60.9648C109.039 63.9385 107.521 66.6975 105.759 69.3447C105.039 70.3848 105.374 71.606 105.402 72.6743C105.43 73.7427 104.959 74.1219 104.192 74.401C102.061 75.2561 99.8905 74.9902 98.8086 73.7408C97.2917 71.981 97.3125 70.3509 98.496 67.831C100.167 64.2119 102.609 61.0016 103.372 56.9764C103.616 55.6278 103.67 54.2934 103.924 52.8599C102.398 52.9205 101.384 53.9979 100.251 54.6331C95.5629 57.2086 91.0982 60.2032 86.4097 62.7786C82.2141 65.0803 77.8355 66.761 72.8879 66.7486C70.6351 66.7488 68.425 66.8223 66.8356 65.2438C64.8013 63.2398 65.7102 60.5876 66.0836 58.1359C66.7905 53.5721 69.0261 49.3603 69.4375 44.6962C69.5055 43.8271 69.5735 42.9581 69.6714 41.8345C66.6493 43.2991 64.3268 45.4912 61.7804 47.2643C56.9288 50.6471 52.194 54.1971 47.0769 57.2251C43.4069 59.411 39.7106 59.2057 35.9256 58.3036C34.3126 57.9425 33.3983 56.5735 33.2815 54.8084C33.0097 50.2948 34.1497 45.9661 34.9209 41.5809C35.5091 38.1728 36.2449 34.8148 36.9681 31.129C32.5324 33.7314 28.1882 35.8454 24.6106 39.2782C21.3783 42.3871 18.9932 46.2736 15.7708 49.2976C13.3332 51.5978 11.3188 54.218 9.14576 56.7354C8.05925 57.9941 6.38918 58.5547 5.44131 60.086C4.96193 60.8252 1.8828 60.0156 1.34093 59.2533C0.841646 58.5643 1.34367 58.068 1.67714 57.5538C4.09575 53.9629 6.98013 50.7654 9.72676 47.4329C11.4811 45.2832 13.3306 43.1953 15.0107 40.9518C18.3391 36.4442 22.8455 33.3853 27.5748 30.608C29.4832 29.4714 31.6254 28.6689 33.2792 27.2302C36.1998 24.741 39.4892 25.5043 42.658 25.5503C44.2057 25.5951 44.9098 27.0105 44.7557 29.1934C44.4938 32.5848 43.7262 35.9222 43.1797 39.266C42.481 43.47 41.7506 47.6533 41.0836 51.8778C40.9096 52.6324 41.0092 53.3819 41.4143 54.1468Z" fill="#040404"/>
</g>
<defs>
<clipPath id="clip0_215_1132">
<rect width="95.6713" height="70.2563" fill="white" transform="translate(38.9531) rotate(32.9615)"/>
</clipPath>
</defs>
</svg>
