<svg width="117" height="108" viewBox="0 0 117 108" fill="none" xmlns="http://www.w3.org/2000/svg">
<g clip-path="url(#clip0_215_1135)">
<path d="M39.8457 52.3926C39.4045 51.6261 39.2946 50.8999 39.4018 50.1834C39.9883 46.1096 40.6377 42.0766 41.2556 38.0232C41.7579 34.7682 42.4374 31.5844 42.6398 28.3096C42.7559 26.2015 42.0621 24.791 40.5227 24.7534C37.3811 24.6376 34.141 23.8466 31.3467 26.2266C29.767 27.5603 27.6579 28.3324 25.8036 29.4007C21.2076 32.0098 16.8548 34.864 13.6414 39.1994C12.0604 41.3619 10.2792 43.3509 8.56087 45.3807C6.0022 48.5686 3.22337 51.6138 0.87645 55.0263C0.537569 55.5489 0.0728793 55.9899 0.573907 56.6642C1.12942 57.4611 4.18384 58.2627 4.61087 57.5352C5.51633 56.07 7.16601 55.5241 8.19196 54.3553C10.2837 51.9563 12.2182 49.4554 14.5731 47.2707C17.7064 44.368 19.9328 40.659 23.0859 37.7256C26.5412 34.4641 30.77 32.4901 35.0723 30.1272C34.422 33.6793 33.754 36.9142 33.2317 40.1999C32.5456 44.4274 31.4967 48.5943 31.836 52.9628C31.9791 54.6713 32.8984 56.0097 34.4869 56.3848C38.2156 57.3179 41.8658 57.5452 45.4119 55.5216C50.3844 52.6763 54.9418 49.2998 59.6796 46.1276C62.1497 44.4543 64.3934 42.3721 67.3353 41.0047C67.2573 42.0895 67.2046 42.9287 67.1519 43.7679C66.8232 48.2709 64.6974 52.3071 64.0772 56.7084C63.7503 59.0728 62.9012 61.6225 64.9296 63.5929C66.5147 65.1447 68.6822 65.1093 70.8927 65.1453C75.7479 65.2369 80.0174 63.6824 84.0973 61.5247C88.6565 59.11 92.9894 56.2865 97.5486 53.8719C98.6498 53.276 99.6275 52.2506 101.124 52.2166C100.898 53.5985 100.898 54.9082 100.649 56.1878C99.9332 60.047 97.6001 63.1628 96.0386 66.6043C94.9178 69.0216 94.9551 70.6178 96.4404 72.3233C97.5222 73.5488 99.6561 73.8408 101.734 73.0484C102.47 72.7398 102.958 72.401 102.893 71.3984C102.817 70.3446 102.5 69.1788 103.19 68.1848C104.907 65.6741 106.353 63.0309 107.37 60.1534C108.748 56.3746 108.975 52.3732 108.85 48.3624C108.832 47.5643 108.753 46.3776 107.576 46.4006C104.366 46.4589 101.154 45.5552 98.0079 47.4449C93.4978 50.1972 88.4868 52.2751 84.0512 55.1193C80.1547 57.6143 76.209 59.7718 71.6648 61.0609C71.4796 59.7618 71.4318 58.5954 71.6408 57.3773C72.0927 54.6136 73.096 52.0328 73.8079 49.3503C74.568 46.5245 75.0597 43.6993 74.96 40.7526C74.8802 37.7752 73.421 36.3049 70.3537 36.281C67.8748 36.2455 65.4086 35.4323 62.9753 36.9112C58.2912 39.7252 54.0337 43.1215 49.4784 46.1501C46.3465 48.2239 43.3037 50.5738 39.8457 52.3926Z" fill="#FEFEFE"/>
<path d="M39.8457 52.3926C43.2722 50.5535 46.3151 48.2036 49.5183 46.0886C54.0536 43.0908 58.3111 39.6945 63.0152 36.8498C65.4485 35.3709 67.9146 36.1841 70.3936 36.2196C73.4409 36.2742 74.9201 37.7137 74.9998 40.6912C75.0681 43.6175 74.5764 46.4427 73.8477 49.2889C73.1359 51.9714 72.1325 54.5521 71.6807 57.3159C71.4716 58.534 71.4996 59.7311 71.7047 60.9995C76.2174 59.69 80.183 57.5018 84.091 55.0579C88.5581 52.2341 93.5377 50.1357 98.0477 47.3835C101.163 45.4734 104.406 46.3974 107.616 46.3392C108.792 46.3162 108.84 47.4825 108.89 48.301C109.015 52.3118 108.808 56.2825 107.41 60.092C106.361 62.9491 104.916 65.5923 103.23 68.1234C102.54 69.1174 102.888 70.3036 102.933 71.337C102.978 72.3704 102.521 72.7295 101.774 72.987C99.696 73.7794 97.5621 73.4874 96.4803 72.2619C94.9635 70.536 94.9577 68.9602 96.0784 66.5429C97.6599 63.0706 100.005 60.006 100.688 56.1264C100.906 54.8264 100.938 53.5371 101.164 52.1552C99.6674 52.1892 98.6897 53.2146 97.5884 53.8105C93.0292 56.2251 88.6964 59.0486 84.1372 61.4632C80.0573 63.621 75.7877 65.1755 70.9326 65.0839C68.7221 65.0479 66.5545 65.0833 64.9695 63.5315C62.941 61.5611 63.7902 59.0114 64.1171 56.647C64.7372 52.2457 66.8631 48.2095 67.1918 43.7065C67.2445 42.8673 67.2972 42.0281 67.3751 40.9433C64.4332 42.3107 62.1895 44.3928 59.7194 46.0662C55.0132 49.2588 50.4243 52.6149 45.4518 55.4602C41.8857 57.5146 38.2554 57.2565 34.5268 56.3234C32.9382 55.9483 32.019 54.6099 31.8759 52.9014C31.5365 48.5329 32.5855 44.366 33.2716 40.1385C33.7939 36.8528 34.4619 33.6179 35.1121 30.0658C30.8014 32.5106 26.5727 34.4845 23.1174 37.746C19.9957 40.6999 17.7179 44.4192 14.6046 47.2912C12.2497 49.4758 10.3152 51.9768 8.22341 54.3758C7.17753 55.5753 5.54778 56.0905 4.64232 57.5557C4.18384 58.2628 1.14935 57.4304 0.605356 56.6846C0.104328 56.0104 0.588952 55.5386 0.907899 55.0468C3.22336 51.6138 6.0022 48.5687 8.64371 45.3908C10.3306 43.3406 12.1118 41.3516 13.7243 39.2095C16.9177 34.9049 21.2904 32.0199 25.8864 29.4108C27.7408 28.3425 29.8299 27.6012 31.4295 26.2368C34.2553 23.8771 37.4953 24.6681 40.6056 24.7635C42.125 24.8318 42.8387 26.2116 42.7227 28.3197C42.5202 31.5946 41.8208 34.8091 41.3384 38.0333C40.7205 42.0867 40.0711 46.1197 39.4846 50.1935C39.3261 50.9203 39.4359 51.6466 39.8457 52.3926Z" fill="#040404"/>
</g>
<defs>
<clipPath id="clip0_215_1135">
<rect width="94.8781" height="67.1951" fill="white" transform="translate(36.5586) rotate(32.9615)"/>
</clipPath>
</defs>
</svg>
