<svg width="297" height="397" viewBox="0 0 297 397" fill="none" xmlns="http://www.w3.org/2000/svg">
<g clip-path="url(#clip0_204_297)">
<path d="M133.753 397C123.975 396.09 114.792 396.697 105.609 395.635C86.4857 393.461 68.4431 387.95 51.3189 379.708C47.8076 378.04 44.3504 376.169 40.9471 374.349C38.6783 373.136 37.5439 371.214 36.5175 368.889C30.4673 355.49 29.3329 341.181 28.1445 327.025C27.0641 314.081 25.1194 301.239 23.3907 288.396C19.8795 261.65 15.882 234.954 12.7489 208.208C11.2903 195.669 11.0743 182.978 10.8042 170.389C10.5881 158.911 9.34563 147.535 8.21122 136.159C6.80671 121.749 5.56426 107.289 4.48387 92.829C3.34945 78.217 2.107 63.6051 0.594451 49.0437C0.216313 45.2011 -0.323883 41.2574 0.216313 37.4654C1.02661 31.8532 3.24141 26.2915 7.94112 22.7523C16.6383 16.1794 26.1457 10.4156 37.5439 8.84819C46.9973 7.53362 56.0726 4.60112 65.418 3.33712C76.6001 1.87086 87.7281 -0.657153 99.1263 0.101252C113.333 1.0619 127.487 -0.252671 141.64 0.252933C157.251 0.859657 172.917 0.657416 188.367 3.64048C191.662 4.29776 195.173 3.94384 198.576 4.34832C215.16 6.11793 231.745 7.98867 248.329 10.0111C260.375 11.4773 272.205 14.5615 282.793 20.8816C287.601 23.7635 290.032 28.2634 293.057 32.4093C295.488 35.7969 297.162 38.9822 296.406 43.7854C295.326 50.3077 296.406 57.1839 296.946 63.9084C297.216 67.6499 297 71.2902 296.028 74.9306C290.68 94.9019 287.331 115.126 287.601 135.805C287.709 144.299 285.44 152.49 284.144 160.833C282.685 169.984 281.118 179.085 280.146 188.287C278.85 200.826 277.985 213.415 276.473 226.005C274.15 244.813 269.558 263.116 265.021 281.47C261.509 295.778 259.835 310.34 257.404 324.8C255.729 334.76 254.163 344.771 252.974 354.782C252.488 358.979 250.759 362.316 246.492 364.591C243.251 366.31 240.496 368.889 237.849 371.417C229.746 379.304 219.86 384.107 208.732 386.989C187.34 392.551 165.787 397 143.422 396.444C139.965 396.444 136.508 396.848 133.753 397ZM50.8867 291.936C51.535 292.239 52.2912 292.391 52.7774 292.846C55.6405 295.576 58.5035 295.424 61.7987 293.452C70.3878 288.295 79.139 283.29 87.35 277.577C90.4831 275.402 93.7243 273.279 96.5333 270.296C91.4555 266.504 86.4857 262.914 81.6779 259.173C76.7081 255.33 71.8464 251.336 66.4444 247.948C64.1756 246.532 62.3929 246.381 60.1241 247.796C56.1266 250.324 52.0752 252.903 47.8076 255.027C45.3767 256.24 44.4044 257.555 44.6205 260.083C45.4848 268.627 45.4308 277.223 45.3767 285.767C45.3767 287.031 45.7549 288.093 46.6192 289.003C44.4044 293.048 46.3491 296.891 46.8893 301.138C50.0764 299.773 53.2096 299.065 55.4244 296.739C54.452 294.615 51.643 294.11 50.8867 291.936ZM43.324 178.579C46.9433 181.714 50.2925 181.107 54.1279 178.428C61.4746 173.321 69.1994 168.669 76.6541 163.664C79.193 161.945 82.3262 160.833 84.1088 158.153C79.8413 154.108 74.3313 152.136 69.9016 148.799C63.1492 143.743 56.4508 138.637 49.7523 133.581C47.6456 132.013 45.7008 129.687 43.324 129.131C40.515 128.474 38.5162 131.609 35.9233 132.569C30.6294 134.541 28.9007 137.474 30.4133 143.035C32.5201 150.67 32.0339 158.709 32.7902 166.597C33.0062 168.973 33.1683 171.349 35.8693 172.613C34.9509 172.664 33.9246 172.714 33.9246 173.827C34.0326 179.034 34.2487 184.192 36.3555 189.601C39.9208 187.124 43.27 184.798 46.5111 182.574C45.6468 180.602 43.5401 180.248 43.324 178.579ZM158.71 69.5206C164.274 70.0262 171.621 68.9139 178.967 68.8128C208.03 68.3577 235.634 62.5939 261.077 48.9426C266.047 46.2629 271.179 44.1393 274.798 39.6395C276.689 37.2631 277.175 35.7969 274.852 33.6228C271.287 30.2858 267.289 27.6566 262.32 26.1398C247.68 21.5894 232.555 19.9715 217.429 17.9491C206.571 16.4828 195.767 14.7638 184.963 13.2975C178.049 12.3369 171.188 11.0223 164.112 11.0728C151.525 11.1234 138.939 10.9717 126.352 10.7189C119.546 10.5672 112.685 10.4156 105.933 9.6066C93.1301 8.08979 80.4355 8.74707 67.9029 11.0223C58.9357 12.6402 50.1305 15.3705 41.1632 16.7862C31.8178 18.2524 26.4699 24.7241 20.0955 30.033C19.4473 30.5386 19.2312 31.4992 18.8531 32.2576C18.4209 33.3194 18.475 34.1789 19.7714 34.7351C25.2814 37.162 30.5754 40.3979 36.4095 41.9147C44.7825 44.0888 52.7234 46.9707 60.6643 50.156C71.2521 54.4031 81.894 58.4479 93.2381 60.622C101.665 62.2399 110.146 63.8579 118.519 65.7792C131.106 68.6611 143.909 69.4701 158.71 69.5206ZM190.582 145.159C191.284 145.614 191.824 146.069 192.418 146.423C205.545 153.198 219.752 157.496 233.473 162.906C236.012 163.917 237.525 163.007 239.199 161.692C245.844 156.535 251.3 150.164 257.512 144.653C264.642 138.384 268.316 131.103 268.748 122.154C268.748 122.002 268.856 121.851 268.856 121.648C269.558 117.755 269.396 117.25 265.291 116.491C259.727 115.531 254.595 113.66 249.571 111.334C244.871 109.16 240.118 107.188 235.796 104.508C234.067 103.447 232.663 103.093 231.204 104.812C227.207 109.564 222.021 113.306 217.645 117.705C211.541 123.873 205.977 130.446 199.819 136.614C196.956 139.547 193.391 141.822 190.582 145.159ZM15.3418 50.2571C16.9084 55.8693 18.2049 60.8748 19.7714 65.8297C21.0139 69.7229 21.8242 73.616 21.6621 77.7114C21.338 86.1044 22.3644 94.4974 22.7965 102.89C22.8505 104.407 23.1747 105.924 24.3091 107.138C29.4409 112.75 34.5188 118.412 40.7851 123.064C42.4597 124.328 43.7561 124.277 45.4848 123.013C56.0726 114.924 66.7685 107.036 77.3564 98.8962C79.8953 96.9243 82.5422 94.9019 84.541 92.02C76.6001 87.0145 69.1454 82.0596 62.1228 76.498C60.1781 74.9811 58.0713 73.7171 55.7485 72.807C47.3214 69.3689 39.5966 64.8691 32.25 59.6108C27.2802 56.021 22.3644 52.1784 15.3418 50.2571ZM45.8629 126.401C60.3942 134.743 73.683 143.086 86.8098 151.53C90.8613 154.108 91.0233 154.058 94.5886 151.226C104.744 143.187 114.9 135.148 125.002 127.008C126.838 125.542 128.999 124.176 129.971 121.8C117.817 112.851 104.744 105.418 92.3738 97.076C90.5912 95.8626 89.4027 96.0143 87.7822 97.4805C79.247 105.317 69.4155 111.486 59.4759 117.604C55.2623 120.334 50.9948 123.115 45.8629 126.401ZM143.584 183.939C143.963 185.051 144.881 185.354 145.583 185.759C153.092 190.057 160.547 194.405 168.163 198.601C172.485 200.978 177.023 203.051 181.398 205.376C183.451 206.438 184.963 206.185 186.692 204.77C198.522 195.214 210.407 185.708 222.183 176.102C224.02 174.585 226.451 173.473 227.693 170.793C225.1 169.731 222.561 168.518 219.86 167.658C209.542 164.22 199.333 160.529 189.771 155.473C188.367 154.715 186.8 154.26 185.45 153.451C182.965 151.934 181.398 152.692 179.507 154.614C171.945 162.299 163.68 169.276 154.604 175.394C150.769 178.074 146.934 180.855 143.584 183.939ZM143.368 120.637C144.287 122.356 145.799 122.71 147.042 123.367C156.009 128.322 165.192 133.024 174.376 137.625C177.077 138.991 178.589 138.738 180.912 136.918C194.633 126.249 207.003 114.267 219.806 102.739C221.427 101.273 222.777 99.5029 223.588 97.4299C218.618 93.8907 212.459 92.7278 207.76 89.492C201.548 85.1943 195.173 85.3966 188.313 86.3572C186.908 86.5595 185.45 86.8123 184.045 86.8628C182.533 86.964 181.344 87.4696 180.318 88.5819C171.567 97.7839 161.627 105.823 151.525 113.66C148.662 115.884 146.015 118.362 143.368 120.637ZM113.441 273.633C124.786 280.61 135.59 287.79 147.204 293.857C149.959 295.273 151.903 295.172 154.496 293.554C166.273 285.919 178.211 278.436 190.095 270.852C190.852 270.346 192.202 270.094 191.824 268.526C191.014 268.122 190.149 267.515 189.177 267.161C180.696 263.925 172.701 259.729 164.976 255.077C161.033 252.701 156.819 250.83 152.984 248.353C150.337 246.634 148.662 247.24 146.447 248.959C139.641 254.167 132.618 259.173 125.758 264.279C121.706 267.212 117.331 269.891 113.441 273.633ZM157.467 241.122C158.008 241.931 158.116 242.285 158.386 242.437C171.675 249.111 184.207 256.998 198.414 262.105C200.413 262.813 201.602 262.661 203.276 261.498C210.785 256.291 217.969 250.729 224.992 244.965C228.611 241.982 231.636 238.544 234.986 235.005C233.635 234.449 232.717 233.943 231.69 233.64C218.402 229.443 205.653 224.084 192.634 219.28C189.501 218.118 187.448 218.471 184.909 220.393C175.78 227.168 167.191 234.55 157.467 241.122ZM196.146 211.444C208.786 216.398 220.616 220.747 232.177 225.702C238.335 228.331 242.927 228.23 247.356 222.921C249.355 220.544 250.759 218.522 251.084 215.488C251.948 207.146 253.082 198.803 255.081 190.562C256.215 185.86 257.026 181.107 257.998 176.152C250.975 178.074 250.975 178.074 243.845 175.546C243.197 175.293 242.44 175.192 241.846 174.838C238.929 173.119 237.038 174.231 234.932 176.355C224.83 186.618 214.296 196.528 202.844 205.528C200.791 207.146 198.955 208.966 196.146 211.444ZM97.1276 157.597C107.823 163.057 116.899 169.58 126.622 175.242C130.728 177.619 130.728 177.518 134.401 174.636C145.475 165.838 156.711 157.192 167.353 147.889C168.217 147.131 169.622 146.726 169.406 144.856C159.196 139.698 149.365 133.479 139.587 127.261C137.48 125.946 136.13 126.452 134.455 127.918C122.949 138.283 110.308 147.485 97.1276 157.597ZM51.9671 184.192C57.8012 188.59 63.6894 191.573 69.1454 195.113C76.5461 199.865 84.0008 204.618 91.8336 208.764C93.9404 209.876 95.2909 209.876 96.9115 208.107C100.477 204.264 104.69 201.079 108.634 197.641C111.119 195.466 113.495 193.141 115.818 190.815C118.195 188.388 121.22 186.517 123.165 183.383C115.494 179.034 108.904 173.827 101.881 169.125C99.1263 167.254 96.1552 165.636 93.4002 163.715C91.2934 162.248 89.6188 162.451 87.6741 163.917C83.4066 167.052 78.8149 169.681 74.1692 172.259C67.0386 176.203 60.2862 180.652 51.9671 184.192ZM143.747 300.329C131.484 294.11 120.734 287.082 110.092 279.953C107.337 278.082 105.609 278.487 103.178 280.206C94.9127 286.121 86.2156 291.481 76.9242 295.981C73.629 297.548 70.6039 299.52 67.0386 301.542C78.6528 308.317 89.8349 314.789 100.909 321.311C102.908 322.474 104.258 321.615 105.825 320.806C112.685 317.115 119.816 313.929 126.892 310.643C132.672 307.963 138.02 304.525 143.747 300.329ZM90.4831 213.567C90.3211 212.354 89.6188 212 89.0786 211.696C78.3287 205.225 68.7672 197.236 58.1794 190.562C55.3704 188.793 53.1556 185.405 49.8063 185.456C46.3491 185.506 43.432 188.337 40.1908 189.753C37.0577 191.068 36.4635 193.04 36.7876 196.124C37.922 206.135 41.3253 215.842 41.5413 226.005C41.5954 227.471 42.6217 228.432 43.8642 229.19C47.4295 231.516 50.9408 233.791 54.398 236.168C55.9106 237.229 57.2611 237.179 58.8276 236.37C70.874 230.353 80.4895 221.556 90.4831 213.567ZM68.5512 244.156C71.7923 246.128 75.1416 247.999 78.3827 250.122C85.4053 254.774 92.4819 259.375 99.3424 264.229C101.827 265.998 103.502 265.897 105.879 264.077C112.253 259.173 118.897 254.572 125.38 249.819C129.593 246.735 133.969 243.853 138.02 240.01C126.568 233.286 115.332 226.713 104.096 220.089C102.097 218.926 101.125 220.342 99.9906 221.252C90.5372 228.735 80.9757 236.117 70.3878 242.235C69.6856 242.69 68.9293 243.145 68.5512 244.156ZM163.194 301.795C164.436 303.868 166.219 304.374 167.731 305.182C174.97 309.227 182.263 313.171 189.555 317.216C193.769 319.542 193.715 319.542 197.928 316.761C206.463 311.149 214.458 304.879 222.453 298.66C227.099 295.07 231.636 291.329 235.472 286.172C224.992 283.239 215.539 279.245 206.247 274.846C204.519 274.037 203.276 274.593 201.872 275.655C199.063 277.779 196.254 279.852 193.337 281.824C183.397 288.447 173.403 295.02 163.194 301.795ZM175.51 212.758C162.491 207.449 151.309 200.421 139.911 193.646C134.455 190.41 134.455 190.36 129.431 194.304C128.621 194.961 127.811 195.669 127.054 196.377C121.274 201.938 115.602 207.55 109.282 212.606C108.256 213.415 106.905 214.224 106.851 215.994C118.735 222.112 130.728 228.23 142.666 234.449C144.341 235.308 145.583 235.106 147.042 234.095C156.549 227.421 166.003 220.696 175.51 212.758ZM185.18 324.8C175.888 319.794 168.163 313.424 159.142 308.772C156.387 307.357 154.604 307.154 151.957 309.025C143.963 314.789 135.427 319.744 126.19 323.586C122.355 325.204 118.411 326.822 115.062 329.3C115.386 329.856 115.44 330.26 115.71 330.412C125.812 336.58 135.968 342.648 146.015 348.867C147.96 350.08 149.202 349.423 150.769 348.361C160.168 342.142 169.676 336.075 179.075 329.907C181.128 328.541 183.181 327.176 185.18 324.8ZM93.2922 93.5368C106.851 101.171 120.248 108.705 133.591 116.34C135.698 117.553 136.94 116.643 138.291 115.531C144.881 110.121 151.525 104.711 158.116 99.1996C162.329 95.6603 166.435 91.9694 170.594 88.3796C169.352 86.964 168.055 87.6718 166.921 87.6718C151.471 88.228 136.022 87.1662 120.626 86.0539C115.278 85.6494 110.038 84.1326 104.582 84.2842C103.124 84.3348 101.611 83.8798 100.693 85.346C98.6941 88.3291 95.615 90.5032 93.2922 93.5368ZM47.1594 307.66C48.726 319.744 49.2661 331.828 51.2109 344.165C57.153 342.041 62.1228 339.614 67.4167 336.884C64.7698 334.811 62.501 333.092 60.2862 331.373C62.555 332.081 64.4997 333.193 66.2823 334.507C68.5512 336.227 70.766 336.429 73.683 335.62C81.84 333.345 89.1326 329.401 96.5333 325.659C96.9655 325.457 97.5057 325.103 96.9115 324.042C87.35 316.761 76.492 310.542 66.3364 303.413C64.5537 302.149 63.0952 302.553 61.4746 303.565C57.2611 306.143 52.5613 307.66 47.1594 307.66ZM237.146 97.6827C246.87 101.829 256.215 105.267 266.047 107.34C271.287 108.452 271.341 108.3 272.205 103.447C274.69 89.6942 277.229 75.9418 279.66 62.1894C279.984 60.3186 280.74 58.3468 279.768 56.1221C273.826 59.0546 268.154 61.886 262.428 64.5657C259.889 65.7792 258.214 67.4982 257.08 69.9251C253.947 76.7508 249.895 83.0708 244.655 88.683C242.17 91.3627 240.01 94.2446 237.146 97.6827ZM141.802 354.529C141.532 354.074 141.424 353.72 141.208 353.569C131.322 346.591 121.004 340.12 110.795 333.547C109.12 332.435 107.931 332.94 106.419 333.699C98.8022 337.491 91.4555 341.738 83.0824 343.962C82.7043 344.063 82.5422 344.367 82.9204 345.327C84.7571 346.591 87.0799 348.159 89.3487 349.726C97.5597 355.439 105.771 361.203 113.982 366.917C115.548 368.029 117.061 369.091 119.33 368.08C127.379 364.439 135.265 360.496 141.802 354.529ZM159.736 356.703C164.436 360.091 169.676 362.568 174.646 365.552C177.401 367.22 179.724 367.169 182.587 365.804C192.634 361.102 201.277 354.479 210.515 348.715C213.486 346.895 216.187 344.721 218.888 342.799C218.672 342.294 218.672 342.041 218.618 341.99C213.27 339.21 208.03 336.328 202.574 333.749C193.12 329.3 196.254 328.794 188.367 335.064C180.264 341.485 172.215 347.906 163.356 353.417C162.059 354.277 160.655 355.035 159.736 356.703ZM53.4797 354.428C61.7987 363.428 71.7383 368.282 82.8664 370.658C88.3764 371.872 94.1024 372.63 99.7745 373.49C104.474 374.197 108.742 372.933 112.847 369.344C103.232 362.265 93.4542 355.439 84.2169 348.108C80.2194 344.973 76.7081 345.125 72.5486 346.895C71.4142 347.4 70.3338 348.007 69.1994 348.513C64.3376 350.636 59.746 353.215 53.4797 354.428ZM202.898 324.294C210.083 328.086 216.781 331.626 223.479 335.064C224.938 335.822 226.505 337.389 228.341 336.024C230.934 334.103 234.878 333.395 235.256 329.553C236.174 320.654 238.821 312.059 239.847 303.16C240.28 299.671 240.766 296.132 240.982 292.644C241.09 291.278 242.17 289.307 240.172 288.649C238.605 288.144 237.957 290.014 237.038 290.975C236.444 291.582 235.958 292.29 235.418 292.997C230.556 299.267 225.046 304.98 219.158 310.441C214.134 315.143 208.786 319.592 202.898 324.294ZM248.383 235.409C244.223 236.37 243.629 236.471 242.278 238.342C236.174 246.785 227.963 253.358 220.292 260.386C217.645 262.813 214.944 265.139 212.027 267.768C221.913 273.026 232.123 276.211 242.765 279.852C244.655 264.734 246.492 250.122 248.383 235.409ZM196.308 370.86C199.333 370.506 201.818 370.304 204.249 369.9C213.702 368.383 222.723 365.703 230.664 360.394C231.69 359.737 233.203 359.282 233.311 358.069C233.527 355.439 232.825 352.81 232.879 350.131C232.933 348.462 230.286 348.108 228.773 347.249C225.208 345.277 225.154 345.277 222.075 348.159C215.863 353.973 209.65 359.788 202.736 364.945C200.521 366.563 198.036 368.029 196.308 370.86ZM131.322 375.512C143.26 376.371 155.091 376.27 166.867 375.107C168.65 374.956 169.244 373.894 169.676 372.529C170.27 370.759 168.974 370.203 167.731 369.445C163.626 367.068 159.466 364.641 155.415 362.164C153.848 361.203 152.66 361.052 151.147 362.265C145.043 367.22 138.669 371.821 131.322 375.512ZM204.086 84.7393C206.733 86.5595 208.786 87.3684 211.001 88.0763C215.106 89.3908 219.158 90.6043 223.209 92.0705C228.071 93.7896 228.017 93.8907 230.988 89.5931C231.961 88.1774 233.203 86.9134 234.283 85.6494C237.525 81.8573 240.82 78.1159 244.061 74.3239C230.61 77.3575 218.078 81.8574 204.086 84.7393ZM258.376 174.079C261.509 162.147 264.102 151.277 265.183 140.052C257.836 148.294 253.46 158.355 245.303 166.091C249.679 168.872 255.027 169.074 258.376 174.079ZM24.4171 110.121C25.2814 118.311 25.6596 126.603 29.0088 134.743C33.2223 132.114 36.8416 129.637 40.3529 126.603C34.2487 121.396 29.495 115.783 24.4171 110.121ZM93.8864 82.9697C84.7571 80.8461 75.4117 80.2394 66.1203 76.498C66.8225 77.5597 66.9846 78.0653 67.3087 78.2676C71.4682 80.8967 75.5737 83.5764 79.8413 86.0033C87.6201 90.5032 87.6201 90.4526 93.6163 83.9303C93.7243 83.8798 93.7243 83.6775 93.8864 82.9697ZM42.9458 231.921C44.5664 235.965 42.4057 240.364 44.7825 244.409C47.6456 242.488 50.5626 241.325 52.8314 239.05C50.0224 236.066 46.5652 234.095 42.9458 231.921ZM234.067 336.631C232.987 337.794 231.42 337.895 231.744 339.412C231.907 340.019 232.663 340.524 233.365 340.322C234.986 339.816 234.391 338.552 234.067 336.631Z" fill="black"/>
<path d="M42.6223 177.922C40.4615 177.568 39.3271 176.051 37.9766 174.686C39.8132 175.394 41.3798 176.456 42.6223 177.922Z" fill="black"/>
</g>
<defs>
<clipPath id="clip0_204_297">
<rect width="297" height="397" fill="white"/>
</clipPath>
</defs>
</svg>
