<svg width="813" height="707" viewBox="0 0 813 707" fill="none" xmlns="http://www.w3.org/2000/svg">
<path d="M618.598 607.458C601.899 624.502 587.427 643.818 554.029 643.818" stroke="black" stroke-width="5"/>
<path d="M706.848 634.397C733.492 605.087 780.386 531.812 796.373 483.338C812.359 434.864 810.365 401.045 809.3 362.716C808.234 324.388 780.386 253.368 754.808 206.021C747.854 193.149 737.092 180.172 724.966 168.074M706.848 634.397C685.541 657.836 649.296 682.872 610.929 697.527C580.235 709.25 514.299 702.412 485.168 697.527C509.681 696.399 558.28 680.166 556.574 624.252C554.869 568.337 543.785 531.813 538.456 520.539C530.996 497.618 509.894 443.657 485.168 411.191C454.261 370.608 411.63 281.55 411.63 233.076C411.63 186.596 426.55 128.237 485.168 89.9085C532.062 59.2457 619.1 93.6662 656.757 114.709C672.705 124.384 701.41 144.572 724.966 168.074M706.848 634.397C692.354 648.827 641.126 622.373 617.323 607.342C613.416 612.978 611.781 616.586 636.507 585.923C667.415 547.594 675.941 501.075 675.941 463.047C675.941 430.355 659.244 382.632 649.296 362.716C662.086 353.698 693.419 326.417 716.44 289.441C739.461 252.466 731.716 193.123 724.966 168.074" stroke="black" stroke-width="5"/>
<path d="M49.5974 444.807C56.5134 463.238 64.1389 481.545 71.2085 498.159C76.9749 511.711 86.6325 525.832 97.7814 539.255C119.439 565.33 146.725 588.769 162.046 600.27C198.416 625.649 283.979 670.286 335.28 645.791C399.405 615.173 420.864 559.433 425.776 513.58C428.726 486.044 418.611 443.499 404.271 403.992M49.5974 444.807C35.7637 407.94 28.638 362.039 30.6104 336.744C33.5688 298.802 36.4116 265.343 57.9185 219.485C79.4254 173.627 135.229 107.096 165.633 81.4509C189.947 60.9429 229.738 40.6927 270.609 30.9439C303.305 23.1449 370.157 37.9824 399.496 46.376C374.254 44.4801 322.732 54.5306 318.57 109.899C314.408 165.268 321.908 202.66 326.178 214.435C331.401 237.963 347.325 293.784 369.234 328.846C380.851 347.437 393.707 374.89 404.271 403.992M49.5974 444.807C61.7183 412.12 109.135 347.046 201.836 348.242C294.537 349.437 375.418 385.906 404.271 403.992" stroke="black" stroke-width="5"/>
<path d="M660.284 258.086L638.786 252.752C641.686 246.693 648.232 231.926 651.222 221.325C654.211 210.724 651.827 191.444 650.262 183.129L666.527 182.646C669.697 187.329 675.749 201.484 674.603 220.63C673.456 239.777 664.579 253.579 660.284 258.086Z" stroke="black" stroke-width="5"/>
<path d="M658.036 145.721L647.042 167.475C642.914 162.207 632.691 149.937 624.83 143.006C616.969 136.075 600.278 132.051 592.915 130.905L597.492 112.89C602.34 111.025 615.91 109.257 631.41 117.109C646.909 124.961 655.619 139.455 658.036 145.721Z" stroke="black" stroke-width="5"/>
<path d="M558.023 94.8547L561.32 120.426C555.373 119.111 541.063 116.485 531.398 116.5C521.732 116.515 506.927 125.234 500.732 129.592L494.57 111.668C497.247 106.67 506.59 95.487 522.539 90.7334C538.487 85.9798 552.84 91.5002 558.023 94.8547Z" stroke="black" stroke-width="5"/>
<path d="M607.45 220.353C607.45 253.034 580.477 279.602 547.11 279.602C513.744 279.602 486.771 253.034 486.771 220.353C486.771 187.671 513.744 161.104 547.11 161.104C580.477 161.104 607.45 187.671 607.45 220.353Z" stroke="black" stroke-width="5"/>
<path d="M322.053 522.473C325.527 490.05 302.579 460.761 270.905 456.968C239.231 453.176 210.669 476.298 207.196 508.721C203.722 541.144 226.67 570.433 258.344 574.225C290.017 578.018 318.58 554.896 322.053 522.473Z" stroke="black" stroke-width="5"/>
<path d="M649.536 666.073C649.536 678.192 640.425 687.708 629.552 687.708C618.679 687.708 609.568 678.192 609.568 666.073C609.568 653.954 618.679 644.438 629.552 644.438C640.425 644.438 649.536 653.954 649.536 666.073Z" stroke="black" stroke-width="5"/>
<path d="M397.6 583.323C397.6 595.442 388.489 604.959 377.616 604.959C366.743 604.959 357.632 595.442 357.632 583.323C357.632 571.205 366.743 561.688 377.616 561.688C388.489 561.688 397.6 571.205 397.6 583.323Z" stroke="black" stroke-width="5"/>
<path d="M151.925 571.435L168.24 554.088C162.947 551.016 150.499 543.21 143.055 536.566C135.611 529.922 128.892 513.077 126.464 505.485L112.058 515.002C111.431 520.671 112.611 535.658 122.347 550.247C132.084 564.836 146.123 570.451 151.925 571.435Z" stroke="black" stroke-width="5"/>
<path d="M242.075 617.519L249.125 593.921C243.125 593.87 228.768 593.236 219.339 591.106C209.91 588.975 196.77 577.443 191.379 571.943L182.679 587.641C184.542 592.98 191.982 605.66 206.832 613.672C221.682 621.684 236.515 619.575 242.075 617.519Z" stroke="black" stroke-width="5"/>
<path d="M91.3459 480.935L112.507 484.996C111.536 478.102 109.645 461.517 109.853 450.332C110.061 439.148 117.599 422.099 121.341 414.973L106.586 407.669C102.383 410.72 92.9109 421.423 88.6422 439.834C84.3735 458.244 88.666 474.905 91.3459 480.935Z" stroke="black" stroke-width="5"/>
<path d="M155.082 89.5959C158.411 83.6804 180.605 77.3952 242.748 99.5782C304.891 121.761 318.948 133.962 318.208 137.289" stroke="black" stroke-width="5"/>
</svg>
