<svg width="150" height="127" viewBox="0 0 150 127" fill="none" xmlns="http://www.w3.org/2000/svg">
<g clip-path="url(#clip0_204_210)">
<path d="M26.6495 127C32.3601 124.55 43.4007 122.289 51.3956 115.883C79.5682 93.6484 106.789 70.2834 133.82 46.9184C139.34 42.2077 143.147 35.0475 146.764 28.641C151.142 20.9154 151.142 12.8131 145.241 5.84127C139.53 -0.942117 131.726 -0.942117 124.302 1.69586C117.259 3.95699 109.644 6.59497 103.743 11.1172C72.7154 35.2359 41.8779 60.1083 11.0403 84.9807C7.23321 87.9956 4.18753 92.5178 2.09362 96.8517C-4.75917 111.737 5.32966 126.812 26.6495 127Z" fill="white"/>
<path d="M26.6495 127C5.32966 126.623 -4.75917 111.737 2.09362 96.8515C4.18753 92.5177 7.23321 87.9954 11.0403 84.9806C41.8779 60.1082 72.7154 35.2358 104.124 10.9287C109.835 6.40643 117.449 3.76845 124.682 1.50732C132.106 -0.942237 140.101 -0.942237 145.622 5.65272C151.523 12.6245 151.523 20.9153 147.144 28.4524C143.528 34.8589 139.721 42.0192 134.2 46.7299C106.789 70.4717 79.5682 93.6483 51.3956 115.883C43.4007 122.289 32.3601 124.55 26.6495 127Z" fill="#ECA51D"/>
</g>
<defs>
<clipPath id="clip0_204_210">
<rect width="150" height="127" fill="white"/>
</clipPath>
</defs>
</svg>
