<svg width="178" height="197" viewBox="0 0 178 197" fill="none" xmlns="http://www.w3.org/2000/svg">
<g clip-path="url(#clip0_204_213)">
<path d="M0 65.9185C1.13981 69.6961 1.89968 73.4737 3.22946 76.8735C11.2081 95.1947 12.9178 114.271 12.3479 134.104C11.968 148.269 13.2978 162.813 15.0075 177.168C17.2871 197.567 26.4055 202.289 44.4525 191.334C55.6606 184.534 66.2988 176.223 75.9872 167.346C92.1345 152.425 108.092 136.937 122.719 120.504C141.906 98.7833 159.953 76.118 171.921 49.1084C177.81 35.8869 181.799 22.8543 172.111 10.0106C162.423 -3.02202 148.175 -0.37773 135.447 1.88881C94.6041 9.25506 56.0406 22.6654 23.3661 49.675C16.7172 55.1525 9.11846 59.6856 0 65.9185Z" fill="white"/>
<path d="M0 65.9185C9.11846 59.6856 16.7172 55.3413 23.3661 49.675C56.0406 22.6654 94.6041 9.25506 135.447 1.88881C148.175 -0.37773 162.423 -3.02202 172.111 10.0106C181.799 23.0432 177.62 35.8869 171.921 49.1084C160.143 76.118 141.906 98.7833 122.719 120.504C108.092 137.126 92.1345 152.425 75.9872 167.346C66.2988 176.223 55.6606 184.534 44.4525 191.334C26.4055 202.289 17.2871 197.567 15.0075 177.168C13.2978 162.813 11.968 148.269 12.3479 133.915C12.9178 114.082 11.2081 95.0058 3.22946 76.6846C1.89968 73.4737 1.13981 69.6961 0 65.9185Z" fill="#ECA51D"/>
</g>
<defs>
<clipPath id="clip0_204_213">
<rect width="178" height="197" fill="white"/>
</clipPath>
</defs>
</svg>
