<svg width="142" height="152" viewBox="0 0 142 152" fill="none" xmlns="http://www.w3.org/2000/svg">
<g clip-path="url(#clip0_204_216)">
<path d="M0 0C5.94062 10.3851 9.96491 20.2037 16.2888 28.323C34.6856 51.359 45.6086 78.1714 59.4062 103.473C66.6883 116.691 73.0121 130.475 80.6775 143.503C85.2766 151.434 92.7503 155.021 101.565 148.979C112.105 141.993 122.837 135.384 132.61 127.642C142.192 120.089 144.3 110.648 138.934 99.1304C135.484 91.7665 133.377 83.6472 131.843 75.7168C127.819 54.5689 115.938 37.3863 103.865 20.5814C99.8408 14.9168 92.3671 9.44099 85.6599 8.68571C58.2564 4.7205 30.4696 2.8323 0 0Z" fill="white"/>
<path d="M0 0C30.4696 2.8323 58.2564 4.7205 85.8516 8.49689C92.3671 9.44099 100.032 14.9168 104.057 20.3925C116.13 37.3863 128.011 54.5689 132.035 75.5279C133.568 83.4584 135.676 91.5776 139.126 98.9416C144.491 110.46 142.383 120.089 132.802 127.453C122.837 135.195 112.105 141.804 101.757 148.79C92.7503 154.643 85.4683 151.245 80.8691 143.314C73.2038 130.286 66.6883 116.691 59.5978 103.284C45.6086 78.1714 34.6856 51.359 16.2888 28.323C9.96491 20.2037 5.94062 10.3851 0 0Z" fill="#ECA51D"/>
</g>
<defs>
<clipPath id="clip0_204_216">
<rect width="142" height="152" fill="white"/>
</clipPath>
</defs>
</svg>
