<svg width="182" height="205" viewBox="0 0 182 205" fill="none" xmlns="http://www.w3.org/2000/svg">
<g clip-path="url(#clip0_204_219)">
<path d="M182.001 87.3184C178.578 73.5512 176.486 57.898 170.59 43.7536C160.131 19.2365 141.493 -0.565667 113.918 0.000110555C82.5382 0.565888 52.6803 12.07 33.6626 39.7931C8.93949 75.4371 -3.80242 114.853 0.952023 158.984C1.71273 165.207 0.38149 171.808 0.191313 179.54C6.46717 181.426 13.6939 183.312 20.7305 185.575C38.0367 191.233 55.1527 197.834 72.649 202.737C89.1945 207.452 91.0962 205.754 94.1391 189.724C97.1819 173.694 100.605 157.663 103.077 141.633C105.55 125.037 114.108 113.533 129.322 107.309C146.058 100.331 163.174 94.4849 182.001 87.3184Z" fill="white"/>
<path d="M182 87.3184C162.983 94.4849 146.057 100.331 129.131 107.309C113.917 113.533 105.359 125.225 102.887 141.444C100.414 157.475 96.991 173.505 93.9482 189.536C90.9053 205.754 89.0035 207.452 72.4581 202.548C54.9617 197.456 37.8458 191.044 20.5396 185.387C13.503 183.123 6.46645 181.237 0.00041187 179.352C0.380767 171.619 1.52183 165.207 0.761122 158.795C-3.80314 114.853 8.93876 75.4371 33.6619 39.7931C52.6796 12.07 82.5375 0.565888 113.917 0.000110555C141.493 -0.565667 160.13 19.2365 170.59 43.7536C176.485 57.898 178.577 73.5512 182 87.3184Z" fill="#ECA51D"/>
</g>
<defs>
<clipPath id="clip0_204_219">
<rect width="182" height="205" fill="white"/>
</clipPath>
</defs>
</svg>
