<svg width="132" height="167" viewBox="0 0 132 167" fill="none" xmlns="http://www.w3.org/2000/svg">
<g clip-path="url(#clip0_204_207)">
<path d="M38.9693 0.18909C10.1241 -0.567421 -2.48367 12.4824 0.381744 38.3929C1.33688 47.0928 4.39332 55.6036 4.77538 64.3035C5.34846 76.4077 9.55106 86.2423 18.1473 94.5639C32.2833 108.559 43.554 124.257 50.2399 143.17C51.5771 146.763 53.6784 149.978 55.7797 153.004C68.9606 171.917 89.0185 171.728 99.716 151.302C110.032 131.822 118.246 111.396 126.842 90.9705C129.707 84.1619 131.045 76.4077 131.809 69.0317C133.146 57.684 128.561 48.6059 117.1 45.5798C100.671 41.419 89.7826 30.2604 78.512 19.1019C67.0503 7.94334 54.2515 -1.32393 38.9693 0.18909Z" fill="white"/>
<path d="M38.9693 0.189192C54.2515 -1.32383 67.0503 7.94344 78.512 19.4802C89.7826 30.6388 100.862 41.6082 117.1 45.9582C128.561 48.9842 133.146 58.0623 131.809 69.41C131.045 76.786 129.707 84.5403 126.842 91.3489C118.437 111.775 110.032 132.201 99.716 151.681C89.0185 171.917 68.9606 172.107 55.7797 153.383C53.6784 150.357 51.5771 146.952 50.2399 143.548C43.554 124.446 32.0923 108.56 18.1473 94.564C9.55106 86.2424 5.34846 76.4078 4.77538 64.3036C4.39332 55.6037 1.33688 47.0929 0.381744 38.393C-2.48367 12.4825 10.1241 -0.56732 38.9693 0.189192Z" fill="#ECA51D"/>
</g>
<defs>
<clipPath id="clip0_204_207">
<rect width="132" height="167" fill="white"/>
</clipPath>
</defs>
</svg>
