<svg width="366" height="446" viewBox="0 0 366 446" fill="none" xmlns="http://www.w3.org/2000/svg">
<g clip-path="url(#clip0_204_300)">
<path d="M299.18 30.2881C293.501 22.7739 288.305 15.144 282.264 8.09219C278.518 3.58363 273.564 -9.08348e-05 266.918 0.115513C260.03 0.231117 253.143 -0.115695 246.376 0.577929C228.01 2.5432 214.718 18.0341 217.014 34.9123C218.827 48.0912 223.66 60.2296 232.722 70.5183C234.535 72.5992 235.864 75.0269 237.435 77.339C236.952 78.0326 236.347 78.7262 235.864 79.4198C230.547 78.0326 225.231 76.8765 220.035 75.3737C207.348 71.6744 195.023 66.819 182.215 64.0445C165.54 60.4608 148.623 59.0735 130.982 61.27C103.432 64.6225 77.3325 71.2119 53.4078 84.2752C35.5247 93.9859 27.7914 106.471 36.008 126.471C36.3705 127.395 36.1288 128.667 36.2497 129.708C32.9872 133.869 29.6039 137.684 26.7039 141.846C13.7749 159.765 6.1625 178.955 10.15 201.266C10.7541 204.272 8.94164 207.74 7.85415 210.977C5.19585 218.954 -0.12076 226.93 7.19866e-05 234.792C0.362568 251.092 5.80001 266.12 17.7624 278.952C35.1622 297.68 56.6703 311.206 78.6617 323.922C101.62 337.332 126.994 344.153 154.182 343.806C154.786 343.806 155.511 344.5 156.84 345.309C156.84 348.199 156.84 351.436 156.84 355.135C153.336 356.176 150.315 356.985 147.415 358.025C137.628 361.493 127.84 364.962 118.295 368.776C113.703 370.626 110.561 373.747 109.353 378.834C108.628 381.724 106.091 384.73 103.432 386.464C82.5283 400.105 65.7327 417.215 54.1328 439.873C56.6703 441.723 58.9661 443.341 62.3494 445.884C74.1909 421.723 91.9532 403.342 111.77 386.001C115.274 389.238 117.932 392.128 121.074 394.325C124.699 396.637 128.928 398.14 132.794 400.105C134.849 401.261 136.661 402.88 138.474 404.267C152.369 415.018 156.115 415.596 171.34 407.041C177.381 403.573 181.973 403.92 187.894 407.273C197.198 412.475 207.106 416.752 217.014 420.798C219.914 421.954 224.264 421.839 227.285 420.683C235.26 417.561 241.422 412.244 246.376 405.307C250.968 398.834 256.526 392.822 261.239 387.042C277.068 392.822 287.218 401.724 294.709 414.44C299.784 422.995 307.276 430.162 313.922 437.792C317.305 441.723 321.171 442.647 324.796 437.098C323.467 435.364 322.138 433.515 320.567 431.781C314.163 424.382 307.155 417.446 301.597 409.585C293.622 398.371 284.439 389.354 270.664 385.077C267.764 384.152 264.501 382.187 263.172 379.759C257.614 369.586 248.068 364.499 238.281 358.835C228.493 353.17 220.76 353.17 212.423 360.106C212.06 360.453 210.973 359.991 209.523 359.875C205.414 350.742 203.36 340.454 206.26 331.09C207.952 325.309 215.564 321.263 220.639 316.408C221.485 315.599 222.331 314.558 223.418 314.211C227.406 312.824 231.393 310.975 235.502 310.628C246.618 309.587 258.097 310.281 268.972 308.431C294.83 304.038 320.205 297.449 340.988 280.918C347.875 275.369 354.4 268.317 358.267 260.687C368.658 239.763 366 217.104 365.154 194.793C365.154 194.099 364.55 193.405 364.308 192.596C356.575 168.55 343.042 147.973 324.434 130.401C316.701 123.118 308.484 116.182 300.751 108.899C294.468 103.003 290.359 96.0668 293.743 87.0497C306.309 82.1943 318.876 76.9921 331.684 72.4836C348.117 66.7034 350.654 39.5365 337.242 29.3633C332.892 26.1264 328.663 23.2363 323.105 24.3923C315.13 26.1264 307.397 28.2073 299.18 30.2881Z" fill="white"/>
<path d="M299.18 30.288C307.397 28.3228 315.13 26.1263 322.863 24.6234C328.421 23.583 332.771 26.3575 337 29.5944C350.534 39.7675 347.875 66.9345 331.442 72.7147C318.634 77.2232 306.188 82.4254 293.501 87.2808C290.118 96.2979 294.226 103.234 300.509 109.13C308.242 116.413 316.459 123.349 324.192 130.632C342.921 148.204 356.333 168.897 364.067 192.827C364.308 193.521 364.913 194.214 364.913 195.024C365.638 217.335 368.417 239.994 358.025 260.918C354.159 268.548 347.634 275.715 340.746 281.149C320.084 297.796 294.588 304.269 268.73 308.662C257.735 310.512 246.376 309.818 235.26 310.859C231.152 311.206 227.164 313.055 223.177 314.443C222.089 314.789 221.243 315.83 220.398 316.639C215.443 321.494 207.831 325.541 206.019 331.321C203.239 340.685 205.294 350.973 209.281 360.106C210.731 360.222 211.818 360.684 212.181 360.337C220.518 353.285 228.252 353.285 238.039 359.066C247.826 364.73 257.372 369.817 262.93 379.99C264.26 382.418 267.643 384.383 270.422 385.308C284.197 389.585 293.38 398.718 301.355 409.816C306.913 417.677 314.042 424.613 320.326 432.012C321.776 433.746 323.226 435.595 324.555 437.33C320.809 442.878 317.063 441.954 313.68 438.023C307.034 430.393 299.542 423.226 294.468 414.671C286.976 401.955 276.826 393.053 260.997 387.273C256.285 393.053 250.847 399.065 246.135 405.538C241.181 412.475 235.018 417.792 227.043 420.914C224.023 422.07 219.793 422.185 216.773 421.029C206.864 416.983 196.956 412.706 187.652 407.504C181.731 404.267 177.14 403.92 171.098 407.272C155.873 415.827 152.128 415.249 138.232 404.498C136.419 402.995 134.607 401.377 132.553 400.336C128.686 398.255 124.457 396.868 120.832 394.556C117.57 392.475 115.032 389.469 111.528 386.233C91.8324 403.573 73.9492 421.839 62.1077 446.115C58.7244 443.688 56.4286 441.954 53.8911 440.104C65.491 417.446 82.2866 400.336 103.191 386.695C105.849 384.961 108.386 381.955 109.111 379.065C110.44 373.979 113.582 370.742 118.053 369.008C127.599 365.193 137.386 361.725 147.173 358.256C150.073 357.216 153.215 356.407 156.598 355.366C156.598 351.667 156.598 348.43 156.598 345.54C155.269 344.731 154.544 343.922 153.94 344.037C126.753 344.384 101.378 337.448 78.42 324.153C56.4286 311.437 35.0413 297.911 17.5207 279.183C5.80001 266.12 0.362568 251.092 7.19864e-05 234.791C-0.12076 226.93 5.19585 218.954 7.85415 210.977C8.94164 207.856 10.6333 204.272 10.15 201.266C6.04167 178.955 13.7749 159.764 26.7039 141.846C29.7247 137.684 32.9872 133.869 36.2497 129.707C36.1288 128.667 36.3705 127.395 36.008 126.471C27.7914 106.471 35.5247 93.9858 53.4078 84.2751C77.4534 71.2118 103.553 64.6224 130.982 61.2699C148.623 59.0734 165.54 60.4607 182.335 64.0444C195.144 66.8189 207.589 71.5586 220.156 75.3736C225.352 76.8764 230.668 78.0324 235.985 79.4197C236.468 78.7261 237.072 78.0325 237.556 77.3388C235.985 75.0268 234.656 72.5991 232.843 70.5182C223.781 60.1138 218.948 48.091 217.135 34.9122C214.839 17.9184 228.131 2.31187 246.497 0.462206C253.264 -0.231417 260.151 0.115394 267.039 -0.000209542C273.805 -0.115813 278.639 3.46791 282.384 7.97646C288.305 15.1439 293.622 22.7738 299.18 30.288ZM254.472 63.4664C245.893 61.0387 242.872 54.7961 242.389 46.8194C241.906 37.8023 242.993 29.2476 247.464 21.0397C249.156 17.9184 250.485 14.5659 251.935 11.329C251.21 10.6354 250.485 10.0573 249.76 9.36371C244.081 11.7914 237.797 13.4098 232.722 16.6468C227.043 20.3461 223.177 25.7795 223.902 33.2937C225.231 50.0563 232.722 64.3912 242.993 77.4544C248.431 84.3907 256.526 85.0843 264.018 79.4197C268.368 76.1828 272.476 72.2523 275.497 67.9749C280.33 61.3855 284.197 54.218 288.305 47.0506C289.272 45.3165 289.393 43.0045 290.359 38.6115C285.647 40.3456 282.505 40.808 280.451 42.542C272.114 49.0159 266.193 57.1081 264.743 67.6281C264.38 70.7494 263.172 73.7551 262.085 77.57C254.351 74.1019 251.935 69.8246 254.472 63.4664C256.164 48.091 257.976 32.8313 259.789 17.3404C253.868 22.6582 250.485 29.5944 248.068 37.2243C245.047 47.1662 246.256 56.0677 254.472 63.4664ZM136.782 85.3155C134.003 85.6623 131.224 85.5467 128.565 86.3559C117.449 89.4772 106.211 92.7142 95.2157 96.2979C80.7158 101.038 66.5785 106.587 54.7369 116.297C49.0578 120.922 43.4996 125.777 49.1787 133.06C40.5996 143.117 31.1747 151.557 27.6706 163.695C32.383 166.701 36.1288 169.013 39.8746 171.325C39.633 171.672 39.3913 172.134 39.2705 172.481C35.1622 171.787 31.0539 171.094 25.4956 170.053C24.7706 177.914 21.7498 186.007 24.1665 192.018C27.3081 199.995 24.529 204.966 21.0248 211.208C16.9165 218.607 11.8416 226.352 10.9958 234.329C9.66663 246.236 13.5333 257.681 20.904 268.085C31.1747 282.536 46.1579 291.553 60.1744 301.842C79.2658 315.945 100.17 326.234 123.611 331.668C145.965 336.754 167.836 333.286 188.256 324.5C217.981 311.784 235.139 287.044 250.364 260.918C251.451 259.068 251.814 256.756 252.539 254.213C248.431 253.982 244.926 253.75 241.543 253.519C239.972 246.005 239.852 245.658 244.201 244.387C250.847 242.537 257.372 240.918 261.118 234.445C261.722 233.289 263.655 232.711 265.105 232.248C277.068 227.971 283.593 217.798 291.809 209.474C294.347 206.931 297.368 202.307 293.743 199.185C291.205 197.105 286.493 196.989 282.747 196.873C280.693 196.758 277.672 198.029 276.464 199.648C271.268 206.7 263.776 205.775 256.285 206.815C256.164 204.734 256.164 203.694 256.043 202.538C255.197 190.978 254.955 179.417 253.022 168.088C251.572 159.302 246.86 151.557 239.489 145.545C218.102 127.973 193.815 118.956 165.298 122.078C157.323 123.002 149.348 123.118 141.494 124.39C127.357 126.702 113.22 129.361 99.0823 132.366C90.9865 134.1 83.0116 136.528 74.9159 138.725C109.353 120.575 153.577 117.222 184.873 117.107C200.581 117.107 216.048 119.534 229.097 129.823C235.26 134.678 242.268 138.956 249.518 142.077C258.218 145.776 260.272 152.597 261.118 160.342C261.843 166.123 261.964 171.903 262.689 177.567C263.172 181.729 264.26 185.891 265.468 191.902C289.151 154.562 294.83 123.812 281.297 109.708C279.726 123.465 275.98 136.297 265.83 149.707C274.409 109.708 274.409 107.165 266.435 97.5695C265.226 99.0724 264.018 100.575 262.81 102.078C262.326 99.5348 261.964 97.1071 261.36 93.061C235.018 93.639 209.764 99.6504 181.49 103.465C195.748 93.4078 211.335 94.4482 224.506 88.09C215.323 85.3155 206.623 80.1133 196.835 81.385C184.148 83.119 171.581 85.6623 159.257 88.8992C131.344 96.2979 105.245 107.743 79.9908 123.349C80.4742 121.384 80.4742 120.112 81.0783 119.534C96.9073 103.928 118.536 97.5695 136.782 85.3155ZM234.052 304.501C237.556 304.963 239.489 305.657 241.181 305.425C250.606 304.038 260.272 302.998 269.576 300.801C291.447 295.83 312.955 289.356 331.563 276.524C339.055 271.438 347.15 266.236 350.292 257.45C358.025 235.601 360.2 212.827 353.554 190.631C347.15 169.244 333.134 151.672 316.701 136.066C315.976 135.372 314.767 135.256 312.713 134.332C314.646 139.418 316.217 143.695 317.909 147.742C326.367 167.972 325.884 189.359 324.071 210.283C322.38 230.745 314.767 249.242 296.643 262.305C291.809 265.773 287.58 270.051 282.626 273.172C276.464 277.102 269.818 280.917 260.514 280.686C284.076 261.727 309.572 245.658 313.197 214.098C317.788 174.215 311.988 144.389 298.334 134.678C296.763 143.464 295.918 152.713 293.259 161.383C290.48 170.284 285.888 178.608 281.659 187.972C285.043 188.203 286.613 188.434 288.184 188.319C301.234 187.047 309.088 201.035 301.355 211.786C294.347 221.497 285.647 230.167 276.826 238.491C272.718 242.306 269.576 246.236 267.039 251.092C260.997 262.768 254.11 274.097 247.222 285.31C243.476 291.784 238.885 297.564 234.052 304.501ZM183.785 400.221C193.331 404.151 201.064 407.388 208.798 410.625C220.398 415.596 227.647 413.515 234.414 403.573C237.797 398.487 241.664 393.631 245.41 388.891C247.464 386.233 249.881 383.689 251.935 381.377C248.068 370.973 237.677 369.817 230.306 364.961C223.539 360.453 216.289 362.418 212.181 369.354C206.623 378.834 199.494 386.926 190.31 393.516C188.377 394.903 186.806 397.099 183.785 400.221ZM163.607 341.147C159.015 354.21 166.748 372.591 184.269 388.198C189.465 384.383 194.902 380.684 199.856 376.291C201.669 374.788 202.998 371.435 202.635 369.239C200.46 357.332 197.802 345.54 195.265 333.633C184.873 336.292 174.481 338.719 163.607 341.147ZM157.565 362.649C147.415 366.464 137.628 369.701 128.203 373.747C119.14 377.678 118.899 382.649 126.994 387.735C134.003 392.128 141.132 396.29 148.382 400.336C154.786 403.804 168.198 401.03 172.186 395.481C173.152 394.094 173.877 391.435 173.152 390.163C167.956 381.377 167.352 370.164 157.565 362.649ZM40.9621 117.338C44.1037 114.448 46.1579 112.367 48.5745 110.633C54.8578 105.893 60.6577 100.46 67.666 96.8759C87.1199 86.8184 108.749 81.963 129.894 76.1828C139.319 73.6395 149.107 72.4835 158.773 70.7494C158.773 69.9402 158.652 69.131 158.652 68.3217C153.215 68.3217 147.898 68.0905 142.461 68.3217C118.899 69.3622 96.5448 75.3736 75.52 85.3155C65.491 90.1709 55.9453 95.9511 46.762 101.962C42.4121 104.968 39.1496 109.592 40.9621 117.338ZM297.247 62.0791C307.397 59.3046 317.667 58.8422 323.83 49.1315C324.796 47.513 328.18 45.779 329.509 46.2414C331.563 47.0506 333.013 49.7095 334.221 51.7904C334.825 52.7152 334.342 54.3336 334.342 55.6053C335.792 54.1024 336.034 52.5996 336.155 51.0967C336.759 38.4959 329.025 32.6001 316.459 35.837C303.167 39.3051 297.851 46.0102 297.247 62.0791ZM287.58 28.4384C282.747 23.005 279.001 18.8432 274.168 13.4098C271.389 21.8489 269.093 28.554 266.072 37.8023C274.289 34.2186 279.968 31.7909 287.58 28.4384Z" fill="black"/>
<path d="M136.783 85.3158C118.537 97.5698 96.7872 103.928 81.1999 119.535C80.5957 120.228 80.5957 121.384 80.1124 123.349C105.245 107.743 131.466 96.4138 159.378 88.8995C171.703 85.6626 184.39 83.0037 196.957 81.3852C206.744 80.1136 215.323 85.3158 224.627 88.0903C211.578 94.5641 195.869 93.5237 181.611 103.466C209.886 99.6507 235.14 93.6393 261.481 93.0612C262.206 97.1074 262.569 99.5351 262.931 102.078C264.26 100.46 265.348 99.0726 266.556 97.5698C274.531 107.165 274.531 109.708 265.952 149.707C276.102 136.297 279.727 123.465 281.418 109.708C294.952 123.812 289.393 154.563 265.589 191.903C264.381 186.007 263.414 181.845 262.81 177.568C262.085 171.903 261.844 166.123 261.239 160.343C260.394 152.597 258.34 145.892 249.64 142.077C242.39 138.956 235.381 134.679 229.219 129.823C216.169 119.535 200.824 117.107 184.995 117.107C153.699 117.222 109.475 120.575 75.0374 138.725C83.1332 136.528 91.1081 134.101 99.2038 132.367C113.22 129.476 127.358 126.702 141.616 124.39C149.47 123.118 157.566 123.003 165.42 122.078C193.936 118.841 218.223 127.974 239.611 145.545C246.981 151.557 251.694 159.302 253.144 168.088C255.077 179.417 255.198 191.093 256.165 202.538C256.285 203.694 256.285 204.735 256.406 206.816C263.898 205.775 271.51 206.584 276.585 199.648C277.793 198.03 280.814 196.874 282.868 196.874C286.614 196.989 291.447 197.105 293.864 199.186C297.61 202.307 294.468 206.816 291.931 209.474C283.835 217.798 277.189 227.971 265.227 232.248C263.777 232.826 261.844 233.404 261.239 234.445C257.615 240.919 250.969 242.537 244.323 244.387C239.973 245.658 240.094 246.005 241.665 253.52C245.048 253.751 248.552 253.982 252.66 254.213C251.815 256.756 251.573 258.953 250.485 260.918C235.261 287.045 218.102 311.9 188.378 324.5C167.957 333.171 146.087 336.754 123.733 331.668C100.291 326.35 79.2666 315.946 60.2959 301.842C46.2794 291.553 31.2963 282.536 21.0255 268.086C13.6548 257.797 9.66734 246.236 11.1173 234.329C12.084 226.353 17.0381 218.607 21.1464 211.208C24.5297 204.966 27.4296 200.11 24.288 192.018C21.8714 185.891 24.8922 177.915 25.6172 170.053C31.1754 170.978 35.2837 171.672 39.392 172.481C39.6337 172.134 39.8753 171.672 39.9962 171.325C36.2504 169.013 32.5046 166.701 27.7921 163.695C31.2963 151.557 40.842 143.118 49.3002 133.06C43.5003 125.777 49.1794 120.922 54.8585 116.298C66.7 106.587 80.8374 101.038 95.3372 96.2982C106.333 92.7144 117.449 89.4775 128.687 86.3562C131.224 85.6626 134.003 85.6626 136.783 85.3158ZM50.5085 167.626C51.2335 161.73 49.9044 156.181 47.6086 148.551C42.0503 157.684 48.2127 162.192 50.5085 167.626C42.8961 176.527 42.6545 185.313 49.0586 195.718C55.946 206.816 67.1834 205.197 77.0916 206.7C79.7499 222.769 102.345 243.115 118.537 244.734C122.887 245.196 125.424 243.462 125.545 238.375C118.658 235.254 111.166 232.595 104.4 228.78C97.3914 224.734 89.7789 220.804 86.5165 212.48C91.9539 208.318 100.291 210.515 104.641 203.81C99.6872 203.116 95.5789 202.538 91.5914 202.076C95.3372 194.677 99.5663 188.55 101.862 181.729C105.487 170.631 100.05 161.961 88.5706 158.493C80.5957 156.065 72.6208 156.528 65.1292 160.112C60.1751 162.308 55.3418 165.082 50.5085 167.626ZM209.161 157.453C200.219 153.869 192.486 149.707 184.149 147.742C169.649 144.389 150.316 161.152 150.678 175.487C150.92 185.198 163.728 204.157 179.678 205.891C195.386 207.625 208.315 198.608 212.061 182.886C214.236 173.753 214.236 173.637 224.265 172.944C228.736 172.597 232.723 171.788 235.744 166.354C232.602 166.007 230.548 165.314 228.615 165.776C225.111 166.47 221.727 167.973 218.223 168.897C212.786 170.4 210.853 167.857 210.973 163.117C216.048 158.84 223.54 157.221 224.869 149.823C223.782 149.014 222.815 148.089 222.573 148.204C217.619 151.557 212.665 155.025 209.161 157.453ZM100.291 275.715C99.3247 276.64 98.2372 277.565 97.2705 278.374C101.258 282.883 104.762 287.969 109.475 291.784C119.383 299.761 130.62 298.374 138.837 288.894C141.737 285.542 146.691 281.264 142.099 277.103C136.541 272.132 134.366 278.606 131.466 281.842C124.699 289.588 118.416 290.05 109.837 283.577C106.575 281.033 103.554 278.259 100.291 275.715ZM255.802 231.67C252.056 230.399 249.881 228.78 248.552 229.243C246.74 229.936 245.29 232.017 244.323 233.867C244.081 234.445 246.256 236.988 246.619 236.873C248.552 236.295 250.244 235.023 255.802 231.67ZM47.4877 221.035C52.321 218.376 52.5627 215.948 48.0919 213.521C47.3669 213.174 46.0378 213.752 44.5878 213.983C44.5878 215.37 44.2253 216.526 44.7086 217.451C45.3128 218.723 46.5211 219.763 47.4877 221.035Z" fill="white"/>
<path d="M234.051 304.501C239.005 297.565 243.476 291.784 247.221 285.657C254.109 274.444 260.875 263.115 267.038 251.439C269.575 246.468 272.717 242.653 276.825 238.838C285.646 230.514 294.346 221.844 301.354 212.133C309.087 201.382 301.233 187.394 288.184 188.666C286.613 188.781 285.042 188.55 281.659 188.319C285.888 178.955 290.479 170.632 293.258 161.73C295.917 153.06 296.763 143.811 298.333 135.026C312.108 144.736 317.787 174.562 313.196 214.445C309.571 246.005 284.075 262.074 260.513 281.033C269.938 281.265 276.463 277.45 282.625 273.519C287.579 270.398 291.808 266.12 296.642 262.652C314.767 249.589 322.379 231.092 324.071 210.631C325.883 189.591 326.366 168.319 317.908 148.089C316.217 143.927 314.646 139.765 312.712 134.679C314.767 135.604 315.975 135.719 316.7 136.413C333.133 152.019 347.15 169.591 353.554 190.978C360.199 213.289 358.024 235.948 350.291 257.797C347.149 266.583 339.054 271.669 331.562 276.872C312.954 289.588 291.567 296.062 269.575 301.148C260.271 303.229 250.726 304.385 241.18 305.773C239.488 305.657 237.555 304.963 234.051 304.501Z" fill="white"/>
<path d="M183.785 399.073C186.685 395.952 188.256 393.755 190.431 392.253C199.614 385.779 206.743 377.571 212.301 368.091C216.289 361.155 223.539 359.19 230.426 363.698C237.797 368.554 248.189 369.594 252.055 380.114C250.001 382.426 247.705 384.97 245.53 387.628C241.784 392.484 237.918 397.339 234.535 402.31C227.768 412.252 220.518 414.333 208.918 409.362C201.185 406.125 193.452 403.004 183.785 399.073Z" fill="#ECA51D"/>
<path d="M254.472 63.4665C251.935 69.8248 254.352 74.1021 262.206 77.6858C263.293 73.8709 264.501 70.8652 264.864 67.7439C266.314 57.1083 272.235 49.1316 280.572 42.6578C282.747 41.0394 285.889 40.577 290.48 38.7273C289.514 43.1202 289.393 45.4323 288.426 47.1664C284.439 54.2182 280.451 61.3857 275.618 68.0907C272.476 72.368 268.368 76.2986 264.139 79.5355C256.647 85.2001 248.552 84.3908 243.114 77.5702C232.843 64.507 225.352 50.1721 224.023 33.4095C223.419 25.8953 227.164 20.4619 232.843 16.7625C237.918 13.41 244.202 11.7916 249.881 9.47949C250.606 10.1731 251.331 10.7511 252.056 11.4448C250.606 14.6817 249.277 18.0342 247.585 21.1555C243.114 29.2478 241.906 37.9181 242.51 46.9352C242.873 54.7962 245.893 60.9232 254.472 63.4665Z" fill="white"/>
<path d="M163.606 341.147C174.36 338.604 184.873 336.176 195.264 333.749C197.802 345.54 200.581 357.447 202.635 369.355C202.998 371.551 201.668 374.788 199.856 376.406C194.902 380.799 189.344 384.499 184.269 388.314C166.748 372.707 159.136 354.21 163.606 341.147Z" fill="white"/>
<path d="M157.565 361.502C167.352 369.017 168.077 380.23 173.273 389.016C173.998 390.288 173.273 392.947 172.306 394.334C168.319 399.767 154.786 402.542 148.502 399.189C141.252 395.259 134.123 390.981 127.115 386.588C119.019 381.502 119.261 376.531 128.323 372.6C137.507 368.554 147.294 365.317 157.565 361.502Z" fill="#ECA51D"/>
<path d="M40.9613 117.338C39.1488 109.593 42.4113 104.969 46.882 101.963C55.9444 95.9515 65.4902 90.1713 75.3984 85.4315C96.4232 75.374 118.777 69.3626 142.339 68.4377C147.656 68.2065 153.093 68.4377 158.531 68.4377C158.531 69.2469 158.652 70.0562 158.652 70.8654C148.985 72.5995 139.198 73.7555 129.773 76.2988C108.627 81.8478 86.9983 86.7031 67.5443 96.7607C60.6569 100.344 54.7361 105.778 48.4529 110.518C46.1571 112.367 44.1029 114.448 40.9613 117.338Z" fill="white"/>
<path d="M297.246 62.0794C297.971 46.0105 303.167 39.3055 316.458 35.8373C329.025 32.6004 336.637 38.4962 336.154 51.0971C336.033 52.5999 335.792 54.1028 334.342 55.6056C334.342 54.334 334.825 52.7155 334.221 51.7907C333.012 49.7098 331.562 47.0509 329.508 46.2417C328.179 45.6637 324.796 47.5133 323.829 49.1318C317.667 58.8425 307.396 59.3049 297.246 62.0794Z" fill="white"/>
<path d="M254.473 63.4668C246.256 56.0681 245.048 47.1666 248.189 37.2247C250.606 29.5948 253.989 22.6586 259.91 17.3408C258.098 32.7161 256.285 48.0915 254.473 63.4668Z" fill="white"/>
<path d="M287.58 28.4385C279.847 31.7911 274.289 34.2187 266.072 37.6869C269.093 28.5542 271.268 21.7335 274.168 13.2944C279.122 18.8434 282.747 23.0052 287.58 28.4385Z" fill="white"/>
<path d="M50.3875 167.741C55.3416 165.198 60.1748 162.308 65.129 159.996C72.6205 156.528 80.5954 155.95 88.5704 158.377C100.049 161.845 105.487 170.631 101.862 181.614C99.6869 188.434 95.4578 194.561 91.5912 201.96C95.5786 202.538 99.5661 203 104.641 203.694C100.291 210.399 91.9536 208.203 86.5162 212.364C89.7787 220.803 97.3911 224.734 104.399 228.664C111.045 232.479 118.537 235.138 125.545 238.26C125.424 243.346 122.766 245.08 118.537 244.618C102.224 242.999 79.7496 222.653 77.0913 206.584C67.1831 204.966 55.9457 206.7 49.0583 195.602C42.6542 185.197 43.0167 176.527 50.6291 167.51C50.5083 167.51 50.3875 167.741 50.3875 167.741ZM66.6998 201.151C79.9913 200.226 90.0203 192.827 93.5245 180.573C95.9411 172.134 92.6786 167.51 83.4954 166.585C71.4122 165.313 62.8331 171.094 55.7041 179.533C51.3541 184.735 53.4083 191.093 55.5832 195.949C57.0332 198.607 62.954 199.417 66.6998 201.151Z" fill="black"/>
<path d="M209.16 157.452C212.664 155.025 217.618 151.557 222.693 148.204C222.935 148.089 223.901 149.013 224.989 149.823C223.66 157.106 216.168 158.84 211.093 163.117C210.851 167.857 212.906 170.284 218.343 168.897C221.847 167.972 225.11 166.47 228.735 165.776C230.668 165.429 232.843 166.123 235.864 166.354C232.843 171.787 228.976 172.597 224.385 172.943C214.355 173.637 214.356 173.753 212.181 182.885C208.314 198.723 195.506 207.74 179.798 205.89C163.969 204.041 151.16 185.197 150.798 175.487C150.315 161.152 169.769 144.389 184.268 147.742C192.485 149.707 200.218 153.869 209.16 157.452ZM205.535 174.331C205.414 166.47 195.868 153.406 184.631 154.909C174.118 156.296 160.948 168.204 161.189 177.683C161.31 186.353 173.756 197.336 183.181 197.105C195.022 196.758 205.897 185.891 205.535 174.331Z" fill="black"/>
<path d="M100.29 275.715C103.432 278.374 106.574 281.033 109.836 283.461C118.415 290.05 124.698 289.472 131.465 281.727C134.365 278.49 136.419 271.9 142.098 276.987C146.69 281.149 141.736 285.426 138.836 288.779C130.619 298.374 119.382 299.645 109.474 291.669C104.761 287.969 101.378 282.767 97.2695 278.259C98.357 277.449 99.3237 276.524 100.29 275.715Z" fill="black"/>
<path d="M50.5073 167.51C48.2115 162.193 41.9282 157.684 47.6073 148.551C49.9031 156.181 51.2323 161.73 50.3865 167.626C50.3865 167.742 50.5073 167.51 50.5073 167.51Z" fill="black"/>
<path d="M255.801 231.671C250.364 234.907 248.672 236.295 246.739 236.988C246.376 237.104 244.08 234.445 244.443 233.983C245.41 232.133 246.86 230.052 248.672 229.358C249.88 228.78 252.055 230.399 255.801 231.671Z" fill="black"/>
<path d="M47.4867 221.035C46.52 219.763 45.3117 218.722 44.7076 217.451C44.3451 216.526 44.5867 215.37 44.5867 213.983C45.9159 213.752 47.245 213.058 48.0908 213.52C52.5616 215.948 52.4408 218.376 47.4867 221.035Z" fill="black"/>
<path d="M66.6991 201.151C62.8324 199.417 56.9117 198.608 55.7034 195.833C53.5284 190.978 51.3534 184.735 55.8242 179.417C62.9533 170.978 71.5323 165.198 83.6155 166.47C92.7988 167.395 96.0612 172.019 93.6446 180.458C90.0196 192.827 80.1114 200.226 66.6991 201.151ZM80.9572 183.695C79.5072 182.77 77.4531 180.573 74.9156 180.227C70.4449 179.417 66.0949 183.348 66.3366 187.51C66.5782 190.862 67.4241 194.446 71.8948 195.024C75.399 195.371 80.5947 189.591 80.9572 183.695Z" fill="white"/>
<path d="M205.535 174.331C206.019 185.776 195.144 196.758 183.061 196.989C173.636 197.22 161.19 186.238 161.069 177.568C160.948 168.088 173.998 156.181 184.511 154.794C195.869 153.522 205.294 166.47 205.535 174.331ZM191.277 182.076C191.277 177.683 187.169 174.678 181.127 174.909C176.898 175.14 173.152 176.065 173.032 181.151C173.032 185.66 177.623 190.515 181.611 190.4C186.565 190.4 191.398 186.122 191.277 182.076Z" fill="white"/>
<path d="M80.9567 183.695C80.4734 189.706 75.2776 195.371 72.0152 195.024C67.4235 194.446 66.6986 190.862 66.4569 187.51C66.2152 183.348 70.5652 179.533 75.036 180.227C77.4526 180.573 79.5067 182.77 80.9567 183.695Z" fill="black"/>
<path d="M191.277 182.076C191.277 186.122 186.444 190.4 181.732 190.515C177.744 190.515 173.032 185.66 173.153 181.267C173.153 176.18 177.019 175.255 181.248 175.024C187.169 174.677 191.277 177.568 191.277 182.076Z" fill="black"/>
<path d="M273.775 90.7061C273.992 89.3069 274.79 88.5139 275.798 87.5718C279.205 84.3892 282.566 81.1398 286.012 78.0021C294.755 70.0415 304.635 63.9007 314.63 57.7624C320.859 53.9371 327.388 50.1394 334.242 47.5592C336.147 46.8421 339.73 45.6403 341.617 46.9257C343.379 48.1263 343.238 51.8014 342.955 53.6278C342.08 59.261 337.36 63.0093 333.1 66.0984C320.576 75.1802 304.937 79.7244 289.928 81.7033C284.85 82.3728 279.318 83.2435 274.493 85.0043C270.756 86.368 282.355 86.1283 286.306 86.5048C294.165 87.2538 301.699 88.8623 309.474 90.1059C317.206 91.3425 324.742 93.6298 329.543 100.376C331.537 103.178 331.334 107.042 328.988 109.312C325.742 112.454 315.579 110.685 311.498 109.779C309.384 109.309 307.823 107.531 306.081 106.344C303.858 104.83 301.255 103.951 299.032 102.41C293.22 98.3794 287.366 94.4568 281.64 90.406C279.993 89.2414 276.835 88.7949 275.668 87.105C275.226 86.4647 274.906 85.9046 274.069 85.9046C266.214 85.9046 258.342 89.3632 250.28 88.9056C247.207 88.7311 243.948 87.1633 241.176 85.9046C238.598 84.7336 234.769 82.1688 233.834 79.3025" stroke="#ECA51D" stroke-width="15" stroke-linecap="round"/>
</g>
<defs>
<clipPath id="clip0_204_300">
<rect width="366" height="446" fill="white"/>
</clipPath>
</defs>
</svg>
