<svg width="566" height="772" viewBox="0 0 566 772" fill="none" xmlns="http://www.w3.org/2000/svg">
<g clip-path="url(#clip0_204_251)">
<path d="M243.35 614.88C224.646 621.575 207.89 627.015 191.523 633.709C180.613 638.103 170.286 643.961 168.338 659.024C167.753 663.418 162.688 667.811 158.596 670.74C137.164 685.804 119.044 704.633 103.652 726.182C95.6639 737.48 89.624 750.451 82.2202 763.631C88.2601 767.188 91.962 769.28 97.0277 772.209C113.589 729.739 142.619 700.03 170.481 670.531C188.796 683.921 205.357 696.683 222.697 708.399C235.362 716.977 248.416 720.742 261.47 708.19C265.561 704.215 271.601 702.332 276.862 699.403C281.928 702.332 286.409 705.051 291.085 707.353C305.503 714.884 319.921 723.044 334.728 729.529C339.404 731.622 347.198 731.831 350.9 728.902C361.226 721.161 370.968 711.746 379.735 701.913C388.503 692.08 395.712 680.783 402.726 671.577C431.757 681.201 445.98 703.168 459.424 726.81C466.633 739.572 477.154 750.451 486.896 761.539C492.351 767.606 497.222 764.259 500.339 758.819C484.168 736.015 469.165 713.42 452.409 692.499C445.006 683.293 434.29 676.807 424.158 671.159C414.806 665.928 406.623 661.326 400.973 650.656C390.451 630.571 370.189 622.83 351.874 615.299C344.86 612.37 333.559 620.947 323.428 624.713C316.414 608.604 313.881 590.611 317.972 574.293C320.505 564.46 332.001 557.346 339.599 549.187C341.353 547.304 343.301 544.793 345.639 543.957C351.484 541.655 357.914 537.889 363.564 538.726C385.97 542.074 407.597 537.262 429.029 532.031C463.32 523.872 497.222 512.993 524.694 488.096C535.41 478.473 546.126 466.757 551.776 453.367C568.337 413.198 569.311 370.1 559.57 328.675C550.217 289.134 528.396 255.66 500.924 226.997C488.454 213.817 475.205 201.473 462.931 188.083C453.579 177.832 447.149 166.116 452.799 151.889C474.426 142.265 495.274 134.315 514.757 123.645C532.487 114.022 539.112 84.5224 529.76 64.8563C520.213 44.5625 501.119 37.4492 480.271 46.2362C473.842 48.956 467.412 51.885 462.151 54.1863C459.813 52.0942 459.034 51.885 458.839 51.2573C457.28 48.1191 455.722 45.1901 454.358 42.0519C441.499 14.4357 424.158 -5.02125 392.205 0.627531C388.308 1.25517 384.412 0.627531 380.515 1.04596C353.238 4.18417 332.195 29.7083 334.728 57.743C336.871 81.8026 345.055 103.561 359.472 122.181C362.2 125.738 364.928 129.503 370.188 136.617C361.616 135.78 356.745 136.198 352.264 134.734C334.144 129.294 316.024 124.064 298.489 117.16C267.51 105.025 236.336 101.469 203.214 105.653C160.739 111.093 120.603 122.599 83.584 144.985C54.3586 162.768 43.2529 183.271 55.7224 219.256C56.1121 220.512 55.7224 221.976 55.7224 224.277C50.6567 231.391 44.8116 238.922 39.9407 246.873C20.8467 277.209 10.1307 309.846 15.3913 347.086C16.1706 352.526 13.8326 359.011 12.2739 364.66C8.18231 378.468 -0.390497 392.276 -0.000823539 405.875C0.583686 433.91 8.96166 459.643 26.8866 482.029C51.6308 512.574 82.6098 533.914 113.589 555.673C150.608 581.615 191.913 595.214 236.531 595.214C237.7 595.214 238.869 596.26 241.207 597.306C241.986 602.536 242.571 607.767 243.35 614.88Z" fill="white"/>
<path d="M243.35 614.88C242.571 607.976 241.791 602.746 241.207 598.143C238.869 597.097 237.7 596.051 236.531 596.051C191.913 596.051 150.608 582.452 113.589 556.509C82.8047 534.96 51.6308 513.621 26.8866 482.866C8.96166 460.689 0.583686 434.747 -0.000823539 406.712C-0.390497 393.113 8.18231 379.305 12.2739 365.497C14.0274 359.848 16.1706 353.572 15.3913 347.923C10.1307 310.474 20.8467 278.045 39.9407 247.709C45.0064 239.759 50.8515 232.228 55.7224 225.114C55.7224 222.813 56.1121 221.139 55.7224 220.093C43.058 184.108 54.3586 163.605 83.584 145.822C120.603 123.227 160.934 111.929 203.214 106.49C236.336 102.306 267.315 105.653 298.489 117.997C316.024 124.901 334.339 129.922 352.264 135.571C356.745 136.826 361.616 136.617 370.188 137.454C364.928 130.34 362.2 126.574 359.472 123.018C345.055 104.189 336.871 82.6395 334.728 58.5799C332.195 30.5452 353.238 5.02108 380.515 1.88287C384.412 1.46444 388.308 2.09209 392.205 1.46444C424.353 -4.18434 441.693 15.2726 454.358 42.8888C455.722 46.027 457.28 49.1653 458.839 52.0943C459.034 52.7219 459.813 52.9311 462.151 55.0233C467.412 52.7219 473.842 49.7929 480.271 47.0731C501.119 38.2861 520.213 45.3994 529.76 65.6932C539.112 85.3593 532.487 114.858 514.757 124.482C495.079 134.943 474.231 143.102 452.799 152.726C447.149 166.744 453.579 178.669 462.931 188.92C475.205 202.31 488.454 214.863 500.924 227.834C528.396 256.496 550.217 289.971 559.57 329.512C569.311 371.146 568.532 414.244 551.776 454.204C546.321 467.593 535.41 479.309 524.694 488.933C497.222 513.83 463.32 524.709 429.029 532.868C407.597 537.889 385.97 542.701 363.564 539.563C357.914 538.726 351.484 542.492 345.639 544.793C343.301 545.63 341.548 548.141 339.599 550.024C332.001 558.183 320.31 565.296 317.972 575.129C313.881 591.448 316.608 609.231 323.428 625.55C333.559 621.784 344.86 613.206 351.874 616.135C370.189 623.667 390.646 631.408 400.973 651.493C406.623 662.372 414.806 666.765 424.158 671.996C434.29 677.644 445.006 684.339 452.409 693.335C469.165 714.257 483.973 736.852 500.339 759.656C497.222 765.096 492.351 768.443 486.896 762.376C477.154 751.288 466.633 740.409 459.424 727.647C445.98 703.796 431.952 682.038 402.726 672.414C395.712 681.829 388.503 692.917 379.735 702.75C370.968 712.583 361.226 721.998 350.9 729.739C347.198 732.668 339.404 732.459 334.728 730.366C319.921 723.881 305.503 715.721 291.085 708.19C286.409 705.679 281.928 702.959 276.862 700.24C271.601 703.169 265.756 704.842 261.47 709.027C248.221 721.789 235.167 718.023 222.697 709.236C205.357 697.311 188.601 684.548 170.481 671.368C142.619 700.867 113.589 730.576 97.0277 773.046C91.962 770.117 88.2601 768.025 82.2202 764.468C89.624 751.288 95.6639 738.317 103.652 727.019C119.044 705.47 137.164 686.431 158.596 671.577C162.688 668.857 167.753 664.255 168.338 659.861C170.286 644.589 180.613 638.94 191.523 634.546C207.89 627.015 224.646 621.575 243.35 614.88ZM391.231 107.954C379.735 105.444 375.644 96.6569 374.28 85.3593C372.527 69.0406 374.085 53.3495 381.099 38.4953C383.827 32.6373 386.165 26.5701 388.893 19.6661C356.55 21.549 343.496 39.123 347.393 69.2498C350.51 93.7279 361.226 114.022 374.085 133.479C382.658 146.45 395.322 147.914 407.792 137.872C428.25 121.553 438.381 97.7029 446.37 72.5972C446.564 71.9696 444.811 70.7143 442.863 68.2037C423.379 77.8276 412.858 94.5647 408.571 116.951C407.597 122.599 406.038 128.039 404.48 134.525C390.646 128.248 390.841 117.787 390.451 107.327C392.01 100.004 393.959 92.891 395.128 85.5685C397.466 70.0867 399.609 54.6048 401.752 38.9138C402.142 36.194 402.142 33.265 402.337 30.5452C401.167 30.1268 399.804 29.7083 398.635 29.2899C393.374 41.4243 387.334 53.5588 383.048 66.1116C377.397 81.8027 380.125 96.0292 391.231 107.954ZM435.459 192.058C432.731 203.147 430.588 214.654 427.081 225.324C423.379 235.993 418.313 246.245 413.832 256.496C412.663 256.078 411.494 255.66 410.13 255.45C418.313 227.206 426.107 198.753 414.027 167.162C409.74 172.392 407.597 174.903 403.895 179.506C407.402 165.698 402.337 161.304 392.4 161.932C383.437 162.559 374.28 163.815 365.318 165.279C335.897 170.091 306.672 175.321 277.446 180.342C277.251 179.506 276.862 178.46 276.667 177.623C299.853 170.091 322.843 162.35 350.51 153.145C331.221 147.705 317.193 139.337 300.242 142.056C244.909 150.425 193.861 171.765 144.958 199.59C137.554 203.774 130.929 209.423 123.915 214.444C145.737 180.97 182.561 171.974 215.683 147.914C207.11 148.751 203.019 148.542 199.512 149.797C181.587 155.655 163.467 161.304 145.737 167.79C123.331 176.158 101.704 185.782 83.9737 202.938C75.5957 211.097 67.9971 219.675 76.3751 231.6C62.5417 248.128 48.9031 262.982 43.058 284.322C49.098 288.506 54.1637 292.272 59.4243 295.829C59.0346 296.666 58.8398 297.502 58.4501 298.339C52.9947 297.502 47.5393 296.666 39.551 295.41C38.5768 308.172 33.7059 322.19 37.6026 332.232C43.6425 347.923 37.7975 357.756 30.9782 368.635C15.3913 393.741 12.079 420.311 23.9641 447.927C28.4453 458.597 34.6801 468.849 42.0839 477.217C74.037 512.574 110.861 541.237 152.556 561.112C174.183 571.364 197.174 581.197 221.918 578.686C236.141 577.222 249.974 573.874 264.197 572.201C285.045 569.69 301.996 557.765 318.167 545.212C347.782 522.198 366.681 489.77 384.606 456.714C386.944 452.321 388.113 447.09 390.451 440.814C386.165 440.814 383.632 440.605 381.099 440.814C375.254 441.023 369.604 439.768 370.578 432.445C370.968 429.098 375.644 424.914 378.956 423.658C388.308 420.311 397.466 417.382 402.726 407.131C404.09 404.62 407.987 403.365 410.714 402.109C427.86 393.741 438.771 377.841 450.266 362.986C453.384 359.011 455.332 348.341 453.189 346.458C449.097 342.693 441.888 341.856 435.848 341.647C432.536 341.437 428.055 344.157 425.912 347.086C417.534 358.593 406.428 357.338 395.128 358.174C395.128 353.781 395.322 351.061 395.128 348.341C393.764 329.512 394.348 310.474 390.257 292.272C387.529 279.301 381.294 264.865 372.137 256.496C348.172 234.111 322.648 213.398 288.552 211.934C242.181 210.051 196.784 215.072 152.361 229.508C139.697 233.692 127.033 237.249 114.368 241.015C168.143 210.26 226.594 203.984 285.824 203.147C305.503 202.938 326.155 205.239 343.691 218.001C357.134 227.834 370.383 238.295 384.801 246.036C397.66 252.94 401.947 263.61 402.921 277.418C403.7 287.879 404.675 298.13 405.454 308.591C406.038 315.704 406.623 323.026 411.299 329.931C435.848 286.414 455.332 243.525 435.459 192.058ZM485.921 233.483C484.752 234.32 483.583 235.157 482.414 235.993C502.872 278.045 503.262 323.026 499.95 368.217C496.248 417.591 468.776 451.066 432.147 476.59C424.548 481.82 415.585 488.515 404.869 486.004C421.82 469.058 437.602 452.739 453.773 437.048C467.217 423.868 475.205 407.549 479.687 389.138C488.065 354.199 488.065 318.633 482.025 283.694C478.712 265.283 475.985 245.199 457.67 229.508C462.346 266.329 446.759 295.41 434.29 326.583C439.94 327.002 442.473 327.002 445.006 327.211C466.438 329.721 476.569 347.295 465.074 366.752C455.332 383.489 441.888 398.344 428.445 412.361C420.846 420.311 415.391 428.68 410.52 438.722C398.05 463.828 383.827 487.887 370.383 512.365C367.656 517.386 364.733 522.198 359.278 531.613C377.008 529.102 389.867 528.266 402.142 525.127C440.719 515.503 478.712 504.415 511.64 479.309C528.006 466.966 541.255 452.321 545.541 430.353C547.1 422.822 548.464 415.29 549.048 407.758C551.192 373.656 554.309 339.136 537.553 307.963C526.837 288.088 514.368 269.468 501.898 250.848C497.806 244.362 491.377 239.341 485.921 233.483ZM283.097 693.126C298.878 700.449 311.153 706.307 323.428 712.165C339.989 719.906 347.782 718.232 358.888 703.169C369.019 689.151 378.372 674.506 388.503 659.652C383.827 646.681 372.332 641.869 361.421 636.011C339.989 624.713 338.43 625.55 324.986 646.053C316.998 658.397 306.282 668.648 296.54 679.737C293.228 683.712 289.331 687.059 283.097 693.126ZM249.585 592.494C251.728 624.922 259.132 652.33 285.045 672.833C293.033 665.928 301.411 659.443 308.815 652.12C311.348 649.61 313.491 644.589 312.907 641.241C309.4 620.529 305.113 599.817 301.022 579.105C284.46 583.289 267.705 587.682 249.585 592.494ZM184.899 657.141C187.822 662.163 188.796 665.928 191.134 667.602C205.162 677.226 219.19 687.059 233.803 695.637C241.012 699.821 262.834 691.662 266.341 684.549C267.51 682.247 268.289 678.481 267.315 676.808C258.742 661.326 259.327 639.986 241.596 628.688C223.866 638.521 203.019 641.66 184.899 657.141ZM63.321 203.356C113.784 146.659 181.587 139.337 244.714 120.298C199.317 116.323 156.843 127.202 116.511 148.124C101.509 156.074 87.2859 165.697 73.4525 175.949C66.2436 181.389 60.983 189.548 63.321 203.356ZM520.018 86.6146C513.588 64.4379 506.769 58.9983 492.156 61.7181C469.555 65.9024 458.255 81.3842 460.008 106.908C474.621 104.189 489.623 102.515 498.391 87.2422C504.431 76.9907 510.666 80.7566 520.018 86.6146ZM443.837 49.7929C436.433 40.5875 430.783 33.6834 422.794 23.8504C418.313 39.3322 415.196 50.839 410.909 66.1116C423.574 59.8352 432.147 55.4417 443.837 49.7929Z" fill="black"/>
<path d="M435.46 192.059C455.333 243.525 435.849 286.414 411.495 330.14C406.819 323.027 406.234 315.913 405.65 308.8C404.87 298.339 403.896 288.088 403.117 277.627C401.948 263.819 397.856 253.149 384.997 246.245C370.579 238.504 357.33 228.043 343.887 218.21C326.351 205.448 305.699 202.938 286.02 203.356C226.79 203.984 168.339 210.26 114.564 241.224C127.228 237.458 140.088 233.692 152.557 229.717C196.98 215.281 242.572 210.26 288.748 212.143C323.039 213.398 348.368 234.32 372.333 256.706C381.295 265.074 387.53 279.719 390.453 292.481C394.349 310.683 393.96 329.721 395.323 348.551C395.518 351.27 395.323 353.99 395.323 358.384C406.624 357.338 417.73 358.802 426.108 347.295C428.251 344.366 432.732 341.647 436.044 341.856C442.084 342.065 449.293 342.693 453.385 346.668C455.528 348.551 453.58 359.221 450.462 363.196C438.967 378.05 428.056 393.95 410.91 402.319C407.988 403.783 404.091 404.829 402.922 407.34C397.467 417.591 388.309 420.311 379.152 423.868C375.645 425.123 371.164 429.307 370.774 432.655C369.995 439.977 375.45 441.233 381.295 441.023C383.828 440.814 386.361 441.023 390.647 441.023C388.504 447.3 387.335 452.53 384.802 456.924C366.683 489.979 347.783 522.408 318.363 545.421C302.192 557.974 285.436 569.899 264.393 572.41C250.365 574.083 236.337 577.431 222.114 578.895C197.37 581.406 174.379 571.573 152.752 561.321C111.057 541.446 74.0381 512.784 42.2798 477.427C34.6811 469.058 28.6412 458.597 24.16 448.137C12.4698 420.52 15.782 393.95 31.1741 368.844C37.9934 357.965 43.8384 348.132 37.7985 332.441C33.9018 322.399 38.7727 308.382 39.7469 295.62C47.93 296.875 53.3854 297.712 58.646 298.548C59.0357 297.712 59.2305 296.875 59.6202 296.038C54.5545 292.272 49.2939 288.715 43.2539 284.531C49.099 263.401 62.7376 248.546 76.571 231.809C68.193 219.884 75.7916 211.097 84.1696 203.147C101.9 185.991 123.527 176.367 145.738 168.208C163.468 161.513 181.588 155.864 199.513 150.216C203.02 149.17 207.111 149.379 215.684 148.333C182.562 172.392 145.738 181.389 123.916 214.863C130.93 209.842 137.555 204.193 144.959 200.009C193.863 172.183 244.91 150.843 300.243 142.475C317.194 139.964 331.222 148.124 350.511 153.563C322.844 162.769 299.854 170.3 276.668 178.041C276.863 178.878 277.253 179.924 277.447 180.761C306.673 175.74 336.093 170.719 365.319 165.698C374.281 164.233 383.244 162.978 392.401 162.35C402.338 161.513 407.403 166.116 403.896 179.924C407.598 175.321 409.936 172.811 414.028 167.58C426.302 199.172 418.314 227.625 410.131 255.869C411.3 256.287 412.469 256.706 413.833 256.915C418.314 246.454 423.575 236.412 427.082 225.742C430.589 214.654 432.732 203.147 435.46 192.059ZM81.8316 285.159C79.2987 276.999 76.7658 268.631 73.4536 258.17C67.2188 276.581 68.7775 280.138 82.6109 284.74C79.2987 289.762 75.0123 294.364 73.0639 300.013C70.531 306.708 66.8292 315.495 68.9724 321.353C76.9607 344.994 85.7283 359.848 109.888 357.338C113.005 356.919 116.123 357.756 118.656 357.965C120.409 364.869 120.799 371.355 123.332 376.376C135.996 402.109 158.402 414.244 182.367 423.868C188.992 426.588 193.473 422.612 193.863 413.198C171.651 402.946 147.881 393.741 133.658 369.472C142.426 361.313 154.895 364.869 161.909 353.572C154.311 352.317 148.271 351.48 141.841 350.434C147.686 338.09 154.311 327.629 157.818 316.122C163.663 296.247 154.506 279.928 135.996 274.489C123.721 270.932 111.642 271.978 99.9514 277.836C93.9114 280.556 87.8715 282.648 81.8316 285.159ZM237.896 282.021C235.947 290.18 233.025 296.875 233.025 303.57C232.635 325.956 256.405 354.409 277.447 357.338C297.126 359.848 322.844 349.178 327.326 316.332C328.884 304.406 333.365 298.967 344.861 299.804C352.265 300.431 360.058 299.804 362.006 289.552C349.927 280.138 335.314 306.289 324.988 285.996C331.222 274.907 347.783 274.489 345.64 253.986C339.795 259.007 336.093 262.145 332.586 265.283C328.689 268.84 324.988 272.397 320.701 276.581C301.217 257.124 279.98 248.546 254.457 263.191C255.626 244.99 275.109 239.969 276.278 220.512C271.407 223.231 268.29 224.068 266.147 226.16C254.262 238.922 242.182 251.475 231.271 265.074C226.205 271.56 226.985 279.092 237.896 282.021ZM147.881 503.578C154.7 496.465 160.351 490.816 165.806 485.167C175.743 475.125 187.823 471.359 201.071 470.313C212.762 469.476 220.36 475.962 227.764 484.121C228.933 485.377 231.076 485.795 232.635 486.423C239.454 483.703 241.013 478.263 237.116 473.242C232.245 466.966 226.79 460.271 220.165 457.133C197.759 446.254 157.428 458.597 142.231 479.728C135.412 489.561 138.724 496.256 147.881 503.578ZM135.801 247.5C135.022 248.546 134.437 249.383 133.658 250.429C146.712 266.33 159.766 282.439 172.82 298.13C180.419 294.783 181.393 289.971 176.912 284.95C166.585 273.652 156.064 262.564 145.348 251.894C143.01 249.802 139.113 248.965 135.801 247.5ZM390.063 404.829C387.14 401.691 385.192 399.39 383.244 397.298C381.1 399.599 377.983 401.482 377.399 404.202C377.009 406.294 380.126 409.014 381.685 411.524C384.023 409.432 386.556 407.549 390.063 404.829ZM81.2471 377.213C77.9348 374.075 76.1813 371.564 73.8433 370.518C72.8691 370.1 69.1672 373.866 69.362 374.702C70.3362 377.422 72.0897 380.142 74.4278 381.816C75.0123 382.443 77.9348 379.514 81.2471 377.213Z" fill="white"/>
<path d="M485.922 233.483C491.377 239.341 497.807 244.362 502.093 251.057C514.368 269.677 527.032 288.297 537.748 308.172C554.504 339.345 551.387 373.866 549.243 407.967C548.854 415.499 547.295 423.031 545.736 430.563C541.45 452.321 528.201 466.966 511.835 479.519C478.713 504.624 440.719 515.713 402.337 525.337C390.062 528.475 377.203 529.312 359.473 531.822C364.928 522.408 367.851 517.596 370.578 512.574C384.022 488.096 398.245 464.037 410.715 438.931C415.586 428.889 421.041 420.52 428.64 412.57C442.083 398.553 455.332 383.908 465.269 366.961C476.764 347.295 466.633 329.721 445.201 327.42C442.668 327.211 440.135 327.002 434.485 326.792C446.954 295.619 462.541 266.539 457.865 229.717C476.18 245.408 478.907 265.493 482.22 283.903C488.454 318.842 488.454 354.409 479.882 389.347C475.4 407.758 467.412 424.286 453.968 437.257C437.797 452.948 422.015 469.267 405.064 486.213C415.78 488.724 424.743 482.029 432.341 476.799C468.971 451.066 496.638 417.591 500.145 368.426C503.457 323.236 502.872 278.255 482.609 236.203C483.583 235.157 484.753 234.32 485.922 233.483Z" fill="white"/>
<path d="M283.098 693.126C289.332 687.059 293.229 683.502 296.541 679.737C306.283 668.648 316.999 658.397 324.988 646.053C338.431 625.55 339.99 624.713 361.422 636.011C372.528 641.869 383.828 646.681 388.504 659.652C378.373 674.506 369.021 689.151 358.889 703.169C347.783 718.232 339.99 719.906 323.429 712.165C311.154 706.516 298.879 700.658 283.098 693.126Z" fill="#ECA51D"/>
<path d="M390.646 107.745C390.841 117.997 390.841 128.457 404.675 134.734C406.233 128.248 407.792 122.809 408.766 117.16C413.053 94.7739 423.769 78.0368 443.057 68.4129C445.006 70.9235 446.759 72.1788 446.564 72.8064C438.576 97.9121 428.445 121.763 407.987 138.081C395.517 148.123 383.048 146.659 374.28 133.688C361.421 114.231 350.705 93.937 347.587 69.459C343.691 39.1229 356.94 21.549 389.088 19.8752C386.165 26.7793 384.022 32.8465 381.294 38.7045C374.28 53.5587 372.527 69.2498 374.475 85.5685C375.644 96.6568 379.93 105.653 391.426 108.164L390.646 107.745Z" fill="white"/>
<path d="M249.586 592.494C267.706 587.682 284.462 583.289 301.218 578.896C305.309 599.817 309.596 620.32 313.103 641.032C313.687 644.379 311.544 649.401 309.011 651.911C301.607 659.234 293.229 665.719 285.241 672.623C259.133 652.33 251.729 624.923 249.586 592.494Z" fill="white"/>
<path d="M184.9 657.141C203.02 641.66 223.868 638.521 241.793 628.479C259.523 639.986 258.743 661.116 267.511 676.598C268.485 678.481 267.511 682.247 266.537 684.339C262.835 691.662 241.013 699.821 233.999 695.428C219.386 686.85 205.358 677.226 191.33 667.393C188.797 666.138 187.823 662.162 184.9 657.141Z" fill="#ECA51D"/>
<path d="M63.3216 203.356C60.9836 189.548 66.0493 181.389 73.4531 175.949C87.2865 165.907 101.51 156.074 116.512 148.124C156.843 127.202 199.317 116.114 244.714 120.298C181.587 139.337 113.784 146.659 63.3216 203.356Z" fill="white"/>
<path d="M520.019 86.6147C510.667 80.7567 504.432 76.9908 498.392 87.2423C489.624 102.306 474.622 103.979 460.009 106.908C458.256 81.3843 469.556 65.9025 492.157 61.7182C506.77 58.9984 513.589 64.438 520.019 86.6147Z" fill="white"/>
<path d="M391.232 107.955C380.321 96.0293 377.398 81.8028 382.854 66.3209C387.335 53.7681 393.18 41.8429 398.441 29.4993C399.61 29.9177 400.973 30.3361 402.142 30.7546C401.948 33.4743 401.948 36.4033 401.558 39.1231C399.415 54.605 397.466 70.296 394.934 85.7779C393.764 93.1004 391.816 100.214 390.452 107.536C390.647 107.745 391.232 107.955 391.232 107.955Z" fill="white"/>
<path d="M443.838 49.7929C432.147 55.6509 423.575 59.8352 410.91 66.1116C415.197 50.839 418.509 39.5414 422.795 23.8503C430.783 33.4742 436.434 40.5875 443.838 49.7929Z" fill="white"/>
<path d="M237.895 282.021C227.179 279.301 226.204 271.56 231.465 264.865C242.376 251.266 254.456 238.713 266.341 225.951C268.289 223.859 271.407 223.022 276.472 220.302C275.303 239.759 255.82 244.781 254.651 262.982C280.174 248.337 301.217 256.706 320.895 276.372C325.181 272.397 328.883 268.631 332.78 265.074C336.287 261.936 339.989 258.798 345.834 253.777C347.977 274.489 331.416 274.698 325.181 285.787C335.703 306.08 350.12 279.929 362.2 289.343C360.252 299.595 352.264 300.222 345.055 299.595C333.559 298.758 329.078 304.197 327.519 316.123C323.038 348.969 297.32 359.848 277.641 357.128C256.599 354.409 232.634 325.746 233.219 303.36C233.024 296.666 235.946 289.971 237.895 282.021ZM317.193 303.57C317.193 286.414 302.386 269.468 287.383 269.259C270.043 269.049 248.416 290.808 248.611 308.382C248.806 322.608 267.12 341.437 280.954 341.856C299.463 342.484 317.193 323.863 317.193 303.57Z" fill="black"/>
<path d="M82.0261 284.949C87.8712 282.648 93.9112 280.556 99.5614 277.836C111.252 271.978 123.331 270.932 135.606 274.489C154.116 279.928 163.273 296.247 157.428 316.122C153.921 327.629 147.296 338.09 141.451 350.433C147.881 351.48 153.921 352.316 161.519 353.572C154.505 365.078 142.036 361.313 133.268 369.472C147.491 393.741 171.261 402.946 193.473 413.198C193.083 422.612 188.602 426.378 181.977 423.868C158.012 414.453 135.606 402.109 122.942 376.376C120.409 371.146 120.019 364.66 118.266 357.965C115.733 357.756 112.615 356.919 109.498 357.338C85.3384 359.848 76.5707 344.994 68.5824 321.353C66.6341 315.495 70.336 306.917 72.674 300.013C74.8172 294.364 78.9088 289.761 82.221 284.74C82.6107 284.74 82.0261 284.949 82.0261 284.949ZM103.263 348.969C124.501 346.877 139.893 333.487 144.958 311.938C147.881 299.176 143.594 291.854 131.904 289.552C116.123 286.414 93.7163 295.619 86.8971 311.52C83.39 319.47 83.39 330.767 86.1177 339.136C87.4816 343.948 97.2234 345.831 103.263 348.969Z" fill="black"/>
<path d="M147.881 503.578C138.724 496.256 135.607 489.561 142.426 479.937C157.623 458.807 197.954 446.463 220.361 457.342C226.985 460.48 232.635 467.175 237.311 473.452C241.208 478.473 239.649 483.912 232.83 486.632C231.271 486.004 229.128 485.586 227.959 484.331C220.555 476.171 212.957 469.476 201.267 470.523C188.018 471.569 175.938 475.334 166.001 485.377C160.156 491.026 154.701 496.674 147.881 503.578Z" fill="black"/>
<path d="M135.801 247.5C138.918 248.965 142.815 249.592 145.153 252.103C155.869 262.773 166.585 273.861 176.717 285.159C181.198 290.18 180.224 294.992 172.625 298.339C159.766 282.439 146.517 266.539 133.463 250.638C134.437 249.592 135.216 248.546 135.801 247.5Z" fill="black"/>
<path d="M82.6106 284.74C68.7773 280.138 67.4134 276.79 73.4533 258.17C76.7656 268.631 79.2984 276.79 82.0261 284.95L82.6106 284.74Z" fill="black"/>
<path d="M390.063 404.829C386.556 407.758 384.023 409.432 381.685 411.315C380.126 408.804 377.009 406.085 377.399 403.992C377.788 401.482 381.101 399.39 383.244 397.088C385.192 399.39 387.14 401.691 390.063 404.829Z" fill="black"/>
<path d="M81.2474 377.213C77.9352 379.514 75.0127 382.443 74.2333 381.816C72.0901 380.142 70.1418 377.422 69.1676 374.702C68.9727 373.866 72.6746 370.1 73.6488 370.518C76.1817 371.564 77.9352 374.075 81.2474 377.213Z" fill="black"/>
<path d="M317.194 303.57C317.194 323.863 299.463 342.693 281.149 341.856C267.121 341.228 249.001 322.399 248.806 308.382C248.416 291.017 270.043 269.049 287.578 269.259C302.386 269.259 317.194 286.414 317.194 303.57ZM280.369 303.36C274.33 303.988 267.51 304.616 267.315 314.24C267.121 321.771 273.94 330.14 279.785 330.349C286.799 330.768 294.398 323.863 294.787 316.959C295.567 309.218 289.722 303.57 280.369 303.36Z" fill="white"/>
<path d="M103.264 348.969C97.2239 345.831 87.482 343.948 85.9233 339.136C83.3905 330.768 83.3905 319.261 86.7027 311.52C93.7168 295.62 115.928 286.205 131.71 289.552C143.595 292.063 147.881 299.176 144.764 311.938C139.893 333.487 124.501 346.877 103.264 348.969ZM128.203 324.073C123.527 318.633 121.384 314.03 118.071 312.566C111.642 309.637 103.069 315.913 102.679 323.445C102.484 329.512 103.459 338.09 110.473 337.253C116.318 336.416 121.189 329.721 128.203 324.073Z" fill="white"/>
<path d="M280.369 303.36C289.721 303.57 295.566 309.218 294.982 316.959C294.592 323.863 286.799 330.767 279.98 330.349C273.94 330.14 267.315 321.771 267.51 314.239C267.51 304.616 274.329 303.988 280.369 303.36Z" fill="black"/>
<path d="M128.203 324.073C121.188 329.721 116.317 336.416 110.667 337.253C103.458 338.299 102.484 329.721 102.874 323.445C103.263 315.913 111.836 309.637 118.266 312.566C121.383 314.03 123.526 318.633 128.203 324.073Z" fill="black"/>
<path d="M429.063 149.451C429.392 147.371 430.604 146.193 432.136 144.792C437.309 140.062 442.414 135.233 447.647 130.57C460.924 118.738 475.929 109.612 491.108 100.489C500.568 94.8036 510.483 89.1594 520.891 85.3248C523.784 84.2589 529.225 82.4728 532.091 84.3832C534.768 86.1676 534.554 91.6295 534.123 94.344C532.794 102.716 525.626 108.287 519.157 112.878C500.138 126.376 476.387 133.129 453.594 136.071C445.882 137.066 437.481 138.36 430.154 140.977C424.479 143.003 442.093 142.647 448.093 143.207C460.028 144.32 471.469 146.71 483.278 148.559C495.02 150.397 506.463 153.796 513.755 163.822C516.784 167.987 516.475 173.729 512.913 177.103C507.983 181.773 492.549 179.144 486.35 177.797C483.141 177.099 480.77 174.457 478.124 172.693C474.749 170.442 470.796 169.136 467.42 166.845C458.592 160.855 449.702 155.025 441.006 149.005C438.506 147.274 433.71 146.61 431.938 144.099C431.266 143.147 430.781 142.315 429.509 142.315C417.581 142.315 405.625 147.455 393.383 146.775C388.716 146.515 383.766 144.185 379.556 142.315C375.641 140.574 369.826 136.762 368.406 132.502" stroke="#ECA51D" stroke-width="15" stroke-linecap="round"/>
</g>
<defs>
<clipPath id="clip0_204_251">
<rect width="566" height="772" fill="white"/>
</clipPath>
</defs>
</svg>
