<svg width="177" height="49" viewBox="0 0 177 49" fill="none" xmlns="http://www.w3.org/2000/svg">
<rect width="177" height="49" rx="20" fill="black"/>
<path d="M42.3887 9.33594V20H41.4951V10.1123H35.4526V20H34.5518V9.33594H42.3887ZM53.0161 14.0967V15.2393C53.0161 15.9863 52.9185 16.6626 52.7231 17.2681C52.5327 17.8687 52.2544 18.3838 51.8882 18.8135C51.5269 19.2432 51.0923 19.5728 50.5845 19.8022C50.0767 20.0317 49.5054 20.1465 48.8706 20.1465C48.2505 20.1465 47.6841 20.0317 47.1714 19.8022C46.6636 19.5728 46.2266 19.2432 45.8604 18.8135C45.4941 18.3838 45.2109 17.8687 45.0107 17.2681C44.8105 16.6626 44.7104 15.9863 44.7104 15.2393V14.0967C44.7104 13.3496 44.8081 12.6758 45.0034 12.0752C45.2036 11.4697 45.4868 10.9521 45.853 10.5225C46.2192 10.0928 46.6562 9.76318 47.1641 9.53369C47.6719 9.3042 48.2358 9.18945 48.856 9.18945C49.4907 9.18945 50.062 9.3042 50.5698 9.53369C51.0776 9.76318 51.5146 10.0928 51.8809 10.5225C52.2471 10.9521 52.5278 11.4697 52.7231 12.0752C52.9185 12.6758 53.0161 13.3496 53.0161 14.0967ZM52.1226 15.2393V14.082C52.1226 13.4521 52.0493 12.8857 51.9028 12.3828C51.7612 11.8799 51.5488 11.4502 51.2656 11.0938C50.9873 10.7373 50.6455 10.4639 50.2402 10.2734C49.835 10.083 49.3735 9.98779 48.856 9.98779C48.353 9.98779 47.9014 10.083 47.501 10.2734C47.1006 10.4639 46.7588 10.7373 46.4756 11.0938C46.1973 11.4502 45.9824 11.8799 45.8311 12.3828C45.6846 12.8857 45.6113 13.4521 45.6113 14.082V15.2393C45.6113 15.874 45.6846 16.4453 45.8311 16.9531C45.9824 17.4561 46.1997 17.8882 46.4829 18.2495C46.7661 18.606 47.1079 18.8794 47.5083 19.0698C47.9136 19.2603 48.3677 19.3555 48.8706 19.3555C49.3931 19.3555 49.8545 19.2603 50.2549 19.0698C50.6553 18.8794 50.9946 18.606 51.2729 18.2495C51.5513 17.8882 51.7612 17.4561 51.9028 16.9531C52.0493 16.4453 52.1226 15.874 52.1226 15.2393ZM63.292 19.231V20H54.9131V19.231H63.292ZM55.1108 19.231V22.5854H54.2173V19.231H55.1108ZM64.0684 19.231L64.061 22.5854H63.1602V19.231H64.0684ZM62.208 9.33594V10.1123H57.3594V9.33594H62.208ZM62.9258 9.33594V20H62.0322V9.33594H62.9258ZM57.0371 9.33594H57.938L57.7476 13.1812C57.7134 13.8696 57.645 14.5068 57.5425 15.0928C57.4448 15.6787 57.3228 16.2158 57.1763 16.7041C57.0298 17.1924 56.8687 17.6294 56.6929 18.0151C56.5171 18.396 56.334 18.7256 56.1436 19.0039C55.9531 19.2773 55.7603 19.4995 55.5649 19.6704C55.3745 19.8364 55.1914 19.9463 55.0156 20H54.459V19.231H54.9277C55.0449 19.1089 55.1987 18.9087 55.3892 18.6304C55.5796 18.3472 55.7749 17.9688 55.9751 17.4951C56.1802 17.0166 56.3608 16.4233 56.5171 15.7153C56.6782 15.0024 56.7881 14.1577 56.8467 13.1812L57.0371 9.33594ZM73.7656 9.33594V20H72.8721V10.1123H66.8296V20H65.9287V9.33594H73.7656ZM77.4497 18.4326L83.5215 9.33594H84.4224V20H83.5215V10.8887L77.4497 20H76.5488V9.33594H77.4497V18.4326ZM93.8267 16.6748H94.7275C94.6543 17.3926 94.4565 18.0127 94.1343 18.5352C93.812 19.0527 93.3726 19.4507 92.8159 19.729C92.2593 20.0073 91.5879 20.1465 90.8018 20.1465C90.1963 20.1465 89.647 20.0317 89.1538 19.8022C88.6655 19.5728 88.2456 19.248 87.894 18.8281C87.5425 18.4033 87.2715 17.8955 87.0811 17.3047C86.8906 16.7139 86.7954 16.0571 86.7954 15.3345V14.0015C86.7954 13.2788 86.8906 12.6245 87.0811 12.0386C87.2715 11.4478 87.5449 10.9399 87.9014 10.5151C88.2578 10.0903 88.6851 9.76318 89.1831 9.53369C89.6812 9.3042 90.2427 9.18945 90.8677 9.18945C91.6245 9.18945 92.2788 9.32861 92.8306 9.60693C93.3823 9.88037 93.8169 10.2759 94.1343 10.7935C94.4565 11.311 94.6543 11.936 94.7275 12.6685H93.8267C93.7583 12.0923 93.6069 11.604 93.3726 11.2036C93.1382 10.8032 92.8135 10.498 92.3984 10.2881C91.9883 10.0732 91.478 9.96582 90.8677 9.96582C90.3696 9.96582 89.9253 10.061 89.5347 10.2515C89.144 10.4419 88.812 10.7153 88.5386 11.0718C88.2651 11.4233 88.0552 11.8457 87.9087 12.3389C87.7671 12.832 87.6963 13.3813 87.6963 13.9868V15.3345C87.6963 15.9204 87.7646 16.46 87.9014 16.9531C88.0381 17.4463 88.2383 17.8735 88.502 18.2349C88.7705 18.5962 89.0977 18.877 89.4834 19.0771C89.8691 19.2773 90.3086 19.3774 90.8018 19.3774C91.4316 19.3774 91.9565 19.2773 92.3765 19.0771C92.8013 18.8721 93.1309 18.5693 93.3652 18.1689C93.5996 17.7686 93.7534 17.2705 93.8267 16.6748ZM100.426 9.97314L96.7344 20H95.7969L99.8252 9.33594H100.477L100.426 9.97314ZM103.78 20L100.082 9.97314L100.03 9.33594H100.682L104.718 20H103.78ZM103.121 16.2354V17.0117H97.4595V16.2354H103.121ZM108.922 9.33594V20H108.028V9.33594H108.922ZM112.577 9.33594V10.1123H104.381V9.33594H112.577ZM114.964 13.9575H117.916C118.688 13.9575 119.334 14.0845 119.857 14.3384C120.384 14.5874 120.782 14.939 121.051 15.3931C121.319 15.8423 121.454 16.3672 121.454 16.9678C121.454 17.4121 121.378 17.8198 121.227 18.1909C121.075 18.562 120.851 18.8843 120.553 19.1577C120.255 19.4263 119.886 19.6338 119.447 19.7803C119.007 19.9268 118.497 20 117.916 20H114.378V9.33594H115.279V19.231H117.916C118.541 19.231 119.046 19.126 119.432 18.916C119.818 18.7012 120.101 18.4204 120.282 18.0737C120.462 17.7271 120.553 17.3535 120.553 16.9531C120.553 16.5576 120.462 16.1914 120.282 15.8545C120.101 15.5176 119.818 15.2466 119.432 15.0415C119.046 14.8315 118.541 14.7266 117.916 14.7266H114.964V13.9575ZM130.257 16.6748H131.158C131.085 17.3926 130.887 18.0127 130.565 18.5352C130.243 19.0527 129.803 19.4507 129.247 19.729C128.69 20.0073 128.019 20.1465 127.232 20.1465C126.627 20.1465 126.078 20.0317 125.584 19.8022C125.096 19.5728 124.676 19.248 124.325 18.8281C123.973 18.4033 123.702 17.8955 123.512 17.3047C123.321 16.7139 123.226 16.0571 123.226 15.3345V14.0015C123.226 13.2788 123.321 12.6245 123.512 12.0386C123.702 11.4478 123.976 10.9399 124.332 10.5151C124.688 10.0903 125.116 9.76318 125.614 9.53369C126.112 9.3042 126.673 9.18945 127.298 9.18945C128.055 9.18945 128.709 9.32861 129.261 9.60693C129.813 9.88037 130.248 10.2759 130.565 10.7935C130.887 11.311 131.085 11.936 131.158 12.6685H130.257C130.189 12.0923 130.038 11.604 129.803 11.2036C129.569 10.8032 129.244 10.498 128.829 10.2881C128.419 10.0732 127.909 9.96582 127.298 9.96582C126.8 9.96582 126.356 10.061 125.965 10.2515C125.575 10.4419 125.243 10.7153 124.969 11.0718C124.696 11.4233 124.486 11.8457 124.339 12.3389C124.198 12.832 124.127 13.3813 124.127 13.9868V15.3345C124.127 15.9204 124.195 16.46 124.332 16.9531C124.469 17.4463 124.669 17.8735 124.933 18.2349C125.201 18.5962 125.528 18.877 125.914 19.0771C126.3 19.2773 126.739 19.3774 127.232 19.3774C127.862 19.3774 128.387 19.2773 128.807 19.0771C129.232 18.8721 129.562 18.5693 129.796 18.1689C130.03 17.7686 130.184 17.2705 130.257 16.6748ZM139.369 15.6567H135.743L135.333 15.4443C134.605 15.2197 134.046 14.8584 133.656 14.3604C133.27 13.8623 133.077 13.2568 133.077 12.5439C133.077 11.8555 133.221 11.2744 133.509 10.8008C133.802 10.3223 134.22 9.9585 134.762 9.70947C135.304 9.46045 135.946 9.33594 136.688 9.33594H139.955V20H139.054V10.1123H136.688C135.79 10.1123 135.113 10.3296 134.659 10.7642C134.205 11.1938 133.978 11.7847 133.978 12.5366C133.978 12.9956 134.073 13.4009 134.264 13.7524C134.454 14.104 134.732 14.3799 135.099 14.5801C135.47 14.7803 135.917 14.8804 136.439 14.8804H139.376L139.369 15.6567ZM136.271 15.1074L133.656 20H132.682L135.355 15.1074H136.271ZM46.0288 32.1187V32.8877H39.5469V32.1187H46.0288ZM39.7593 27.3359V38H38.8584V27.3359H39.7593ZM46.7539 27.3359V38H45.853V27.3359H46.7539ZM53.1113 27.9731L49.4199 38H48.4824L52.5107 27.3359H53.1626L53.1113 27.9731ZM56.4658 38L52.7671 27.9731L52.7158 27.3359H53.3677L57.4033 38H56.4658ZM55.8066 34.2354V35.0117H50.145V34.2354H55.8066ZM66.2729 33.6567H63.2334V32.8877H66.2729C66.9077 32.8877 67.4229 32.7852 67.8184 32.5801C68.2188 32.3701 68.5093 32.0869 68.6899 31.7305C68.8755 31.374 68.9683 30.9736 68.9683 30.5293C68.9683 30.0947 68.8755 29.6943 68.6899 29.3281C68.5093 28.9619 68.2188 28.6689 67.8184 28.4492C67.4229 28.2246 66.9077 28.1123 66.2729 28.1123H63.5483V38H62.6475V27.3359H66.2729C67.0542 27.3359 67.7109 27.4702 68.2432 27.7388C68.7803 28.0073 69.1855 28.3809 69.459 28.8594C69.7324 29.3379 69.8691 29.8896 69.8691 30.5146C69.8691 31.1689 69.7324 31.7329 69.459 32.2065C69.1855 32.6753 68.7827 33.0342 68.2505 33.2832C67.7183 33.5322 67.0591 33.6567 66.2729 33.6567ZM74.3809 27.9731L70.6895 38H69.752L73.7803 27.3359H74.4321L74.3809 27.9731ZM77.7354 38L74.0366 27.9731L73.9854 27.3359H74.6372L78.6729 38H77.7354ZM77.0762 34.2354V35.0117H71.4146V34.2354H77.0762ZM86.8101 34.6748H87.7109C87.6377 35.3926 87.4399 36.0127 87.1177 36.5352C86.7954 37.0527 86.356 37.4507 85.7993 37.729C85.2427 38.0073 84.5713 38.1465 83.7852 38.1465C83.1797 38.1465 82.6304 38.0317 82.1372 37.8022C81.6489 37.5728 81.229 37.248 80.8774 36.8281C80.5259 36.4033 80.2549 35.8955 80.0645 35.3047C79.874 34.7139 79.7788 34.0571 79.7788 33.3345V32.0015C79.7788 31.2788 79.874 30.6245 80.0645 30.0386C80.2549 29.4478 80.5283 28.9399 80.8848 28.5151C81.2412 28.0903 81.6685 27.7632 82.1665 27.5337C82.6646 27.3042 83.2261 27.1895 83.8511 27.1895C84.6079 27.1895 85.2622 27.3286 85.814 27.6069C86.3657 27.8804 86.8003 28.2759 87.1177 28.7935C87.4399 29.311 87.6377 29.936 87.7109 30.6685H86.8101C86.7417 30.0923 86.5903 29.604 86.356 29.2036C86.1216 28.8032 85.7969 28.498 85.3818 28.2881C84.9717 28.0732 84.4614 27.9658 83.8511 27.9658C83.353 27.9658 82.9087 28.061 82.5181 28.2515C82.1274 28.4419 81.7954 28.7153 81.522 29.0718C81.2485 29.4233 81.0386 29.8457 80.8921 30.3389C80.7505 30.832 80.6797 31.3813 80.6797 31.9868V33.3345C80.6797 33.9204 80.748 34.46 80.8848 34.9531C81.0215 35.4463 81.2217 35.8735 81.4854 36.2349C81.7539 36.5962 82.0811 36.877 82.4668 37.0771C82.8525 37.2773 83.292 37.3774 83.7852 37.3774C84.415 37.3774 84.9399 37.2773 85.3599 37.0771C85.7847 36.8721 86.1143 36.5693 86.3486 36.1689C86.583 35.7686 86.7368 35.2705 86.8101 34.6748ZM96.5513 34.6748H97.4521C97.3789 35.3926 97.1812 36.0127 96.8589 36.5352C96.5366 37.0527 96.0972 37.4507 95.5405 37.729C94.9839 38.0073 94.3125 38.1465 93.5264 38.1465C92.9209 38.1465 92.3716 38.0317 91.8784 37.8022C91.3901 37.5728 90.9702 37.248 90.6187 36.8281C90.2671 36.4033 89.9961 35.8955 89.8057 35.3047C89.6152 34.7139 89.52 34.0571 89.52 33.3345V32.0015C89.52 31.2788 89.6152 30.6245 89.8057 30.0386C89.9961 29.4478 90.2695 28.9399 90.626 28.5151C90.9824 28.0903 91.4097 27.7632 91.9077 27.5337C92.4058 27.3042 92.9673 27.1895 93.5923 27.1895C94.3491 27.1895 95.0034 27.3286 95.5552 27.6069C96.1069 27.8804 96.5415 28.2759 96.8589 28.7935C97.1812 29.311 97.3789 29.936 97.4521 30.6685H96.5513C96.4829 30.0923 96.3315 29.604 96.0972 29.2036C95.8628 28.8032 95.5381 28.498 95.123 28.2881C94.7129 28.0732 94.2026 27.9658 93.5923 27.9658C93.0942 27.9658 92.6499 28.061 92.2593 28.2515C91.8687 28.4419 91.5366 28.7153 91.2632 29.0718C90.9897 29.4233 90.7798 29.8457 90.6333 30.3389C90.4917 30.832 90.4209 31.3813 90.4209 31.9868V33.3345C90.4209 33.9204 90.4893 34.46 90.626 34.9531C90.7627 35.4463 90.9629 35.8735 91.2266 36.2349C91.4951 36.5962 91.8223 36.877 92.208 37.0771C92.5938 37.2773 93.0332 37.3774 93.5264 37.3774C94.1562 37.3774 94.6812 37.2773 95.1011 37.0771C95.5259 36.8721 95.8555 36.5693 96.0898 36.1689C96.3242 35.7686 96.478 35.2705 96.5513 34.6748ZM100.235 31.9575H103.194C103.966 31.9575 104.613 32.0845 105.135 32.3384C105.663 32.5874 106.058 32.939 106.322 33.3931C106.59 33.8423 106.725 34.3672 106.725 34.9678C106.725 35.4121 106.649 35.8198 106.498 36.1909C106.346 36.562 106.122 36.8843 105.824 37.1577C105.526 37.4263 105.157 37.6338 104.718 37.7803C104.278 37.9268 103.771 38 103.194 38H99.6567V27.3359H100.558V37.231H103.194C103.814 37.231 104.317 37.126 104.703 36.916C105.089 36.7012 105.372 36.4204 105.553 36.0737C105.733 35.7271 105.824 35.3535 105.824 34.9531C105.824 34.5576 105.733 34.1914 105.553 33.8545C105.372 33.5176 105.089 33.2466 104.703 33.0415C104.317 32.8315 103.814 32.7266 103.194 32.7266H100.235V31.9575ZM109.398 27.3359V38H108.497V27.3359H109.398ZM119.403 27.3359V28.1123H114.181V27.3359H119.403ZM120.121 27.3359V38H119.22V27.3359H120.121ZM113.858 27.3359H114.752L114.481 32.2651C114.432 33.0806 114.369 33.8008 114.291 34.4258C114.217 35.0508 114.115 35.5903 113.983 36.0444C113.851 36.4937 113.678 36.8623 113.463 37.1504C113.253 37.4385 112.992 37.6533 112.679 37.7949C112.372 37.9316 111.998 38 111.559 38H111.251V37.231L111.522 37.2163C111.81 37.2065 112.059 37.1504 112.269 37.0479C112.484 36.9453 112.665 36.7817 112.811 36.5571C112.962 36.3276 113.087 36.02 113.185 35.6343C113.287 35.2485 113.37 34.77 113.434 34.1987C113.502 33.6274 113.558 32.9463 113.602 32.1553L113.858 27.3359ZM123.783 27.3359V38H122.882V27.3359H123.783ZM130.462 27.3359L125.731 32.9976H123.424L123.343 32.2212H125.204L129.334 27.3359H130.462ZM129.664 38L125.16 32.895L125.68 32.104L130.785 38H129.664ZM135.882 34.4111L139.024 27.3359H140.079L136 36.1689C135.902 36.374 135.787 36.5938 135.655 36.8281C135.523 37.0576 135.36 37.2725 135.165 37.4727C134.969 37.6729 134.73 37.8364 134.447 37.9634C134.164 38.0903 133.817 38.1538 133.407 38.1538C133.304 38.1538 133.18 38.1465 133.033 38.1318C132.887 38.1172 132.784 38.0977 132.726 38.0732L132.799 37.3262C132.862 37.3408 132.958 37.3555 133.084 37.3701C133.216 37.3799 133.326 37.3848 133.414 37.3848C133.731 37.3848 133.995 37.3164 134.205 37.1797C134.415 37.043 134.593 36.8672 134.74 36.6523C134.886 36.4326 135.018 36.2031 135.135 35.9639L135.882 34.4111ZM132.513 27.3359L136.095 34.3745L136.373 35.1729L135.604 35.3267L131.48 27.3359H132.513Z" fill="white"/>
</svg>
