<svg width="1236" height="43" viewBox="0 0 1236 43" fill="none" xmlns="http://www.w3.org/2000/svg">
<g clip-path="url(#clip0_208_435)">
<path d="M601.167 0.245738C731.981 0.245738 862.795 0.245738 993.609 0.245738C1045.87 0.245738 1097.81 0.245738 1150.07 0.245738C1165.78 0.245738 1181.49 -0.737119 1196.56 0.737166C1207.46 1.72002 1219.65 2.45717 1228.63 9.33717C1239.53 17.4457 1236.96 25.0629 1229.27 32.4343C1222.53 38.8229 1213.24 42.0172 1202.01 42.2629C1193.36 42.2629 1185.02 42.2629 1176.36 42.2629C1069.92 43.7372 963.471 42.7543 857.345 42.7543C591.549 43 325.432 42.7543 59.6358 43C50.979 43 42.3222 42.7543 33.6654 42.7543C23.4054 42.7543 13.7868 40.2972 5.12996 36.12C1.60311 34.1543 0 31.4515 0 28.2572C0.320623 16.2172 8.65681 7.86288 23.7261 3.93145C33.986 1.47431 44.5665 0.245738 55.1471 0.245738C236.94 0.245738 419.054 0.245738 601.167 0.245738ZM620.725 32.68C788.09 32.68 955.776 32.68 1123.14 32.68C1148.47 32.68 1173.48 33.6629 1198.81 30.96C1205.54 30.2229 1212.92 30.96 1219.01 27.2743C1224.78 24.08 1225.42 19.6572 1220.29 16.4629C1218.37 15.2343 1216.12 14.7429 1213.56 14.4972C1194 11.5486 1174.12 11.3029 1154.56 11.3029C788.09 10.8115 422.26 10.8115 56.1089 10.8115C44.2459 10.8115 33.0241 13.0229 22.4436 16.2172C16.6724 17.9372 13.1455 21.1315 12.1837 26.0457C11.863 27.0286 11.863 28.0115 13.4661 28.5029C17.6342 29.9772 21.4817 31.6972 26.291 31.9429C40.0778 32.4343 53.8646 32.4343 67.6514 32.4343C252.009 32.68 436.367 32.68 620.725 32.68Z" fill="black"/>
</g>
<defs>
<clipPath id="clip0_208_435">
<rect width="1236" height="43" fill="white"/>
</clipPath>
</defs>
</svg>
