<svg width="1236" height="43" viewBox="0 0 1236 43" fill="none" xmlns="http://www.w3.org/2000/svg">
<g clip-path="url(#clip0_208_437)">
<path d="M598.602 0.245738C730.378 0.245738 862.154 0.245738 993.93 0.245738C1045.87 0.245738 1097.81 0.245738 1149.43 0.245738C1164.82 0.245738 1180.53 -0.737119 1195.92 0.737166C1206.82 1.72002 1219.01 2.45717 1227.98 9.33717C1238.89 17.4457 1236.32 25.0629 1228.63 32.4343C1221.89 38.8229 1212.59 42.0172 1201.69 42.2629C1193.04 42.2629 1184.38 42.0172 1175.72 42.2629C1114.8 43.7372 1053.89 42.7543 993.289 42.7543C681.964 43 370.96 42.7543 59.6358 43C50.979 43 42.0016 43 33.3447 43C23.0848 43 13.4661 40.5429 4.80934 36.3657C1.28249 34.1543 0 31.4514 0 28.0115C0.641245 15.9714 8.65681 7.86288 23.4054 3.93145C33.6654 1.22859 44.2459 0.245738 54.8265 0.245738C236.299 0.245738 417.451 0.245738 598.602 0.245738ZM176.663 32.68C178.907 32.68 180.511 32.68 182.114 32.68C511.714 32.68 841.314 32.68 1170.91 32.68C1173.8 32.68 1176.68 32.9257 1179.25 32.4343C1188.23 31.2057 1197.53 30.7143 1206.82 30.2229C1211.63 29.9772 1215.8 28.7486 1219.33 26.5372C1224.78 23.5886 1225.1 19.4115 1219.97 15.9715C1218.05 14.7429 1215.8 14.2515 1213.24 14.0057C1193.68 11.0572 1174.12 10.8115 1154.56 10.8115C1055.81 10.32 956.738 10.5657 857.986 10.5657C630.023 10.5657 401.74 10.5657 173.777 10.5657C172.174 10.5657 170.892 10.5657 169.289 10.5657C174.419 17.9372 181.793 23.8343 176.663 32.68Z" fill="black"/>
</g>
<defs>
<clipPath id="clip0_208_437">
<rect width="1236" height="43" fill="white"/>
</clipPath>
</defs>
</svg>
