<svg width="1236" height="43" viewBox="0 0 1236 43" fill="none" xmlns="http://www.w3.org/2000/svg">
<g clip-path="url(#clip0_208_441)">
<path d="M601.488 0.245738C732.623 0.245738 863.437 0.245738 994.571 0.245738C1046.19 0.245738 1098.13 0.245738 1149.75 0.245738C1165.46 0.245738 1181.17 -0.737119 1196.24 0.737166C1207.46 1.72002 1219.33 2.45717 1228.63 9.33717C1239.53 17.4457 1236.96 25.0629 1229.59 32.4343C1222.85 38.8229 1213.56 42.2629 1202.66 42.2629C1194 42.2629 1185.34 42.0172 1176.68 42.2629C1119.93 43.7372 1062.86 42.7543 1006.11 42.7543C690.621 42.7543 375.449 42.7543 59.9564 43C51.2996 43 42.9634 42.7543 34.3066 42.7543C24.0467 42.7543 14.428 40.2972 5.77121 36.12C1.28249 34.1543 0 31.4514 0 28.0115C0.641245 15.9714 8.65681 7.86288 23.4054 3.93145C33.6654 1.22859 44.2459 0.245738 54.8265 0.245738C236.94 0.245738 419.374 0.245738 601.488 0.245738ZM1002.59 32.68C1004.51 32.68 1006.11 32.68 1007.4 32.68C1062.22 32.68 1117.05 32.68 1171.55 32.68C1174.12 32.68 1176.68 32.9257 1179.25 32.4343C1188.23 31.2057 1197.2 30.7143 1206.18 30.4686C1210.99 30.2229 1215.16 28.9943 1219.01 27.0286C1224.78 23.8343 1225.1 19.6572 1219.97 16.4629C1218.05 15.2343 1215.8 14.7429 1213.24 14.4972C1193.68 11.5486 1174.12 11.5486 1154.56 11.3029C1103.58 10.5657 1052.28 11.0572 1001.3 11.0572C1000.02 11.0572 998.739 11.0572 997.136 11.0572C1002.59 17.6915 1009.32 24.08 1002.59 32.68Z" fill="black"/>
</g>
<defs>
<clipPath id="clip0_208_441">
<rect width="1236" height="43" fill="white"/>
</clipPath>
</defs>
</svg>
