<svg width="1236" height="43" viewBox="0 0 1236 43" fill="none" xmlns="http://www.w3.org/2000/svg">
<g clip-path="url(#clip0_208_443)">
<path d="M0 27.7657C0.641245 15.7257 8.65681 7.61717 23.7261 3.93146C33.986 1.47431 44.5665 0.245741 55.1471 0.245741C368.075 0.245741 681.323 0.245741 994.251 0.245741C1046.19 0.245741 1098.13 0.245741 1149.75 0.245741C1165.14 0.245741 1180.85 -0.737116 1195.92 0.491456C1207.14 1.47431 1219.33 2.21146 1228.63 9.09146C1239.21 17.2 1236.96 24.5715 1229.59 31.9429C1222.85 38.5772 1213.88 41.7715 1202.66 41.7715C1194 41.7715 1185.34 41.7715 1176.68 41.7715C993.289 43.2457 810.213 42.0172 626.817 42.2629C437.97 42.5086 248.803 42.2629 59.9564 42.5086C51.2996 42.5086 42.6428 42.2629 33.986 42.2629C23.7261 42.2629 14.428 39.8057 5.77121 35.6286C1.60311 34.4 0 31.2057 0 27.7657Z" fill="black"/>
</g>
<defs>
<clipPath id="clip0_208_443">
<rect width="1236" height="43" fill="white"/>
</clipPath>
</defs>
</svg>
