<svg width="1236" height="43" viewBox="0 0 1236 43" fill="none" xmlns="http://www.w3.org/2000/svg">
<g clip-path="url(#clip0_208_439)">
<path d="M601.167 0.245741C732.302 0.245741 863.116 0.245741 994.251 0.245741C1046.19 0.245741 1098.13 0.245741 1149.75 0.245741C1165.14 0.245741 1180.85 -0.737116 1196.24 0.491456C1207.46 1.47431 1219.33 2.21146 1228.63 9.09146C1239.53 17.2 1236.96 24.8172 1229.27 32.1886C1222.53 38.5772 1213.24 42.0172 1202.33 42.0172C1193.68 42.0172 1185.02 41.7715 1176.36 42.0172C1115.77 43.4915 1054.85 42.5086 994.251 42.5086C682.926 42.7543 371.281 42.5086 59.9564 42.7543C51.2996 42.7543 42.6428 42.5086 33.986 42.5086C23.7261 42.5086 14.1074 40.0515 5.45058 35.8743C1.28249 34.1543 0 31.4515 0 28.0115C0.641245 15.9715 8.65681 7.86288 23.4054 3.93146C33.6654 1.2286 44.2459 0.245741 54.8265 0.245741C236.94 0.245741 419.054 0.245741 601.167 0.245741ZM642.207 32.68C644.451 32.68 646.054 32.68 647.658 32.68C822.076 32.68 996.816 32.68 1171.23 32.68C1173.8 32.68 1176.68 32.9257 1179.25 32.4343C1188.23 31.2057 1197.2 30.7143 1206.18 30.4686C1210.99 30.2229 1215.16 28.9943 1219.01 27.0286C1224.78 23.8343 1224.78 19.6572 1219.65 16.4629C1217.72 15.2343 1215.48 14.7429 1212.92 14.4972C1193.68 11.5486 1174.12 13.0229 1154.88 11.0572C985.273 11.0572 815.984 11.0572 646.375 11.0572C645.413 11.0572 644.131 10.5657 643.169 11.3029C652.788 18.92 656.635 25.5543 642.207 32.68Z" fill="black"/>
</g>
<defs>
<clipPath id="clip0_208_439">
<rect width="1236" height="43" fill="white"/>
</clipPath>
</defs>
</svg>
