<svg width="423" height="132" viewBox="0 0 423 132" fill="none" xmlns="http://www.w3.org/2000/svg">
<g clip-path="url(#clip0_214_174)">
<path d="M279.732 53.3814C278.638 55.8919 277.666 57.7417 276.815 59.7237C272.319 70.2943 266.608 80.4685 263.691 91.5676C261.383 100.288 261.383 110.198 262.233 119.447C262.841 127.375 269.524 131.339 278.638 132C285.564 132.396 287.509 126.979 289.453 121.694C296.258 103.592 298.202 84.4324 295.65 65.2733C294.314 55.4955 298.202 49.6817 303.306 42.2823C303.792 47.039 304.157 50.7387 304.521 54.3063C305.007 58.2703 305.25 62.2342 305.979 66.0661C308.045 76.3724 321.29 81.2613 328.581 74.1261C332.105 70.6907 335.022 66.5946 338.303 62.7628C349.118 76.9009 364.186 76.6366 373.664 62.7628C374.515 61.5736 376.581 61.4414 377.796 60.6486C379.618 59.4595 382.413 58.1381 382.656 56.4204C383.872 47.6997 389.704 45.3213 396.023 42.6787C395.173 52.1922 393.957 61.045 393.836 70.03C393.836 73.4655 395.659 78.2222 398.089 80.0721C403.314 83.9039 407.567 80.0721 407.81 71.3513C408.418 52.4564 412.307 34.4865 419.719 17.1772C421.542 12.9489 422.028 8.19219 423.243 3.6997C407.203 -2.37838 410.119 -1.32132 405.137 12.8168C404.651 14.006 404.408 15.3273 404.043 16.6486C401.613 25.5015 394.93 29.0691 387.76 33.1652C388.489 22.5946 389.218 13.2132 389.947 3.83183C387.396 2.9069 385.573 2.24624 383.629 1.58558C376.702 -0.528533 375.122 0.26426 373.421 7.66366C372.327 12.2883 371.477 17.045 370.383 21.8018C367.953 31.8438 365.887 41.8859 362.849 51.6637C361.391 56.2883 358.232 60.1201 355.923 64.3483C355.315 64.0841 354.586 63.8198 353.978 63.5555C353.249 61.8378 351.913 59.988 351.913 58.2703C352.399 45.057 353.128 31.7117 353.857 17.8378C353.006 17.5736 351.184 16.7808 349.361 16.2522C342.313 14.006 342.191 14.6667 339.639 22.0661C335.994 32.7688 331.619 43.0751 327.123 53.3814C325.544 56.9489 322.87 59.8558 320.683 63.1591C320.197 62.8949 319.711 62.7628 319.103 62.4985C318.739 49.5495 318.131 36.6006 318.01 23.6516C318.01 20.0841 317.159 17.7057 313.878 17.045C310.111 16.3844 306.101 12.4204 302.577 18.1021C298.081 25.3694 292.977 32.2402 288.481 39.5075C286.537 42.6787 284.592 45.3213 281.433 43.0751C279.732 41.8859 278.517 38.3183 278.517 35.8078C278.273 29.4655 279.246 22.991 279.003 16.6486C278.881 13.2132 277.787 7.79579 275.722 6.73873C267.094 2.24624 263.448 3.03903 259.195 8.85285C257.13 11.4955 255.307 14.5345 254.092 17.7057C250.932 25.5015 248.259 33.5616 245.221 41.4895C242.791 47.964 240.239 54.4384 237.687 61.045C237.079 60.9129 236.472 60.6486 235.864 60.5165C235.864 48.6246 235.5 36.6006 235.986 24.7087C236.229 19.8198 236.107 16.2522 233.191 11.6276C223.712 -3.43544 205.485 -4.36036 196.371 10.8348C190.295 20.8769 187.987 32.2402 187.257 44C186.893 51.1351 186.893 58.5345 188.23 65.5375C189.931 73.8619 196.979 75.7117 203.662 77.033C209.13 78.2222 212.29 74.3904 215.206 70.2943C217.394 67.2552 219.338 64.0841 221.647 60.5165C222.376 62.7628 222.862 64.3483 223.469 65.6697C228.452 77.033 243.034 78.6186 249.352 68.3123C251.783 64.3483 253.484 59.8559 255.185 55.3634C257.859 48.2282 260.289 40.8288 263.327 31.976C264.542 51.3994 264.542 51.3994 279.732 53.3814Z" fill="white"/>
<path d="M133.425 62.8948C132.453 62.7627 131.481 62.6305 130.509 62.4984C130.509 51.3993 130.509 40.1681 130.509 29.069C130.509 26.9549 130.631 24.5765 130.023 22.5945C126.864 11.4954 110.702 9.11702 102.925 18.8948C92.8389 31.4473 89.3149 46.6425 89.801 63.0269C90.044 71.8798 93.4465 76.3723 100.616 78.3542C109.365 80.7326 111.188 79.9398 116.413 71.3512C116.899 70.5585 117.628 69.8978 118.236 69.2371C127.714 82.0539 138.529 81.3933 146.185 68.0479C148.858 63.4233 151.167 58.5344 153.597 53.7777C156.514 47.9639 159.309 42.15 162.225 36.3362C162.59 45.5855 161.739 54.3062 161.496 63.1591C161.253 71.2191 164.534 74.3903 174.012 75.7116C179.966 76.5044 182.761 72.8047 184.341 66.3302C175.47 66.3302 175.592 60.2522 176.199 53.3813C177.172 42.9428 177.901 32.3723 178.265 21.8017C178.387 19.8197 176.807 16.5164 175.349 15.7236C165.506 10.8347 161.01 12.2882 154.691 21.9338C152.261 25.6335 149.952 29.5975 148.008 33.6936C142.904 43.075 138.165 52.9849 133.425 62.8948Z" fill="white"/>
<path d="M85.6693 93.4174C75.705 66.8589 78.0138 39.5075 76.9201 12.4205C75.3404 11.7598 73.6392 10.967 71.938 10.4385C64.0394 8.19223 63.3103 8.72076 61.366 17.5736C60.5154 21.6697 59.5432 25.7658 58.4496 29.7298C55.5332 40.4325 52.6168 51.1352 49.7004 61.97C48.7282 61.8379 47.7561 61.7057 46.784 61.7057C45.9334 44.925 45.3258 28.4084 44.5967 11.0991C43.8676 10.8349 42.2879 9.90995 40.5866 9.24929C32.9311 6.60665 32.3235 7.39944 31.2298 15.8559C29.8931 26.955 28.5564 38.0541 26.0046 48.8889C24.0603 57.3454 20.2933 65.2733 17.3769 73.4655C16.7693 73.2012 16.2833 73.0691 15.6757 72.8048C15.1896 69.7658 14.582 66.7268 14.096 63.8199C13.6099 60.5166 13.2453 57.3454 12.5162 54.0421C11.1795 47.6997 6.44039 44.5286 0 45.7178C1.21517 54.967 2.30882 64.3484 3.6455 73.5976C4.73916 80.997 8.02011 83.7718 16.1617 85.6217C22.3591 86.943 25.64 83.2433 28.4349 78.3544C30.6222 74.5226 32.445 70.4265 34.9968 65.4054C37.7917 74.7868 43.8676 77.8259 50.9155 78.4865C60.5154 79.4115 59.7863 68.3124 64.6469 63.2913C68.2924 88.925 70.7228 92.7568 85.6693 93.4174Z" fill="white"/>
<path d="M279.732 53.3815C264.421 51.3995 264.421 51.3995 262.962 31.9761C259.924 40.8289 257.494 48.0962 254.821 55.3635C253.119 59.856 251.418 64.3484 248.988 68.3124C242.669 78.6187 228.087 77.0331 223.105 65.6698C222.497 64.3484 222.133 62.7629 221.282 60.5166C218.973 64.0842 216.907 67.2554 214.842 70.2944C211.925 74.3905 208.766 78.2223 203.298 77.0331C196.614 75.7118 189.445 73.862 187.865 65.5376C186.528 58.5346 186.407 51.1352 186.893 44.0001C187.5 32.2403 189.931 20.877 196.007 10.8349C205.242 -4.22813 223.348 -3.30321 232.826 11.6277C235.743 16.2524 235.864 19.8199 235.621 24.7088C235.135 36.6007 235.5 48.6247 235.5 60.5166C236.107 60.6487 236.715 60.913 237.322 61.0451C239.874 54.5707 242.426 48.0962 244.856 41.4896C247.773 33.5617 250.568 25.5016 253.727 17.7058C254.942 14.5346 256.886 11.4956 258.831 8.85295C263.084 3.03914 266.851 2.24634 275.357 6.73884C277.423 7.79589 278.516 13.2133 278.638 16.6487C279.003 22.9911 278.03 29.3334 278.152 35.8079C278.273 38.3184 279.367 41.886 281.068 43.0752C284.228 45.3214 286.294 42.5466 288.116 39.5076C292.612 32.2403 297.716 25.3695 302.212 18.1022C305.736 12.4205 309.625 16.3845 313.513 17.0451C316.794 17.7058 317.523 20.0842 317.645 23.6518C317.888 36.6007 318.374 49.5496 318.738 62.4986C319.225 62.7629 319.711 62.895 320.318 63.1593C322.506 59.856 325.179 56.9491 326.759 53.3815C331.255 43.0752 335.629 32.6367 339.275 22.0662C341.827 14.7989 341.827 14.0061 348.996 16.2524C350.819 16.7809 352.763 17.5737 353.492 17.8379C352.763 31.7118 352.034 44.925 351.548 58.2704C351.548 59.9881 352.885 61.8379 353.614 63.5557C354.221 63.8199 354.951 64.0842 355.558 64.3484C357.988 60.1202 361.148 56.1563 362.485 51.6638C365.522 41.886 367.588 31.8439 370.019 21.8019C371.112 17.1773 371.963 12.4205 373.057 7.66376C374.758 0.264363 376.337 -0.52843 383.264 1.58568C385.208 2.24634 387.031 2.90701 389.583 3.83193C388.854 13.2133 388.246 22.5947 387.395 33.1653C394.565 28.937 401.248 25.5016 403.679 16.6487C404.043 15.3274 404.286 14.1382 404.772 12.8169C409.755 -1.32122 406.96 -2.37828 422.878 3.6998C421.785 8.19229 421.177 12.949 419.354 17.1773C412.063 34.3545 408.053 52.3244 407.446 71.3514C407.203 80.0722 402.95 83.7719 397.724 80.0722C395.294 78.2223 393.471 73.4656 393.471 70.0301C393.593 61.0451 394.808 52.1923 395.659 42.6788C389.34 45.3214 383.385 47.8319 382.292 56.4205C382.049 58.0061 379.254 59.3274 377.431 60.6488C376.094 61.5737 374.029 61.5737 373.3 62.7629C363.821 76.6367 348.753 76.901 337.938 62.7629C334.657 66.5947 331.741 70.6908 328.217 74.1262C321.047 81.2614 307.68 76.3725 305.615 66.0662C304.886 62.2343 304.643 58.2704 304.157 54.3064C303.792 50.6067 303.427 47.0391 302.941 42.2824C297.959 49.6818 294.071 55.4956 295.286 65.2734C297.838 84.3004 296.015 103.46 289.088 121.694C287.023 127.111 285.078 132.529 278.273 132C269.281 131.339 262.598 127.375 261.869 119.448C261.14 110.198 261.018 100.288 263.327 91.5677C266.243 80.4686 271.955 70.2944 276.451 59.7238C277.666 57.7418 278.638 55.892 279.732 53.3815ZM201.718 64.7448C202.568 63.6878 203.662 62.895 204.148 61.8379C209.859 48.6247 215.814 35.4115 221.282 21.934C223.591 16.3845 220.917 11.892 217.15 8.06016C204.391 13.874 194.791 49.0211 201.718 64.7448ZM282.648 86.0181C281.554 85.7539 280.339 85.4896 279.246 85.3575C277.666 94.871 276.208 104.384 274.628 113.898C275.6 114.03 276.572 114.294 277.423 114.427C279.246 105.045 280.947 95.5316 282.648 86.0181Z" fill="black"/>
<path d="M133.425 62.8948C138.286 52.9849 143.025 43.2072 147.886 33.4294C149.952 29.3333 152.139 25.3693 154.569 21.6696C160.888 12.1561 165.384 10.7027 175.227 15.4594C176.807 16.2522 178.265 19.4234 178.144 21.5375C177.779 32.1081 177.05 42.5465 176.078 53.1171C175.47 59.9879 175.349 66.1982 184.219 66.066C182.761 72.4084 179.966 76.2402 173.891 75.4474C164.534 74.1261 161.131 70.9549 161.374 62.8948C161.617 54.1741 162.468 45.3213 162.103 36.072C159.187 41.8858 156.392 47.6996 153.476 53.5135C151.045 58.2702 148.737 63.1591 146.063 67.7837C138.408 81.2612 127.593 81.7897 118.114 68.9729C117.507 69.7657 116.778 70.2943 116.292 71.087C111.066 79.6756 109.244 80.6006 100.494 78.09C93.3249 76.1081 89.9224 71.6156 89.6794 62.7627C89.1933 46.3783 92.7173 31.3153 102.803 18.6306C110.58 8.98494 126.742 11.2312 129.901 22.3303C130.509 24.3123 130.388 26.5585 130.388 28.8048C130.388 39.9039 130.388 51.1351 130.388 62.2342C131.481 62.6306 132.453 62.7627 133.425 62.8948ZM103.532 64.8768C104.14 65.009 104.747 65.2732 105.355 65.4054C109.365 51.5315 113.254 37.5255 117.264 23.6516C107.299 29.4654 100.616 52.8528 103.532 64.8768Z" fill="black"/>
<path d="M85.6693 93.4175C70.7228 92.889 68.2924 89.0571 64.7685 63.2914C59.9078 68.4445 60.6369 79.5436 51.0371 78.4866C43.8676 77.8259 37.7917 74.7869 35.1184 65.4055C32.5665 70.5586 30.7438 74.5226 28.5564 78.3544C25.7616 83.2433 22.4806 86.943 16.2833 85.6217C8.02011 83.904 4.73916 81.1292 3.6455 73.7298C2.30882 64.4806 1.21517 55.0992 0 45.8499C6.31887 44.7929 11.1795 47.964 12.5162 54.1743C13.1238 57.3454 13.4884 60.6487 14.096 63.952C14.582 66.9911 15.1896 70.0301 15.6757 72.937C16.2833 73.2013 16.7693 73.3334 17.3769 73.5977C20.2933 65.4055 24.0603 57.4776 26.0046 49.0211C28.5564 38.1863 29.8931 27.0872 31.2298 15.9881C32.3235 7.39948 32.9311 6.60668 40.5866 9.38146C42.2879 9.90999 43.8676 10.8349 44.5967 11.2313C45.3258 28.4085 46.0549 45.0571 46.6625 61.5737C47.6346 61.7058 48.6067 61.8379 49.5789 61.8379C52.4953 51.1352 55.5332 40.4325 58.3281 29.5977C59.4217 25.6337 60.2723 21.5376 61.2445 17.4415C63.1887 8.58867 63.9178 8.06014 71.8164 10.3064C73.5177 10.8349 75.0974 11.6277 76.7986 12.2884C78.0138 39.5076 75.705 66.7268 85.6693 93.4175Z" fill="black"/>
<path d="M201.718 64.7447C194.791 49.021 204.391 13.8739 217.029 8.06006C220.796 11.7598 223.469 16.2522 221.161 21.9339C215.692 35.4114 209.86 48.6246 204.027 61.8378C203.662 62.8949 202.569 63.6877 201.718 64.7447Z" fill="white"/>
<path d="M282.648 86.0181C280.947 95.5316 279.246 104.913 277.544 114.426C276.572 114.294 275.6 114.03 274.75 113.898C276.329 104.384 277.787 94.8709 279.367 85.3574C280.339 85.6217 281.433 85.886 282.648 86.0181Z" fill="white"/>
<path d="M103.532 64.8768C100.616 52.8528 107.299 29.4654 117.264 23.6516C113.254 37.5255 109.365 51.5315 105.355 65.4054C104.626 65.1411 104.018 65.009 103.532 64.8768Z" fill="white"/>
</g>
<defs>
<clipPath id="clip0_214_174">
<rect width="423" height="132" fill="white"/>
</clipPath>
</defs>
</svg>
