<svg width="381" height="102" viewBox="0 0 381 102" fill="none" xmlns="http://www.w3.org/2000/svg">
<g clip-path="url(#clip0_214_150)">
<path d="M318.272 24.1903C316.197 38.0574 313.164 51.7703 312.047 65.6374C311.249 76.8851 323.06 83.2024 333.914 77.5015C340.937 73.8036 347.002 68.8731 353.546 64.4048C356.898 62.2477 360.091 59.9365 363.442 57.9335C369.189 54.2356 374.935 50.3836 380.84 57.6253C365.677 82.8942 337.266 98.7643 307.737 84.7432C297.522 79.9667 292.414 71.9546 292.733 58.858C289.701 64.5589 287.785 68.2568 285.551 72.1087C278.049 85.3595 269.11 87.5166 255.862 79.1963C254.106 78.1178 252.67 76.7311 250.914 75.3444C250.116 76.7311 249.478 77.8096 248.839 78.8882C242.614 90.5981 240.858 91.3685 227.61 87.9788C218.991 85.8217 215.32 81.0453 216.437 70.4139C218.034 54.3897 220.109 38.5196 222.503 22.4954C223.141 18.6435 225.535 14.7915 227.93 11.5558C231.601 6.62533 236.389 4.46823 243.093 6.47125C251.393 8.93651 257.139 13.2507 263.524 19.4139C270.068 25.7311 269.27 30.9697 269.27 37.7492C269.11 46.0694 269.27 54.3897 269.27 65.1752C274.058 55.1601 277.729 46.8398 282.039 38.8277C286.508 30.1994 290.977 21.2628 296.564 13.2507C306.779 -1.23267 317.473 -3.38978 333.595 4.31415C341.256 8.01204 345.087 21.8791 341.895 34.2054C329.125 33.7432 327.21 35.7462 321.304 24.4984C320.187 24.3444 319.229 24.3444 318.272 24.1903ZM247.243 17.5649C245.966 17.5649 244.849 17.5649 243.572 17.4108C234.634 31.8942 234.953 48.0725 235.432 64.2507C240.06 53.3111 244.53 42.3716 247.722 31.1238C248.839 27.1178 247.403 22.1873 247.243 17.5649Z" fill="black"/>
<path d="M56.8226 33.1268C55.7053 54.5438 53.1515 75.4984 38.467 93.2175C30.9651 102.308 25.6978 104.003 13.4075 100.459C4.78828 97.9939 -0.159774 91.9849 -0.000159785 81.6616C0.478684 57.4713 0.797913 33.1268 17.7171 12.9426C22.0267 7.70388 27.1343 3.54376 34.6362 5.08455C45.0112 7.24165 55.2265 9.86098 56.8226 22.3413C57.1419 25.8852 56.8226 29.429 56.8226 33.1268ZM18.6747 90.29C34.317 76.8852 44.8515 32.9728 36.392 18.3353C24.7401 28.3504 12.769 76.2688 18.6747 90.29Z" fill="black"/>
<path d="M158.338 2.46533C170.468 4.1602 170.788 4.93059 177.491 41.139C179.886 37.5952 182.28 34.2055 184.355 30.5076C185.153 29.275 184.993 27.5801 185.313 26.0393C188.186 9.55294 188.186 9.55294 205.424 15.7161C204.307 29.1209 203.189 42.5258 202.232 55.9306C201.753 62.0937 202.232 68.2569 201.593 74.42C200.795 81.1995 202.711 85.9759 210.372 87.2085C208.776 93.8339 203.828 95.0665 198.72 93.988C191.857 92.7554 183.557 92.1391 183.238 82.7403C182.918 73.0333 183.078 63.3264 183.078 53.4653C176.853 53.0031 174.618 55.1602 174.299 61.1693C173.82 69.3354 171.905 77.3475 169.99 85.3596C169.351 88.133 165.84 92.6013 164.563 92.2931C159.774 91.2146 152.113 89.0575 151.634 86.2841C149.559 75.8067 150.038 65.0212 150.038 54.3898C150.038 53.0031 151.794 50.6919 153.23 50.2297C161.051 47.3022 160.732 40.985 160.413 34.9759C159.934 24.0363 158.976 13.2508 158.338 2.46533Z" fill="black"/>
</g>
<defs>
<clipPath id="clip0_214_150">
<rect width="381" height="102" fill="white"/>
</clipPath>
</defs>
</svg>
