<svg width="344" height="138" viewBox="0 0 344 138" fill="none" xmlns="http://www.w3.org/2000/svg">
<g clip-path="url(#clip0_214_328)">
<path d="M131.048 71.3308C130.015 69.2711 128.834 67.4282 128.391 65.5853C126.178 55.2868 124.112 44.9883 122.045 34.5814C121.75 33.0637 121.603 31.2208 120.57 30.1368C115.847 25.5837 110.239 21.5728 105.812 16.8029C100.352 10.8406 87.3651 10.8406 80.7242 16.3693C78.363 18.3206 76.1493 20.3803 74.9687 21.4643C69.0657 17.4533 64.1956 12.1415 57.5547 10.2986C45.0107 6.72122 34.828 13.3339 24.7928 17.5618C22.7267 15.9357 20.9558 14.5264 19.1849 13.0087C18.447 13.0087 17.5616 13.1171 16.8237 13.1171C20.6607 21.5728 12.9867 25.8006 6.78852 30.6788C5.31276 31.8713 4.27973 33.3889 3.09912 34.6898C-2.65635 41.3025 -1.32817 44.4463 8.85459 48.0237C12.3964 43.6874 15.9382 39.3512 19.6276 35.015C20.218 35.2318 20.9558 35.4486 21.5461 35.557C22.5792 40.3269 23.6122 45.0967 24.7928 49.8665C25.8258 54.3112 26.8589 58.4306 22.4316 62.6584C18.8898 66.1273 20.8083 69.7047 24.6452 72.9569C26.5637 74.4746 28.1871 76.8595 28.1871 78.8108C28.6298 87.0496 28.0395 95.3968 28.7774 103.636C29.0725 106.563 31.7289 109.598 34.0901 112.2C35.2707 113.392 38.3698 113.609 40.5835 114.368C41.3213 112.85 42.7971 111.224 42.7971 109.706C42.2068 100.492 41.1738 91.3858 40.5835 82.1713C40.4359 79.5696 40.1407 76.3175 41.9116 74.583C50.4711 66.7778 59.7684 59.5146 68.4754 52.2515C68.9181 53.0103 69.3608 54.9616 70.8366 56.5877C75.7066 61.8995 80.2814 67.5366 86.3321 71.9812C93.4157 77.1847 99.6139 75.9922 104.632 69.3795C106.993 66.1273 108.911 62.7668 111.272 59.081C113.338 62.7668 114.814 66.1273 117.175 69.0543C119.684 72.0896 122.636 75.0166 126.03 77.5099C133.704 83.4722 140.788 83.3638 148.757 77.4015C149.937 76.5343 151.266 75.3418 152.594 75.3418C161.596 75.3418 166.023 70.572 170.155 66.0189C172.664 63.2004 174.435 60.0566 176.501 57.1297C177.534 59.5146 177.239 61.6827 176.649 63.8508C174.14 74.4746 170.303 84.9899 169.565 95.6136C168.384 110.248 171.779 124.558 187.864 135.182C190.521 136.916 195.981 139.084 197.752 138.217C200.851 136.699 203.212 133.23 203.655 130.412C206.311 112.416 202.327 94.6379 196.129 77.5099C191.259 64.0676 200.999 54.0944 205.721 42.7118C207.197 45.2051 208.082 47.59 208.968 50.0834C212.657 59.5146 217.085 68.6207 227.415 75.4502C233.613 79.5696 237.745 79.3528 242.615 74.3661C245.419 71.5476 247.633 68.4039 249.551 66.0189C254.126 70.3552 258.406 75.0166 263.423 79.0276C267.998 82.7134 272.721 82.0629 275.82 77.7267C277 75.9922 277.148 73.1737 276.41 71.3308C274.787 67.645 271.688 64.6097 265.194 67.103C259.882 51.7094 260.767 36.6411 262.095 21.4643C262.538 16.4777 262.39 12.2499 256.34 9.21454C254.126 8.13049 251.617 7.26325 249.256 6.2876C248.223 8.02208 246.747 9.64816 246.452 11.3826C244.386 22.7652 243.206 34.2562 240.254 45.6387C238.483 52.3599 234.351 58.8642 231.104 65.3685C230.366 65.2601 229.481 65.0433 228.743 64.9349C221.955 51.3842 217.822 37.2915 216.051 22.8736C215.461 17.4533 209.706 15.1768 205.574 12.0331C204.983 11.5995 200.261 12.7919 199.375 13.9844C197.162 17.1281 195.981 20.7055 194.505 24.1745C192.734 28.4023 191.259 32.7385 189.635 37.0747C188.897 36.9663 188.307 36.9663 187.569 36.8579C188.897 30.3536 187.127 24.7165 180.19 20.3803C175.763 17.6702 171.779 13.876 166.761 12.6835C157.316 10.5154 149.052 13.7676 144.034 19.7299C130.457 35.9907 126.178 52.7935 141.378 70.1383C138.279 70.2467 135.032 70.7888 131.048 71.3308Z" fill="white"/>
<path d="M286.003 33.1721H285.855C285.855 36.4242 285.707 39.6764 285.855 42.9285C286.298 53.227 288.364 63.0919 300.022 70.2467C306.811 74.3661 311.533 74.9081 316.994 69.9215C324.963 62.8751 332.932 55.612 338.835 47.59C348.722 33.9309 343.852 16.2608 329.242 5.42029C319.502 -1.84287 302.531 -1.73447 294.71 5.85391C289.102 11.2742 284.232 17.0197 285.855 24.4996C286.593 27.3182 286.003 30.2451 286.003 33.1721Z" fill="white"/>
<path d="M131.048 71.3308C135.032 70.6804 138.279 70.2468 141.821 69.7048C126.473 52.3599 130.9 35.5571 144.477 19.2963C149.495 13.334 157.759 10.0818 167.204 12.2499C172.369 13.4424 176.353 17.2366 180.633 19.9467C187.569 24.2829 189.34 29.92 188.012 36.4243C188.75 36.5327 189.34 36.5327 190.078 36.6411C191.701 32.3049 193.177 27.9687 194.948 23.7409C196.424 20.2719 197.604 16.8029 199.818 13.5508C200.704 12.3583 205.426 11.1659 206.016 11.5995C210.148 14.7432 215.756 17.0198 216.494 22.44C218.265 36.8579 222.397 50.8422 229.186 64.5013C229.924 64.6097 230.809 64.8265 231.547 64.9349C234.646 58.3222 238.926 51.9263 240.697 45.2051C243.501 33.931 244.681 22.44 246.895 10.9491C247.19 9.21457 248.813 7.58849 249.699 5.854C252.06 6.82965 254.421 7.6969 256.782 8.78095C262.833 11.8163 262.981 16.0441 262.538 21.0308C261.21 36.0991 260.324 51.2758 265.637 66.6694C272.13 64.1761 275.229 67.103 276.853 70.8972C277.738 72.8485 277.591 75.5586 276.263 77.2931C273.163 81.7377 268.441 82.2798 263.866 78.594C258.849 74.583 254.569 69.9216 249.994 65.5853C248.075 67.9703 245.862 71.114 243.058 73.9325C238.04 78.9192 234.056 79.136 227.858 75.0166C217.527 68.1871 213.1 59.081 209.411 49.6498C208.525 47.2648 207.64 44.7715 206.164 42.2782C201.441 53.6608 191.701 63.634 196.571 77.0763C202.77 94.3128 206.754 111.983 204.098 129.978C203.655 132.797 201.146 136.266 198.195 137.783C196.571 138.651 190.964 136.482 188.307 134.748C172.221 124.124 168.827 109.923 170.008 95.18C170.893 84.5563 174.73 74.041 177.091 63.4172C177.534 61.2491 177.829 59.081 176.944 56.6961C174.878 59.7315 173.107 62.8752 170.598 65.5853C166.466 70.2468 162.039 74.9082 153.036 74.9082C151.708 74.9082 150.38 76.2091 149.199 76.9679C141.23 82.9302 134.147 83.0386 126.473 77.0763C123.078 74.4746 120.127 71.656 117.618 68.6207C115.257 65.6937 113.929 62.3332 111.715 58.6474C109.354 62.3332 107.435 65.6937 105.074 68.9459C100.204 75.5586 94.006 76.7511 86.7747 71.5476C80.7241 67.103 76.1493 61.3575 71.2793 56.1541C69.8035 54.6364 69.3608 52.5767 68.918 51.8179C60.0635 59.081 50.7662 66.4526 42.3543 74.1494C40.4358 75.8839 40.731 79.2444 41.0261 81.7377C41.6165 90.9522 42.6495 100.058 43.2398 109.273C43.3874 110.79 41.9116 112.416 41.0261 113.934C38.8125 113.284 35.7134 113.067 34.5328 111.766C32.1716 109.164 29.5152 106.129 29.2201 103.202C28.4822 94.9632 29.0725 86.616 28.6298 78.3772C28.4822 76.3175 26.8588 74.041 25.0879 72.5233C21.2509 69.2711 19.3325 65.6938 22.8743 62.2248C27.154 57.997 26.2685 53.8776 25.2355 49.4329C24.0549 44.6631 23.0219 39.8933 21.9888 35.1234C21.3985 34.9066 20.6606 34.6898 20.0703 34.5814C16.5285 38.9176 12.8391 43.3623 9.29728 47.5901C-0.885477 44.0127 -2.21366 40.8689 3.54181 34.2562C4.72242 32.8469 5.75545 31.3293 7.23121 30.2452C13.4294 25.367 20.9558 21.1392 17.2664 12.6835C18.0043 12.6835 18.8897 12.5751 19.6276 12.5751C21.3985 13.9844 23.1694 15.5021 25.2355 17.1282C35.4183 12.9004 45.4534 6.28763 57.9974 9.865C64.6383 11.8163 69.5083 17.1282 75.4114 21.0308C76.592 20.0551 78.8056 17.9954 81.1669 15.9357C87.6602 10.407 100.794 10.5154 106.255 16.3693C110.535 21.1392 116.29 25.1502 121.012 29.7032C122.193 30.7872 122.193 32.6301 122.488 34.1478C124.702 44.4463 126.62 54.7448 128.834 65.1517C128.982 67.4282 130.162 69.2711 131.048 71.3308ZM41.6165 58.3222C45.601 54.2028 48.2574 51.4927 50.7662 48.6741C57.1119 41.1941 61.2441 33.1721 60.5062 24.2829C60.3586 22.3316 56.6692 18.6458 56.3741 18.7542C47.9622 21.4644 39.2552 24.0661 32.024 27.9687C29.9579 29.0527 32.1716 34.473 32.7619 37.8336C33.3522 40.8689 34.0901 43.9043 35.2707 46.7228C36.7464 50.3002 38.9601 53.6608 41.6165 58.3222ZM150.38 63.3088C160.563 57.8886 173.845 28.8359 169.565 21.2476C152.741 24.1745 140.64 50.4086 150.38 63.3088ZM101.09 21.898C83.8232 24.6081 76.7396 50.4086 88.8408 64.7181C98.7284 51.059 105.517 37.6168 101.09 21.898ZM187.127 91.169C186.389 91.169 185.651 91.169 185.06 91.169C184.618 101.034 183.585 110.899 188.307 120.438C188.897 120.438 189.635 120.33 190.226 120.33C189.193 110.574 188.16 100.925 187.127 91.169Z" fill="black"/>
<path d="M286.003 33.1721C286.003 30.2451 286.593 27.3182 285.855 24.4996C284.232 17.0197 289.102 11.2742 294.71 5.85391C302.531 -1.73447 319.502 -1.84287 329.242 5.42029C343.852 16.2608 348.575 33.9309 338.835 47.59C333.079 55.612 324.963 62.8751 316.994 69.9215C311.386 74.9081 306.663 74.3661 300.022 70.2467C288.216 63.0919 286.15 53.227 285.855 42.9285C285.707 39.6764 285.855 36.4242 285.855 33.1721H286.003ZM302.384 62.6583C321.126 53.1186 331.013 34.7981 327.914 17.3449C326.881 11.491 323.93 9.32288 316.403 10.7321C312.124 11.5994 306.663 14.6347 305.483 17.4533C300.76 28.9442 297.809 40.8688 299.875 53.0102C300.465 56.154 301.498 59.1893 302.384 62.6583Z" fill="black"/>
<path d="M41.6164 58.322C38.9601 53.6606 36.7464 50.3 35.1231 46.831C33.7949 43.9041 33.057 40.8687 32.6143 37.9418C32.024 34.5812 29.9579 29.161 31.8764 28.0769C39.1077 24.1743 47.8146 21.5726 56.2265 18.8624C56.5216 18.754 60.211 22.4398 60.3586 24.3911C61.0965 33.2804 56.9644 41.3024 50.6186 48.7823C48.4049 51.4925 45.601 54.2026 41.6164 58.322Z" fill="white"/>
<path d="M150.38 63.3088C140.788 50.4086 152.741 24.1745 169.565 21.2476C173.845 28.8359 160.563 57.8886 150.38 63.3088Z" fill="white"/>
<path d="M101.09 21.8979C105.517 37.7251 98.7284 51.1674 88.8408 64.7181C76.7396 50.4086 83.8232 24.6081 101.09 21.8979Z" fill="white"/>
<path d="M187.127 91.1689C188.16 100.925 189.193 110.574 190.226 120.33C189.635 120.33 188.897 120.438 188.307 120.438C183.585 110.899 184.618 101.034 185.06 91.1689C185.798 91.1689 186.389 91.1689 187.127 91.1689Z" fill="white"/>
<path d="M302.384 62.6584C301.498 59.1894 300.465 56.154 299.875 53.0103C297.809 40.8689 300.76 28.9443 305.483 17.4533C306.663 14.6348 312.124 11.5994 316.403 10.7322C324.077 9.21452 326.881 11.491 327.914 17.3449C331.013 34.7982 320.978 53.0103 302.384 62.6584Z" fill="white"/>
</g>
<defs>
<clipPath id="clip0_214_328">
<rect width="344" height="138" fill="white"/>
</clipPath>
</defs>
</svg>
