<svg width="322" height="120" viewBox="0 0 322 120" fill="none" xmlns="http://www.w3.org/2000/svg">
<g clip-path="url(#clip0_215_1079)">
<path d="M199.835 56.682C201.19 53.023 202.447 49.5502 203.753 45.9533C201.673 48.4959 199.545 50.8525 197.659 53.4571C195.676 56.1238 193.355 55.9998 191.033 55.0696C189.486 54.4494 189.05 52.713 189.389 50.7905C189.631 49.4882 190.066 48.3099 190.114 46.7595C189.196 48.4959 188.325 50.3564 187.309 52.0308C185.762 54.5734 184.021 56.4959 181.167 55.6277C178.072 54.6975 177.443 53.5192 178.266 49.5502C178.362 49.1781 178.362 48.806 178.556 47.5657C177.105 50.2323 175.993 52.2789 174.88 54.2633C171.785 59.8447 168.738 60.6509 163.902 56.868C163.225 57.8602 162.693 59.2246 161.774 59.9688C161 60.5889 159.839 60.4649 158.872 60.713C158.775 59.6587 158.437 58.4804 158.582 57.4882C158.872 55.7517 159.452 54.0773 159.646 52.1548C156.744 55.1316 153.359 57.5502 152.053 62.3874C149.441 72.1858 146.975 82.0463 144.46 91.9068C144.315 92.4649 144.17 93.085 144.025 93.6432C142.477 100.465 138.173 100.093 134.546 96.6819C130.87 93.2711 128.79 85.1471 130.386 79.9998C131.16 77.5192 132.514 75.1006 134.014 73.1781C137.737 68.4649 141.8 64.1858 145.524 59.5347C147.265 57.3021 148.571 54.5114 149.828 51.3486C144.17 55.2556 139.14 53.7672 134.449 49.4261C132.708 51.4106 131.015 53.1471 129.516 55.1316C127.485 57.7362 125.018 57.3021 122.745 56.6199C121.633 56.2478 120.81 54.5114 119.601 53.023C118.537 54.6354 117.28 56.6199 115.877 58.5424C114.378 60.6509 112.734 62.2013 110.171 61.2711C107.462 60.3409 106.785 59.5967 106.882 55.9998C106.93 54.3874 107.075 52.713 107.221 50.1083C105.77 52.1548 104.609 53.3951 103.787 54.9455C101.804 58.5424 98.9988 60.0308 95.8552 59.5347C94.6945 59.3486 93.4371 56.992 92.7116 55.3176C92.1313 53.8913 92.3247 51.9688 92.1313 49.6742C89.955 52.0308 88.1172 54.0773 86.231 56.1238C83.1358 59.4106 76.897 58.6664 74.4305 54.6354C73.8018 53.6432 73.3181 52.2789 73.2214 51.0385C72.3509 40.6199 77.6708 28.0308 84.9252 23.0695C87.295 21.4571 91.5509 22.0773 93.292 24.4959C93.6789 25.054 93.9207 25.9843 93.9691 26.7285C94.2109 32.682 92.6149 37.7672 89.6164 42.2944C88.1172 44.5269 86.1343 44.713 84.635 43.4726C83.6678 42.6664 83.3776 40.0618 83.2325 38.2013C83.0874 36.4649 83.5711 34.6664 83.4743 32.806C80.4275 35.9688 79.4602 40.3719 78.8799 44.961C78.5897 47.3796 78.638 49.9223 78.7831 52.3409C78.9282 54.5114 80.0406 55.4416 81.4431 53.8913C85.7957 49.054 90.2451 44.2168 94.3076 38.9455C95.5651 37.3331 95.6134 34.2323 96.1938 31.7517C97.9348 24.1858 99.1923 16.2478 103.158 9.86025C105.044 6.82149 107.221 4.03079 109.445 1.42614C111.331 -0.744405 115.926 -0.248281 117.715 2.10831C118.151 2.66645 118.247 3.96877 118.199 4.89901C117.57 11.4726 114.765 16.806 112.057 22.1393C111.186 23.8758 110.364 25.6122 109.494 27.3486C111.138 29.6432 115.152 27.7827 114.717 32.3719C117.619 29.5812 120.375 26.5424 123.47 24.0618C126.372 21.7672 129.467 23.3176 132.127 25.3021C132.853 25.7982 133.336 27.9688 133.143 29.0851C132.272 33.1781 131.063 37.1471 129.999 41.1781C129.903 41.5502 129.661 41.9843 129.371 42.1083C126.034 43.3486 126.421 47.1316 125.937 50.2323C126.13 50.4184 126.275 50.6664 126.469 50.8525C128.017 48.806 129.709 46.9455 131.16 44.775C133.578 41.054 135.803 37.2091 138.124 33.3641C138.221 33.1781 138.318 32.992 138.463 32.93C141.365 30.7595 144.121 27.5347 147.217 26.7285C150.699 25.8602 154.471 27.0385 158.147 27.5967C159.936 27.8447 160.565 29.3951 159.936 31.6897C159.598 32.93 159.356 34.2323 159.017 35.7207C159.694 36.0928 160.468 36.5889 161.435 37.1471C160.855 38.9455 160.275 40.744 159.694 42.4804C159.791 42.6044 159.839 42.7285 159.936 42.9145C161 41.7362 162.209 40.6199 163.176 39.3176C165.933 35.5967 168.593 31.7517 171.35 27.9688C173.333 25.2401 175.122 27.3486 177.105 28.3409C175.896 31.8137 174.735 35.1626 173.574 38.4494C175.557 40.682 179.136 38.6354 180.103 42.7285C182.376 39.3796 184.649 35.8447 187.068 32.4339C188.373 30.5734 188.228 29.0851 186.439 28.0928C184.069 26.7905 181.651 25.7982 179.33 24.4339C178.314 23.8758 177.54 22.6354 176.67 21.7052C177.492 20.775 178.169 19.6587 179.088 19.0385C185.955 14.6354 193.065 10.6664 199.739 5.76722C202.254 3.96877 204.043 3.84474 206.558 5.89125C205.01 8.74397 203.656 11.7207 201.963 14.3254C200.561 16.5579 198.336 15.8137 197.514 12.775C192.678 15.8758 187.89 18.9145 182.812 22.1393C186.584 24.3719 189.824 26.2323 193.016 28.2168C193.5 28.5269 193.983 29.7052 193.887 30.3254C193.161 34.9765 192.291 39.5657 191.275 45.1471C192.291 42.9145 192.92 41.3641 193.645 39.8758C195.047 36.899 196.885 34.1083 197.804 30.8835C198.433 28.5889 198.723 26.1703 200.174 24.3719C200.658 23.8137 201.286 23.2556 201.915 23.1316C203.946 22.8215 205.977 22.7595 208.009 22.5734C211.684 22.2013 215.312 21.1471 218.987 22.7595C221.55 23.9378 222.227 25.3641 220.631 28.3409C218.987 31.5037 217.149 34.4804 215.263 37.3951C211.394 43.2246 207.719 49.1781 205.687 56.5579C205.01 59.1626 203.318 59.2246 199.835 56.682ZM112.637 54.2013C114.862 50.7905 116.941 47.8137 118.828 44.5889C120.762 41.3021 122.6 37.9533 124.196 34.4184C125.211 32.1238 126.227 30.5114 128.887 31.6897C128.645 29.5812 128.5 28.0308 128.307 26.2944C121.488 29.3951 112.057 46.2013 112.637 54.2013ZM154.858 30.0153C151.714 29.2711 148.764 30.0773 147.362 32.1858C144.75 36.2789 141.607 39.9998 141.413 46.5734C147.168 42.1703 152.585 38.3254 154.858 30.0153ZM144.073 70.4494C143.88 70.3254 143.686 70.2013 143.493 70.0773C142.864 70.6975 142.138 71.1936 141.607 71.9378C140.011 74.1083 138.415 76.2789 137.012 78.6975C134.207 83.3486 134.739 88.93 138.511 93.7052C140.397 85.7672 142.235 78.0773 144.073 70.4494ZM203.366 28.3409C207.041 34.2323 207.041 34.2323 206.558 40.868C209.895 35.5967 213.57 31.7517 215.602 26.1703C215.505 25.7982 215.36 25.4882 215.263 25.1161C211.346 26.1703 207.477 27.2246 203.366 28.3409ZM108.865 33.1161C104.319 34.9765 97.9832 46.6354 100.305 50.7905C103.738 45.4571 107.221 40.1858 108.865 33.1161ZM103.835 25.4882C107.559 19.4106 110.993 13.1471 112.686 5.70521C107.898 10.9145 104.947 17.5502 103.835 25.4882ZM85.9892 38.3874C88.8426 35.5967 90.1968 29.4571 88.9393 26.1083C87.6335 26.8525 86.9081 27.1006 86.4245 29.7672C85.9408 32.744 86.5212 35.2866 85.9892 38.3874ZM201.286 33.054C198.965 38.4494 196.885 43.3486 194.806 48.2478C200.077 43.3486 202.495 37.7052 201.286 33.054ZM170.576 51.8447C171.543 49.6122 172.559 47.4416 173.719 44.713C170.818 46.0153 169.85 47.9378 170.576 51.8447ZM186.681 41.3021C186.439 41.1781 186.197 41.054 186.004 40.93C185.036 43.4106 184.021 45.8292 183.053 48.3099C183.247 48.4339 183.489 48.5579 183.682 48.744C184.649 46.2633 185.665 43.7827 186.681 41.3021Z" fill="black"/>
<path d="M228.611 74.0465C229.627 72.8062 230.981 71.7519 231.61 70.2015C233.206 66.2325 235.527 65.8604 238.961 67.3488C236.785 71.8759 234.705 76.341 232.577 80.7441C232.77 80.9302 232.916 81.0542 233.109 81.2403C236.591 78.2015 239.735 74.5426 241.863 69.8294C244.281 64.5581 244.136 64.4341 249.359 66.2325C247.086 72.5581 243.168 78.0155 243.072 86.2635C247.57 82.6666 252.019 80.124 253.905 73.7364C256.807 63.9379 261.401 55.6279 267.156 48.186C269.526 45.1472 272.138 45.7674 274.749 46.6976C276.394 47.2558 276.055 49.1783 275.427 50.5426C273.202 55.3178 270.929 60.031 268.511 64.6821C267.495 66.6666 266.238 68.341 264.835 70.5116C266.915 70.6976 268.704 70.8217 270.493 71.1317C272.767 71.5038 273.299 72.6201 272.428 75.3488C271.944 76.8372 271.122 78.2015 270.3 79.3798C267.495 83.4108 264.351 86.8837 260.337 88.8682C257.242 90.4186 253.712 89.1783 251.825 86.1395C249.069 87.3178 246.409 89.1162 243.652 89.4263C239.928 89.8604 238.139 89.7984 237.075 84.217C233.931 87.6899 230.449 88.7442 226.483 87.4418C226 87.2558 225.226 88.124 224.694 88.6821C222.566 90.9147 220.39 92.4651 217.488 92.093C213.038 91.5349 213.038 91.6589 212.41 86.3255C210.959 87.3798 209.605 88.8682 208.057 89.4263C207.138 89.7364 205.929 88.6821 204.865 88.248C205.155 87.1318 205.349 85.9535 205.832 84.9612C206.945 82.7286 208.299 80.6201 209.411 78.3876C209.943 77.3333 210.088 76.031 210.137 74.6046C207.525 75.8449 205.591 77.8914 204.285 80.8682C202.931 84.031 201.77 87.3178 200.416 90.4806C199.497 92.6511 196.305 93.8914 194.806 92.5271C194.225 91.969 193.742 90.0465 194.032 89.3023C195.144 86.3876 196.643 83.6589 197.949 80.8682C198.868 78.9457 199.69 76.9612 200.561 74.9767C200.271 74.7286 200.029 74.4806 199.739 74.2325C198.384 76.031 196.982 77.8914 195.676 79.6899C193.403 82.8527 191.13 86.0775 188.809 89.1783C187.164 91.4108 184.359 91.9069 182.183 90.8527C181.457 90.5426 180.539 90.8527 179.716 91.0387C179.281 91.1628 178.846 91.7829 178.411 91.7209C175.122 91.5348 173.719 93.9535 172.317 97.4883C170.141 102.946 167.626 108.341 164.579 113.054C162.064 116.899 158.969 120.868 154.374 119.876C153.068 119.628 151.424 118.326 150.892 116.899C150.457 115.721 151.037 113.302 151.763 112.062C152.923 110.139 154.519 108.651 156.067 107.225C157.421 106.046 158.775 106.171 159.936 108.465C159.162 109.829 158.34 111.318 157.518 112.806C157.615 112.93 157.663 113.054 157.76 113.178C158.582 112.124 159.597 111.256 160.178 110.015C163.176 103.752 166.223 97.4263 168.98 90.9767C169.705 89.2403 169.657 86.8837 169.463 84.5891C169.028 85.1472 168.593 85.7054 168.109 86.2015C167.239 87.0697 166.32 88.4961 165.353 88.5581C163.708 88.6201 162.064 87.8139 160.42 87.3798C160.952 85.6434 161.338 83.8449 162.016 82.2325C162.354 81.4263 163.176 80.9302 163.902 80.062C163.031 79.6899 162.402 79.4418 161.822 79.1938C161.725 75.3488 168.545 66.9767 171.785 67.0387C173.478 67.1007 175.944 67.2248 176.283 70.6976C177.347 69.3953 178.314 68.3411 179.233 67.2248C182.086 63.5659 185.423 63.8139 188.857 65.4883C189.341 65.7364 190.018 66.6666 189.969 67.2248C189.679 71.1317 191.178 75.4108 188.857 79.0077C188.664 79.3178 188.615 79.7519 188.518 80.186C188.47 80.3721 188.567 80.5581 188.712 80.9922C191.517 77.3953 194.322 74.1085 196.885 70.4496C199.303 67.0387 202.108 67.2248 205.059 68.4031C205.591 68.6511 205.881 69.8914 206.026 70.2015C208.976 70.5116 211.733 70.8837 214.441 71.0077C215.166 71.0697 215.989 70.6356 216.569 70.0775C219.277 67.5348 222.276 66.9147 225.516 67.4728C228.515 68.093 228.321 71.3178 228.611 74.0465C226.628 74.2325 224.597 74.3566 222.566 74.6046C222.082 74.6666 221.405 74.7286 221.163 75.1007C218.794 78.8837 217.778 83.2248 217.826 88.8682C222.372 84.4031 226 79.8139 228.611 74.0465ZM184.649 68.279C179.765 72.186 175.412 82.3566 176.524 87.0697C181.457 83.5969 185.713 73.9224 184.649 68.279ZM267.447 74.2325C264.255 75.1628 258.306 82.2945 258.016 85.3333C261.885 82.6046 265.028 79.2558 267.447 74.2325Z" fill="black"/>
<path d="M37.7715 53.8915C36.6592 54.5116 35.305 55.876 34.4828 55.5039C33.6607 55.1318 32.8385 52.8372 32.9352 51.5349C33.3705 46.6356 34.241 41.7364 34.8697 37.2713C34.8214 37.3333 34.4345 37.9535 34.1443 38.6356C32.2581 43.0387 30.3236 47.4419 28.5342 51.969C27.4702 54.5736 25.8742 55.0077 23.843 54.5736C21.9085 54.1395 20.651 52.8372 20.2641 50.2946C20.0223 48.6201 19.7805 46.9457 19.5387 45.2713C19.2969 45.1473 19.0067 44.9612 18.7649 44.8372C17.9911 46.2015 17.1206 47.5039 16.3951 48.9302C15.2344 51.2868 14.1704 53.7054 13.0097 56C11.8974 58.2946 10.0112 58.7907 8.36688 57.7984C7.15781 57.0543 5.9971 55.3798 5.51347 53.7054C4.93311 51.7829 5.22329 49.4263 4.88475 47.3798C4.64294 45.7674 4.40112 43.5349 3.48223 42.7907C-0.0482625 39.6899 -0.338439 35.4108 0.241915 30.7597C1.01572 24.5581 3.7724 19.4729 6.72254 14.7597C10.6399 8.4341 15.5729 3.59689 21.8601 1.79844C24.6652 0.930221 27.5669 0.496112 30.4203 0.682159C34.8697 0.992237 39.9478 8.37208 39.7544 14.1395C39.6577 17.4884 38.9806 20.7752 38.5937 24.124C38.4486 25.4263 38.0617 27.7829 38.4002 27.969C39.706 28.8372 41.5922 29.8915 42.7529 29.2713C46.3317 27.4729 49.572 28.2791 52.7156 30.4496C53.6829 31.1318 54.6985 33.1783 54.6501 34.5426C54.4083 42.2946 51.8935 48.7442 46.8637 53.0853C44.0103 55.5039 40.8184 54.2015 37.7715 53.0853C37.7715 53.3333 37.7715 53.6434 37.7715 53.8915ZM28.6793 4.65115C27.8088 4.58914 27.3251 4.4651 26.8415 4.58914C16.3951 7.50386 8.36688 19.2868 5.80365 30.5736C5.22329 33.1783 4.88475 36.3411 6.48073 39.3178C9.14068 35.3488 12.3326 33.4263 16.2984 33.4263C16.8787 33.4263 17.7009 32.124 18.0878 31.1938C21.5699 22.5116 25.0521 13.8294 28.6793 4.65115ZM32.113 7.00774C31.3876 8.99224 30.904 10.4186 30.372 11.8449C27.6153 19.1008 24.8103 26.3566 22.0536 33.6744C21.3765 35.4729 22.3921 38.7597 23.3594 38.2015C25.7775 36.8372 29.0178 35.5349 30.0334 32.9922C32.1614 27.5969 33.177 21.3953 34.4345 15.4418C35.1115 12.4651 34.241 9.79844 32.113 7.00774ZM48.895 32.186C45.8965 32.6201 43.1398 34.6667 42.1725 37.8294C41.0118 41.5504 41.2536 46.0155 40.8184 50.6667C46.6219 47.6279 50.0557 39.2558 48.895 32.186ZM14.8959 38.8217C14.7024 38.5736 14.509 38.2636 14.3155 38.0155C13.2515 39.1938 12.1392 40.4341 10.6883 42.0465C13.5901 42.6667 14.6057 41.3643 14.8959 38.8217Z" fill="black"/>
<path d="M310.49 72.5584C311.022 72.1243 311.747 71.6902 312.327 71.008C314.746 68.3413 317.599 68.9615 320.404 69.2716C320.936 69.3336 321.758 70.7599 321.855 71.6281C322.242 76.0933 321.952 80.4343 320.114 84.4654C319.147 86.5739 318.47 88.9305 317.502 91.101C316.97 92.2793 316.148 93.5196 315.229 94.0157C314.455 94.4499 313.198 94.2018 312.376 93.6437C311.989 93.3956 311.989 91.5351 312.231 90.6669C313.246 87.6281 314.455 84.7754 315.568 81.7987C316.487 79.3801 317.164 76.8995 316.003 73.8607C312.908 76.3413 310.151 78.946 308.41 82.7909C307.201 85.5196 305.46 85.3956 303.671 85.0235C302.51 84.8375 301.978 83.7832 302.752 82.0468C303.525 80.2483 303.961 78.2638 304.541 76.3413C304.251 76.0933 303.961 75.9072 303.622 75.6592C301.204 79.3801 298.834 83.163 296.271 86.7599C294.868 88.7444 293.272 91.039 291.435 91.7832C288.63 92.9615 287.759 91.4111 288.436 87.7522C288.63 86.6359 288.92 85.5816 289.162 84.4654C289.355 83.5351 289.549 82.5429 289.935 80.8685C286.937 83.4111 284.422 85.5196 281.907 87.6902C279.344 89.9227 276.539 90.4809 273.734 89.1785C272.912 88.8064 271.896 86.946 271.944 85.8917C272.235 80.1863 274.217 75.163 277.168 70.946C279.973 67.039 283.697 66.915 287.469 68.1553C289.355 68.7754 289.597 70.5119 288.291 72.0623C286.937 73.7367 282.835 75.8042 281.288 77.1685C281.094 76.8584 280.741 75.9031 282.676 75.469C283.498 74.0426 284.712 72.4964 285.631 70.884C282.391 69.6437 280.069 71.8142 279.102 76.7134C279.779 76.7134 285.452 72.6565 285.631 73.9638C281.907 75.3282 276.877 81.5506 277.023 86.5739C280.263 83.5351 283.116 80.9925 285.921 78.3258C287.324 76.9615 288.775 75.6592 290.081 74.1088C292.208 71.6281 294.627 70.7599 297.722 72.0002C297.673 73.1165 297.625 74.3568 297.528 75.7832C299.028 74.0468 300.527 72.4964 301.881 70.6979C303.912 68.0312 306.379 68.7754 308.7 69.2716C309.426 69.5196 309.861 71.3181 310.49 72.5584Z" fill="black"/>
<path d="M282.841 64.1108C282.677 65.0319 282.278 65.7299 280.99 65.4947C279.536 64.6548 279.57 64.464 279.734 63.5429C279.898 62.6217 280.297 61.9237 281.584 62.159C283.039 62.9989 283.005 63.1896 282.841 64.1108Z" fill="black"/>
<path d="M286.827 64.5518C286.309 65.5124 285.733 66.2044 284.976 65.7859C284.376 64.7011 284.483 64.5021 285.001 63.5415C285.519 62.581 286.095 61.8889 286.852 62.3074C287.452 63.3923 287.345 63.5912 286.827 64.5518Z" fill="black"/>
</g>
<defs>
<clipPath id="clip0_215_1079">
<rect width="322" height="120" fill="white"/>
</clipPath>
</defs>
</svg>
