<svg width="498" height="136" viewBox="0 0 498 136" fill="none" xmlns="http://www.w3.org/2000/svg">
<g clip-path="url(#clip0_214_222)">
<path d="M22.4594 88.8085C21.5611 83.6226 20.9621 79.6036 20.0638 75.5845C17.6681 64.5645 15.4222 53.5444 12.2778 42.7837C11.6789 40.7094 6.88758 39.5425 4.04273 37.9868C3.29408 40.1908 1.79678 42.5244 1.94651 44.5988C3.29408 56.3967 4.79137 68.1946 6.88758 79.8628C7.93569 85.5673 9.43298 90.7532 2.54543 94.6426C1.3476 95.2909 0.598949 97.2356 0.44922 98.6617C-1.1978 110.978 1.49733 122.646 10.9303 131.981C13.9249 134.963 21.1119 134.833 26.2027 136.13C27.2508 132.759 28.8978 129.388 29.0475 126.017C29.1973 121.739 28.1492 117.461 27.4005 113.182C26.5021 107.867 25.3043 102.681 24.2562 96.8466C29.1973 96.5873 33.24 96.328 37.7318 95.9391C40.1275 105.014 44.4697 112.275 55.2502 114.868C66.3302 117.461 74.4155 114.738 78.3085 105.144C81.0036 106.7 82.8004 107.867 84.7469 108.774C98.0728 114.868 106.458 112.534 111.698 101.255C113.495 97.2356 115.292 93.0869 115.891 88.9381C116.789 83.104 120.382 80.3814 126.072 79.3443C128.767 88.1603 131.013 96.717 134.158 105.014C137.901 115.257 146.885 120.442 159.013 121.998C168.745 123.295 171.59 122.517 175.782 114.868C183.718 100.217 185.964 84.6598 184.616 68.8428C184.467 66.5092 182.071 63.3976 179.675 62.4901C165.002 56.7856 157.815 58.7303 148.532 70.2689C147.633 71.4358 146.585 72.473 145.537 73.5101C144.639 73.2508 143.89 72.8619 142.992 72.6026C144.938 67.2871 146.136 61.5826 149.131 56.9153C158.563 42.1355 164.103 26.4482 165.152 9.59401C165.451 4.66742 163.055 2.20412 157.216 1.29659C140.895 -1.6853 135.954 0.12976 132.511 14.7799C129.516 27.3557 128.318 40.3204 126.971 53.1555C126.372 58.2118 125.174 62.2308 119.334 65.472C119.185 63.0087 119.035 61.1936 118.885 59.2489C118.286 41.8762 111.249 35.2642 91.335 33.0602C82.6507 32.1526 77.2604 35.2642 75.7631 42.7837C73.8166 53.0259 72.3193 63.268 70.6723 73.6398C69.0253 84.2709 66.6296 94.6426 58.8437 104.237C49.261 88.4196 51.9561 72.2137 52.7048 56.1374C49.5605 55.3595 47.1648 54.8409 44.9189 54.3223C36.2345 52.3776 35.3362 52.8962 34.5875 60.9343C34.1383 65.472 34.2881 70.0097 33.3897 74.4177C32.3416 79.7332 30.5448 85.1784 22.4594 88.8085Z" fill="white"/>
<path d="M273.406 114.738C257.385 99.9581 263.075 63.9162 274.304 56.5263C274.753 59.1192 275.502 61.5825 275.502 64.1755C275.352 71.4357 282.24 71.8247 287.331 72.2136C293.32 72.6026 293.17 67.287 294.069 63.6569C294.817 60.9343 295.566 57.9524 294.967 55.3595C294.218 51.9886 293.17 47.7103 290.325 45.7656C279.844 38.246 265.62 40.1907 258.583 50.3032C246.604 67.4167 242.562 85.6969 249.449 105.533C253.192 116.034 260.829 121.609 273.256 123.424C284.186 124.98 290.625 119.535 296.614 113.182C301.405 108.126 305.598 102.421 310.689 96.1984C310.838 98.2727 310.988 99.4395 311.138 100.736C311.886 109.811 313.234 111.237 323.715 112.404C331.8 113.312 330.303 106.829 332.399 103.329C333.747 100.995 334.046 98.4024 335.094 95.9391C338.388 87.9009 341.832 79.8628 345.276 71.9543C346.025 72.084 346.923 72.084 347.672 72.2136C348.72 81.1593 349.768 90.1049 350.666 99.0506C351.415 106.311 358.602 105.144 363.543 106.052C367.885 106.829 368.185 102.94 369.083 99.9581C371.479 91.92 374.473 83.8819 377.318 75.8437C378.516 83.6226 378.516 90.8828 378.516 98.1431C378.516 104.496 382.109 108.645 388.847 110.978C399.029 114.349 407.863 113.182 415.05 105.663C416.996 103.718 419.093 102.032 419.841 101.255C427.028 103.718 433.017 106.959 439.306 107.478C445.445 107.996 451.883 105.663 458.322 104.625C458.322 105.922 457.872 108.126 458.022 110.46C458.322 116.294 461.616 120.053 468.354 121.609C473.444 122.776 476.289 121.48 475.69 116.683C474.343 104.236 479.284 92.8275 483.925 81.4186C488.717 70.0096 493.358 58.471 498 46.9324C495.754 46.1545 494.556 45.8952 493.358 45.5063C482.278 42.0058 482.728 42.1354 477.337 51.0811C470.599 62.1011 463.562 73.1211 455.627 83.4929C451.434 89.0678 445.146 93.3461 438.707 99.3099C433.467 78.8256 444.547 62.6197 449.038 45.7656C431.221 39.8018 432.119 39.8018 426.13 54.8409C425.98 55.2298 425.98 55.7484 425.83 56.1374C419.841 67.676 414.152 79.3442 407.563 90.6235C405.318 94.5129 400.975 97.6245 397.532 101.125C395.735 98.1431 395.735 96.0687 395.885 93.9944C396.334 82.715 397.082 71.5654 397.382 60.2861C397.382 57.3042 396.933 53.0258 394.687 51.3404C386.452 45.3766 376.42 47.3213 370.431 55.4891C368.334 58.3414 366.538 61.1936 363.693 65.472C362.794 55.6188 354.559 55.6188 348.87 55.3595C343.33 55.1002 337.49 58.2117 331.8 59.8971C331.8 58.2117 331.8 55.3595 331.8 52.5072C330.004 51.9886 328.656 51.47 327.308 51.0811C315.929 47.9696 316.678 48.3585 311.886 57.9524C304.849 71.695 296.913 85.1783 288.529 98.4024C284.636 104.107 278.796 108.904 273.406 114.738Z" fill="white"/>
<path d="M243.46 72.3432C243.61 71.1763 243.909 69.7502 244.059 68.1945C244.658 59.2488 240.915 50.9514 234.626 49.266C218.156 44.8579 212.316 43.4318 201.835 54.1925C188.21 68.3241 189.707 99.958 198.092 111.626C206.327 123.035 225.343 122.517 232.38 110.589C239.417 98.7912 243.61 86.2154 243.46 72.3432Z" fill="white"/>
<path d="M22.4594 88.8083C30.5448 85.1782 32.3416 79.733 33.3897 74.2878C34.288 69.8798 34.1383 65.2125 34.5875 60.8045C35.3361 52.7663 36.2345 52.2478 44.9188 54.1925C47.3145 54.7111 49.5604 55.2296 52.7048 56.0075C51.9561 71.9541 49.261 88.2897 58.8437 104.107C66.4799 94.5128 69.0253 84.141 70.6723 73.5099C72.3193 63.2678 73.8166 52.896 75.7631 42.6539C77.2604 35.1343 82.6506 32.0228 91.3349 32.9303C111.249 35.1343 118.137 41.7463 118.885 59.1191C118.885 60.9341 119.185 62.7492 119.334 65.3421C125.174 62.101 126.372 58.0819 126.971 53.0256C128.318 40.1906 129.516 27.2258 132.511 14.65C136.104 -9.61199e-05 140.895 -1.81516 157.216 1.03708C163.055 2.07426 165.451 4.40791 165.152 9.33451C164.103 26.1887 158.563 41.876 149.13 56.6558C146.136 61.4527 144.938 67.1572 142.992 72.3431C143.89 72.6024 144.639 72.9913 145.537 73.2506C146.585 72.2134 147.633 71.1763 148.532 70.0094C157.665 58.4708 165.002 56.5261 179.675 62.2306C182.071 63.1381 184.467 66.3793 184.616 68.5833C185.964 84.5299 183.718 100.088 175.782 114.608C171.74 122.257 168.745 123.035 159.013 121.739C146.885 120.183 138.051 114.997 134.158 104.755C131.013 96.7168 128.767 88.1601 125.922 79.344C120.083 80.2516 116.489 82.9742 115.741 88.9379C115.142 93.0866 113.345 97.365 111.548 101.254C106.308 112.534 97.923 114.867 84.5971 108.774C82.6506 107.866 80.8539 106.7 78.1588 105.144C74.1161 114.738 66.0307 117.46 55.1004 114.867C44.1702 112.274 39.9778 105.014 37.5821 95.9389C33.0902 96.1982 29.0475 96.4575 24.1064 96.8464C25.3043 102.681 26.3524 107.866 27.2508 113.182C27.9994 117.46 29.0475 121.739 28.8978 126.017C28.7481 129.388 27.101 132.759 26.0529 136.13C20.8124 134.833 13.6254 134.963 10.7805 131.981C1.34757 122.646 -1.19783 110.978 0.299469 98.6615C0.598928 97.2354 1.34757 95.2907 2.54541 94.6424C9.43296 90.8826 7.93567 85.5671 6.88756 79.9923C4.79135 68.324 3.29406 56.5261 1.94649 44.7282C1.64703 42.6539 3.29406 40.3202 4.0427 38.1162C6.88756 39.672 11.6789 40.8388 12.2778 42.9132C15.4221 53.6739 17.6681 64.6939 20.0637 75.7139C20.9621 79.6033 21.561 83.6224 22.4594 88.8083ZM167.098 73.3803C165.301 74.6767 164.553 75.0657 164.403 75.4546C160.66 85.4375 156.767 95.4203 153.622 105.533C153.023 107.218 155.719 109.681 157.665 113.052C165.601 99.8283 166.799 87.3822 167.098 73.3803ZM100.019 73.5099C103.014 56.6558 101.367 48.099 94.4793 43.0428C89.5382 54.1925 91.7841 67.1572 100.019 73.5099ZM91.4847 98.6615C92.5328 98.6615 93.7306 98.6615 94.7787 98.6615C96.4257 93.4756 98.0728 88.2897 99.7198 82.7149C95.6771 81.6777 92.6825 81.0294 88.0409 79.8626C89.2387 86.7339 90.2868 92.6977 91.4847 98.6615Z" fill="black"/>
<path d="M273.406 114.738C278.796 109.033 284.636 104.107 288.379 98.2727C296.764 85.0487 304.699 71.695 311.737 57.8228C316.678 48.0992 315.779 47.8399 327.159 50.9515C328.506 51.3404 329.854 51.859 331.651 52.3776C331.651 55.1002 331.651 58.0821 331.651 59.7675C337.34 58.0821 343.18 54.9705 348.72 55.2298C354.26 55.4891 362.495 55.4891 363.543 65.3423C366.388 61.064 368.334 58.0821 370.281 55.3595C376.27 47.1917 386.302 45.247 394.537 51.2108C396.783 52.8962 397.382 57.1745 397.232 60.1564C397.082 71.4357 396.334 82.5854 395.735 93.8647C395.585 95.9391 395.735 98.0134 397.382 100.995C400.826 97.4948 405.168 94.513 407.414 90.4939C414.002 79.2146 419.691 67.5463 425.681 56.0077C425.83 55.6188 425.83 55.1002 425.98 54.7112C431.969 39.6722 431.071 39.6722 448.889 45.6359C444.547 62.4901 433.317 78.696 438.557 99.1803C444.996 93.2165 451.284 88.9381 455.477 83.3633C463.413 72.9915 470.6 61.9715 477.188 50.9515C482.578 42.1354 481.979 41.8762 493.209 45.3766C494.406 45.7656 495.455 46.1545 497.85 46.8027C493.209 58.3414 488.567 69.7503 483.776 81.2889C478.984 92.6979 474.193 103.977 475.541 116.553C475.99 121.35 473.295 122.517 468.204 121.48C461.466 120.053 458.172 116.164 457.872 110.33C457.723 107.996 458.022 105.663 458.172 104.496C451.734 105.533 445.295 107.867 439.156 107.348C432.868 106.829 427.028 103.588 419.691 101.125C418.943 101.903 416.847 103.588 414.9 105.533C407.713 113.053 398.729 114.09 388.698 110.849C381.81 108.645 378.366 104.366 378.366 98.0134C378.366 90.7532 378.366 83.4929 377.168 75.7141C374.323 83.7522 371.479 91.6607 368.933 99.8285C368.035 102.81 367.735 106.7 363.393 105.922C358.452 105.014 351.265 106.181 350.517 98.921C349.618 89.9753 348.42 81.0296 347.522 72.084C346.773 71.9543 345.875 71.9543 345.126 71.8247C341.682 79.8628 338.388 87.7713 334.945 95.8094C333.897 98.2727 333.597 100.866 332.25 103.199C330.153 106.829 331.651 113.182 323.565 112.275C313.084 111.108 311.737 109.682 310.988 100.606C310.838 99.4395 310.838 98.2727 310.539 96.0687C305.448 102.292 301.405 107.867 296.464 113.053C290.625 119.276 284.037 124.85 273.106 123.295C260.679 121.48 253.043 115.905 249.299 105.403C242.412 85.6969 246.455 67.4167 258.433 50.1736C265.47 40.0611 279.844 38.1164 290.176 45.6359C292.871 47.5806 294.069 51.859 294.817 55.2298C295.416 57.8228 294.667 60.8047 293.919 63.5273C293.02 67.1574 293.17 72.4729 287.181 72.084C282.09 71.695 275.203 71.4357 275.352 64.0458C275.352 61.5825 274.604 58.9896 274.155 56.3967C263.075 63.9162 257.385 99.9581 273.406 114.738Z" fill="black"/>
<path d="M243.46 72.3432C243.61 86.2154 239.417 98.6616 232.38 110.589C225.343 122.517 206.327 123.165 198.092 111.626C189.707 99.958 188.21 68.3241 201.835 54.1926C212.167 43.4318 218.006 44.7283 234.626 49.266C240.915 50.9514 244.808 59.2488 244.059 68.1945C243.909 69.7502 243.61 71.306 243.46 72.3432ZM213.364 110.459C225.492 98.9209 231.482 66.1201 223.396 55.6187C207.824 65.3422 201.685 99.1802 213.364 110.459Z" fill="black"/>
<path d="M167.098 73.3804C166.799 87.3823 165.601 99.8284 157.665 113.052C155.719 109.682 153.173 107.218 153.622 105.533C156.767 95.4204 160.66 85.4376 164.403 75.4547C164.553 75.0658 165.301 74.6768 167.098 73.3804Z" fill="white"/>
<path d="M100.019 73.5101C91.6344 67.1574 89.5382 54.1926 94.4792 43.043C101.367 48.0992 103.014 56.7856 100.019 73.5101Z" fill="white"/>
<path d="M91.4847 98.6616C90.4366 92.6979 89.2387 86.8637 88.0409 79.8628C92.6825 81.0296 95.6771 81.6779 99.7198 82.715C97.923 88.2899 96.276 93.4758 94.7787 98.6616C93.5809 98.6616 92.5328 98.6616 91.4847 98.6616Z" fill="white"/>
<path d="M213.364 110.459C201.686 99.0505 207.824 65.3422 223.396 55.6187C231.482 66.1201 225.492 99.0505 213.364 110.459Z" fill="white"/>
</g>
<defs>
<clipPath id="clip0_214_222">
<rect width="498" height="136" fill="white"/>
</clipPath>
</defs>
</svg>
