<svg width="654" height="261" viewBox="0 0 654 261" fill="none" xmlns="http://www.w3.org/2000/svg">
<g clip-path="url(#clip0_204_333)">
<path d="M24.0084 257.188C28.2546 254.308 31.2759 255.07 34.2156 255.07C58.4681 255.494 82.5572 254.138 106.81 252.613C127.143 251.343 147.639 251.936 167.972 250.665C205.453 248.208 243.015 248.886 280.497 245.921C289.969 245.159 299.523 244.82 308.995 244.65C323.204 244.396 337.167 242.194 351.213 241.008C357.5 240.499 363.706 240.16 369.912 240.16C392.205 240.16 414.498 238.89 436.79 238.043C466.922 236.857 497.217 237.365 527.431 237.789C536.577 237.958 545.641 240.669 554.786 241.855C575.038 244.396 595.289 246.26 615.703 245.752C621.174 245.582 626.155 242.787 631.79 243.464C633.831 243.718 634.648 241.008 634.975 239.059C635.791 234.061 636.608 229.063 636.934 223.98C637.833 212.459 639.057 200.938 639.057 189.418C638.976 168.748 640.772 148.247 641.915 127.747C643.304 103.011 646.243 78.3591 646.978 53.5383C647.223 44.3046 647.713 34.9862 648.285 25.6678C648.53 21.6863 647.795 20.0767 642.977 19.8226C610.395 18.0436 577.732 16.6882 545.069 17.1118C500.157 17.7048 455.327 15.7564 410.415 15.1634C388.449 14.8245 366.401 13.7233 344.435 12.2832C342.23 12.1137 340.107 11.8596 337.902 11.8596C298.706 11.6055 259.592 10.7583 220.396 10.0806C173.933 9.23351 127.388 11.6902 80.8424 12.1985C60.4279 12.3679 40.0134 12.8762 19.6805 12.7914C16.3325 12.7914 12.8212 12.9609 8.73828 10.3348C16.1692 7.03098 23.0285 7.11569 29.5611 7.03098C65.9806 6.60741 102.237 1.60936 138.738 2.11764C168.625 2.5412 198.593 -0.847311 228.48 0.338667C262.205 1.69407 295.93 0.762231 329.655 1.52465C351.376 2.03292 373.179 2.28706 394.9 4.23545C412.293 5.76028 429.686 4.91316 447.079 5.42143C492.399 6.60741 537.556 6.5227 582.795 6.77684C600.433 6.86155 618.153 8.13224 635.791 9.06408C639.874 9.31822 643.875 10.2501 647.877 10.843C652.123 11.5208 652.531 15.2481 652.858 18.5519C653.756 28.9716 654.491 39.3912 653.756 49.8109C653.348 55.9949 653.021 62.179 653.184 68.4477C653.511 94.4545 651.061 120.292 649.51 146.129C649.101 153.16 648.856 160.192 648.856 167.308C648.856 190.18 648.122 212.968 645.753 235.755C645.345 239.398 644.692 243.041 643.712 246.514C641.752 253.206 637.833 256.341 631.055 256.171C610.967 255.663 590.879 255.917 570.791 253.799C553.48 252.02 536.495 247.7 519.102 247.446C498.116 247.107 477.211 246.853 456.307 247.615C437.035 248.293 417.682 249.648 398.411 249.479C372.77 249.225 347.375 251.766 321.816 253.376C295.767 254.985 269.718 256.679 243.587 257.103C195.735 257.865 147.884 259.644 99.9504 260.068C84.762 260.153 69.5736 261.254 54.3035 261C44.4229 260.83 34.7872 259.644 24.0084 257.188Z" fill="black"/>
<path d="M114.729 203.311C95.5392 203.734 76.7578 200.43 58.793 193.738C39.0317 186.453 24.9865 172.391 19.3521 150.874C16.1675 138.59 17.1474 125.968 21.3119 114.278C26.2114 100.554 32.2541 87.2542 41.3998 75.9027C57.9764 55.3175 79.4525 44.3896 105.012 42.4412C119.71 41.2552 134.408 42.0176 148.617 46.2533C173.359 53.708 191.732 69.634 203.41 93.4383C210.187 107.246 209.044 121.902 205.778 136.388C201.041 157.058 190.671 173.492 172.543 184.335C164.785 188.994 157.191 193.823 148.862 197.296C143.064 199.668 137.185 202.125 131.06 203.226C125.753 204.073 120.2 203.311 114.729 203.311ZM154.741 179.506C157.599 179.93 158.824 178.659 160.131 177.727C174.421 167.477 185.036 154.008 190.018 136.642C198.918 105.383 187.976 71.6671 153.598 59.7226C138.246 54.3857 122.486 54.5551 106.971 57.8589C80.9224 63.45 58.548 75.9875 42.1348 98.4363C39.8483 101.571 37.6436 104.705 36.5003 108.602C28.2529 137.15 41.1549 168.579 66.8772 182.387C67.1221 181.963 67.5304 181.455 67.6937 181.031C76.8395 150.535 102.072 134.439 132.122 138.929C143.962 140.708 149.76 147.146 152.618 158.413C154.496 165.359 154.088 172.391 154.741 179.506Z" fill="black"/>
<path d="M256.569 41.5092C261.06 38.5442 264.653 34.9863 269.471 33.7156C271.839 33.0379 274.207 32.4449 276.657 32.4449C284.741 32.4449 289.069 38.5442 286.946 46.5919C285.803 51.0817 283.271 54.8938 280.413 58.1129C270.614 69.3797 260.734 80.5618 250.363 91.3203C243.259 98.6903 240.973 97.9279 237.788 88.1012C233.378 74.5472 229.05 60.9084 226.111 46.8461C225.049 41.7633 225.213 36.7653 227.499 32.0213C230.03 26.8539 233.868 23.8042 239.666 23.4654C245.545 23.0418 249.383 26.0067 252.405 30.9201C254.283 33.9697 255.181 37.5277 256.569 41.5092Z" fill="black"/>
<path d="M3.51125 16.2646C5.96099 18.2978 5.14441 20.7544 5.06275 22.8722C4.89943 46.5918 5.47104 70.3114 6.45094 93.9462C6.85923 104.366 8.16576 114.701 9.22732 125.121C13.2286 163.241 16.6582 201.447 15.27 239.906C15.1884 242.787 14.8617 245.497 13.8002 248.208C12.9836 250.326 11.2688 251.173 9.30897 251.088C7.26752 251.004 6.77757 249.309 6.36928 247.615C5.79767 245.413 5.47104 243.295 5.63436 241.008C7.1042 212.29 7.5125 183.572 4.73612 154.855C0.489896 110.635 -1.63322 66.4146 1.38813 22.1098C1.55145 20.1614 1.38814 18.1283 3.51125 16.2646Z" fill="black"/>
<path d="M396.37 128.34C393.512 133.507 393.838 138.759 392.613 143.588C392.042 145.96 391.388 148.501 388.53 145.367C383.549 148.078 378.486 149.094 373.505 145.536C371.137 147.993 368.442 149.687 365.176 150.534C359.052 152.059 357.99 151.297 357.99 144.774C357.99 140.792 358.235 136.896 357.337 132.999C356.52 129.526 358.317 127.577 361.502 127.154C365.176 126.645 368.851 125.968 373.097 128.086C370.484 131.135 367.381 130.542 364.686 131.135C362.726 131.559 361.91 132.66 361.991 134.608C362.073 136.303 363.053 137.235 364.605 137.235C367.054 137.319 369.422 137.828 372.28 138.929C373.832 133.931 374.975 128.424 381.263 127.493C385.101 126.9 387.306 128.848 388.449 132.406C390.98 131.22 390.49 128.848 391.388 127.154C392.45 125.121 393.756 123.257 396.288 123.342C399.064 123.426 400.697 125.205 401.841 127.662C403.066 130.458 402.657 133.846 404.699 136.642C406.658 132.829 404.535 128.509 406.332 124.866C408.128 124.782 408.537 126.222 408.618 127.577C408.863 132.491 409.353 136.642 415.233 138.336C417.846 139.014 419.479 142.571 417.601 146.129C415.967 149.264 411.068 151.466 407.802 149.857C405.597 148.84 404.29 146.045 401.024 147.654C399.718 148.247 399.064 146.129 398.983 144.689C398.901 142.148 398.983 139.606 398.901 137.065C398.738 134.27 399.473 131.305 396.37 128.34ZM377.915 138.759C378.078 140.369 377.588 142.995 379.875 143.419C382.733 143.927 382.896 141.047 383.304 139.014C383.631 137.743 383.713 136.303 383.631 134.947C383.549 133.846 382.978 132.829 381.753 132.575C380.61 132.321 379.793 132.914 379.058 133.846C377.996 135.286 377.833 136.896 377.915 138.759ZM368.361 142.91C367.953 140.962 366.401 140.623 364.768 140.369C363.135 140.115 362.155 140.792 361.991 142.487C361.828 143.927 362.073 145.452 363.788 145.621C365.829 145.96 367.463 145.282 368.361 142.91ZM411.231 140.115C409.925 140.199 409.435 141.131 409.516 142.317C409.516 143.588 409.353 145.282 411.15 145.452C412.62 145.621 413.436 144.435 413.518 142.91C413.518 141.301 412.456 140.623 411.231 140.115Z" fill="black"/>
<path d="M338.963 169.849C341.984 171.374 341.739 173.831 342.148 175.948C342.556 178.575 343.862 179.93 346.476 180.015C349.089 180.099 349.415 178.32 349.987 176.287C351.375 171.374 354.56 167.985 359.051 166.037C363.705 164.004 368.523 166.291 370.32 171.12C372.606 177.473 369.422 186.961 363.869 190.519C359.541 193.315 357.254 193.06 353.906 189.248C352.682 187.808 351.865 186.029 349.905 185.182C346.149 183.573 345.087 183.911 343.536 188.316C343.128 189.418 343.046 190.604 341.576 190.434C340.351 190.265 339.535 189.502 339.371 188.316C338.473 182.387 338.636 176.372 338.963 169.849ZM366.318 177.473C366.645 174 365.747 171.374 362.317 171.12C358.969 170.866 357.254 173.322 357.418 176.372C357.581 178.913 357.989 181.285 356.683 183.657C355.948 185.097 356.601 186.368 357.908 187.215C359.296 188.147 360.521 187.3 361.664 186.622C365.094 184.42 365.502 180.692 366.318 177.473Z" fill="black"/>
<path d="M267.594 171.12C268.656 171.797 269.145 172.052 269.472 172.475C270.697 174.424 269.88 177.897 273.31 178.236C277.148 178.659 276.086 174.847 277.393 172.983C280.088 169.002 284.252 166.63 287.6 167.731C291.928 169.171 292.908 172.983 293.316 177.05C293.643 180.438 293.071 183.742 291.683 186.876C290.458 189.587 288.825 191.79 285.64 191.705C282.701 191.62 280.496 190.095 279.108 187.469C278.699 186.707 278.536 185.86 278.291 185.097C277.638 182.81 275.923 181.963 273.882 182.387C271.595 182.895 272.33 184.928 272.33 186.537C272.33 188.486 272.657 190.434 272.657 192.383C272.657 193.738 272.657 195.432 270.779 195.432C269.064 195.517 268.574 194.077 268.492 192.637C268.084 185.944 267.757 179.252 267.349 172.475C267.267 172.221 267.349 171.967 267.594 171.12ZM288.743 178.744C288.498 176.626 288.825 173.915 286.049 173.407C282.619 172.729 283.436 176.118 282.782 177.982C282.537 178.744 282.211 179.591 282.047 180.353C281.557 182.641 281.476 185.521 283.926 186.029C286.947 186.707 287.764 183.742 288.335 181.285C288.498 180.523 288.58 179.676 288.743 178.744Z" fill="black"/>
<path d="M306.381 168.494C307.198 168.494 308.014 168.409 308.831 168.494C310.873 168.663 314.057 167.901 314.057 170.866C313.976 173.746 310.709 172.645 308.749 173.153C306.055 173.746 301.645 171.12 300.992 174.762C300.094 179.591 305.075 177.558 307.525 178.405C311.771 179.93 314.302 182.81 314.302 186.792C314.302 190.858 311.281 194.501 306.79 195.348C304.666 195.771 302.462 195.686 300.339 195.602C297.889 195.517 296.337 194.331 296.092 191.536C295.847 187.893 295.194 184.335 295.112 180.692C294.704 170.019 296.256 168.324 306.381 168.494ZM301.89 186.114C302.217 188.316 301.319 191.536 305.075 191.366C307.688 191.197 309.484 189.418 309.566 186.453C309.648 183.403 307.851 181.878 305.156 181.624C301.972 181.201 302.053 183.657 301.89 186.114Z" fill="black"/>
<path d="M254.039 148.586C251.181 149.01 249.711 151.551 247.588 153.246C246.118 154.432 244.485 156.126 242.77 154.093C241.3 152.483 242.852 150.958 243.995 149.772C246.526 147.231 249.139 144.859 251.997 142.233C249.384 140.284 247.18 139.099 245.465 137.404C241.79 133.762 241.872 129.357 245.465 125.629C249.384 121.478 255.182 121.055 258.53 124.528C259.837 125.883 260.163 127.493 259.918 129.102C258.938 137.15 258.857 145.283 259.02 153.415C259.02 154.432 259.02 155.787 257.55 155.956C256.162 156.126 255.754 155.109 255.427 154.008C254.855 152.314 255.917 150.111 254.039 148.586ZM254.61 136.981C255.917 134.185 255.264 131.051 255.182 128.086C255.1 126.307 253.876 125.714 252.406 126.137C249.956 126.9 248.078 128.594 247.425 131.22C246.69 134.1 248.649 135.202 250.691 136.218C251.834 136.727 253.059 137.489 254.61 136.981Z" fill="black"/>
<path d="M420.783 122.071C423.723 126.73 423.723 130.119 423.968 133.422C424.131 135.964 424.295 138.505 424.621 140.962C424.866 142.826 425.846 144.096 427.969 143.673C429.521 143.419 430.174 142.402 430.337 140.792C430.501 138.675 429.929 136.472 431.236 134.439C433.93 135.54 433.277 138.251 433.93 140.284C434.257 141.385 434.665 142.402 436.054 142.402C437.85 142.402 438.258 141.047 438.422 139.691C438.912 134.947 439.157 130.119 438.095 125.375C437.768 124.019 437.197 122.41 438.912 121.817C440.708 121.224 441.116 122.918 441.525 124.189C443.484 129.865 443.648 135.879 442.994 141.724C442.423 146.892 437.278 148.586 426.336 147.57C421.6 147.146 420.457 145.96 420.294 140.538C420.13 136.049 420.212 131.559 420.294 126.984C420.212 126.052 420.457 124.951 420.783 122.071Z" fill="black"/>
<path d="M319.447 124.866C319.692 124.866 320.019 124.866 320.264 124.951C322.06 125.544 325.49 123.342 325.408 126.9C325.326 129.864 322.06 128.594 320.1 128.679C318.222 128.763 315.364 126.391 315.037 130.203C314.792 133.253 315.201 136.557 319.692 136.218C322.632 135.964 324.836 137.573 326.388 140.199C328.919 144.52 327.858 148.586 323.448 150.619C322.713 150.958 321.897 151.127 321.162 151.297C312.751 153.415 311.689 152.652 311.526 143.842C311.444 140.199 311.444 136.557 311.526 132.914C311.526 125.544 312.343 124.782 319.447 124.866ZM319.692 146.383C321.162 146.468 322.468 145.536 322.713 144.35C323.122 142.063 320.998 139.352 318.549 139.352C316.997 139.352 316.017 140.199 316.099 141.809C316.344 144.096 316.834 146.214 319.692 146.383Z" fill="black"/>
<path d="M522.775 122.071C518.039 125.968 513.548 123.257 509.71 124.189C507.75 125.883 508.975 127.916 508.975 129.78C509.057 132.745 510.363 134.524 513.548 134.015C514.609 133.846 515.671 134.015 516.814 134.1C517.957 134.27 518.937 134.863 518.611 136.218C518.447 136.811 517.549 137.404 516.896 137.573C514.283 138.251 510.69 136.133 509.546 140.708C508.567 144.52 509.301 145.791 513.058 146.214C516.161 146.553 519.345 145.452 523.265 147.146C518.202 152.906 512.649 149.941 507.995 149.179C503.994 148.501 504.565 144.012 504.565 140.708C504.484 135.117 504.647 129.441 504.565 123.85C504.484 120.461 505.872 119.106 508.975 119.868C513.139 120.97 517.794 119.36 522.775 122.071Z" fill="black"/>
<path d="M489.132 138.336C488.887 141.047 488.724 143.249 488.561 145.452C488.479 146.722 487.744 147.654 486.519 147.57C485.948 147.485 485.213 146.638 484.886 145.96C483.253 141.809 483.825 126.476 485.866 121.139C487.989 123.596 487.499 126.561 487.744 129.102C488.152 132.83 489.786 134.693 493.542 134.524C497.298 134.354 496.727 131.474 497.053 129.102C497.38 126.9 496.808 124.528 497.951 122.495C500.319 121.647 500.973 123.342 501.054 125.121C501.299 131.898 501.463 138.59 501.544 145.367C501.544 146.977 500.891 148.417 499.503 148.586C498.115 148.671 496.89 147.315 497.053 145.791C497.87 139.861 494.603 138.421 489.132 138.336Z" fill="black"/>
<path d="M463.818 122.833C461.858 126.307 459.082 125.544 456.877 125.714C453.692 125.883 452.794 127.408 452.712 130.458C452.631 134.185 454.672 134.524 457.367 134.439C458.183 134.439 459 134.439 459.816 134.524C461.776 134.863 465.043 134.354 464.879 137.065C464.634 140.03 461.613 138.759 459.571 138.59C458.51 138.505 457.448 138.166 456.387 138.166C454.917 138.166 453.774 138.929 453.61 140.538C453.447 142.402 454.1 143.927 456.142 143.927C457.775 144.012 459.408 143.758 460.96 143.842C463.491 144.012 466.267 143.249 469.207 146.468C463.246 148.756 457.857 148.332 452.549 148.078C450.262 147.993 449.854 145.791 449.364 143.758C447.976 137.658 448.711 131.474 448.466 125.29C448.384 122.833 449.936 121.817 452.059 121.732C455.815 121.817 459.653 121.054 463.818 122.833Z" fill="black"/>
<path d="M333.329 143.503C333.247 141.47 331.777 140.962 330.797 140.115C328.021 137.404 328.102 133.931 329.164 130.796C330.389 127.154 333.574 125.205 337.003 124.273C339.616 123.596 341.249 125.459 341.413 127.916C341.984 134.608 342.066 141.301 341.331 147.993C341.086 149.941 340.188 150.534 338.228 148.586C335.942 146.383 334.88 149.941 333.247 150.958C332.022 151.72 330.797 152.483 329.736 150.958C329.001 150.026 329.246 148.925 330.062 147.908C331.287 146.383 332.349 144.774 333.329 143.503ZM336.187 130.034C333.002 134.185 332.839 135.117 334.308 136.98C334.88 137.658 335.86 137.912 336.35 137.489C338.065 136.048 337.166 134.015 337.085 132.152C337.085 131.643 336.677 131.135 336.187 130.034Z" fill="black"/>
<path d="M255.998 173.322C249.792 178.913 250.119 187.385 246.363 193.653C243.75 192.891 244.24 190.858 244.403 189.418C244.975 183.403 246.853 177.812 249.711 172.644C253.059 166.545 258.612 166.884 261.47 173.237C264.083 179.167 265.389 185.521 265.307 192.128C265.307 193.484 265.389 195.178 263.429 195.178C261.796 195.178 261.143 193.823 260.98 192.383C260.49 188.232 260.653 183.911 259.183 179.93C258.448 177.812 258.367 175.44 255.998 173.322Z" fill="black"/>
<path d="M304.341 140.708C303.361 141.301 302.789 141.978 302.136 142.148C300.339 142.656 298.135 142.402 298.298 145.367C298.461 148.247 300.829 147.569 302.544 148.078C304.504 148.671 307.77 148.247 307.444 151.043C307.117 154.177 303.932 152.483 302.054 152.483C293.888 152.483 293.48 151.975 293.398 143.419C293.398 138.929 293.562 134.524 294.133 130.034C294.623 126.561 296.175 125.798 299.033 126.137C300.094 126.307 301.156 126.391 302.218 126.73C303.851 127.238 306.545 126.391 306.382 129.356C306.219 131.559 304.014 131.05 302.462 131.135C300.584 131.22 298.543 130.881 298.216 133.677C297.808 136.472 298.951 137.827 301.646 137.997C302.789 138.166 303.687 138.844 304.341 140.708Z" fill="black"/>
<path d="M319.855 191.874C318.222 185.097 319.284 179.083 321.08 173.237C322.06 170.103 324.265 167.985 327.776 168.239C331.124 168.494 333.574 170.018 334.309 173.492C335.289 178.405 336.024 183.403 336.759 188.401C337.004 190.095 336.922 192.128 334.799 192.213C333.411 192.298 332.594 190.773 332.431 189.248C332.186 187.3 332.104 185.351 331.859 183.403C331.533 181.2 331.206 178.998 330.634 176.795C330.226 175.271 329.654 173.407 327.613 173.492C325.98 173.576 325.49 175.271 325.163 176.541C324.347 179.506 323.857 182.556 323.122 185.521C322.632 187.639 323.367 190.265 319.855 191.874Z" fill="black"/>
<path d="M282.455 125.629C284.088 125.629 285.721 125.46 287.354 125.629C289.395 125.798 292.498 125.29 292.417 128.255C292.417 130.712 289.559 130.119 287.762 130.203C285.068 130.288 284.823 132.237 284.986 134.354C285.394 138.59 285.884 142.741 286.211 146.977C286.374 148.586 286.782 150.619 284.496 150.873C282.536 151.128 281.883 149.433 281.23 147.739C279.923 144.181 280.086 140.538 280.25 136.896C280.331 133.168 280.086 130.119 275.269 130.542C273.717 130.712 272.737 129.356 272.901 127.832C273.064 126.137 274.534 125.798 275.922 125.714C278.127 125.629 280.25 125.714 282.455 125.714V125.629Z" fill="black"/>
<path d="M143.147 90.897C143.147 101.571 140.044 110.042 132.123 115.803C119.14 125.121 98.6435 114.278 97.092 98.5211C96.6837 93.9466 96.8471 89.5416 97.4187 85.0518C99.4601 68.194 113.342 62.5182 125.509 62.9418C129.265 63.1112 132.205 64.9749 134.655 67.8551C140.534 74.5474 143.8 82.341 143.147 90.897Z" fill="black"/>
</g>
<defs>
<clipPath id="clip0_204_333">
<rect width="654" height="261" fill="white"/>
</clipPath>
</defs>
</svg>
