<svg width="420" height="332" viewBox="0 0 420 332" fill="none" xmlns="http://www.w3.org/2000/svg">
<g clip-path="url(#clip0_214_233)">
<path d="M13.2135 284.425C12.0599 285.279 11.0637 286.091 10.015 286.859C9.7528 285.749 9.17602 284.596 9.28089 283.486C10.1198 273.492 7.97003 263.755 5.24344 254.103C1.04868 239.028 -0.104877 223.654 -8.46898e-06 208.322C0.052426 201.318 2.56928 194.314 4.35205 187.353C7.44569 175.566 11.0112 163.822 18.0374 153.188C24.382 143.579 31.8801 134.44 39.4831 125.386C49.9176 112.959 62.3446 101.94 75.8727 91.6054C86.2022 83.7474 96.5318 75.7186 104.292 66.0243C110.06 58.8496 114.36 50.9062 119.76 43.518C126.524 34.1652 131.558 24.0011 140.105 15.5025C145.611 10.0361 152.584 7.04665 161.184 6.32064C179.064 4.7405 196.891 2.98954 214.824 1.53752C234.487 -0.0426206 254.255 -0.640511 273.97 1.02504C294.734 2.77601 315.498 4.65509 336.105 7.3456C351.625 9.3528 367.146 10.1642 382.719 11.1038C390.689 11.5735 398.607 12.9401 406.524 14.0505C408.569 14.3495 410.562 14.9473 412.502 15.6306C417.431 17.3389 419.685 20.4138 419.948 24.8125C420.42 32.4997 417.116 39.29 412.345 45.5679C404.689 55.6893 396.405 65.4264 388.539 75.4197C384.24 80.8434 379.888 86.3098 376.322 92.0752C369.715 102.666 362.532 113.129 357.708 124.276C346.906 149.216 335.581 174.114 327.191 199.738C323.94 209.689 322.262 219.853 322.315 230.145C322.419 245.861 323.049 261.577 323.573 277.293C323.783 283.87 323.468 290.361 321.685 296.81C319.903 303.216 315.76 308.511 308.577 311.287C289.333 318.718 269.985 326.149 249.116 329.993C241.513 331.402 233.491 331.573 225.678 331.701C210.577 331.957 195.423 332.342 180.375 331.573C166.742 330.89 153.161 328.797 139.581 327.26C123.483 325.423 107.438 323.416 91.3408 321.75C80.3296 320.597 69.161 320.384 58.2547 318.846C43.3109 316.711 30.8839 310.561 21.1311 301.038C17.4082 297.408 15.7303 292.966 14.367 288.439C14 287.03 13.5805 285.664 13.2135 284.425ZM209.79 321.622C212.307 321.622 214.876 321.665 217.393 321.622C228.719 321.323 240.36 322.092 251.161 318.975C267.625 314.277 283.775 308.81 299.925 303.472C305.64 301.593 309.101 297.835 309.625 292.667C310.15 287.713 310.831 282.759 310.727 277.806C310.464 261.449 309.73 245.092 309.625 228.736C309.573 218.743 311.041 208.792 314.292 199.183C318.435 186.926 322.787 174.669 328.03 162.712C337.521 141.059 344.652 118.681 358.127 98.1822C365.783 86.5234 373.333 74.8218 382.719 63.9743C389.169 56.5434 395.094 48.8136 401.019 41.0837C404.112 37.0266 406.629 32.6705 407.311 27.8447C407.73 24.9834 407.416 24.4709 404.112 24.0438C395.146 22.8907 386.18 21.695 377.161 20.8835C367.513 20.0294 357.813 19.8586 348.217 18.8763C323.101 16.2285 298.09 13.0256 272.974 10.5486C254.255 8.7122 235.431 9.3955 216.712 10.8902C198.831 12.2995 180.951 14.2213 163.124 15.8015C157.303 16.3139 152.479 18.1076 149.333 22.2074C146.292 26.1791 143.461 30.2363 140.577 34.2934C139.056 36.4287 137.693 38.6921 136.225 40.8702C134.232 43.8596 132.292 46.8918 130.195 49.8385C124.689 57.7392 120.075 66.2378 113.311 73.3698C104.659 82.5089 94.7491 91.0075 84.4195 98.8655C69.3184 110.354 55.7903 122.824 44.0974 136.661C37.2285 144.818 29.8876 152.718 24.8539 161.772C18.7191 172.919 14.8389 184.663 10.6442 196.322C7.81273 204.222 7.28838 212.294 7.18351 220.408C7.18351 221.177 7.49812 221.946 7.76029 222.672C10.6966 230.7 14.4719 238.601 16.3595 246.801C19.558 260.595 22.9139 274.304 27.4757 287.799C28.367 290.404 29.6779 293.223 31.8277 295.187C40.2172 302.96 50.8614 307.871 63.603 309.152C73.5655 310.134 83.633 310.476 93.5955 311.544C113.416 313.636 133.184 316.028 153.004 318.377C171.775 320.512 190.652 322.861 209.79 321.622Z" fill="black"/>
<path d="M53.7453 219.511C53.6929 220.195 53.6929 220.878 53.4832 221.518C50.2322 231.768 48.3446 242.146 48.9738 252.737C49.1835 256.837 49.8127 260.979 50.7041 265.036C51.5431 268.795 52.9588 272.467 54.1648 276.14C54.3221 276.695 54.794 277.165 55.0562 277.677C56.367 280.283 57.6779 282.888 58.9888 285.493C59.1461 285.834 59.2509 286.176 59.3558 286.518C60.824 290.532 60.824 290.404 65.9101 290.746C80.8015 291.685 95.6405 292.796 110.532 293.821C112.577 293.949 114.674 294.034 116.876 294.162C116.876 292.155 116.981 290.404 116.876 288.653C115.985 272.211 115.985 255.769 117.243 239.37C117.715 233.604 119.498 227.882 120.757 222.116C115.775 222.116 110.427 222.287 105.079 222.074C93.2285 221.647 81.3783 221.262 69.5281 220.408C65.8053 220.152 62.2397 218.572 58.6217 217.504C58.0974 217.376 57.7303 216.949 57.4157 216.18C58.2547 216.223 59.1985 216.095 59.985 216.351C67.5356 218.657 75.4008 218.7 83.2659 218.828C94.8539 219.042 106.494 219.084 118.082 219.042C120.18 219.042 122.277 218.145 124.375 217.803C125.161 217.675 126.21 217.718 126.734 218.059C127.101 218.273 127.206 219.383 126.891 219.768C123.326 223.91 122.592 228.821 121.963 233.562C120.966 240.736 120.547 248.039 120.494 255.257C120.337 267.556 120.704 279.855 120.757 292.155C120.757 293.393 120.652 294.461 122.749 294.803C123.483 294.931 124.375 296.212 124.322 296.895C124.217 297.579 123.116 298.561 122.277 298.689C115.985 299.799 109.64 300.739 103.296 301.807C98.2097 302.661 93.4906 300.995 88.5618 300.397C82.794 299.714 76.9738 299.159 71.2584 298.262C60.7191 296.639 53.6929 293.522 51.0187 284.596C47.9775 274.389 46.0375 264.054 45.5131 253.591C44.9363 242.402 47.4532 231.512 52.0674 220.921C52.3296 220.365 52.6966 219.853 53.0637 219.298C53.2734 219.426 53.5356 219.469 53.7453 219.511ZM103.768 297.365C98.9438 296.938 94.8539 296.596 90.0824 296.212C94.6442 297.92 100.202 298.433 103.768 297.365Z" fill="black"/>
<path d="M174.764 35.9162C176.18 35.0194 177.596 34.1226 179.116 33.3111C180.951 32.2862 182.891 31.3893 184.727 30.3217C185.251 30.0227 185.513 29.4676 185.933 29.0832C187.243 27.7593 188.24 26.1792 189.865 25.1969C193.745 22.8481 198.307 24.599 198.936 28.528C199.041 29.0832 199.041 29.6384 199.199 30.9623C201.558 29.5103 203.498 28.4426 205.281 27.2468C209.213 24.599 213.041 21.7804 217.026 19.218C218.285 18.4066 220.225 17.8941 221.536 19.2607C222.951 20.67 222.27 22.2929 220.749 23.2324C217.184 25.4959 213.566 27.7593 209.685 29.5957C207.221 30.7915 205.281 32.0726 204.18 34.5923C205.228 34.208 206.015 33.9517 206.801 33.6101C209.109 32.7132 211.363 32.457 213.356 34.0799C215.086 35.4892 215.086 37.5818 213.408 39.7598C212.884 40.4004 212.307 41.041 211.678 41.6389C211.101 42.2368 210.419 42.792 209.79 43.3472C209.895 43.518 210 43.6888 210.105 43.8596C211.783 43.219 213.775 42.8774 215.139 41.9378C217.288 40.4858 219.071 38.7349 220.906 37.0266C223.109 35.0194 225.888 33.909 229.086 33.5247C234.067 32.8841 237.318 36.1298 235.693 40.0588C233.543 45.2689 223.738 50.4364 217.026 50.0094C214.3 49.8385 213.513 48.2157 212.727 46.3366C208.689 47.0626 204.757 47.7032 200.824 48.5573C198.045 49.1552 196 48.4292 196.052 46.1231C196.105 43.5607 196.839 40.9556 197.625 38.4359C198.15 36.8131 199.251 35.3183 200.09 33.7809C199.933 33.6101 199.775 33.4393 199.618 33.2257C198.097 34.0799 196.419 34.8059 195.004 35.7881C191.753 38.0516 188.764 40.5285 185.513 42.7493C183.993 43.7742 182 44.6711 180.007 43.518C178.015 42.4076 178.33 40.6994 178.854 39.0765C178.906 38.9057 178.854 38.6494 178.854 38.564C176.599 39.2046 174.345 40.2723 172.037 40.4004C168.996 40.5285 168.524 38.3505 168.419 36.2152C165.588 36.3433 163.228 36.7276 161.918 39.0765C161.131 40.4858 159.82 41.7243 158.509 42.8347C157.88 43.3899 156.622 43.4753 155.625 43.7742C155.206 42.8347 154.157 41.5962 154.577 41.041C156.255 38.7776 158.404 36.7276 160.397 34.635C161.393 33.6101 162.757 32.7559 163.596 31.6883C166.007 28.6561 168.21 25.4959 170.569 22.421C170.779 22.1647 171.146 21.9939 171.461 21.7377C171.67 21.8231 171.88 21.9085 172.09 22.0366C170.097 25.4959 168.105 28.9551 165.955 32.7559C168.996 32.2008 171.461 31.6456 173.086 29.5957C173.82 28.6561 174.764 27.6312 175.97 27.1614C177.019 26.7343 178.487 26.9906 179.798 26.9479C179.85 27.9728 180.27 29.1686 179.798 30.0227C179.169 31.1331 177.753 31.9018 176.757 32.8841C175.865 33.7382 175.079 34.5923 174.24 35.4465C174.345 35.5746 174.554 35.7454 174.764 35.9162ZM216.659 46.3366C222.899 46.5928 229.768 43.3044 231.498 39.4609C231.813 38.8203 231.184 37.9234 230.974 37.112C229.139 37.5818 226.989 37.7526 225.573 38.6067C223.371 39.9733 221.588 41.8524 219.7 43.518C218.809 44.3294 217.97 45.1408 216.659 46.3366ZM202.974 43.7315C203.236 43.8596 203.551 43.945 203.813 44.0732C206.015 42.066 208.217 40.0588 210.367 37.9661C210.682 37.6672 210.734 37.0693 210.629 36.5995C210.577 36.4714 209.685 36.2579 209.318 36.386C206.172 37.4964 203.865 39.3755 202.712 42.0233C202.502 42.5357 202.869 43.1763 202.974 43.7315ZM188.816 31.7737C192.854 32.3716 194.637 31.432 194.584 29.2967C194.584 28.7842 194.217 28.1437 193.745 27.8874C193.431 27.7166 192.434 27.8874 192.12 28.1864C191.019 29.2113 190.127 30.3644 188.816 31.7737ZM189.236 35.66C187.925 34.9767 186.981 34.5069 185.828 33.909C185.041 35.66 184.307 37.3255 183.573 38.9911C183.73 39.0765 183.94 39.2046 184.097 39.29C185.775 38.137 187.401 36.9412 189.236 35.66Z" fill="black"/>
<path d="M321.476 98.4812C301.865 93.1002 282.622 87.8046 263.169 82.4663C264.584 81.1424 266.577 81.783 268.202 82.0819C272.974 82.9787 277.745 83.9183 282.412 85.1141C294.105 88.0608 305.693 91.1357 317.386 94.1251C320.217 94.8511 323.206 95.1928 325.985 95.9188C327.086 96.2178 327.978 97.0719 328.921 97.6698C328.24 98.3958 327.715 99.378 326.824 99.8478C321.109 102.837 316.704 106.724 313.139 111.421C304.592 122.696 298.405 134.782 292.794 147.167C292.112 148.704 291.326 150.199 290.539 151.736C291.011 152.249 291.798 152.718 291.85 153.274C291.903 154.042 291.588 154.896 291.116 155.537C290.959 155.708 289.7 155.409 288.966 155.238C287.498 154.854 286.082 154.299 284.614 154.042C276.12 152.462 267.573 151.096 259.079 149.387C250.637 147.679 242.247 145.629 233.858 143.665C232.494 143.323 231.288 142.554 230.292 142.084C230.921 141.401 231.603 140.931 231.708 140.419C234.854 125.557 240.727 111.336 248.33 97.6271C250.532 93.6981 253.468 90.0253 256.3 86.3526C257.453 84.8578 259.131 83.7048 260.599 82.4236C246.075 100.745 238.734 121.03 234.225 142.554C240.097 143.451 245.446 144.22 250.689 145.117C258.974 146.569 267.206 148.149 275.491 149.558C278.375 150.071 281.363 150.284 284.3 150.668C285.768 150.882 286.187 150.37 286.659 149.302C292.112 135.807 298.824 122.824 308.157 110.738C311.356 106.595 315.184 102.965 319.745 99.8051C320.165 99.4634 320.637 99.0791 321.476 98.4812Z" fill="black"/>
<path d="M137.378 55.4329C138.532 55.1766 139.685 54.6642 140.839 54.7069C145.82 54.8777 150.801 55.0912 155.73 55.4756C170.412 56.6286 185.198 57.4401 199.723 59.2337C217.236 61.4118 234.644 64.1877 251.948 67.2626C282.307 72.6436 312.404 78.9214 341.925 86.8648C345.228 87.7617 348.689 88.2314 351.993 89.0856C352.831 89.2991 353.461 90.2386 354.142 90.8365C353.356 91.4344 352.569 92.5448 351.73 92.5875C349.948 92.6302 348.112 92.2458 346.382 91.8615C332.487 88.5304 318.697 84.9857 304.749 81.74C276.959 75.3341 248.959 69.4833 220.539 65.1699C199.933 62.0524 179.169 59.7889 158.457 57.2265C153.213 56.5859 147.865 56.2443 142.569 55.8599C140.891 55.7318 139.213 55.9881 137.536 56.0735C137.536 55.8599 137.483 55.6464 137.378 55.4329Z" fill="black"/>
<path d="M250.689 35.9161C247.595 38.2223 244.292 40.443 241.408 42.92C239.311 44.6709 238.734 47.0625 239.206 49.4968C239.521 51.1623 240.779 52.1446 242.824 51.8883C249.221 51.1623 255.041 49.7103 258.135 44.372C260.18 40.8274 262.487 37.4536 262.959 33.3964C263.273 30.8768 264.794 30.6205 267.678 31.2611C273.603 32.6277 279.685 33.6527 285.715 34.7203C287.184 34.9766 289.124 34.8057 289.071 36.3859C289.019 37.2827 287.708 38.4785 286.607 38.9483C281.049 41.4253 277.378 45.1407 274.389 49.4541C274.547 49.6249 274.704 49.7957 274.861 49.9665C277.588 48.5572 280.315 47.1906 283.094 45.7813C286.974 43.7741 290.801 41.6388 294.839 39.8024C295.678 39.418 297.723 39.717 298.404 40.3149C299.61 41.4253 298.614 42.5356 297.251 43.3043C296.884 43.5179 296.464 43.646 296.15 43.9022C293.528 45.7813 290.854 47.575 288.337 49.5822C287.131 50.5644 286.292 51.8029 284.929 53.3404C286.554 53.4685 287.655 53.4258 288.652 53.682C289.7 53.9809 290.644 54.5788 291.64 55.0486C290.854 55.7319 290.225 56.7142 289.281 57.0558C284.614 58.7641 280.734 56.7996 279.895 52.3581C278.06 52.9987 276.277 53.8955 274.337 54.1518C272.869 54.3653 270.667 54.2799 269.88 53.5112C268.936 52.6571 268.412 50.6071 269.041 49.6676C271.348 46.2938 274.18 43.1335 276.906 39.9732C277.64 39.1191 278.794 38.5212 279.948 37.6671C275.281 36.4713 270.772 35.3182 266.21 34.1652C265.79 35.9161 265.423 37.6671 264.951 39.717C265.528 39.418 265.843 39.1618 266.21 39.1191C267.258 39.0337 268.255 39.0764 269.303 39.0337C269.251 39.8878 269.566 40.9555 269.041 41.5534C267.73 43.0481 266 44.2866 264.479 45.6105C262.592 47.276 260.757 48.9416 258.816 50.6071C258.292 51.0342 257.663 51.504 256.981 51.6748C255.094 52.1873 253.154 52.6143 251.213 53.0414C248.434 53.6393 245.708 54.4507 242.876 54.6643C238.682 55.0059 235.588 52.8279 235.64 49.4114C235.693 47.1052 236.322 44.5428 237.738 42.5356C240.622 38.4358 245.288 35.7026 250.637 33.8235C251.528 33.5246 253.101 33.4819 253.73 33.9516C254.36 34.4214 254.674 35.788 254.36 36.4286C253.311 38.3504 251.948 40.1868 250.479 41.9377C250.112 42.3648 248.854 42.3221 248.015 42.4929C248.12 41.8523 248.015 41.1263 248.382 40.6138C249.326 39.2045 250.532 37.9233 251.58 36.5567C251.266 36.3859 250.951 36.1297 250.689 35.9161Z" fill="black"/>
<path d="M68.5843 171.424C70.2098 171.68 71.8877 171.894 73.4607 172.235C74.7716 172.491 76.03 173.089 77.3408 173.132C102.981 173.944 128.202 177.445 153.581 180.221C191.228 184.321 228.09 191.325 264.689 199.311C273.026 201.148 281.258 203.283 289.491 205.375C290.172 205.546 290.592 206.358 291.169 206.87C290.33 207.126 289.438 207.682 288.704 207.553C283.356 206.486 278.06 205.29 272.816 204.052C243.191 197.048 213.356 190.77 183.049 186.2C163.491 183.254 143.828 180.777 124.112 178.513C107.805 176.634 91.3408 175.31 74.9813 173.687C72.6742 173.474 70.1573 173.516 68.3745 172.107C68.427 171.894 68.5319 171.68 68.5843 171.424Z" fill="black"/>
<path d="M80.5918 192.393C97.9476 191.453 115.146 192.35 132.24 193.93C152.637 195.852 173.034 197.603 193.273 200.251C217.393 203.411 241.041 208.578 264.479 214.258C270.405 215.71 276.487 216.607 282.464 217.846C283.199 217.974 283.775 218.572 284.405 218.956C283.775 219.426 283.146 220.323 282.517 220.323C279.685 220.195 276.697 220.152 273.97 219.554C259.393 216.308 244.974 212.764 230.397 209.561C203.708 203.71 176.599 199.61 149.124 197.176C134.18 195.852 119.288 194.357 104.345 193.247C96.4794 192.649 88.5094 192.649 80.5918 192.393Z" fill="black"/>
<path d="M141.783 236.978C142.779 236.594 142.989 236.466 143.094 236.508C150.854 239.37 159.243 239.199 167.476 239.669C183.73 240.565 199.618 243.213 215.558 245.733C236.165 249.021 256.719 252.694 277.273 256.239C278.794 256.495 280.419 256.794 281.73 257.392C282.517 257.733 282.831 258.801 283.356 259.527C282.464 259.911 281.521 260.595 280.629 260.637C279.266 260.68 277.85 260.339 276.539 259.997C252.524 254.146 227.775 250.772 203.341 246.288C186.509 243.213 169.416 241.804 152.375 239.968C150.067 239.711 147.76 239.242 145.506 238.686C144.352 238.345 143.356 237.661 141.783 236.978Z" fill="black"/>
<path d="M288.966 201.617C287.655 201.318 286.345 201.105 285.086 200.72C269.67 195.937 254.464 190.642 238.787 186.456C202.974 176.847 166.899 167.836 130.3 160.405C117.925 157.886 105.341 156.263 92.8614 154.042C87.4082 153.06 82.1124 151.565 76.6592 150.54C73.8277 150.028 70.8914 149.985 67.8502 149.558C69.2659 149.43 70.7865 149.003 72.0974 149.216C77.6554 150.156 83.1086 151.352 88.6667 152.291C100.622 154.298 112.734 155.836 124.584 158.227C144.772 162.242 164.854 166.47 184.831 171.125C205.491 175.951 225.993 181.033 246.39 186.627C259.76 190.3 272.764 194.955 285.925 199.183C287.131 199.567 288.232 200.25 289.386 200.806C289.281 201.062 289.124 201.361 288.966 201.617Z" fill="black"/>
<path d="M146.082 265.378C146.921 265.25 147.708 265.164 148.547 265.036C148.442 265.207 148.337 265.378 148.285 265.591C149.176 266.189 149.91 267.086 150.906 267.3C157.828 268.752 164.697 270.588 171.775 271.357C206.434 275.029 240.202 281.777 273.865 289.251C276.487 289.849 279.161 290.233 281.678 290.959C282.569 291.215 283.146 292.283 283.828 292.966C282.779 293.222 281.625 293.906 280.682 293.735C272.712 292.155 264.742 290.489 256.876 288.696C228.3 282.119 199.408 276.61 170.045 272.809C163.386 271.955 156.884 270.076 150.382 268.495C148.704 268.068 147.236 267.043 145.663 266.275C145.768 265.89 145.925 265.634 146.082 265.378Z" fill="black"/>
<path d="M79.1236 124.105C80.382 124.276 81.588 124.404 82.8464 124.617C108.906 129.016 134.966 133.458 161.079 137.814C181.581 141.23 201.243 146.91 221.326 151.565C240.097 155.964 259.026 160.064 277.955 164.036C283.094 165.103 288.494 165.317 293.738 165.957C294.367 166.043 294.996 166.47 295.625 166.726C294.944 166.982 294.262 167.452 293.581 167.452C282.36 166.897 271.453 164.975 260.704 162.413C235.745 156.476 210.891 150.199 185.828 144.561C169.363 140.846 152.584 137.942 135.91 134.867C117.191 131.408 98.4195 128.162 79.6479 124.831C79.4906 124.788 79.3858 124.703 79.2285 124.617C79.1236 124.447 79.1236 124.276 79.1236 124.105Z" fill="black"/>
<path d="M283.67 230.999C280.262 230.743 276.749 230.786 273.446 230.145C257.401 227.07 241.356 223.867 225.363 220.664C206.592 216.906 187.506 214.514 168.367 212.721C140.944 210.158 113.416 208.407 85.7303 209.262C81.1161 209.39 76.5019 209.603 71.8876 209.902C69.9476 210.03 68.0599 210.5 66.015 210.884C67.3258 209.518 69.2659 209.39 71.1536 209.304C77.4457 209.005 83.6854 208.706 89.9775 208.493C117.348 207.639 144.614 209.262 171.828 211.482C204.022 214.13 235.273 220.451 266.524 226.899C270.824 227.796 275.228 228.437 279.581 229.248C280.996 229.504 282.412 229.889 283.828 230.188C283.723 230.444 283.723 230.743 283.67 230.999Z" fill="black"/>
<path d="M144.037 252.566C146.397 253.036 148.704 253.634 151.064 253.975C154.682 254.488 158.3 254.872 161.97 255.128C187.768 256.922 213.198 260.68 238.315 265.72C250.584 268.196 262.854 270.673 275.176 273.15C276.015 273.321 277.011 273.492 277.588 273.919C278.375 274.517 278.846 275.414 279.476 276.14C278.375 276.482 277.326 277.165 276.225 277.165C274.966 277.165 273.708 276.61 272.449 276.311C244.659 269.008 216.292 263.584 187.61 259.271C175.341 257.434 162.914 256.324 150.539 254.787C148.232 254.488 146.03 253.847 143.723 253.377C143.828 253.164 143.933 252.865 144.037 252.566Z" fill="black"/>
<path d="M148.337 221.775C153.79 222.415 159.191 222.97 164.644 223.696C182.315 225.96 200.142 227.668 217.655 230.658C238.891 234.288 259.918 238.985 280.996 243.256C282.464 243.555 284.876 243.768 284.142 245.605C283.461 247.356 281.468 246.288 280.105 245.947C246.18 237.747 211.888 230.786 176.809 226.558C167.266 225.405 157.828 223.654 148.337 222.202C148.285 222.031 148.285 221.903 148.337 221.775Z" fill="black"/>
<path d="M146.082 291.173C147.184 291.045 148.232 290.916 149.333 290.788C149.281 290.916 149.228 291.087 149.124 291.215C150.277 291.771 151.378 292.582 152.637 292.796C161.498 294.034 170.36 295.358 179.273 296.297C202.921 298.86 226.569 301.209 249.588 306.59C254.412 307.7 259.026 309.579 263.693 311.117C264.479 311.373 265.318 311.8 265.843 312.312C266.262 312.697 266.315 313.38 266.524 313.935C265.79 314.021 264.951 314.277 264.427 314.106C262.434 313.38 260.599 312.398 258.554 311.714C244.345 306.889 229.401 304.369 214.3 302.362C195.266 299.842 176.18 297.579 157.094 295.059C153.79 294.632 150.592 293.479 147.393 292.625C146.869 292.497 146.502 292.07 146.03 291.771C146.03 291.557 146.03 291.343 146.082 291.173Z" fill="black"/>
<path d="M149.648 66.9209C151.483 67.7751 153.318 68.6292 155.154 69.526C155.049 69.7396 154.891 69.9958 154.787 70.2093C151.955 69.2698 149.071 68.4157 146.345 67.3053C145.61 67.0064 145.296 66.0241 144.772 65.3408C145.663 65.0846 146.659 64.5294 147.498 64.6148C150.539 64.9565 153.528 65.3408 156.517 65.9814C171.251 69.0563 185.828 72.4728 200.667 75.1633C212.307 77.2559 224.21 78.5371 236.007 79.9464C239.154 80.3308 242.404 79.9891 245.603 79.9891C245.655 80.2454 245.655 80.5016 245.708 80.7151C244.869 80.7578 243.978 80.8005 243.139 80.8433C242.719 80.8433 242.3 80.7578 241.88 80.7578C228.876 80.886 216.082 79.0069 203.446 76.8715C187.401 74.181 171.513 70.7218 155.573 67.647C153.633 67.2626 151.693 66.9637 149.753 66.622C149.753 66.7501 149.7 66.8355 149.648 66.9209Z" fill="black"/>
<path d="M127.993 90.9648C139.685 92.8866 151.378 94.723 163.071 96.7302C183.94 100.275 204.39 105.015 224.734 110.225C225.521 110.439 226.15 111.08 226.831 111.507C225.94 111.635 224.944 112.105 224.157 111.891C217.446 110.311 210.839 108.432 204.127 106.98C183.468 102.496 162.809 98.0541 142.097 93.7408C137.431 92.7585 132.607 92.3742 127.835 91.6909C127.888 91.4346 127.94 91.1784 127.993 90.9648Z" fill="black"/>
<path d="M139.004 76.4873C144.037 77.2987 148.966 78.3237 154.052 78.8789C176.127 81.3985 197.416 86.3098 218.442 92.1179C222.479 93.2282 226.412 94.6803 230.345 96.0042C231.446 96.3885 232.599 96.8583 233.491 97.4989C234.067 97.8832 234.225 98.5665 234.592 99.1644C233.858 99.079 233.019 99.1217 232.337 98.8655C227.303 97.1145 222.427 94.9792 217.288 93.5272C195.895 87.5056 174.24 82.2954 151.85 79.3486C148.075 78.8362 144.404 77.8966 140.682 77.1706C140.105 77.0425 139.581 76.829 139.004 76.6581C138.951 76.6154 138.951 76.53 139.004 76.4873Z" fill="black"/>
<path d="M228.195 127.735C227.618 127.692 227.041 127.692 226.517 127.521C199.933 118.767 172.09 113.813 144.09 109.243C138.794 108.389 133.655 107.022 128.412 105.912C127.154 105.656 125.843 105.57 124.007 105.314C125.004 104.161 126.105 104.631 127.206 104.844C135.91 106.595 144.614 108.389 153.371 110.054C169.625 113.087 185.933 115.777 202.082 119.108C210.419 120.816 218.442 123.55 226.622 125.899C227.356 126.112 227.985 126.667 228.667 127.094C228.457 127.265 228.3 127.521 228.195 127.735Z" fill="black"/>
<path d="M173.925 154.256C214.929 159.551 253.783 171.851 294.157 179.751C293.161 179.794 292.06 180.008 291.116 179.837C282.307 178.086 273.446 176.42 264.742 174.37C245.131 169.801 225.625 164.847 205.963 160.405C195.371 157.971 184.622 156.263 173.925 154.256Z" fill="black"/>
<path d="M140.524 118.041C169.73 121.158 196.734 130.895 225.258 136.02C225.206 136.362 225.154 136.703 225.101 137.045C224 136.959 222.846 137.045 221.798 136.789C211.888 134.483 201.978 132.262 192.172 129.742C175.131 125.429 158.247 120.475 140.524 118.041Z" fill="black"/>
<path d="M150.802 102.154C156.727 103.008 162.652 103.649 168.524 104.759C183.468 107.578 198.36 110.61 213.303 113.471C214.09 113.642 215.139 113.001 215.873 113.215C217.551 113.727 219.071 114.496 220.644 115.137C220.487 115.478 220.382 115.82 220.225 116.162C219.124 116.033 217.97 115.991 216.921 115.777C199.723 112.147 182.524 108.432 165.273 104.887C160.502 103.905 155.573 103.35 150.697 102.581C150.697 102.41 150.749 102.282 150.802 102.154Z" fill="black"/>
<path d="M196.524 97.0718C207.326 99.2498 218.337 100.659 228.509 104.503C228.457 104.759 228.404 105.015 228.3 105.271C226.045 105.271 223.79 105.271 221.536 105.271C221.536 105.186 221.483 105.058 221.483 104.972C223.004 104.972 224.472 104.972 225.993 104.972C226.045 104.716 226.097 104.46 226.15 104.204C216.292 101.812 206.434 99.4633 196.524 97.0718Z" fill="black"/>
</g>
<defs>
<clipPath id="clip0_214_233">
<rect width="420" height="332" fill="white"/>
</clipPath>
</defs>
</svg>
