<svg width="571" height="823" viewBox="0 0 571 823" fill="none" xmlns="http://www.w3.org/2000/svg">
<g clip-path="url(#clip0_204_73)">
<path d="M111.058 317.604C117.77 317.875 117.16 313.394 117.618 309.592C127.228 304.025 126.008 316.246 133.788 316.653C123.109 303.618 128.601 291.126 134.246 278.09C131.042 275.918 128.296 272.794 124.94 272.251C122.042 271.708 118.533 274.288 115.177 275.51C115.177 270.35 115.177 266.005 115.177 260.981C96.4129 261.524 107.854 276.053 100.989 282.299C96.1078 280.942 90.7685 279.312 83.9037 277.411C88.3277 282.028 91.6838 285.558 96.5654 290.582C78.4118 289.632 65.9026 295.878 54.1561 303.075C39.6638 311.629 25.9341 321.27 9.76367 331.861C14.3402 332.405 18.0014 333.898 20.1372 332.948C25.9341 330.368 31.2734 326.837 36.6127 323.443C45.4607 317.468 53.5459 310.407 63.0041 305.247C71.0893 300.902 80.2424 297.236 89.3955 295.742C102.82 293.57 106.634 297.236 109.38 309.728C106.939 313.53 104.346 317.196 101.905 320.999C102.973 321.677 104.193 322.356 105.261 323.035C107.244 321.406 109.075 319.505 111.058 317.604Z" fill="white"/>
<path d="M571 170.547C563.525 172.992 551.779 182.632 546.439 191.594C554.525 184.533 562.762 177.473 571 170.547C571 164.844 571 159.141 571 153.438C570.543 153.438 570.237 153.438 569.78 153.438C570.085 159.141 570.543 164.844 571 170.547Z" fill="white"/>
<path d="M529.506 239.663C525.692 239.934 522.031 241.292 519.438 236.54C516.997 232.059 512.573 231.923 508.606 235.861L509.064 235.453C506.776 239.255 504.335 243.193 501.284 248.081C507.233 252.155 507.233 257.315 500.521 263.697C497.165 266.82 497.318 272.794 495.029 280.534C512.878 274.424 527.37 269.807 541.557 264.511C545.981 262.882 549.948 259.487 553.456 256.364C557.88 252.562 558.338 247.946 554.067 241.835C546.439 245.637 539.269 249.168 531.489 253.105C531.947 248.081 532.252 243.736 532.557 239.391C531.489 239.527 530.421 239.527 529.353 239.663H529.506Z" fill="white"/>
<path d="M140.348 138.909L140.806 137.959C137.144 146.378 133.636 154.66 129.822 163.351C128.602 162.808 126.618 161.857 124.483 160.907C124.788 159.956 125.093 159.141 125.398 158.191C122.042 150.315 118.838 142.44 115.482 134.7C114.872 134.836 114.414 134.971 113.804 135.107C114.109 141.218 114.567 147.328 114.872 153.71C91.9893 146.649 81.6158 159.413 84.2092 175.707C85.7347 185.484 84.5143 195.532 84.5143 205.445C84.8194 205.445 85.1245 205.445 85.4296 205.445C85.8872 196.075 86.3449 186.706 86.9551 176.522C96.4133 178.559 102.21 181.41 105.719 187.792C114.872 204.358 125.551 220.381 133.331 237.354C143.399 258.944 151.179 281.349 160.332 303.346C162.773 309.049 159.417 312.58 156.976 316.925C152.247 324.936 143.094 329.146 137.602 337.021C126.618 352.501 111.974 365.944 98.7015 380.473C91.074 380.473 83.5989 380.473 77.0392 380.473C72.1576 386.312 68.4964 391.879 63.6147 396.36C46.0713 412.383 41.0371 433.294 34.3248 453.526C32.3417 459.636 35.8504 462.352 42.5626 465.068C50.3427 448.366 52.7836 430.306 67.581 416.728C72.6152 427.862 61.0213 442.12 77.6494 450.403C89.0908 439.268 84.9719 424.196 92.9046 411.025C100.38 423.11 100.532 438.589 117.16 444.836C130.737 433.43 116.855 419.036 121.889 406.544C129.517 411.84 136.229 416.456 142.789 420.801C150.722 413.876 151.179 413.605 148.738 409.26C146.755 405.729 144.314 401.791 140.958 399.347C132.873 393.508 124.178 388.348 114.414 382.102C121.889 373.548 129.364 364.993 137.907 355.352C143.247 360.512 147.823 364.179 151.179 368.524C158.044 377.486 163.841 386.991 171.011 395.817C175.13 400.977 174.52 405.865 172.689 411.025C171.011 414.691 169.333 418.493 167.655 422.159C165.519 427.048 163.231 432.072 161.095 436.96L161.553 436.553C157.281 449.995 147.06 458.414 132.568 463.302C128.907 464.525 125.398 466.833 122.347 469.141C117.618 472.536 112.584 475.795 108.77 479.868C106.939 481.769 106.024 486.115 107.092 488.151C108.312 490.052 112.736 491.139 115.787 491.274C119.449 491.41 123.11 490.188 129.669 488.966C121.127 496.163 114.567 501.051 108.77 506.618C101.447 513.543 94.4301 520.74 87.8704 528.072C86.3449 529.702 86.0398 534.319 87.1076 535.133C89.3959 536.627 93.5148 537.442 96.1082 536.627C103.431 534.183 110.448 530.788 119.296 527.122C119.296 535.269 118.381 541.651 119.449 547.761C120.821 555.909 128.449 555.637 134.246 554.279C140.501 580.758 146.45 606.285 152.705 631.813C154.84 640.639 157.739 649.33 159.57 658.156C164.756 683.412 169.638 708.804 174.825 734.06C178.486 752.255 183.062 770.315 185.503 788.646C187.792 805.484 194.809 814.853 213.268 817.433C233.71 820.284 254.457 823.136 275.204 823C296.256 822.864 317.613 820.013 338.512 817.026C352.7 814.989 365.056 808.878 372.531 800.188C371.769 792.72 370.243 787.56 371.006 782.672C373.599 768.007 376.803 753.342 380.311 738.813C390.38 696.447 400.143 653.946 410.974 611.717C415.703 593.386 422.721 575.598 428.975 556.995C437.518 562.698 434.467 573.561 447.587 578.449C443.163 559.846 439.196 543.824 435.23 527.801C445.909 537.306 448.197 551.292 461.011 558.624C462.689 557.267 464.215 556.452 464.062 556.044C457.808 541.244 451.553 526.443 445.146 511.642C445.603 511.371 445.909 510.963 446.366 510.692C454.757 518.16 462.994 525.628 472.453 534.183C474.283 529.702 475.198 527.122 476.114 524.949C479.165 525.357 481.301 525.628 484.657 526.036C482.979 523.456 482.521 522.098 481.453 521.147C477.792 518.024 473.978 515.037 470.317 511.914C447.587 492.904 427.145 472.943 420.89 444.021C418.297 432.343 413.11 420.666 401.364 412.926L401.974 413.469C393.583 404.1 395.261 394.73 398.77 383.732C402.279 373.005 405.025 363.228 416.771 357.389C424.857 360.648 427.297 365.401 424.399 373.412C419.517 386.855 418.449 400.841 422.111 414.827C423.636 420.937 426.382 425.69 435.077 427.862C440.417 413.062 435.077 397.989 439.501 383.732C440.417 393.644 440.417 403.421 440.569 413.333C440.569 417.678 440.264 422.702 448.96 422.702C449.875 417.135 450.79 411.568 451.706 406.001C455.824 407.223 458.875 408.173 464.672 409.939C464.367 403.285 464.062 398.532 463.757 392.965C474.588 399.347 479.165 410.753 491.216 414.827C496.556 407.223 486.335 404.371 486.335 400.841C488.776 395.409 491.979 391.879 491.827 388.349C491.521 371.647 463.452 350.328 444.231 351.822C437.976 352.229 432.179 352.094 429.128 346.391C444.536 332.269 459.486 318.554 475.809 303.618C477.639 307.148 480.69 310.679 479.775 312.037C475.504 318.69 481.758 320.184 485.724 321.949C489.081 323.443 493.352 323.307 498.691 324.122C499.759 333.627 500.827 342.996 501.742 352.365C502.353 359.562 503.878 365.808 514.862 368.66C516.235 364.179 517.608 359.833 518.828 355.488C522.489 357.797 526.151 360.105 529.812 362.413C530.727 361.87 531.642 361.327 532.558 360.648C528.897 351.958 525.083 343.267 520.811 333.219C529.812 337.157 536.372 340.552 543.389 342.86C546.135 343.811 551.017 343.539 552.847 341.91C556.508 338.651 553.457 335.392 550.254 332.812C545.982 329.282 541.711 325.751 534.999 320.184C546.135 320.184 553.915 320.184 561.085 320.184C565.509 313.395 561.237 310.407 556.508 308.506C536.372 300.087 515.93 294.656 493.962 304.568C487.555 298.458 481.148 292.348 474.741 286.237C478.249 281.892 480.995 278.633 483.589 275.51C483.131 275.103 482.521 274.831 482.063 274.424C478.097 276.596 474.131 278.769 470.012 280.942C467.723 278.497 466.045 276.732 464.52 274.967C457.502 267.363 455.672 267.091 447.587 273.202C443.773 276.189 440.112 279.312 436.298 282.299C436.603 277.275 438.739 273.881 440.569 270.35C448.044 257.043 455.519 243.736 462.689 230.293C464.367 227.17 465.283 223.504 465.435 219.974C465.588 209.925 460.248 206.531 450.027 211.283C443.01 214.542 436.298 219.159 430.806 224.319C414.33 240.206 398.465 256.636 382.295 272.659C381.684 273.338 380.006 273.202 377.413 273.745C378.786 269.264 379.854 265.869 380.922 262.475C389.159 235.453 405.177 211.962 421.5 188.471C426.229 181.546 432.637 175.572 437.976 169.054C443.315 162.4 449.57 161.586 457.808 164.573C470.012 168.918 482.521 172.856 494.878 176.794C501.895 178.966 509.217 179.781 514.099 173.535C518.676 167.832 514.862 161.993 511.963 156.969C510.133 153.574 506.166 150.858 502.505 148.414C499.454 146.242 495.64 145.02 491.369 142.847C495.488 139.452 498.844 136.737 502.048 133.885C505.709 130.626 510.133 127.232 507.387 122.208C504.031 116.369 497.776 118.27 492.589 119.492C486.792 120.985 481.148 123.022 475.504 125.059C471.537 126.417 467.723 127.911 461.621 130.083C466.198 119.356 465.283 109.036 477.487 103.469C468.791 99.1239 462.689 93.1493 453.384 99.1239C452.011 99.9386 448.655 98.3092 446.214 97.7661C453.231 86.6316 448.655 75.7687 443.925 62.4616C443.925 72.2383 443.925 79.2991 443.925 83.7801C434.01 88.8042 423.941 91.3841 417.992 97.2229C394.346 120.578 377.871 148.007 366.887 177.88C366.734 178.287 367.039 178.695 367.192 179.238C365.514 181.275 363.683 183.176 362.158 185.348C357.734 191.866 353.157 198.248 349.496 205.037C341.258 219.974 333.631 235.182 325.698 250.118L326.156 249.168C324.325 250.118 322.494 251.069 320.054 252.155C315.63 190.101 326.613 130.355 338.055 70.8804C359.412 67.0784 377.108 56.4871 389.77 39.9211C398.007 29.194 390.685 18.8743 375.887 19.2816C370.548 19.4174 365.209 20.9111 359.87 21.8616C359.412 20.7753 358.802 19.9606 358.649 19.0101C358.039 14.6649 359.412 9.23346 352.852 7.73981C345.987 6.11038 341.106 9.64082 337.139 14.1218C334.393 17.2448 332.258 20.7753 329.817 24.1699C312.884 10.5913 309.375 9.64082 297.476 16.4301C300.375 21.3184 303.426 26.3425 306.477 31.3666C306.629 31.6382 308.002 31.2308 308.765 31.2308C308.155 27.5646 307.697 24.0342 306.934 19.8248C319.596 25.2562 322.189 28.2435 328.902 43.4516C328.444 44.2663 328.291 45.2168 327.681 45.8957C320.359 53.2282 313.952 60.4249 320.969 71.0162C322.8 73.7319 321.884 78.2128 321.274 81.7433C317.918 102.111 314.257 122.479 310.595 143.119C303.731 143.119 298.239 143.119 292.137 143.119C289.391 138.366 285.882 133.478 278.407 135.786C271.39 137.959 270.627 143.526 270.017 148.957C269.712 152.081 269.407 155.068 269.254 158.191C262.847 158.191 257.355 158.191 251.253 158.191C250.643 169.19 257.05 175.707 263.61 181.818C268.186 186.163 270.932 190.78 268.491 196.347C262.999 209.79 263.61 223.776 262.389 237.762C261.626 245.909 262.542 255.142 255.982 263.968C240.574 225.269 234.167 185.755 216.014 148.957C219.065 147.735 221.048 147.328 222.573 146.378C234.777 139.181 247.134 132.12 258.881 124.516C261.169 123.022 263.152 118.134 261.932 116.505C260.253 114.06 255.83 111.888 252.473 111.616C247.134 111.209 241.795 112.567 236.455 113.11C234.167 95.4577 233.252 94.7788 216.166 99.9386C217.387 90.4336 218.454 81.4717 219.675 72.374C219.217 72.374 218.76 72.2383 218.302 72.2383C216.624 80.7928 214.793 89.4831 212.657 100.074C209.759 97.0871 208.539 95.0503 206.708 93.964C203.657 92.063 199.691 89.0757 196.945 89.6189C191.605 90.7052 193.589 95.1861 194.656 98.7166C197.25 106.456 198.928 114.604 202.742 121.936C207.013 130.355 206.555 138.095 203.657 146.785C195.572 170.683 190.995 195.125 189.165 219.974C188.707 226.22 187.181 232.33 185.961 239.934C172.079 216.579 159.417 195.125 145.382 171.362C145.84 159.006 152.095 143.933 148.586 127.096C146.755 128.997 144.925 129.404 144.467 130.355C142.789 133.07 141.721 136.058 140.348 138.909Z" fill="white"/>
<path d="M248.049 24.7131C251.405 16.7017 254.608 9.23347 257.659 1.90102C257.202 1.49366 256.592 1.22209 256.134 0.814731C251.1 4.88832 246.065 8.9619 239.811 13.986C239.353 8.0114 239.048 3.93781 238.743 -0.135773C234.166 9.91241 230.963 19.8248 227.912 29.873C227.607 30.6877 227.607 32.3171 228.064 32.4529C236.76 36.1191 229.59 40.4643 228.675 44.5379C228.37 45.76 228.37 46.982 228.37 48.6115C230.81 46.7105 232.794 45.2168 235.234 43.3158C237.217 48.3399 238.896 52.4135 241.336 58.9312C243.93 53.4998 247.133 50.2409 246.371 47.9325C243.777 38.8349 249.879 34.7613 258.422 31.0951C254.913 28.9225 252.168 27.293 248.049 24.7131Z" fill="white"/>
<path d="M94.4293 33.9465C71.2415 21.7258 37.3751 21.9973 0 32.3171C17.5434 37.0696 32.3409 28.7867 47.596 30.0087C63.0037 31.3666 78.4114 32.5887 94.4293 33.9465Z" fill="white"/>
<path d="M501.742 214.271C501.742 214.95 501.59 215.628 501.59 216.307C514.252 217.665 526.913 219.023 539.728 220.381C539.88 219.023 540.033 217.801 540.033 216.443C527.371 215.764 514.557 214.95 501.742 214.271Z" fill="white"/>
<path d="M108.617 233.416C109.532 244.687 109.532 244.687 121.584 245.909C117.465 241.971 113.194 237.897 108.617 233.416Z" fill="white"/>
<path d="M456.434 10.8629C456.891 11.2702 457.196 11.6776 457.654 11.9492C460.247 9.7766 462.841 7.60402 465.434 5.56723C464.976 5.15987 464.519 4.75251 464.214 4.34515C461.62 6.65352 459.027 8.8261 456.434 10.8629Z" fill="white"/>
<path d="M514.25 471.857C514.097 471.45 513.945 471.178 513.792 470.771C511.046 470.906 508.3 471.178 505.707 471.314C508.606 471.45 511.504 471.585 514.25 471.857Z" fill="white"/>
<path d="M269.559 27.8362C269.559 28.2435 269.559 28.7867 269.559 29.194C272.305 29.3298 275.05 29.6014 277.796 29.7372C277.796 28.9225 277.796 28.1077 277.796 27.293C275.05 27.4288 272.305 27.5646 269.559 27.8362Z" fill="white"/>
<path d="M401.516 412.926C413.11 420.666 418.449 432.207 421.043 444.021C427.297 472.808 447.739 492.904 470.469 511.914C474.13 515.037 477.944 518.024 481.605 521.147C482.673 522.098 483.131 523.456 484.809 526.036C481.453 525.628 479.317 525.357 476.266 524.949C475.351 527.122 474.436 529.702 472.605 534.183C463.147 525.628 454.756 518.16 446.519 510.692C446.061 510.964 445.756 511.371 445.298 511.642C451.553 526.443 457.96 541.244 464.215 556.045C464.367 556.316 462.842 557.267 461.164 558.624C448.349 551.292 446.061 537.306 435.382 527.801C439.349 543.824 443.162 559.982 447.739 578.449C434.772 573.561 437.671 562.834 429.128 556.995C422.873 575.598 415.856 593.386 411.127 611.717C400.296 653.946 390.532 696.447 380.464 738.813C376.955 753.342 373.752 768.007 371.158 782.672C370.243 787.56 371.921 792.72 372.684 800.188C365.209 808.878 352.852 814.989 338.665 817.026C317.765 820.013 296.561 822.864 275.356 823C254.761 823.136 234.014 820.284 213.42 817.433C194.961 814.853 187.944 805.484 185.656 788.646C183.215 770.315 178.486 752.256 174.977 734.06C169.943 708.804 165.061 683.412 159.722 658.156C157.891 649.33 154.993 640.639 152.857 631.813C146.755 606.285 140.653 580.758 134.398 554.279C128.601 555.501 120.974 555.909 119.601 547.762C118.533 541.651 119.448 535.269 119.448 527.122C110.6 530.788 103.736 534.183 96.2605 536.627C93.6671 537.442 89.5483 536.627 87.26 535.133C86.0396 534.319 86.4972 529.702 88.0227 528.073C94.5824 520.604 101.6 513.408 108.922 506.618C114.719 501.051 121.279 496.163 129.822 488.966C123.11 490.188 119.448 491.41 115.94 491.275C112.889 491.139 108.465 490.052 107.244 488.151C106.024 486.115 106.939 481.769 108.922 479.868C112.736 475.795 117.77 472.536 122.499 469.141C125.703 466.969 129.059 464.66 132.72 463.303C147.213 458.414 157.281 449.995 161.705 436.553C161.095 440.762 160.485 444.971 159.874 449.996C169.79 444.428 169.79 444.293 161.4 436.824C163.536 431.936 165.824 426.912 167.96 422.024C169.638 433.701 181.079 434.787 189.012 438.725C195.419 434.516 201.063 430.85 206.555 427.319C203.047 412.654 197.555 405.05 184.588 396.767C182.147 398.261 179.706 399.755 177.265 401.112C178.028 396.903 186.418 392.694 175.74 386.991C176.35 392.694 176.808 396.903 177.265 401.112C179.554 403.421 181.842 405.593 183.825 407.63C179.401 408.988 176.045 409.939 172.841 410.889C174.519 405.593 175.282 400.841 171.163 395.681C164.146 386.855 158.196 377.35 151.332 368.388C147.975 364.043 143.399 360.377 138.06 355.217C129.669 364.858 122.042 373.548 114.567 381.967C124.177 388.213 133.025 393.373 141.111 399.211C144.467 401.656 146.908 405.458 148.891 409.124C151.332 413.605 151.026 413.741 142.941 420.666C136.382 416.185 129.822 411.568 122.042 406.408C117.008 418.9 130.89 433.294 117.313 444.7C100.685 438.589 100.532 423.11 93.0569 410.889C85.1243 424.06 89.2431 439.133 77.8018 450.267C61.3262 441.984 72.7676 427.727 67.7334 416.592C52.9359 430.306 50.4951 448.366 42.715 464.932C36.0027 462.216 32.494 459.636 34.4772 453.39C41.1894 433.158 46.3762 412.247 63.7671 396.224C68.6487 391.743 72.3099 386.176 77.1916 380.337C83.7513 380.337 91.2263 380.337 98.8539 380.337C112.126 365.808 126.771 352.365 137.755 336.886C143.399 329.01 152.399 324.801 157.129 316.789C159.722 312.444 162.925 308.914 160.485 303.211C151.179 281.349 143.551 258.809 133.483 237.219C125.55 220.245 115.024 204.222 105.871 187.657C102.363 181.41 96.7182 178.559 87.1074 176.386C86.6498 186.57 86.1921 195.939 85.5819 205.309C85.2768 205.309 84.9717 205.309 84.6666 205.309C84.6666 195.396 85.887 185.348 84.3615 175.572C81.7681 159.413 92.1416 146.649 115.024 153.574C114.567 147.192 114.262 141.082 113.956 134.971C114.567 134.836 115.024 134.7 115.635 134.564C118.991 142.44 122.194 150.315 125.55 158.055C117.618 159.549 122.042 164.709 121.737 168.511C115.635 169.19 109.838 161.042 101.447 169.054C111.363 173.806 120.364 177.88 129.212 181.954C129.669 181.41 130.279 180.731 130.737 180.188C129.364 178.016 127.839 175.707 126.466 173.535C130.127 168.782 126.466 164.98 124.483 161.042C126.618 161.993 128.601 162.943 129.822 163.487C133.636 154.796 137.144 146.378 140.806 138.095C138.365 150.18 132.11 162.129 138.365 174.485C139.585 174.621 140.806 174.621 142.026 174.757C144.162 161.993 146.297 149.365 148.891 133.614C144.009 136.737 142.178 137.823 140.348 139.045C141.721 136.194 142.789 133.206 144.467 130.491C145.077 129.54 146.755 129.268 149.806 127.639C153.315 144.341 147.06 159.549 146.602 171.905C160.637 195.668 173.452 217.122 187.181 240.477C188.402 232.873 189.927 226.763 190.385 220.517C192.215 195.668 196.639 171.226 204.877 147.328C207.776 138.774 208.233 131.034 203.962 122.479C200.301 115.147 198.47 107 195.877 99.2597C194.809 95.8651 192.826 91.2483 198.165 90.1621C200.911 89.6189 204.877 92.6062 207.928 94.5072C209.759 95.5935 210.979 97.4945 213.878 100.618C216.013 90.0263 217.691 81.4717 219.522 72.7814C219.98 72.7814 220.437 72.9172 220.895 72.9172C219.827 81.8791 218.607 90.9768 217.386 100.482C234.472 95.3219 235.387 96.0008 237.676 113.653C243.015 113.11 248.354 111.752 253.694 112.159C257.05 112.431 261.474 114.468 263.152 117.048C264.22 118.677 262.236 123.565 260.101 125.059C248.354 132.663 235.998 139.724 223.794 146.921C222.268 147.871 220.285 148.279 217.234 149.501C235.235 186.299 241.642 225.812 257.202 264.512C263.762 255.685 262.847 246.452 263.609 238.305C264.83 224.319 264.22 210.333 269.711 196.89C272 191.187 269.406 186.706 264.83 182.361C258.27 176.115 251.863 169.597 252.473 158.734C258.575 158.734 264.067 158.734 270.474 158.734C270.779 155.747 270.932 152.624 271.237 149.501C271.847 144.069 272.763 138.366 279.627 136.329C287.255 134.021 290.611 138.909 293.357 143.662C299.459 143.662 304.951 143.662 311.816 143.662C315.477 123.022 318.986 102.654 322.494 82.2864C323.104 78.756 324.02 74.2751 322.189 71.5593C315.172 60.8322 321.579 53.6356 328.901 46.4389C329.512 45.76 329.664 44.8095 330.122 43.9947C323.41 28.6509 320.816 25.7994 308.154 20.3679C308.765 24.5773 309.375 28.2435 309.985 31.774C309.222 31.9098 307.849 32.1813 307.697 31.9098C304.493 26.8857 301.595 21.8616 298.696 16.9733C310.595 10.184 314.104 11.1345 331.037 24.7131C333.478 21.3184 335.766 17.788 338.36 14.6649C342.326 10.184 347.208 6.65353 354.072 8.28296C360.632 9.9124 359.259 15.2081 359.869 19.5532C360.022 20.3679 360.48 21.1827 361.09 22.4047C366.429 21.59 371.768 20.0964 377.108 19.8248C391.905 19.4174 399.075 29.7372 390.99 40.4643C378.328 57.0302 360.632 67.6215 339.275 71.4235C327.986 131.034 316.85 190.644 321.274 252.698C323.715 251.476 325.545 250.526 327.376 249.711C325.088 257.043 322.342 264.24 320.511 271.572C318.986 277.547 319.138 283.522 327.681 286.373C335.156 266.141 342.631 245.909 349.954 225.812C354.835 221.467 357.734 216.443 358.496 210.604C357.429 210.333 356.513 210.061 355.445 209.654C353.767 215.085 351.937 220.517 350.259 225.948C349.038 226.356 347.208 226.491 346.597 227.306C339.885 235.046 333.478 242.922 326.918 250.661C334.851 235.589 342.479 220.517 350.716 205.58C354.378 198.791 359.107 192.409 363.378 185.891C364.751 183.719 366.734 181.818 368.412 179.781L368.107 179.509C366.429 185.891 364.751 192.137 363.226 198.519C364.293 198.927 365.361 199.334 366.429 199.742C369.633 195.396 372.836 191.051 376.192 186.842C380.921 181.003 385.498 175.028 391.142 169.869C393.431 167.832 398.465 166.745 401.821 167.289C403.652 167.56 405.025 172.313 405.482 175.164C406.092 179.238 405.635 183.447 405.635 188.471C418.602 175.164 430.196 163.487 441.79 151.537C443.468 149.908 444.993 148.007 445.756 145.97C450.332 132.799 454.756 119.492 459.18 106.321C455.519 103.469 451.705 100.618 448.044 97.7661L447.586 98.0376C450.027 98.5808 453.536 100.21 454.756 99.3955C463.909 93.2851 470.012 99.3955 478.859 103.741C466.655 109.172 467.418 119.492 462.994 130.355C468.944 128.182 472.91 126.553 476.876 125.331C482.521 123.43 488.165 121.257 493.962 119.763C499.149 118.406 505.403 116.505 508.76 122.479C511.506 127.503 507.082 130.898 503.42 134.157C500.217 137.008 496.861 139.724 492.742 143.119C497.013 145.291 500.827 146.513 503.878 148.686C507.387 151.13 511.353 153.846 513.336 157.24C516.082 162.265 520.048 168.103 515.472 173.806C510.438 180.053 503.268 179.374 496.25 177.065C483.894 173.127 471.384 169.325 459.18 164.844C450.943 161.857 444.688 162.808 439.349 169.325C434.009 175.979 427.602 181.954 422.873 188.743C406.55 212.234 390.532 235.725 382.294 262.746C381.227 266.141 380.159 269.536 378.786 274.017C381.379 273.473 383.057 273.609 383.667 272.93C399.838 256.772 415.551 240.342 432.179 224.59C437.518 219.43 444.383 214.814 451.4 211.555C461.621 206.802 466.961 210.197 466.808 220.245C466.808 223.64 465.74 227.442 464.062 230.565C456.892 244.008 449.265 257.315 441.942 270.622C439.959 274.152 437.823 277.547 437.671 282.571C441.484 279.584 445.146 276.325 448.959 273.473C457.045 267.363 458.875 267.635 465.893 275.239C467.418 277.004 469.096 278.769 471.384 281.213C475.503 279.041 479.47 276.868 483.436 274.695C483.894 275.103 484.504 275.374 484.962 275.782C482.368 279.041 479.622 282.164 476.114 286.509C482.368 292.619 488.928 298.73 495.335 304.84C517.302 294.928 537.744 300.359 557.881 308.778C562.61 310.815 566.882 313.666 562.458 320.455C555.288 320.455 547.508 320.455 536.371 320.455C543.084 326.023 547.355 329.553 551.627 333.084C554.83 335.664 557.881 338.922 554.22 342.181C552.389 343.811 547.508 344.082 544.762 343.132C537.744 340.688 531.032 337.429 522.184 333.491C526.456 343.539 530.117 352.229 533.931 360.92C533.015 361.463 532.1 362.006 531.185 362.685C527.523 360.377 523.862 358.068 520.201 355.76C518.828 360.105 517.608 364.45 516.235 368.931C505.251 366.08 503.725 359.698 503.115 352.637C502.352 343.268 501.132 333.898 500.064 324.393C494.877 323.579 490.453 323.85 487.097 322.221C483.283 320.455 476.876 318.826 481.148 312.308C482.063 310.95 479.012 307.42 477.181 303.89C460.858 318.826 445.908 332.54 430.501 346.662C433.552 352.229 439.349 352.501 445.603 352.094C464.825 350.736 492.742 371.918 493.199 388.62C493.199 392.151 490.148 395.817 487.708 401.112C487.708 404.507 497.928 407.494 492.589 415.098C480.538 411.161 475.961 399.755 465.13 393.237C465.435 398.804 465.588 403.557 466.045 410.21C460.248 408.445 457.197 407.494 453.078 406.272C452.163 411.84 451.248 417.407 450.332 422.974C441.637 422.838 442.095 417.95 441.942 413.605C441.79 403.692 441.942 393.916 440.874 384.003C436.45 398.261 441.79 413.469 436.45 428.134C427.755 425.961 425.009 421.209 423.483 415.098C419.822 400.977 420.737 387.127 425.772 373.684C428.67 365.536 426.382 360.92 418.144 357.661C406.245 363.5 403.499 373.276 400.143 384.003C396.634 395.002 394.956 404.371 403.347 413.741C399.685 410.889 396.024 408.038 391.295 404.371C387.786 408.988 384.43 413.469 380.769 418.086C383.667 419.715 384.888 420.53 386.261 421.073C396.634 425.418 404.872 429.22 401.668 443.07C399.685 451.489 403.804 462.624 413.11 472.943C413.873 467.105 413.262 461.809 414.94 461.13C423.483 457.871 420.585 452.711 418.449 447.823C412.347 435.874 406.855 424.332 401.516 412.926ZM349.496 366.623C351.326 366.215 354.378 366.215 354.835 365.265C357.581 359.29 360.327 353.316 355.293 345.983C352.699 352.501 349.954 359.019 347.36 365.537C344.767 367.166 340.648 368.252 340.038 370.289C337.444 377.893 336.071 385.769 334.241 393.508C341.868 387.67 347.208 380.88 351.632 373.684C352.547 372.19 350.259 369.067 349.496 366.623ZM358.344 480.14C356.208 476.338 354.072 472.4 351.784 468.191C339.428 469.956 327.681 471.721 316.85 473.351C312.273 484.893 319.291 493.04 322.494 501.594C324.02 505.396 327.223 509.063 330.579 512.05C339.58 519.925 349.343 527.122 358.039 535.133C363.531 540.293 367.802 546.54 373.446 553.329C377.87 544.367 381.074 536.491 380.769 527.937C380.616 524.271 378.938 519.654 376.04 517.074C364.141 506.618 358.039 494.398 358.039 479.733C366.124 487.065 367.802 499.829 382.6 502.273C394.651 488.966 387.939 473.079 391.295 458.686C392.058 468.191 391.753 477.56 392.21 486.929C392.668 497.249 389.922 505.261 375.43 507.976C382.294 512.593 387.481 516.259 394.193 520.74C396.024 506.075 393.888 492.361 403.957 482.72C400.448 470.228 397.244 458.686 393.888 446.737C381.379 453.933 369.175 460.723 357.123 467.648C357.581 472.129 358.039 476.202 358.344 480.14ZM290.153 765.019C290.153 756.058 290.611 748.861 290.153 741.8C288.628 717.358 286.645 693.053 284.814 668.611C283.289 647.836 282.373 627.061 280.543 606.285C278.254 580.079 274.593 554.144 265.44 528.887C262.236 519.79 263.915 512.457 273.83 506.618C285.119 500.101 288.17 488.423 283.136 475.523C274.898 475.523 266.508 475.523 256.745 475.523C256.745 480.14 256.897 484.078 256.592 488.016C256.44 490.188 256.134 492.768 254.609 494.262C246.524 502.816 238.286 511.371 229.59 519.382C224.709 523.863 223.336 528.073 225.472 534.047C227.76 540.429 230.048 547.083 230.963 553.736C234.167 578.449 236.303 603.162 239.659 627.875C244.998 667.389 251.1 706.767 256.745 746.145C257.355 750.762 256.897 755.379 256.897 759.995C246.066 761.489 243.778 756.737 242.862 750.083C236.913 708.804 231.269 667.525 224.709 626.382C219.675 594.2 223.031 561.069 210.216 529.838C207.318 522.777 210.827 517.345 218.149 514.222C227.607 510.285 234.93 504.31 241.184 497.113C243.625 494.262 246.524 491.139 249.88 489.781C255.067 487.744 256.287 484.621 256.134 480.14C255.829 474.709 251.253 474.165 246.676 472.943C229.896 468.191 213.267 463.167 196.182 458.143C182.147 473.758 182.3 478.646 199.08 492.361C204.572 486.929 210.216 481.362 215.708 475.931C217.386 482.584 213.725 486.929 210.369 491.139C201.216 502.681 192.215 514.087 199.843 529.43C200.758 531.331 200.453 533.911 200.148 536.22C199.385 540.565 199.538 545.725 196.944 548.984C195.114 551.428 189.469 551.564 185.045 552.786C187.029 568.673 188.249 584.424 190.995 600.039C196.487 631.27 202.131 662.501 208.843 693.596C212.505 710.841 218.302 727.814 222.726 744.923C224.404 751.577 228.523 758.638 222.115 765.019C214.183 765.427 212.047 761.353 210.674 755.922C205.182 734.739 198.47 713.964 194.046 692.645C189.622 671.463 187.486 649.737 184.283 628.283C180.621 604.384 176.808 580.622 173.299 557.674C172.536 561.204 171.468 565.55 170.248 570.845C159.874 566.093 162.163 557.538 158.502 551.156C156.366 551.835 154.078 552.378 151.942 553.057C151.026 550.885 150.264 548.848 149.348 546.947C150.111 564.463 151.332 581.708 155.908 598.274C165.366 632.492 172.994 666.982 180.469 701.607C187.181 732.702 194.961 763.526 201.521 794.621C203.199 802.768 207.623 805.755 216.318 807.249C255.677 814.31 295.035 813.902 334.241 806.706C349.496 803.854 352.242 801.139 355.14 787.424C370.09 718.173 382.905 648.515 405.94 580.893C407.313 576.956 405.94 572.339 405.482 567.994C405.025 563.92 404.414 559.982 403.652 556.045C403.499 554.822 402.889 553.6 402.431 552.514C398.007 551.156 394.041 549.934 389.007 548.44C387.786 556.18 386.261 563.377 385.345 570.438C382.142 596.916 379.243 623.53 376.192 650.009C375.43 656.119 374.514 662.365 365.666 667.389C363.836 661.958 361.7 658.02 361.395 653.946C361.09 649.058 362.31 644.034 362.92 639.146C365.514 619.457 368.26 599.632 370.395 579.807C370.853 576.005 370.701 570.981 368.26 568.401C362.463 562.019 355.14 556.588 348.428 550.749C348.275 559.032 350.869 565.821 352.699 572.61C353.462 575.462 353.92 580.758 352.394 581.437C341.716 586.053 345.682 594.472 345.682 601.397C345.377 645.256 345.835 689.251 345.377 733.11C345.224 744.923 345.53 757.28 338.055 767.871C323.715 765.019 323.257 763.797 326.918 753.749C329.207 747.503 331.037 740.714 331.037 734.196C331.495 689.794 330.58 645.392 331.647 601.126C332.105 582.116 320.664 567.586 313.036 551.428C314.104 561.883 317.002 571.796 319.291 581.844C321.579 591.349 328.444 600.447 320.664 611.31C315.629 595.83 310.748 580.35 305.714 564.735C300.222 567.722 295.34 570.302 291.221 572.475C293.509 605.606 295.645 637.652 297.934 669.698C300.222 702.015 306.019 734.196 302.663 767.735C298.086 766.649 294.425 765.834 290.153 765.019ZM166.129 298.73C167.349 298.865 168.417 299.137 169.638 299.273C170.706 297.779 171.316 295.878 172.841 294.656C190.232 280.263 191.605 264.104 180.469 245.909C172.536 232.873 166.282 219.023 158.959 205.58C155.603 199.606 151.789 193.903 147.67 187.385C137.907 206.531 137.449 206.531 139.28 216.307C141.721 228.257 144.162 240.342 147.975 251.883C153.467 267.906 160.18 283.25 166.129 298.73ZM283.594 305.926C291.679 296.693 298.849 289.225 305.103 281.213C306.934 278.905 306.934 275.239 306.934 272.116C307.087 255.957 307.239 239.663 307.087 223.504C306.934 212.641 306.171 201.643 305.714 191.459C297.628 197.976 289.848 203.679 282.678 210.061C280.543 211.962 278.865 215.493 278.865 218.344C278.559 246.995 278.102 275.782 283.594 305.926ZM296.255 474.165C292.594 476.474 288.628 477.832 288.323 479.597C287.56 483.806 288.475 488.423 288.78 492.768C288.933 495.348 290.764 498.471 289.696 500.372C281.61 515.173 285.729 530.517 286.95 545.725C287.407 552.243 288.933 558.624 290.153 565.414C301.29 560.933 303.883 558.217 304.188 548.712C304.951 524.542 302.815 500.372 296.255 474.165ZM408.991 299.409C428.518 273.066 445.603 248.081 457.807 218.073C453.383 219.838 451.095 220.109 450.027 221.196C437.06 233.688 424.094 246.316 411.432 259.216C409.906 260.709 409.144 263.289 409.144 265.326C408.991 275.782 408.991 286.237 408.991 299.409ZM275.814 400.841C276.576 400.977 277.339 400.977 278.254 401.112C279.017 398.668 279.78 396.224 280.695 393.78C285.577 379.115 287.713 363.228 295.798 350.193C306.934 332.269 302.663 313.666 304.646 295.199C295.035 306.062 287.102 317.468 285.729 331.861C285.119 339.194 290.001 348.563 277.339 352.094C276.576 352.365 275.966 354.538 275.966 355.76C275.814 370.561 275.814 385.633 275.814 400.841ZM169.638 320.863C161.858 329.553 156.518 335.392 151.484 340.959C157.129 358.204 172.841 375.449 189.469 383.053C194.809 375.585 196.334 368.66 188.249 361.327C185.045 358.34 184.283 353.451 182.3 349.378C178.486 340.688 174.672 332.133 169.638 320.863ZM397.702 174.757C371.921 198.791 359.412 223.776 366.277 255.278C384.583 231.651 393.126 205.309 397.702 174.757ZM203.199 289.904C201.979 290.039 200.758 290.311 199.538 290.447C199.538 304.297 199.843 318.283 199.385 332.133C199.233 339.194 201.063 345.44 205.945 351.007C212.352 358.34 217.844 365.944 220.437 375.177C221.2 377.893 223.641 380.337 226.234 384.139C223.336 365.944 219.37 349.649 218.759 333.219C217.997 317.061 208.233 304.433 203.199 289.904ZM255.982 299.952C240.422 324.257 238.896 385.09 252.626 401.927C252.626 383.596 252.168 366.894 252.778 350.328C253.236 333.491 254.914 316.789 255.982 299.952ZM233.404 419.308C224.099 399.89 215.251 381.152 206.25 362.278C205.182 373.276 205.03 383.868 206.708 394.187C207.928 401.112 211.284 407.63 214.335 414.148C217.691 421.48 223.793 423.11 233.404 419.308ZM207.165 206.802C206.098 206.938 204.877 207.074 203.809 207.074C203.047 227.442 197.402 247.674 200.606 268.449C211.437 267.363 212.047 267.363 212.352 262.067C212.962 253.649 213.115 245.094 212.352 236.675C211.132 226.763 208.843 216.715 207.165 206.802ZM454.451 282.435C440.264 296.014 425.466 307.692 416.924 323.579C417.686 324.257 418.602 324.936 419.364 325.615C434.162 315.024 448.959 304.433 464.672 293.162C461.316 289.632 458.265 286.373 454.451 282.435ZM371.006 346.934C372.074 347.205 373.294 347.613 374.362 347.884C379.396 339.194 385.193 330.775 389.464 321.813C394.651 311.086 394.193 310.95 383.21 301.988C367.497 314.617 372.226 331.318 371.006 346.934ZM233.862 292.891C237.523 271.029 234.167 230.022 228.218 218.208C225.929 226.084 221.658 232.738 222.573 238.848C225.319 256.907 230.048 274.831 233.862 292.891ZM177.265 484.078C165.671 496.842 165.214 502.952 174.214 514.494C178.486 511.642 182.757 508.791 187.944 505.532C184.435 498.335 181.232 491.953 177.265 484.078ZM341.258 56.8944C342.021 57.8449 342.631 58.7954 343.394 59.6102C350.564 55.6724 358.039 52.2777 364.751 47.7968C375.277 40.7359 376.955 37.6128 376.192 30.0088C359.717 34.4897 352.852 48.2041 341.258 56.8944ZM242.405 293.027C247.134 289.225 250.643 286.509 254.151 283.793C250.185 272.251 246.371 261.388 242.557 250.661C241.489 250.933 240.574 251.069 239.506 251.34C240.422 264.512 241.337 277.819 242.405 293.027ZM216.471 177.744C215.098 192.816 216.013 208.024 220.742 224.455C233.862 206.667 221.048 192.681 216.471 177.744ZM347.513 278.905C337.292 292.348 330.274 306.605 329.512 324.257C338.207 315.567 344.004 300.902 347.513 278.905ZM311.968 514.494C311.968 499.965 311.968 487.744 311.968 474.437C308.002 475.116 305.256 475.523 301.595 476.202C303.73 487.744 305.714 498.743 307.849 509.606C308.002 510.692 309.527 511.507 311.968 514.494ZM384.278 436.281C383.973 435.331 383.82 434.244 383.515 433.294C378.023 432.479 372.684 427.998 367.192 431.529C360.48 435.874 359.717 442.935 360.327 451.897C369.48 445.922 376.803 441.034 384.278 436.281ZM188.859 514.901C185.808 520.604 181.994 523.999 182.605 526.986C183.672 533.368 182.452 541.515 191.605 545.317C195.724 533.64 195.572 529.974 188.859 514.901ZM186.266 301.174C172.079 313.123 171.926 319.233 186.266 329.01C186.266 319.369 186.266 310.407 186.266 301.174ZM130.127 219.431C130.127 208.432 130.127 199.741 130.127 190.644C124.94 189.422 120.974 188.471 114.872 186.978C120.364 198.655 124.94 208.16 130.127 219.431ZM471.384 155.883C480.538 160.907 489.691 165.931 503.725 165.795C494.877 151.266 482.826 154.525 471.384 155.883ZM105.414 520.333C106.024 521.148 106.634 521.826 107.244 522.641C117.313 518.839 127.991 515.444 130.127 500.101C120.211 508.112 112.889 514.222 105.414 520.333ZM112.889 162.536C111.668 156.018 108.007 153.438 102.057 154.253C95.3452 155.068 90.1585 157.784 88.6329 165.795C97.1758 164.573 104.498 163.622 112.889 162.536ZM400.296 294.249C401.363 287.731 402.431 281.349 403.804 272.251C389.922 285.83 389.922 285.83 400.296 294.249ZM122.957 478.239C145.535 475.523 146.908 474.709 146.45 464.525C138.06 469.413 130.585 473.894 122.957 478.239ZM334.088 442.935C334.851 443.614 335.614 444.157 336.376 444.836C342.479 441.441 348.123 437.911 346.14 429.356C342.173 433.837 338.055 438.454 334.088 442.935ZM263.304 442.12C262.542 442.12 261.931 442.256 261.169 442.256C261.169 447.28 260.711 452.304 261.474 457.328C261.626 458.686 264.83 459.772 268.339 462.216C266.203 453.933 264.677 447.959 263.304 442.12ZM343.394 530.381C345.377 540.701 345.377 540.701 356.513 544.503C351.479 539.207 347.513 534.862 343.394 530.381ZM281.763 531.331C282.068 523.863 284.509 518.568 279.475 512.729C274.288 519.79 277.492 524.406 281.763 531.331ZM212.2 453.119C212.962 452.575 213.725 452.032 214.488 451.353C212.2 448.366 215.861 441.984 206.25 442.935C204.267 443.07 202.436 444.021 198.317 445.107C205.792 449.452 208.996 451.353 212.2 453.119ZM221.353 442.799C220.285 443.07 219.37 443.342 218.302 443.478C220.59 447.28 215.861 454.612 228.218 455.02C225.472 450.131 223.488 446.465 221.353 442.799ZM412.652 550.07C413.567 543.416 414.635 536.899 415.856 528.344C407.618 535.812 409.144 542.737 412.652 550.07ZM330.274 455.02C330.58 456.106 330.885 457.328 331.342 458.414C336.376 457.464 341.411 456.649 346.445 455.699C346.292 454.748 345.987 453.798 345.835 452.847C340.495 453.526 335.309 454.205 330.274 455.02ZM394.804 357.525C405.177 355.217 405.177 355.217 409.601 345.576C404.414 349.649 400.601 352.908 394.804 357.525ZM178.791 456.106C179.859 456.785 181.079 457.464 182.147 458.143C184.893 455.427 187.639 452.711 192.368 447.959C183.215 449.045 177.57 449.181 178.791 456.106ZM298.239 161.042C301.747 158.734 305.103 156.561 310.29 153.167C300.069 150.451 298.391 155.204 298.239 161.042ZM324.02 537.849C324.172 528.752 324.172 528.751 314.257 521.826C318.223 528.073 320.664 532.146 324.02 537.849ZM353.157 243.872C351.937 247.674 350.716 251.476 349.496 255.142C356.513 253.105 356.666 249.168 353.157 243.872ZM233.252 328.331C232.794 328.467 232.184 328.603 231.726 328.874C231.726 333.491 231.726 338.108 231.726 342.724C232.184 342.724 232.794 342.589 233.252 342.589C233.252 337.836 233.252 333.084 233.252 328.331ZM161.858 460.994C160.485 460.451 158.959 459.908 157.586 459.229C156.366 461.809 155.298 464.525 154.078 467.105C155.145 467.512 156.213 468.055 157.434 468.462C158.807 466.018 160.332 463.438 161.858 460.994ZM283.289 456.377C283.594 456.377 283.746 456.377 284.051 456.377C284.051 453.662 284.051 450.81 284.051 448.095C283.746 448.095 283.594 448.095 283.289 448.095C283.289 450.81 283.289 453.662 283.289 456.377ZM373.141 402.742C374.057 403.149 374.972 403.557 376.04 404.1C377.87 401.112 383.21 399.619 379.396 392.422C376.65 396.767 374.972 399.755 373.141 402.742ZM170.553 545.182C171.163 545.182 171.773 545.046 172.536 545.046C172.384 541.108 172.079 537.034 171.926 533.097C171.163 533.097 170.553 533.232 169.79 533.232C169.943 537.17 170.248 541.108 170.553 545.182ZM385.803 369.61C386.718 370.017 387.634 370.425 388.549 370.696C389.464 368.66 390.532 366.623 391.448 364.722C390.685 364.45 389.922 364.043 389.159 363.771C388.091 365.672 387.024 367.709 385.803 369.61ZM152.857 353.587C147.518 346.526 147.518 346.526 143.551 352.094C145.992 352.501 148.128 352.908 152.857 353.587Z" fill="black"/>
<path d="M109.38 309.864C106.634 297.236 102.82 293.706 89.3955 295.878C80.2424 297.372 71.0893 301.038 63.0041 305.383C53.5459 310.543 45.4607 317.604 36.6127 323.578C31.426 327.109 25.9341 330.504 20.1372 333.084C18.0014 334.034 14.3402 332.54 9.76367 331.997C25.9341 321.27 39.6638 311.629 54.1561 302.803C65.9026 295.607 78.2593 289.36 96.5654 290.311C91.6838 285.151 88.3277 281.756 83.9037 277.14C90.7685 279.041 96.1078 280.67 100.989 282.028C108.007 275.918 96.4129 261.253 115.177 260.709C115.177 265.869 115.177 270.215 115.177 275.239C118.533 274.017 122.194 271.572 124.94 271.98C128.296 272.523 131.195 275.782 134.246 277.819C128.601 290.854 122.957 303.346 133.788 316.382C126.008 315.974 127.076 303.754 117.618 309.321C115.482 309.593 113.346 309.728 111.21 310C110.6 310.136 109.99 310 109.38 309.864ZM127.991 276.732C127.076 276.325 126.16 275.918 125.093 275.374C122.804 278.633 117.007 280.263 120.516 288.681C123.872 283.386 126.008 279.991 127.991 276.732ZM107.549 275.646C104.803 283.386 106.939 286.373 114.872 289.36C111.973 284.065 110.448 281.077 107.549 275.646Z" fill="black"/>
<path d="M508.454 235.996C512.42 232.059 516.844 232.194 519.285 236.675C521.878 241.428 525.54 239.934 529.353 239.798C520.2 247.402 518.37 257.315 516.386 267.77C539.574 264.511 551.321 257.586 552.846 244.823C543.083 250.933 534.845 256.093 524.929 262.203C526.607 253.377 527.98 246.588 529.353 239.663C530.421 239.527 531.489 239.527 532.557 239.391C532.252 243.736 531.794 248.081 531.489 253.105C539.269 249.168 546.439 245.637 554.067 241.835C558.338 247.946 557.88 252.562 553.456 256.364C549.948 259.487 545.981 262.882 541.557 264.512C527.37 269.943 512.725 274.56 495.029 280.534C497.318 272.794 497.165 266.82 500.521 263.697C507.233 257.315 507.233 252.155 501.284 248.081C504.335 243.057 506.623 239.255 509.064 235.453C507.996 240.613 506.471 245.909 513.488 250.39C515.166 246.045 516.692 242.107 518.675 237.083C514.098 236.675 511.2 236.268 508.454 235.996Z" fill="black"/>
<path d="M176.655 401.112C179.096 399.619 181.537 398.125 183.978 396.767C196.945 405.05 202.436 412.654 205.945 427.319C200.453 430.85 194.809 434.516 188.402 438.725C180.469 434.787 168.875 433.701 167.35 422.023C169.028 418.357 170.706 414.555 172.384 410.889C175.587 409.938 178.944 408.988 183.368 407.63C181.232 405.593 178.944 403.285 176.655 401.112Z" fill="white"/>
<path d="M248.048 24.7131C252.167 27.293 254.913 28.9225 258.574 31.0951C250.032 34.7613 243.93 38.8349 246.523 47.9325C247.133 50.2409 244.082 53.4998 241.489 58.9312C238.895 52.5493 237.37 48.3399 235.387 43.3158C232.793 45.3526 230.81 46.8462 228.522 48.6115C228.674 46.982 228.674 45.76 228.827 44.5379C229.742 40.4643 236.912 36.2549 228.217 32.4529C227.759 32.3171 227.759 30.6877 228.064 29.873C231.115 19.8248 234.166 9.77662 238.895 -0.135773C239.2 3.93781 239.506 7.87561 239.963 13.986C246.218 8.9619 251.252 4.88832 256.286 0.814731C256.744 1.22209 257.354 1.49366 257.812 1.90102C254.608 9.36926 251.405 16.7017 248.048 24.7131Z" fill="black"/>
<path d="M367.954 179.374C367.802 178.966 367.496 178.423 367.649 178.016C378.633 148.007 394.956 120.714 418.754 97.3587C424.703 91.5199 434.772 88.8041 444.687 83.9158C444.687 79.4349 444.687 72.374 444.687 62.5974C449.417 76.0402 453.993 86.7674 446.976 97.9018L447.433 97.6302C434.772 92.4704 426.076 98.1734 418.296 106.049C415.245 109.036 412.194 112.159 409.906 115.69C398.159 133.614 386.718 151.673 374.971 169.597C372.836 172.992 370.242 175.979 367.802 179.238C367.649 179.102 367.954 179.374 367.954 179.374Z" fill="black"/>
<path d="M326.461 250.39C333.02 242.65 339.427 234.774 346.14 227.034C346.902 226.22 348.581 226.084 349.801 225.677L349.496 225.405C342.021 245.637 334.546 265.869 327.223 285.966C318.833 283.25 318.528 277.275 320.053 271.165C321.884 263.833 324.63 256.5 326.918 249.303L326.461 250.39Z" fill="white"/>
<path d="M140.348 138.909C142.178 137.687 144.009 136.601 148.89 133.478C146.297 149.093 144.161 161.857 142.026 174.621C140.805 174.485 139.585 174.485 138.364 174.349C131.957 162.129 138.364 150.044 140.805 137.959L140.348 138.909Z" fill="white"/>
<path d="M501.742 214.271C514.557 214.95 527.219 215.764 540.033 216.443C539.88 217.801 539.728 219.023 539.728 220.381C527.066 219.023 514.404 217.665 501.59 216.307C501.742 215.628 501.742 214.95 501.742 214.271Z" fill="black"/>
<path d="M108.617 233.416C113.346 237.897 117.465 241.971 121.584 245.909C109.38 244.687 109.38 244.687 108.617 233.416Z" fill="black"/>
<path d="M109.379 309.864C109.99 310 110.6 310.136 111.21 310.271C111.21 312.716 111.21 315.16 111.21 317.604C109.227 319.505 107.244 321.406 105.26 323.171C104.193 322.492 102.972 321.813 101.904 321.134C104.345 317.332 106.938 313.666 109.379 309.864Z" fill="black"/>
<path d="M124.635 161.042C126.618 164.98 130.279 168.782 126.618 173.535C124.94 171.905 123.414 170.276 121.736 168.782C121.889 164.98 117.465 159.956 125.55 158.327C125.245 159.141 124.94 160.092 124.635 161.042Z" fill="white"/>
<path d="M111.057 317.604C111.057 315.16 111.057 312.716 111.057 310.271C113.192 310 115.328 309.864 117.464 309.593C117.311 313.395 117.921 317.875 111.057 317.604Z" fill="black"/>
<path d="M290.154 765.019C294.425 765.834 298.086 766.649 303.273 767.735C306.629 734.196 300.832 702.015 298.544 669.697C296.256 637.652 294.12 605.606 291.832 572.475C295.798 570.302 300.832 567.722 306.324 564.735C311.358 580.35 316.24 595.83 321.274 611.309C328.902 600.582 322.19 591.349 319.901 581.844C317.46 571.796 314.562 561.883 313.647 551.428C321.274 567.586 332.716 582.115 332.258 601.125C331.19 645.527 331.953 689.794 331.648 734.196C331.648 740.714 329.817 747.503 327.529 753.749C323.715 763.797 324.325 765.019 338.665 767.871C346.14 757.279 345.835 744.923 345.988 733.11C346.445 689.251 346.14 645.256 346.293 601.397C346.293 594.472 342.326 586.189 353.005 581.436C354.378 580.757 354.073 575.462 353.31 572.61C351.479 565.685 348.886 559.032 349.039 550.749C355.751 556.588 363.073 561.883 368.87 568.401C371.311 570.981 371.464 576.005 371.006 579.807C368.87 599.632 366.124 619.321 363.531 639.146C362.921 644.034 361.7 649.058 362.005 653.946C362.311 658.02 364.446 661.958 366.277 667.389C374.972 662.365 376.04 656.119 376.803 650.008C380.007 623.53 382.905 596.916 385.956 570.438C386.871 563.241 388.244 556.18 389.617 548.44C394.499 549.934 398.618 551.156 403.042 552.514C403.347 553.6 403.957 554.822 404.262 556.044C405.025 559.982 405.635 564.056 406.093 567.994C406.55 572.339 407.923 576.955 406.55 580.893C383.363 648.515 370.548 718.173 355.751 787.424C352.852 801.138 350.106 803.854 334.851 806.706C295.646 813.902 256.287 814.31 216.929 807.249C208.386 805.755 203.962 802.768 202.132 794.621C195.572 763.526 187.639 732.702 181.079 701.607C173.604 666.982 165.977 632.492 156.519 598.274C151.942 581.708 150.569 564.463 149.959 546.947C150.722 548.983 151.637 550.884 152.552 553.057C154.841 552.378 156.976 551.699 159.112 551.156C162.926 557.402 160.485 566.093 170.859 570.845C172.079 565.685 173.147 561.204 173.91 557.674C177.418 580.622 181.232 604.384 184.893 628.283C188.097 649.737 190.233 671.327 194.657 692.645C199.081 713.964 205.793 734.875 211.285 755.922C212.658 761.353 214.793 765.291 222.726 765.019C229.133 758.637 225.014 751.576 223.336 744.923C219.065 727.678 213.115 710.841 209.454 693.596C202.437 662.637 196.792 631.406 191.3 600.175C188.554 584.559 187.334 568.808 185.351 552.921C189.622 551.699 195.267 551.563 197.25 549.119C199.843 545.725 199.691 540.701 200.453 536.355C200.759 534.183 201.216 531.603 200.148 529.566C192.521 514.358 201.369 502.952 210.674 491.274C214.031 487.065 217.692 482.72 216.014 476.066C210.369 481.498 204.877 487.065 199.386 492.496C182.758 478.782 182.452 473.894 196.487 458.278C213.573 463.302 230.201 468.326 246.982 473.079C251.406 474.301 255.982 474.98 256.44 480.276C256.745 484.757 255.525 487.744 250.185 489.916C246.677 491.274 243.931 494.533 241.49 497.249C235.083 504.446 227.913 510.42 218.455 514.358C211.132 517.481 207.623 523.048 210.522 529.973C223.336 561.204 219.98 594.336 225.014 626.517C231.574 667.661 237.218 708.94 243.168 750.219C244.083 756.872 246.371 761.625 257.203 760.131C257.203 755.65 257.813 750.897 257.05 746.281C251.406 706.903 245.304 667.389 239.964 628.011C236.608 603.298 234.472 578.585 231.269 553.872C230.354 547.218 228.065 540.565 225.777 534.183C223.641 528.344 225.014 523.999 229.896 519.518C238.744 511.507 246.829 502.952 254.914 494.397C256.287 492.904 256.745 490.324 256.898 488.151C257.203 484.213 257.05 480.14 257.05 475.659C266.813 475.659 275.204 475.659 283.441 475.659C288.476 488.559 285.425 500.1 274.136 506.754C264.22 512.593 262.542 519.925 265.746 529.023C274.746 554.143 278.56 580.214 280.848 606.421C282.679 627.196 283.594 647.972 285.12 668.747C286.798 693.188 288.781 717.494 290.459 741.936C290.611 748.861 290.154 756.057 290.154 765.019ZM255.219 526.307C255.83 526.307 256.44 526.171 257.05 526.171C257.05 522.777 257.05 519.382 257.05 515.987C256.592 515.987 256.287 515.987 255.83 515.987C255.525 519.382 255.372 522.777 255.219 526.307Z" fill="#ECA51D"/>
<path d="M367.65 179.102C370.09 175.843 372.684 172.856 374.82 169.461C386.413 151.537 398.007 133.478 409.754 115.554C412.042 112.024 415.246 109.036 418.144 105.913C425.924 98.0376 434.62 92.3346 447.281 97.4945C450.943 100.346 454.604 103.197 458.418 106.049C453.994 119.22 449.722 132.392 444.993 145.699C444.23 147.735 442.552 149.636 441.027 151.266C429.586 163.079 417.992 174.893 404.872 188.2C404.872 183.176 405.33 178.966 404.72 174.893C404.262 172.041 402.889 167.289 401.058 167.017C397.702 166.474 392.668 167.424 390.38 169.597C384.735 174.757 380.311 180.731 375.43 186.57C371.921 190.78 368.87 195.125 365.666 199.47C364.599 199.063 363.531 198.655 362.463 198.248C364.446 191.73 365.972 185.484 367.65 179.102Z" fill="white"/>
<path d="M166.129 298.73C160.027 283.25 153.467 267.77 148.128 252.019C144.314 240.342 141.721 228.392 139.433 216.443C137.449 206.667 137.907 206.667 147.823 187.521C151.789 194.038 155.756 199.741 159.112 205.716C166.434 219.159 172.689 232.873 180.622 246.045C191.605 264.24 190.232 280.398 172.994 294.792C171.621 296.014 170.858 297.915 169.79 299.409C168.57 299.137 167.35 299.001 166.129 298.73Z" fill="white"/>
<path d="M357.886 479.733C357.886 494.533 364.14 506.754 375.887 517.21C378.785 519.654 380.311 524.27 380.616 528.072C381.074 536.627 377.717 544.638 373.293 553.464C367.649 546.675 363.378 540.429 357.886 535.269C349.19 527.122 339.427 520.061 330.426 512.186C327.07 509.198 323.867 505.668 322.341 501.73C318.985 493.175 312.12 485.028 316.697 473.486C327.528 471.857 339.274 470.228 351.631 468.327C353.919 472.536 356.055 476.338 358.191 480.276C358.343 480.14 357.886 479.733 357.886 479.733Z" fill="#ECA51D"/>
<path d="M283.593 305.926C278.101 275.782 278.406 246.995 278.864 218.344C278.864 215.493 280.389 212.098 282.677 210.061C289.847 203.679 297.627 197.976 305.713 191.458C306.17 201.778 306.933 212.641 307.086 223.504C307.238 239.663 307.238 255.957 306.933 272.115C306.933 275.239 306.933 278.905 305.102 281.213C298.848 289.225 291.83 296.693 283.593 305.926Z" fill="white"/>
<path d="M358.343 480.14C357.886 476.202 357.581 472.129 357.123 467.648C369.175 460.858 381.226 453.933 393.888 446.737C397.244 458.686 400.448 470.228 403.956 482.72C393.735 492.361 396.024 506.075 394.193 520.74C387.481 516.259 382.141 512.593 375.429 507.976C389.922 505.26 392.668 497.249 392.21 486.929C391.752 477.56 392.057 468.055 391.295 458.686C387.938 473.079 394.651 488.966 382.599 502.273C367.649 499.829 365.971 487.065 357.886 479.733L358.343 480.14Z" fill="#ECA51D"/>
<path d="M296.255 474.165C302.662 500.236 304.798 524.406 304.188 548.712C303.883 558.081 301.289 560.933 290.153 565.414C289.085 558.624 287.407 552.107 286.949 545.725C285.729 530.517 281.61 515.309 289.695 500.372C290.763 498.471 288.933 495.348 288.78 492.768C288.475 488.287 287.56 483.806 288.322 479.597C288.627 477.832 292.746 476.609 296.255 474.165Z" fill="#ECA51D"/>
<path d="M408.991 299.409C408.991 286.237 408.839 275.782 409.144 265.19C409.144 263.154 409.907 260.574 411.432 259.08C424.094 246.316 437.061 233.688 450.028 221.06C451.095 219.974 453.384 219.702 457.808 217.937C445.756 248.081 428.67 273.066 408.991 299.409Z" fill="white"/>
<path d="M275.812 400.841C275.812 385.769 275.812 370.561 275.812 355.488C275.812 354.266 276.27 352.094 277.185 351.822C289.847 348.292 284.966 338.922 285.576 331.59C286.949 317.332 294.881 305.791 304.492 294.928C302.509 313.53 306.78 332.133 295.644 349.921C287.559 362.957 285.271 378.843 280.542 393.508C279.779 395.953 279.016 398.397 278.101 400.841C277.338 400.977 276.575 400.841 275.812 400.841Z" fill="white"/>
<path d="M169.638 320.863C174.672 332.133 178.486 340.687 182.452 349.378C184.283 353.451 185.045 358.476 188.402 361.327C196.487 368.659 194.961 375.585 189.622 383.053C172.994 375.449 157.281 358.204 151.637 340.959C156.518 335.392 161.858 329.553 169.638 320.863Z" fill="white"/>
<path d="M397.702 174.757C392.973 205.309 384.583 231.651 366.277 255.278C359.564 223.776 371.921 198.791 397.702 174.757Z" fill="white"/>
<path d="M203.198 289.904C208.232 304.297 218.148 316.925 218.758 333.219C219.368 349.649 223.487 365.944 226.233 384.139C223.639 380.337 221.199 377.893 220.436 375.177C217.842 365.944 212.351 358.34 205.943 351.007C201.062 345.44 199.231 339.194 199.384 332.133C199.689 318.283 199.536 304.297 199.536 290.447C200.604 290.311 201.977 290.175 203.198 289.904Z" fill="white"/>
<path d="M401.516 412.926C406.855 424.468 412.347 435.874 417.381 447.551C419.517 452.304 422.416 457.464 413.873 460.858C412.195 461.537 412.805 466.833 412.042 472.672C402.584 462.488 398.465 451.353 400.601 442.799C403.957 428.813 395.719 425.147 385.193 420.801C383.82 420.258 382.6 419.444 379.701 417.814C383.21 413.197 386.719 408.716 390.227 404.1C394.956 407.766 398.618 410.617 402.279 413.469C402.126 413.333 401.516 412.926 401.516 412.926Z" fill="white"/>
<path d="M255.982 299.952C254.914 316.789 253.389 333.491 252.779 350.328C252.168 366.894 252.626 383.596 252.626 401.927C238.896 385.225 240.422 324.257 255.982 299.952Z" fill="white"/>
<path d="M233.404 419.308C223.945 423.11 217.691 421.48 214.487 414.284C211.436 407.766 207.928 401.112 206.86 394.323C205.182 384.003 205.182 373.412 206.402 362.413C215.097 381.152 224.098 399.89 233.404 419.308Z" fill="white"/>
<path d="M207.165 206.802C208.843 216.715 211.284 226.763 212.199 236.675C213.114 245.094 212.809 253.649 212.199 262.067C211.894 267.363 211.284 267.363 200.452 268.449C197.249 247.81 202.893 227.442 203.656 207.074C204.876 207.074 205.944 206.938 207.165 206.802Z" fill="white"/>
<path d="M454.451 282.435C458.265 286.509 461.469 289.768 464.672 293.162C448.96 304.433 434.162 315.024 419.365 325.615C418.602 324.936 417.687 324.257 416.924 323.578C425.467 307.556 440.264 295.878 454.451 282.435Z" fill="white"/>
<path d="M371.006 346.934C372.226 331.318 367.497 314.617 383.21 301.988C394.194 310.95 394.651 311.086 389.465 321.813C385.193 330.775 379.396 339.194 374.362 347.884C373.294 347.477 372.074 347.205 371.006 346.934Z" fill="white"/>
<path d="M233.861 292.891C229.894 274.831 225.318 256.907 222.572 238.848C221.657 232.737 225.928 226.084 228.216 218.208C234.166 229.886 237.522 271.029 233.861 292.891Z" fill="white"/>
<path d="M177.266 484.078C181.232 492.089 184.435 498.335 187.944 505.532C182.91 508.791 178.639 511.642 174.215 514.494C165.214 502.816 165.672 496.842 177.266 484.078Z" fill="#ECA51D"/>
<path d="M341.258 56.8944C352.852 48.0683 359.717 34.4897 376.04 30.0088C376.802 37.6128 375.124 40.8717 364.598 47.7967C357.886 52.2777 350.411 55.6723 343.241 59.6101C342.631 58.7954 342.021 57.8449 341.258 56.8944Z" fill="white"/>
<path d="M242.404 293.027C241.336 277.819 240.421 264.511 239.506 251.204C240.574 250.933 241.489 250.797 242.557 250.526C246.371 261.388 250.184 272.251 254.151 283.657C250.642 286.509 247.133 289.225 242.404 293.027Z" fill="white"/>
<path d="M216.471 177.744C221.047 192.681 233.709 206.667 220.742 224.455C216.165 208.024 215.25 192.816 216.471 177.744Z" fill="white"/>
<path d="M347.513 278.905C344.157 300.902 338.207 315.567 329.512 324.257C330.122 306.605 337.292 292.348 347.513 278.905Z" fill="white"/>
<path d="M311.967 514.494C309.374 511.507 308.001 510.692 307.848 509.606C305.713 498.743 303.729 487.744 301.594 476.202C305.255 475.659 308.001 475.116 311.967 474.437C311.967 487.744 311.967 499.965 311.967 514.494Z" fill="#ECA51D"/>
<path d="M384.277 436.281C376.954 441.169 369.479 445.922 360.479 451.896C359.716 442.934 360.631 435.874 367.344 431.528C372.836 427.998 378.175 432.479 383.667 433.294C383.667 434.244 383.972 435.195 384.277 436.281Z" fill="white"/>
<path d="M188.859 514.901C195.571 529.838 195.876 533.64 191.605 545.317C182.452 541.379 183.672 533.368 182.604 526.986C181.994 524.135 185.655 520.604 188.859 514.901Z" fill="#ECA51D"/>
<path d="M349.496 366.623C350.258 369.067 352.547 372.19 351.479 373.819C347.055 381.016 341.715 387.805 334.088 393.644C335.919 385.904 337.291 378.029 339.885 370.425C340.648 368.388 344.767 367.166 347.207 365.672C347.97 365.944 348.733 366.351 349.496 366.623Z" fill="white"/>
<path d="M186.265 301.174C186.265 310.407 186.265 319.369 186.265 329.01C171.773 319.233 171.925 313.123 186.265 301.174Z" fill="white"/>
<path d="M130.126 219.43C124.787 208.296 120.363 198.655 114.871 186.978C120.973 188.471 125.092 189.422 130.126 190.644C130.126 199.741 130.126 208.432 130.126 219.43Z" fill="white"/>
<path d="M471.385 155.883C482.674 154.525 494.725 151.266 503.726 165.795C489.691 165.795 480.538 160.907 471.385 155.883Z" fill="white"/>
<path d="M121.737 168.646C123.415 170.276 124.94 171.905 126.618 173.399C127.991 175.572 129.517 177.88 130.89 180.052C130.432 180.596 129.822 181.275 129.364 181.818C120.364 177.744 111.516 173.671 101.447 169.054C109.838 161.178 115.635 169.325 121.737 168.646Z" fill="white"/>
<path d="M105.412 520.333C112.887 514.222 120.21 508.112 129.973 500.1C127.99 515.444 117.311 518.839 107.09 522.641C106.633 521.826 106.022 521.012 105.412 520.333Z" fill="white"/>
<path d="M112.888 162.536C104.498 163.622 97.3282 164.573 88.6328 165.795C90.3109 157.784 95.3451 155.068 102.057 154.253C108.007 153.438 111.668 155.883 112.888 162.536Z" fill="white"/>
<path d="M349.495 366.623C348.733 366.351 347.97 365.944 347.207 365.536C349.8 359.019 352.546 352.501 355.14 345.983C360.174 353.316 357.428 359.426 354.682 365.265C354.377 366.215 351.326 366.215 349.495 366.623Z" fill="white"/>
<path d="M400.296 294.249C389.922 285.83 389.922 285.83 403.804 272.251C402.431 281.349 401.363 287.731 400.296 294.249Z" fill="white"/>
<path d="M122.957 478.239C130.585 473.758 138.212 469.413 146.45 464.525C146.755 474.709 145.382 475.523 122.957 478.239Z" fill="white"/>
<path d="M334.088 442.935C338.054 438.454 342.173 433.973 346.139 429.356C348.123 437.775 342.478 441.441 336.376 444.836C335.613 444.157 334.851 443.614 334.088 442.935Z" fill="white"/>
<path d="M263.304 442.12C264.829 448.094 266.202 453.933 268.338 462.08C264.829 459.772 261.626 458.686 261.473 457.192C260.863 452.168 261.168 447.144 261.168 442.12C261.931 442.12 262.541 442.12 263.304 442.12Z" fill="white"/>
<path d="M343.393 530.381C347.359 534.726 351.478 539.071 356.512 544.503C345.376 540.701 345.376 540.701 343.393 530.381Z" fill="#ECA51D"/>
<path d="M281.762 531.331C277.491 524.406 274.135 519.79 279.474 512.729C284.508 518.567 282.22 523.863 281.762 531.331Z" fill="#ECA51D"/>
<path d="M212.198 453.119C208.995 451.353 205.791 449.452 198.469 445.243C202.588 444.021 204.418 443.206 206.401 443.07C216.012 442.12 212.351 448.366 214.639 451.489C213.724 452.032 212.961 452.575 212.198 453.119Z" fill="white"/>
<path d="M221.352 442.799C223.335 446.465 225.471 450.131 228.064 455.019C215.86 454.612 220.589 447.28 218.148 443.478C219.369 443.206 220.437 442.934 221.352 442.799Z" fill="white"/>
<path d="M412.651 550.07C408.99 542.737 407.617 535.812 415.854 528.344C414.634 536.899 413.719 543.416 412.651 550.07Z" fill="black"/>
<path d="M330.273 455.019C335.46 454.341 340.494 453.662 345.681 452.983C345.834 453.933 346.139 454.884 346.291 455.834C341.257 456.785 336.223 457.599 331.189 458.55C330.884 457.192 330.579 456.106 330.273 455.019Z" fill="white"/>
<path d="M394.803 357.525C400.447 352.908 404.413 349.785 409.6 345.576C405.176 355.081 405.176 355.081 394.803 357.525Z" fill="white"/>
<path d="M178.79 456.106C177.57 449.316 183.214 449.045 192.367 448.094C187.638 452.847 184.892 455.563 182.146 458.278C180.926 457.464 179.858 456.785 178.79 456.106Z" fill="white"/>
<path d="M298.238 161.042C298.391 155.204 300.069 150.451 310.29 153.167C305.256 156.561 301.747 158.87 298.238 161.042Z" fill="white"/>
<path d="M160.637 436.824C169.027 444.292 169.027 444.428 159.111 449.995C159.874 444.971 160.332 440.762 160.942 436.553C161.094 436.417 160.637 436.824 160.637 436.824Z" fill="white"/>
<path d="M349.801 225.677C351.479 220.245 353.31 214.814 354.988 209.382C356.056 209.654 356.971 209.925 358.039 210.333C357.276 216.172 354.225 221.196 349.496 225.541C349.496 225.405 349.801 225.677 349.801 225.677Z" fill="white"/>
<path d="M324.019 537.849C320.663 532.146 318.222 528.072 314.256 521.826C324.172 528.616 324.172 528.616 324.019 537.849Z" fill="#ECA51D"/>
<path d="M353.157 243.872C356.666 249.168 356.513 253.105 349.496 255.142C350.717 251.476 351.937 247.674 353.157 243.872Z" fill="white"/>
<path d="M233.252 328.331C233.252 333.084 233.252 337.836 233.252 342.589C232.794 342.589 232.184 342.724 231.727 342.724C231.727 338.108 231.727 333.491 231.727 328.874C232.184 328.738 232.794 328.467 233.252 328.331Z" fill="white"/>
<path d="M161.856 460.994C160.331 463.574 158.805 466.018 157.28 468.598C156.212 468.191 155.144 467.648 153.924 467.24C155.144 464.66 156.212 461.945 157.433 459.365C158.958 459.772 160.331 460.451 161.856 460.994Z" fill="white"/>
<path d="M283.287 456.377C283.287 453.662 283.287 450.81 283.287 448.094C283.592 448.094 283.745 448.094 284.05 448.094C284.05 450.81 284.05 453.662 284.05 456.377C283.897 456.377 283.592 456.377 283.287 456.377Z" fill="white"/>
<path d="M373.141 402.742C374.971 399.755 376.802 396.767 379.395 392.422C383.056 399.619 377.87 401.112 376.039 404.1C374.971 403.692 374.056 403.149 373.141 402.742Z" fill="white"/>
<path d="M176.654 401.112C176.197 396.903 175.739 392.829 175.129 386.991C185.808 392.694 177.417 396.903 176.654 401.112Z" fill="white"/>
<path d="M170.552 545.182C170.247 541.244 169.942 537.17 169.637 533.232C170.399 533.232 171.01 533.097 171.772 533.097C171.925 537.034 172.23 541.108 172.383 545.046C171.772 545.046 171.162 545.046 170.552 545.182Z" fill="#ECA51D"/>
<path d="M385.803 369.61C386.871 367.709 388.091 365.672 389.159 363.771C389.922 364.043 390.684 364.45 391.447 364.722C390.532 366.758 389.464 368.795 388.549 370.696C387.786 370.425 386.871 370.017 385.803 369.61Z" fill="white"/>
<path d="M152.856 353.587C148.127 352.908 145.992 352.501 143.551 352.094C147.365 346.526 147.365 346.526 152.856 353.587Z" fill="white"/>
<path d="M127.991 276.732C126.008 279.991 123.872 283.386 120.669 288.817C117.008 280.263 122.957 278.633 125.245 275.51C126.161 275.782 127.076 276.189 127.991 276.732Z" fill="white"/>
<path d="M107.549 275.646C110.447 280.942 111.973 284.065 114.871 289.36C106.939 286.373 104.803 283.522 107.549 275.646Z" fill="white"/>
<path d="M529.354 239.663C527.981 246.452 526.76 253.377 524.93 262.203C534.845 256.093 543.083 250.797 552.846 244.822C551.321 257.586 539.575 264.511 516.387 267.77C518.37 257.179 520.201 247.267 529.354 239.663Z" fill="white"/>
<path d="M508.454 235.996C511.2 236.268 514.098 236.675 518.522 237.218C516.539 242.107 515.166 246.045 513.335 250.525C506.318 246.18 507.844 240.885 508.911 235.589L508.454 235.996Z" fill="white"/>
<path d="M255.829 515.987C255.676 519.382 255.371 522.913 255.219 526.307C255.829 526.307 256.439 526.171 257.049 526.171V515.987H255.829Z" fill="#ECA51D"/>
</g>
<defs>
<clipPath id="clip0_204_73">
<rect width="571" height="823" fill="white"/>
</clipPath>
</defs>
</svg>
