<svg width="571" height="767" viewBox="0 0 571 767" fill="none" xmlns="http://www.w3.org/2000/svg">
<g clip-path="url(#clip0_204_167)">
<path d="M466.753 52.0876C457.893 39.1651 449.787 26.0438 440.361 13.9165C434.517 6.163 426.788 -3.79679e-05 416.42 0.19877C405.675 0.397577 394.93 -0.198846 384.373 0.994C355.72 4.37373 334.983 31.014 338.565 60.0399C341.393 82.704 348.933 103.579 363.072 121.273C365.899 124.851 367.973 129.026 370.423 133.002C369.669 134.195 368.727 135.388 367.973 136.581C359.678 134.195 351.384 132.207 343.278 129.623C323.484 123.261 304.256 114.911 284.274 110.139C258.259 103.976 231.868 101.591 204.345 105.368C161.365 111.133 120.646 122.465 83.3211 144.931C55.4215 161.631 43.3568 183.102 56.1755 217.496C56.7411 219.086 56.3641 221.273 56.5526 223.062C51.4628 230.219 46.1845 236.78 41.6602 243.937C21.4895 274.752 9.61332 307.754 15.8342 346.124C16.7767 351.293 13.9491 357.257 12.2525 362.824C8.10523 376.542 -0.189258 390.259 -0.000746855 403.778C0.564786 431.81 9.04778 457.655 27.7104 479.723C54.856 511.93 88.4109 535.19 122.72 557.059C158.537 580.121 198.124 591.85 240.539 591.254C241.482 591.254 242.613 592.447 244.687 593.839C244.687 598.809 244.687 604.375 244.687 610.737C239.22 612.526 234.507 613.918 229.983 615.707C214.713 621.672 199.444 627.636 184.552 634.196C177.388 637.377 172.487 642.745 170.602 651.493C169.471 656.463 165.512 661.632 161.365 664.614C128.752 688.073 102.549 717.497 84.4522 756.463C88.4109 759.644 91.9926 762.427 97.271 766.801C115.745 725.25 143.456 693.64 174.372 663.819C179.839 669.385 183.986 674.356 188.887 678.133C194.543 682.109 201.141 684.694 207.173 688.073C210.378 690.061 213.205 692.845 216.033 695.23C237.712 713.72 243.556 714.714 267.308 700.002C276.734 694.038 283.897 694.634 293.134 700.399C307.649 709.346 323.107 716.702 338.565 723.66C343.089 725.648 349.876 725.449 354.589 723.461C367.03 718.093 376.644 708.948 384.373 697.02C391.537 685.886 400.208 675.548 407.56 665.608C432.255 675.548 448.09 690.857 459.778 712.725C467.695 727.437 479.383 739.763 489.751 752.885C495.029 759.644 501.062 761.235 506.717 751.692C504.643 748.71 502.57 745.529 500.119 742.547C490.128 729.823 479.194 717.894 470.523 704.376C458.081 685.091 443.754 669.584 422.264 662.228C417.74 660.638 412.65 657.258 410.576 653.083C401.905 635.588 387.012 626.841 371.743 617.099C356.474 607.357 344.409 607.357 331.402 619.286C330.836 619.882 329.14 619.087 326.877 618.888C320.468 603.182 317.263 585.489 321.788 569.385C324.427 559.445 336.303 552.487 344.22 544.137C345.54 542.745 346.86 540.956 348.556 540.359C354.777 537.974 360.998 534.793 367.407 534.196C384.75 532.407 402.659 533.6 419.625 530.419C459.966 522.864 499.554 511.532 531.977 483.103C542.723 473.56 552.902 461.433 558.935 448.311C575.147 412.327 570.999 373.361 569.68 334.991C569.68 333.798 568.737 332.605 568.36 331.214C556.295 289.862 535.182 254.474 506.151 224.255C494.087 211.73 481.268 199.802 469.203 187.277C459.401 177.138 452.991 165.209 458.27 149.702C477.875 141.352 497.48 132.406 517.462 124.652C543.1 114.712 547.058 67.9922 526.134 50.4971C519.347 44.9305 512.749 39.9603 504.078 41.9484C491.636 44.9305 479.571 48.509 466.753 52.0876Z" fill="white"/>
<path d="M466.753 52.0879C479.571 48.7082 491.636 44.9308 503.701 42.3463C512.372 40.5571 519.159 45.3284 525.757 50.8951C546.87 68.3901 542.723 115.11 517.085 125.05C497.103 132.804 477.686 141.75 457.893 150.1C452.614 165.607 459.024 177.536 468.826 187.675C480.891 200.2 493.71 212.128 505.774 224.653C534.994 254.872 555.918 290.458 567.983 331.611C568.36 332.804 569.303 333.997 569.303 335.389C570.434 373.759 574.769 412.725 558.558 448.709C552.525 461.831 542.346 474.157 531.6 483.501C499.365 512.129 459.589 523.262 419.248 530.817C402.093 533.998 384.373 532.805 367.03 534.594C360.621 535.191 354.4 538.371 348.179 540.757C346.483 541.354 345.163 543.143 343.843 544.535C336.114 552.884 324.238 559.843 321.411 569.783C317.075 585.887 320.28 603.58 326.5 619.286C328.763 619.485 330.459 620.28 331.025 619.684C344.032 607.557 356.097 607.557 371.366 617.497C386.635 627.239 401.528 635.986 410.199 653.481C412.273 657.656 417.551 661.036 421.887 662.626C443.377 669.982 457.704 685.688 470.146 704.774C478.817 718.292 489.94 730.221 499.742 742.945C502.004 745.927 504.266 749.108 506.34 752.09C500.496 761.632 494.652 760.042 489.374 753.283C479.006 740.161 467.318 727.835 459.401 713.123C447.713 691.255 431.878 675.946 407.183 666.006C399.831 675.946 391.348 686.284 383.996 697.418C376.267 709.346 366.653 718.491 354.212 723.859C349.499 725.847 342.901 726.046 338.188 724.058C322.73 717.1 307.272 709.744 292.757 700.797C283.52 695.231 276.356 694.634 266.931 700.4C243.179 715.111 237.335 714.117 215.656 695.628C212.828 693.044 210.001 690.261 206.796 688.471C200.764 684.893 194.166 682.507 188.51 678.531C183.421 674.952 179.462 669.783 173.995 664.217C143.268 694.038 115.368 725.449 96.8939 767.199C91.6156 763.024 88.0339 760.042 84.0752 756.861C102.172 717.895 128.375 688.471 160.988 665.012C165.135 662.03 169.094 656.861 170.225 651.891C172.298 643.143 177.2 637.577 184.175 634.594C199.067 628.034 214.336 622.069 229.606 616.105C234.13 614.316 239.031 612.924 244.31 611.135C244.31 604.773 244.31 599.207 244.31 594.236C242.236 592.845 241.105 591.453 240.162 591.652C197.747 592.248 158.16 580.32 122.343 557.457C88.0339 535.588 54.6675 512.328 27.3334 480.121C9.04778 457.656 0.564786 431.811 -0.000746855 403.779C-0.189258 390.26 8.10523 376.542 12.2525 362.824C13.9491 357.456 16.5882 351.293 15.8342 346.124C9.4248 307.755 21.4895 274.752 41.6602 243.937C46.373 236.78 51.4628 230.22 56.5526 223.062C56.3641 221.273 56.7411 219.086 56.1755 217.496C43.3568 183.102 55.4215 161.631 83.3211 144.931C120.835 122.466 161.553 111.134 204.345 105.368C231.868 101.591 258.259 103.977 284.462 110.14C304.445 114.911 323.861 123.062 343.466 129.623C351.572 132.207 359.867 134.195 368.161 136.581C368.915 135.388 369.858 134.195 370.612 133.003C368.161 129.026 366.088 124.852 363.26 121.273C349.122 103.38 341.581 82.7043 338.754 60.0402C335.172 30.8155 355.908 3.97644 384.562 0.795514C395.118 -0.397332 405.864 0.199091 416.609 0.000283387C427.165 -0.198524 434.706 5.96451 440.55 13.718C449.787 26.0441 458.081 39.1654 466.753 52.0879ZM397.004 109.146C383.619 104.971 378.907 94.2351 378.152 80.5174C377.398 65.0104 379.095 50.2986 386.07 36.1833C388.709 30.8155 390.783 25.0501 393.045 19.4834C391.914 18.2906 390.783 17.2966 389.652 16.1037C380.792 20.2787 370.989 23.062 363.072 28.6286C354.212 34.9904 348.179 44.3344 349.31 57.2569C351.384 86.084 363.072 110.736 379.095 133.201C387.578 145.13 400.208 146.323 411.896 136.581C418.682 131.015 425.092 124.255 429.804 116.899C437.345 105.567 443.377 93.2411 449.787 80.915C451.295 77.9329 451.483 73.9567 452.991 66.4021C445.639 69.3842 440.738 70.1794 437.533 73.1615C424.526 84.2947 415.289 98.2113 413.027 116.303C412.461 121.671 410.576 126.84 408.88 133.4C396.815 127.436 393.045 120.08 397.004 109.146C399.643 82.7043 402.47 56.4617 405.298 29.8214C396.061 38.9666 390.783 50.8951 387.012 64.0164C382.3 81.1138 384.185 96.422 397.004 109.146ZM213.394 146.72C209.058 147.317 204.722 147.118 200.575 148.51C183.232 153.877 165.7 159.444 148.546 165.607C125.925 173.758 103.869 183.301 85.3948 200.001C76.5347 207.953 67.8632 216.303 76.7233 228.828C63.339 246.124 48.6351 260.637 43.1683 281.512C50.5202 286.681 56.3641 290.657 62.2079 294.633C61.8309 295.23 61.4539 296.025 61.2653 296.621C54.856 295.428 48.4466 294.236 39.7751 292.446C38.644 305.965 33.9312 319.882 37.7015 330.22C42.6028 343.938 38.267 352.486 32.8002 363.222C26.3908 375.946 18.4733 389.266 17.1538 402.983C15.0801 423.461 21.1125 443.143 32.6117 461.035C48.6351 485.886 72.0105 501.393 93.8778 519.087C123.663 543.342 156.275 561.036 192.846 570.38C227.721 579.127 261.841 573.163 293.699 558.053C340.073 536.185 366.842 493.64 390.594 448.709C392.291 445.528 392.856 441.552 393.987 437.178C387.578 436.781 382.111 436.383 376.833 435.986C374.382 423.063 374.194 422.467 380.98 420.28C391.348 417.099 401.528 414.315 407.372 403.182C408.314 401.194 411.33 400.2 413.593 399.405C432.255 392.049 442.435 374.554 455.253 360.24C459.212 355.866 463.925 347.914 458.27 342.546C454.311 338.967 446.959 338.769 441.115 338.57C437.91 338.371 433.198 340.558 431.313 343.341C423.207 355.468 411.519 353.878 399.831 355.667C399.643 352.089 399.643 350.299 399.454 348.311C398.135 328.431 397.758 308.55 394.741 289.067C392.479 273.957 385.127 260.637 373.628 250.299C340.262 220.08 302.371 204.573 257.882 209.941C245.441 211.532 232.999 211.73 220.746 213.917C198.69 217.893 176.634 222.466 154.578 227.635C141.948 230.617 129.506 234.792 116.876 238.569C170.602 207.357 239.597 201.591 288.421 201.392C312.928 201.392 337.057 205.567 357.416 223.261C367.03 231.611 377.964 238.967 389.275 244.335C402.847 250.697 406.052 262.426 407.372 275.747C408.503 285.687 408.691 295.627 409.822 305.369C410.576 312.526 412.273 319.683 414.158 330.021C451.106 265.806 459.966 212.923 438.853 188.669C436.402 212.327 430.559 234.395 414.724 257.456C428.108 188.669 428.108 184.295 415.666 167.794C413.781 170.378 411.896 172.963 410.011 175.547C409.257 171.174 408.691 166.999 407.749 160.04C366.653 161.034 327.254 171.372 283.143 177.933C305.387 160.637 329.705 162.426 350.253 151.492C335.926 146.72 322.353 137.774 307.084 139.961C287.29 142.943 267.685 147.317 248.457 152.883C204.911 165.607 164.192 185.289 124.794 212.128C125.548 208.748 125.548 206.561 126.49 205.567C151.185 178.728 184.929 167.794 213.394 146.72ZM365.145 523.66C370.612 524.455 373.628 525.648 376.267 525.25C390.971 522.865 406.052 521.075 420.567 517.298C454.688 508.749 488.243 497.616 517.274 475.548C528.961 466.801 541.592 457.854 546.493 442.745C558.558 405.17 561.951 366.005 551.583 327.834C541.592 291.055 519.724 260.836 494.087 233.997C492.956 232.804 491.071 232.605 487.866 231.015C490.882 239.762 493.333 247.118 495.972 254.076C509.168 288.868 508.414 325.647 505.586 361.631C502.947 396.82 491.071 428.63 462.794 451.095C455.253 457.059 448.656 464.415 440.927 469.783C431.313 476.542 420.944 483.103 406.429 482.705C443.189 450.101 482.965 422.467 488.62 368.192C495.783 299.603 486.735 248.311 465.433 231.611C462.982 246.721 461.663 262.625 457.516 277.536C453.18 292.844 446.016 307.158 439.419 323.262C444.697 323.659 447.147 324.057 449.598 323.858C469.957 321.671 482.211 345.727 470.146 364.216C459.212 380.916 445.639 395.826 431.878 410.141C425.469 416.701 420.567 423.461 416.609 431.811C407.183 451.89 396.438 471.373 385.693 490.658C379.849 501.791 372.686 511.731 365.145 523.66ZM286.725 688.272C301.617 695.032 313.682 700.599 325.746 706.165C343.843 714.714 355.154 711.135 365.711 694.038C370.989 685.29 377.021 676.94 382.865 668.789C386.07 664.217 389.84 659.843 393.045 655.867C387.012 637.974 370.801 635.986 359.301 627.636C348.745 619.883 337.434 623.262 331.025 635.191C322.353 651.493 311.231 665.41 296.904 676.742C293.888 679.127 291.437 682.905 286.725 688.272ZM255.243 586.682C248.08 609.147 260.145 640.757 287.479 667.596C295.585 661.036 304.068 654.674 311.797 647.119C314.624 644.535 316.698 638.769 316.132 634.992C312.739 614.515 308.592 594.236 304.633 573.759C288.421 578.332 272.209 582.507 255.243 586.682ZM245.818 623.66C229.983 630.221 214.713 635.787 200.009 642.745C185.871 649.505 185.494 658.054 198.124 666.801C209.058 674.356 220.18 681.513 231.491 688.471C241.482 694.435 262.407 689.664 268.628 680.121C270.136 677.736 271.267 673.163 270.136 670.976C262.03 655.867 261.087 636.582 245.818 623.66ZM63.9045 201.79C68.8058 196.82 72.0105 193.241 75.7807 190.259C85.5833 182.108 94.6318 172.764 105.565 166.601C135.916 149.305 169.659 140.955 202.649 131.015C217.353 126.641 232.622 124.653 247.703 121.671C247.703 120.279 247.514 118.887 247.514 117.496C239.031 117.496 230.737 117.098 222.254 117.496C185.494 119.285 150.62 129.623 117.819 146.72C102.172 155.07 87.2799 165.011 72.953 175.349C66.1666 180.518 61.0768 188.47 63.9045 201.79ZM463.736 106.76C479.571 101.989 495.595 101.193 505.209 84.4935C506.717 81.7102 511.995 78.7281 514.069 79.5234C517.274 80.915 519.536 85.4876 521.421 89.0661C522.363 90.6566 521.609 93.4399 521.609 95.6268C523.872 93.0423 524.249 90.4578 524.437 87.8733C525.38 66.2032 513.315 56.0641 493.71 61.6307C472.974 67.5949 464.679 79.1257 463.736 106.76ZM448.656 48.907C441.115 39.563 435.271 32.4059 427.731 23.062C423.395 37.5749 419.813 49.1058 415.101 65.0104C427.919 58.8474 436.779 54.6724 448.656 48.907Z" fill="black"/>
<path d="M213.395 146.72C184.929 167.794 150.997 178.728 126.68 205.567C125.737 206.76 125.737 208.748 124.983 212.128C164.193 185.289 205.1 165.806 248.646 152.883C267.874 147.316 287.668 142.744 307.273 139.961C322.543 137.774 335.927 146.72 350.442 151.491C330.083 162.625 305.577 160.835 283.332 177.933C327.444 171.372 366.843 161.034 407.938 160.04C409.069 166.998 409.635 171.173 410.2 175.547C412.274 172.764 413.97 170.378 415.856 167.794C428.297 184.295 428.297 188.668 414.913 257.456C430.748 234.394 436.403 212.327 439.042 188.668C460.156 212.923 451.484 265.806 414.347 330.021C412.462 319.882 410.954 312.724 410.012 305.369C408.881 295.627 408.504 285.687 407.561 275.746C406.241 262.426 403.037 250.895 389.464 244.335C378.153 238.967 367.22 231.611 357.606 223.261C337.246 205.567 313.306 201.392 288.611 201.392C239.786 201.591 170.791 207.356 117.065 238.569C129.696 234.792 142.137 230.617 154.768 227.635C176.635 222.665 198.691 217.893 220.935 213.917C233.188 211.73 245.819 211.531 258.072 209.941C302.56 204.374 340.451 220.08 373.818 250.299C385.317 260.637 392.669 273.957 394.931 289.066C397.947 308.549 398.135 328.629 399.644 348.311C399.832 350.299 399.832 352.088 400.021 355.667C411.708 353.878 423.584 355.269 431.502 343.341C433.387 340.558 438.1 338.569 441.305 338.569C447.148 338.768 454.689 338.967 458.459 342.546C464.303 347.913 459.402 355.667 455.443 360.239C442.813 374.554 432.444 392.049 413.782 399.405C411.52 400.399 408.504 401.393 407.561 403.182C401.906 414.315 391.538 417.098 381.169 420.279C374.383 422.466 374.572 423.063 377.022 435.985C382.301 436.383 387.767 436.78 394.177 437.178C392.857 441.552 392.48 445.329 390.784 448.709C367.031 493.639 340.263 536.383 293.889 558.053C262.03 572.964 227.91 579.127 193.035 570.379C156.464 561.234 123.663 543.341 94.0671 519.087C72.1999 501.393 48.8245 485.886 32.801 461.035C21.3019 443.341 15.081 423.46 17.3431 402.983C18.8512 389.265 26.5802 375.945 32.9896 363.222C38.2679 352.486 42.7921 344.136 37.8908 330.22C34.1206 319.683 38.8334 305.965 39.9645 292.446C48.636 294.037 55.0453 295.229 61.4547 296.621C61.8317 296.025 62.2088 295.229 62.3973 294.633C56.5534 290.657 50.7096 286.681 43.3577 281.512C48.8245 260.637 63.7169 246.124 76.9126 228.828C67.8641 216.303 76.7241 207.953 85.5841 200C104.058 183.301 126.114 173.758 148.735 165.607C165.89 159.444 183.233 153.877 200.764 148.509C204.723 147.316 209.059 147.316 213.395 146.72ZM78.7977 288.271C79.9288 278.132 77.8552 268.589 74.2735 255.468C65.602 271.174 75.216 278.927 78.7977 288.271C66.9215 303.579 66.5445 318.689 76.5356 336.581C87.2807 355.667 104.812 352.884 120.27 355.468C124.417 383.102 159.669 418.093 184.929 420.876C191.716 421.671 195.675 418.689 195.863 409.941C185.118 404.574 173.43 400.001 162.874 393.44C151.94 386.482 140.064 379.723 134.974 365.408C143.457 358.251 156.464 362.029 163.251 350.498C155.522 349.305 149.112 348.311 142.892 347.516C148.735 334.792 155.333 324.255 158.915 312.526C164.57 293.44 156.087 278.53 138.179 272.565C125.737 268.39 113.295 269.186 101.608 275.349C93.8786 279.126 86.3382 283.897 78.7977 288.271ZM326.313 270.776C312.363 264.613 300.298 257.456 287.291 254.076C264.67 248.311 234.508 277.138 235.073 301.79C235.45 318.49 255.433 351.094 280.316 354.076C304.822 357.059 324.993 341.552 330.837 314.514C334.23 298.808 334.23 298.609 349.877 297.416C356.852 296.82 363.072 295.428 367.785 286.084C362.884 285.488 359.679 284.295 356.663 285.09C351.196 286.283 345.918 288.868 340.451 290.458C331.968 293.042 328.952 288.669 329.14 280.518C337.058 273.162 348.746 270.378 350.819 257.655C349.123 256.263 347.615 254.673 347.237 254.871C339.509 260.637 331.78 266.601 326.313 270.776ZM156.464 474.156C154.956 475.747 153.26 477.337 151.752 478.729C157.972 486.482 163.439 495.23 170.791 501.791C186.249 515.508 203.781 513.123 216.599 496.82C221.124 491.055 228.853 483.699 221.689 476.542C213.018 467.993 209.624 479.126 205.1 484.693C194.544 498.013 184.741 498.808 171.357 487.675C166.267 483.301 161.554 478.53 156.464 474.156ZM399.078 398.411C393.234 396.224 389.841 393.44 387.767 394.236C384.94 395.428 382.678 399.007 381.169 402.188C380.792 403.182 384.186 407.556 384.751 407.357C387.767 406.363 390.407 404.176 399.078 398.411ZM74.085 380.12C81.6254 375.548 82.0024 371.373 75.0275 367.198C73.8965 366.601 71.8228 367.595 69.5607 367.993C69.5607 370.379 68.9952 372.367 69.7492 373.957C70.6918 376.144 72.5769 377.933 74.085 380.12Z" fill="white"/>
<path d="M365.146 523.659C372.875 511.731 379.85 501.791 385.694 491.254C396.439 471.969 406.996 452.486 416.61 432.407C420.569 423.858 425.47 417.297 431.879 410.737C445.641 396.423 459.214 381.512 470.147 364.812C482.212 346.323 469.959 322.267 449.599 324.454C447.149 324.653 444.698 324.255 439.42 323.858C446.018 307.754 453.181 293.44 457.517 278.132C461.664 263.221 462.984 247.317 465.434 232.207C486.925 248.907 495.785 300.2 488.621 368.788C482.966 423.063 443.19 450.697 406.43 483.302C421.134 483.699 431.314 477.138 440.928 470.379C448.657 465.011 455.255 457.655 462.795 451.691C491.072 429.226 502.948 397.417 505.587 362.228C508.415 326.045 509.169 289.464 495.973 254.673C493.334 247.516 490.883 240.359 487.867 231.611C491.072 233.201 492.957 233.4 494.088 234.593C519.726 261.432 541.593 291.651 551.584 328.43C561.952 366.8 558.559 405.767 546.494 443.341C541.593 458.451 528.963 467.198 517.275 476.144C488.244 498.013 454.878 509.147 420.569 517.894C406.053 521.473 391.161 523.461 376.269 525.846C373.629 525.648 370.613 524.455 365.146 523.659Z" fill="white"/>
<path d="M286.725 688.272C291.249 682.904 293.7 679.127 297.093 676.542C311.42 665.409 322.542 651.294 331.213 634.992C337.434 623.063 348.745 619.684 359.49 627.437C370.989 635.787 387.201 637.576 393.233 655.668C390.029 659.644 386.447 664.018 383.054 668.59C377.21 676.94 371.178 685.29 365.899 693.839C355.343 710.936 344.032 714.515 325.935 705.966C313.87 700.399 301.805 695.032 286.725 688.272Z" fill="#ECA51D"/>
<path d="M397.005 109.145C393.046 120.08 396.816 127.436 409.069 133.599C410.766 127.038 412.651 121.869 413.217 116.501C415.479 98.211 424.716 84.4933 437.723 73.36C441.116 70.5767 446.018 69.7815 453.181 66.6006C451.673 74.1553 451.484 78.1314 449.976 81.1135C443.755 93.2408 437.535 105.567 429.994 117.098C425.093 124.454 418.683 131.213 412.086 136.78C400.398 146.521 387.768 145.13 379.285 133.4C363.261 110.935 351.573 86.2825 349.5 57.4554C348.557 44.5329 354.401 35.189 363.261 28.8271C371.179 23.0617 380.981 20.2784 389.841 16.3022C390.972 17.4951 392.103 18.4891 393.234 19.682C390.972 25.2486 388.899 31.014 386.26 36.3818C379.285 50.2984 377.4 65.2089 378.342 80.7159C378.908 94.2348 383.62 104.772 397.005 109.145Z" fill="white"/>
<path d="M255.245 586.681C272.022 582.308 288.423 578.133 304.635 573.958C308.593 594.236 312.929 614.713 316.134 635.191C316.699 638.968 314.626 644.534 311.798 647.318C304.069 654.872 295.398 661.234 287.48 667.795C260.146 640.956 248.27 609.147 255.245 586.681Z" fill="white"/>
<path d="M245.818 623.66C261.087 636.582 262.218 655.866 270.324 670.976C271.455 673.163 270.324 677.735 268.816 680.121C262.595 689.465 241.482 694.236 231.679 688.471C220.369 681.711 209.246 674.356 198.313 666.801C185.683 658.053 186.06 649.505 200.198 642.745C214.525 635.787 229.794 630.22 245.818 623.66Z" fill="#ECA51D"/>
<path d="M63.9052 201.79C61.0775 188.47 66.1673 180.517 73.1422 175.348C87.2806 165.01 102.173 155.07 117.631 146.919C150.432 129.623 185.306 119.285 222.066 117.694C230.36 117.297 238.843 117.694 247.326 117.694C247.326 119.086 247.515 120.477 247.515 121.869C232.434 124.851 217.165 126.839 202.461 131.213C169.471 140.756 135.728 149.106 105.378 166.402C94.6325 172.565 85.3955 181.909 75.5929 190.06C72.0112 193.241 68.8065 196.82 63.9052 201.79Z" fill="white"/>
<path d="M463.736 106.76C464.867 79.1255 472.973 67.5946 493.71 61.6304C513.315 56.0638 525.191 66.203 524.437 87.873C524.248 90.4575 523.871 93.042 521.609 95.6265C521.609 93.4396 522.363 90.6563 521.421 89.0659C519.536 85.4873 517.273 80.9148 514.069 79.5231C511.995 78.5291 506.717 81.71 505.209 84.4933C495.595 101.193 479.571 101.988 463.736 106.76Z" fill="white"/>
<path d="M397.004 109.145C384.185 96.4217 382.3 81.1135 387.201 64.0161C390.971 50.8948 396.25 38.9663 405.487 29.8212C402.659 56.2626 399.831 82.704 397.004 109.145Z" fill="white"/>
<path d="M448.657 48.9067C436.592 54.6721 427.92 58.8471 415.102 64.8113C419.814 49.1055 423.208 37.3759 427.732 22.8629C435.461 32.4057 441.116 39.5628 448.657 48.9067Z" fill="white"/>
<path d="M78.6091 288.47C86.338 284.096 93.8784 279.126 101.607 275.15C113.295 269.186 125.737 268.192 138.179 272.367C156.087 278.331 164.57 293.44 158.915 312.327C155.522 324.057 148.924 334.593 142.891 347.317C149.112 348.311 155.333 349.106 163.251 350.299C156.464 361.83 143.457 358.053 134.974 365.21C140.064 379.723 151.94 386.482 162.873 393.242C173.242 399.802 184.929 404.375 195.863 409.743C195.674 418.49 191.527 421.472 184.929 420.677C159.48 417.894 124.417 382.904 120.27 355.269C104.812 352.486 87.2806 355.468 76.5354 336.383C66.5443 318.49 67.1099 303.579 78.9861 288.072C78.7976 288.072 78.6091 288.47 78.6091 288.47ZM104.058 345.925C124.794 344.335 140.441 331.611 145.907 310.538C149.678 296.025 144.588 288.072 130.261 286.482C111.41 284.295 98.0257 294.235 86.9035 308.748C80.1171 317.695 83.3218 328.629 86.715 336.979C88.9772 341.552 98.2142 342.943 104.058 345.925Z" fill="black"/>
<path d="M326.313 270.776C331.779 266.601 339.508 260.637 347.426 254.871C347.803 254.673 349.311 256.263 351.008 257.655C348.934 270.18 337.246 273.162 329.329 280.518C328.952 288.669 332.156 292.844 340.639 290.458C346.106 288.868 351.196 286.283 356.851 285.09C359.868 284.494 363.261 285.687 367.974 286.084C363.261 295.428 357.228 296.82 350.065 297.416C334.419 298.609 334.419 298.808 331.025 314.514C324.993 341.75 305.011 357.257 280.504 354.077C255.81 350.896 235.827 318.49 235.262 301.79C234.508 277.138 264.858 248.311 287.479 254.076C300.298 257.456 312.363 264.613 326.313 270.776ZM320.657 299.802C320.469 286.283 305.576 263.818 288.045 266.402C271.644 268.788 251.097 289.265 251.474 305.567C251.662 320.478 271.079 339.365 285.783 338.967C304.257 338.371 321.223 319.683 320.657 299.802Z" fill="black"/>
<path d="M156.465 474.156C161.366 478.729 166.267 483.301 171.357 487.476C184.741 498.808 194.544 497.814 205.101 484.494C209.625 478.928 212.83 467.596 221.69 476.343C228.853 483.5 221.124 490.856 216.6 496.622C203.781 513.123 186.249 515.309 170.792 501.592C163.44 495.23 158.161 486.284 151.752 478.53C153.449 477.138 154.957 475.548 156.465 474.156Z" fill="black"/>
<path d="M78.7979 288.072C75.2162 278.927 65.4136 271.174 74.2736 255.468C77.8553 268.589 79.929 278.132 78.6094 288.271C78.6094 288.47 78.7979 288.072 78.7979 288.072Z" fill="black"/>
<path d="M399.077 398.411C390.594 403.977 387.955 406.363 384.939 407.556C384.373 407.755 380.792 403.182 381.357 402.387C382.865 399.206 385.127 395.627 387.955 394.434C389.84 393.44 393.233 396.224 399.077 398.411Z" fill="black"/>
<path d="M74.0849 380.12C72.5768 377.933 70.6917 376.144 69.7491 373.957C69.1836 372.367 69.5606 370.379 69.5606 367.993C71.6342 367.595 73.7079 366.403 75.0274 367.198C82.0023 371.373 81.8138 375.548 74.0849 380.12Z" fill="black"/>
<path d="M104.058 345.925C98.026 342.943 88.7889 341.552 86.9038 336.78C83.5106 328.43 80.1174 317.695 87.0923 308.549C98.2145 294.036 111.599 284.096 130.45 286.283C144.777 287.873 149.867 295.826 146.096 310.339C140.441 331.611 124.983 344.335 104.058 345.925ZM126.303 315.905C124.041 314.315 120.836 310.538 116.877 309.941C109.902 308.549 103.116 315.309 103.493 322.466C103.87 328.231 105.189 334.394 112.164 335.388C117.631 335.985 125.737 326.045 126.303 315.905Z" fill="white"/>
<path d="M320.657 299.802C321.411 319.484 304.445 338.371 285.594 338.768C270.89 339.166 251.473 320.279 251.285 305.369C251.096 289.066 271.455 268.589 287.856 266.204C305.576 264.017 320.28 286.283 320.657 299.802ZM298.412 313.122C298.412 305.567 292.003 300.398 282.577 300.796C275.979 301.194 270.136 302.784 269.947 311.532C269.947 319.285 277.111 327.635 283.331 327.436C291.06 327.436 298.601 320.08 298.412 313.122Z" fill="white"/>
<path d="M126.302 315.905C125.548 326.243 117.442 335.985 112.353 335.389C105.189 334.394 104.058 328.231 103.681 322.466C103.304 315.309 110.09 308.748 117.065 309.941C120.836 310.538 124.04 314.315 126.302 315.905Z" fill="black"/>
<path d="M298.413 313.122C298.413 320.08 290.873 327.436 283.521 327.635C277.3 327.635 269.948 319.285 270.136 311.73C270.136 302.983 276.169 301.392 282.767 300.995C292.004 300.398 298.413 305.369 298.413 313.122Z" fill="black"/>
<path d="M429.063 149.451C429.392 147.371 430.604 146.193 432.136 144.793C437.309 140.062 442.414 135.233 447.647 130.57C460.924 118.739 475.929 109.612 491.108 100.489C500.568 94.8038 510.483 89.1595 520.891 85.3249C523.784 84.2591 529.225 82.4729 532.091 84.3833C534.768 86.1677 534.554 91.6296 534.123 94.3441C532.794 102.716 525.626 108.287 519.157 112.878C500.138 126.376 476.387 133.13 453.594 136.071C445.882 137.066 437.481 138.36 430.154 140.977C424.479 143.003 442.093 142.647 448.093 143.207C460.028 144.32 471.469 146.711 483.278 148.559C495.02 150.397 506.463 153.796 513.755 163.822C516.784 167.987 516.475 173.729 512.913 177.103C507.983 181.773 492.549 179.145 486.35 177.797C483.141 177.099 480.77 174.457 478.124 172.693C474.749 170.443 470.796 169.136 467.42 166.845C458.592 160.855 449.702 155.025 441.006 149.005C438.506 147.274 433.71 146.61 431.938 144.099C431.266 143.147 430.781 142.315 429.509 142.315C417.581 142.315 405.625 147.455 393.383 146.775C388.716 146.516 383.766 144.185 379.556 142.315C375.641 140.574 369.826 136.763 368.406 132.503" stroke="#ECA51D" stroke-width="15" stroke-linecap="round"/>
</g>
<defs>
<clipPath id="clip0_204_167">
<rect width="571" height="767" fill="white"/>
</clipPath>
</defs>
</svg>
