<svg width="760" height="426" viewBox="0 0 760 426" fill="none" xmlns="http://www.w3.org/2000/svg">
<g clip-path="url(#clip0_204_191)">
<path d="M399.411 425.582C312.283 425.582 232.487 405.914 156.142 371.181C135.438 361.974 116.028 351.094 97.4812 338.54C77.6401 325.149 57.3677 311.758 40.1146 295.438C23.2928 279.536 9.92159 261.124 3.45167 238.527C-2.15559 218.859 -0.43028 198.772 4.31433 179.523C15.9602 131.817 43.5652 94.9921 84.11 66.5363C121.636 40.1729 163.906 24.6896 207.039 11.7171C242.407 1.2554 279.07 -2.51081 316.596 1.2554C333.418 2.92927 350.239 5.02161 367.493 4.60314C379.138 4.60314 390.353 6.69548 401.567 10.0432C415.37 13.8094 430.035 15.0648 443.838 19.668C478.344 31.3851 512.85 43.5206 541.318 67.3733C546.062 71.558 550.807 75.3242 555.552 79.0904C585.745 102.525 609.468 131.817 629.74 163.621C649.15 195.006 656.914 229.739 656.051 266.564C656.051 274.933 653.894 283.303 649.15 289.998C631.897 316.78 614.212 343.143 590.92 365.322C574.099 381.224 554.689 391.686 533.123 397.963C510.693 404.658 487.833 411.354 464.973 417.631C442.544 425.163 419.683 426.837 399.411 425.582ZM402.43 414.701C428.741 414.701 454.189 410.935 479.207 402.566C490.852 398.381 502.93 395.452 515.007 392.104C538.73 385.827 561.159 376.621 579.275 359.045C602.135 337.285 619.388 311.758 636.21 285.813C640.092 279.955 642.68 273.259 642.68 266.145C643.974 228.902 635.347 194.169 615.075 162.365C607.311 149.811 596.096 140.187 587.901 128.47C572.373 106.291 550.807 90.8074 530.103 74.4872C521.908 68.2102 513.713 61.0963 504.224 57.3301C476.187 45.613 448.582 30.9666 417.958 27.2004C403.724 25.5265 390.353 17.9941 375.688 18.4126C351.533 17.9941 326.948 14.2279 301.931 12.554C271.306 10.8802 241.113 14.2279 212.214 22.5972C170.376 34.7328 129.399 49.3792 93.5992 75.3242C53.9171 104.617 24.5867 139.35 18.1168 189.984C14.6662 218.859 17.2542 245.64 34.076 270.749C40.5459 280.373 49.6038 287.069 57.799 294.183C72.0328 306.318 85.8353 318.872 101.794 328.497C119.91 339.796 138.457 350.676 158.298 359.882C235.506 395.452 317.027 413.864 402.43 414.701Z" fill="black"/>
<path d="M649.149 390.849C646.561 383.316 649.149 376.202 652.6 369.925C659.07 357.371 669.421 348.583 683.224 344.399C697.889 339.796 706.947 348.165 704.359 362.811C702.202 374.947 696.164 385.409 686.675 393.359C678.048 400.892 668.559 400.473 659.932 392.523C655.619 388.338 655.619 388.338 649.149 390.849ZM675.029 387.919C678.479 387.919 681.93 385.827 684.518 382.479C689.262 377.039 692.282 370.762 694.007 363.648C695.301 357.371 693.144 354.86 686.675 356.116C676.754 357.79 665.539 371.181 665.539 380.805C665.539 386.664 669.421 387.501 675.029 387.919Z" fill="black"/>
<path d="M727.219 400.055C727.219 392.941 733.257 383.316 739.296 381.642C745.334 379.969 751.373 379.55 756.549 384.572C761.294 388.756 760 394.196 759.137 399.636C758.274 403.821 756.118 407.169 753.098 410.098C748.354 414.701 743.178 420.141 735.845 417.212C728.513 413.864 728.944 405.495 727.219 400.055ZM738.002 408.006C748.354 401.729 749.216 400.055 747.491 390.849C741.453 395.033 737.139 400.055 738.002 408.006Z" fill="black"/>
</g>
<defs>
<clipPath id="clip0_204_191">
<rect width="760" height="426" fill="white"/>
</clipPath>
</defs>
</svg>
