<svg width="221" height="284" viewBox="0 0 221 284" fill="none" xmlns="http://www.w3.org/2000/svg">
<g clip-path="url(#clip0_204_223)">
<path d="M180.652 19.2866C177.222 14.5017 174.085 9.64323 170.437 5.15283C168.175 2.28191 165.184 -0.000103821 161.171 0.0735095C157.012 0.147123 152.853 -0.0737171 148.768 0.367963C137.677 1.61939 129.652 11.4836 131.038 22.2311C132.132 30.623 135.051 38.3524 140.523 44.904C141.617 46.229 142.42 47.7749 143.368 49.2472C143.077 49.6889 142.712 50.1305 142.42 50.5722C139.21 49.6889 135.999 48.9527 132.862 47.9957C125.201 45.6401 117.759 42.5484 110.025 40.7816C99.9564 38.4996 89.7418 37.6163 79.0894 39.0149C62.4542 41.1497 46.6945 45.3457 32.2482 53.664C21.4499 59.8475 16.7804 67.7977 21.7418 80.5328C21.9606 81.1217 21.8147 81.9315 21.8877 82.594C19.9177 85.2441 17.8748 87.6733 16.1237 90.3234C8.31687 101.733 3.7203 113.953 6.12802 128.161C6.49283 130.075 5.39841 132.283 4.74176 134.344C3.13661 139.423 -0.0736917 144.503 -0.000730312 149.508C0.218154 159.888 3.50142 169.458 10.7246 177.629C21.231 189.554 34.2182 198.167 47.4971 206.264C61.3598 214.803 76.6817 219.147 93.098 218.926C93.4628 218.926 93.9006 219.367 94.7031 219.883C94.7031 221.723 94.7031 223.784 94.7031 226.14C92.5873 226.802 90.7632 227.318 89.0121 227.98C83.1023 230.189 77.1924 232.397 71.4285 234.826C68.6559 236.004 66.7589 237.992 66.0293 241.231C65.5915 243.071 64.0594 244.985 62.4542 246.089C49.8319 254.775 39.6903 265.67 32.686 280.098C34.2182 281.276 35.6044 282.307 37.6473 283.926C44.7976 268.541 55.5229 256.837 67.4885 245.795C69.6044 247.856 71.2096 249.696 73.1066 251.095C75.2954 252.567 77.8491 253.524 80.1838 254.775C81.4242 255.512 82.5186 256.542 83.613 257.426C92.0036 264.272 94.2654 264.64 103.458 259.192C107.107 256.984 109.879 257.205 113.454 259.339C119.072 262.652 125.055 265.376 131.038 267.952C132.789 268.688 135.416 268.615 137.24 267.879C142.055 265.891 145.776 262.505 148.768 258.088C151.54 253.966 154.896 250.138 157.742 246.457C167.3 250.138 173.428 255.806 177.952 263.903C181.016 269.351 185.54 273.915 189.553 278.773C191.596 281.276 193.931 281.865 196.119 278.332C195.317 277.227 194.514 276.05 193.566 274.945C189.699 270.234 185.467 265.817 182.111 260.812C177.295 253.671 171.75 247.929 163.433 245.206C161.682 244.617 159.712 243.365 158.909 241.819C155.553 235.342 149.789 232.103 143.879 228.495C137.969 224.888 133.3 224.888 128.265 229.305C128.046 229.526 127.39 229.232 126.514 229.158C124.034 223.343 122.793 216.791 124.544 210.828C125.566 207.148 130.162 204.571 133.227 201.479C133.737 200.964 134.248 200.302 134.905 200.081C137.313 199.197 139.72 198.02 142.201 197.799C148.913 197.136 155.845 197.578 162.411 196.4C178.025 193.603 193.347 189.407 205.896 178.88C210.055 175.347 213.995 170.856 216.33 165.998C222.604 152.674 220.999 138.246 220.489 124.038C220.489 123.597 220.124 123.155 219.978 122.64C215.308 107.328 207.137 94.2249 195.901 83.0357C191.231 78.398 186.27 73.9812 181.6 69.3436C177.806 65.5893 175.325 61.1725 177.368 55.4307C184.956 52.3389 192.544 49.0263 200.278 46.1554C210.201 42.4748 211.733 25.1756 203.634 18.6977C201.008 16.6365 198.454 14.7962 195.098 15.5323C190.283 16.6365 185.613 17.9615 180.652 19.2866Z" fill="white"/>
<path d="M180.652 19.2865C185.613 18.035 190.283 16.6364 194.952 15.6794C198.308 15.0169 200.935 16.7836 203.489 18.8448C211.66 25.3227 210.055 42.6219 200.132 46.3025C192.398 49.1734 184.883 52.486 177.222 55.5778C175.18 61.3196 177.66 65.7364 181.454 69.4907C186.124 74.1283 191.085 78.5451 195.755 83.1828C207.064 94.372 215.162 107.549 219.832 122.787C219.978 123.228 220.343 123.67 220.343 124.185C220.78 138.393 222.458 152.821 216.184 166.145C213.849 171.003 209.909 175.567 205.75 179.027C193.274 189.628 177.879 193.75 162.265 196.547C155.626 197.725 148.768 197.283 142.055 197.946C139.574 198.167 137.167 199.345 134.759 200.228C134.102 200.449 133.592 201.111 133.081 201.627C130.089 204.718 125.493 207.295 124.398 210.975C122.72 216.938 123.961 223.49 126.368 229.305C127.244 229.379 127.901 229.673 128.119 229.452C133.154 224.962 137.823 224.962 143.733 228.643C149.643 232.25 155.407 235.489 158.763 241.967C159.566 243.512 161.609 244.764 163.287 245.353C171.604 248.077 177.149 253.892 181.965 260.959C185.321 265.965 189.626 270.381 193.42 275.093C194.295 276.197 195.171 277.375 195.974 278.479C193.712 282.012 191.45 281.423 189.407 278.92C185.394 274.062 180.871 269.498 177.806 264.051C173.283 255.953 167.154 250.285 157.596 246.604C154.75 250.285 151.467 254.113 148.622 258.235C145.63 262.652 141.909 266.038 137.094 268.026C135.27 268.762 132.716 268.835 130.892 268.099C124.909 265.523 118.926 262.799 113.308 259.487C109.733 257.425 106.961 257.205 103.313 259.339C94.1194 264.787 91.8576 264.419 83.4671 257.573C82.3727 256.616 81.2782 255.585 80.0379 254.923C77.7031 253.597 75.1495 252.714 72.9606 251.242C70.9907 249.917 69.4585 248.003 67.3426 245.942C55.4499 256.984 44.6516 268.615 37.5014 284.073C35.4585 282.528 34.0722 281.423 32.54 280.246C39.5443 265.817 49.686 254.923 62.3083 246.236C63.9134 245.132 65.4456 243.218 65.8834 241.378C66.686 238.139 68.583 236.078 71.2825 234.973C77.0465 232.544 82.9564 230.336 88.8662 228.127C90.6173 227.465 92.5143 226.949 94.5572 226.287C94.5572 223.931 94.5572 221.87 94.5572 220.03C93.7546 219.515 93.3169 218.999 92.9521 219.073C76.5358 219.294 61.2139 214.877 47.3512 206.411C34.0722 198.314 21.1581 189.701 10.5787 177.776C3.50142 169.458 0.218154 159.888 -0.000730312 149.508C-0.0736917 144.503 3.13661 139.423 4.74176 134.344C5.39841 132.356 6.41987 130.074 6.12802 128.16C3.64734 113.953 8.31687 101.733 16.1237 90.3233C17.9478 87.6732 19.9177 85.2439 21.8877 82.5939C21.8147 81.9313 21.9606 81.1216 21.7418 80.5327C16.7804 67.7976 21.4499 59.8474 32.2482 53.6639C46.7675 45.3456 62.5272 41.1496 79.0894 39.0148C89.7418 37.6162 99.9563 38.4995 110.098 40.7815C117.832 42.5483 125.347 45.5664 132.935 47.9956C136.072 48.9526 139.283 49.6887 142.493 50.5721C142.785 50.1304 143.149 49.6887 143.441 49.2471C142.493 47.7748 141.69 46.2289 140.596 44.9039C135.124 38.2787 132.205 30.6229 131.111 22.231C129.725 11.4098 137.75 1.47204 148.84 0.294232C152.926 -0.147448 157.085 0.0733923 161.244 -0.000221014C165.33 -0.0738343 168.248 2.20818 170.51 5.0791C174.085 9.64312 177.295 14.5016 180.652 19.2865ZM153.656 40.4135C148.476 38.8676 146.652 34.8925 146.36 29.8132C146.068 24.0713 146.725 18.6239 149.424 13.3974C150.446 11.4098 151.248 9.27505 152.124 7.21388C151.686 6.7722 151.248 6.40413 150.81 5.96245C147.381 7.50833 143.587 8.53892 140.523 10.6001C137.094 12.9557 134.759 16.4155 135.197 21.2004C135.999 31.8743 140.523 41.0024 146.725 49.3207C150.008 53.7375 154.896 54.1791 159.42 50.5721C162.046 48.5109 164.527 46.0081 166.351 43.2844C169.27 39.0884 171.604 34.5244 174.085 29.9604C174.669 28.8562 174.742 27.3839 175.325 24.5866C172.48 25.6908 170.583 25.9853 169.343 27.0895C164.308 31.2118 160.733 36.3647 159.858 43.0635C159.639 45.0511 158.909 46.965 158.252 49.3943C153.583 47.1859 152.124 44.4622 153.656 40.4135C154.677 30.6229 155.772 20.9059 156.866 11.0418C153.291 14.428 151.248 18.8448 149.789 23.7033C147.965 30.034 148.695 35.7022 153.656 40.4135ZM82.5915 54.3264C80.9134 54.5472 79.2353 54.4736 77.6302 54.9889C70.9177 56.9764 64.1323 59.0376 57.4928 61.3196C48.7375 64.3378 40.201 67.8712 33.0508 74.0547C29.6216 76.9993 26.2654 80.091 29.6945 84.7287C24.5143 91.133 18.8233 96.5068 16.7074 104.236C19.5529 106.15 21.8147 107.622 24.0765 109.095C23.9306 109.315 23.7847 109.61 23.7117 109.831C21.231 109.389 18.7503 108.947 15.3941 108.285C14.9564 113.291 13.1323 118.444 14.5915 122.271C16.4885 127.351 14.8104 130.516 12.6945 134.491C10.2139 139.202 7.14948 144.135 6.63875 149.214C5.83618 156.796 8.17094 164.084 12.6216 170.709C18.8233 179.911 27.8705 185.652 36.334 192.204C47.8619 201.185 60.4843 207.736 74.6388 211.196C88.1366 214.435 101.343 212.227 113.673 206.632C131.622 198.535 141.982 182.782 151.175 166.145C151.832 164.967 152.051 163.495 152.489 161.875C150.008 161.728 147.892 161.581 145.849 161.434C144.901 156.649 144.828 156.428 147.454 155.618C151.467 154.44 155.407 153.41 157.669 149.287C158.034 148.551 159.201 148.183 160.077 147.889C167.3 145.165 171.24 138.687 176.201 133.387C177.733 131.768 179.557 128.823 177.368 126.835C175.836 125.51 172.991 125.437 170.729 125.363C169.489 125.29 167.665 126.099 166.935 127.13C163.798 131.62 159.274 131.031 154.75 131.694C154.677 130.369 154.677 129.706 154.604 128.97C154.094 121.609 153.948 114.248 152.78 107.033C151.905 101.439 149.059 96.5068 144.609 92.6789C131.695 81.4897 117.029 75.7478 99.8104 77.7354C94.995 78.3243 90.1795 78.3979 85.437 79.2077C76.9006 80.6799 68.3641 82.373 59.8276 84.287C54.9392 85.3912 50.1237 86.9371 45.2353 88.3357C66.0293 76.7784 92.7332 74.6436 111.63 74.57C121.115 74.57 130.454 76.1159 138.334 82.6675C142.055 85.7592 146.287 88.4829 150.665 90.4705C155.918 92.8261 157.158 97.1693 157.669 102.101C158.107 105.782 158.18 109.463 158.617 113.07C158.909 115.72 159.566 118.37 160.295 122.198C174.596 98.4207 178.025 78.8396 169.853 69.8588C168.905 78.6188 166.643 86.7898 160.514 95.329C165.695 69.8588 165.695 68.2393 160.879 62.1294C160.149 63.0864 159.42 64.0433 158.69 65.0003C158.398 63.3808 158.18 61.8349 157.815 59.2585C141.909 59.6265 126.66 63.4544 109.587 65.8837C118.197 59.4793 127.609 60.1418 135.562 56.0931C130.016 54.3264 124.763 51.0138 118.853 51.8235C111.192 52.9277 103.604 54.5472 96.1624 56.6084C79.3083 61.3196 63.5486 68.6073 48.2997 78.5451C48.5915 77.2937 48.5915 76.484 48.9564 76.1159C58.5143 66.1781 71.5744 62.1294 82.5915 54.3264ZM141.325 193.897C143.441 194.192 144.609 194.633 145.63 194.486C151.321 193.603 157.158 192.94 162.776 191.542C175.982 188.376 188.969 184.254 200.205 176.083C204.729 172.844 209.617 169.531 211.514 163.937C216.184 150.024 217.497 135.522 213.484 121.388C209.617 107.77 201.154 96.5804 191.231 86.6426C190.793 86.2009 190.064 86.1273 188.823 85.5384C189.991 88.7774 190.939 91.5011 191.961 94.0775C197.068 106.96 196.776 120.578 195.682 133.902C194.66 146.932 190.064 158.71 179.119 167.028C176.201 169.237 173.647 171.96 170.656 173.948C166.935 176.451 162.922 178.88 157.304 178.733C171.531 166.66 186.926 156.428 189.115 136.332C191.888 110.935 188.386 91.9428 180.141 85.7592C179.192 91.3538 178.682 97.2429 177.077 102.764C175.398 108.432 172.626 113.732 170.072 119.695C172.115 119.842 173.064 119.989 174.012 119.916C181.892 119.106 186.634 128.013 181.965 134.859C177.733 141.043 172.48 146.564 167.154 151.864C164.673 154.293 162.776 156.796 161.244 159.888C157.596 167.323 153.437 174.537 149.278 181.677C147.016 185.8 144.244 189.48 141.325 193.897ZM110.974 254.849C116.737 257.352 121.407 259.413 126.077 261.474C133.081 264.64 137.458 263.314 141.544 256.984C143.587 253.745 145.922 250.653 148.184 247.635C149.424 245.942 150.883 244.322 152.124 242.85C149.789 236.225 143.514 235.489 139.064 232.397C134.978 229.526 130.6 230.777 128.119 235.194C124.763 241.23 120.458 246.383 114.913 250.579C113.746 251.463 112.798 252.861 110.974 254.849ZM98.789 217.233C96.0164 225.551 100.686 237.255 111.265 247.193C114.403 244.764 117.686 242.408 120.677 239.611C121.772 238.654 122.574 236.519 122.355 235.121C121.042 227.538 119.437 220.03 117.905 212.448C111.63 214.141 105.355 215.687 98.789 217.233ZM95.1409 230.925C89.0121 233.354 83.1023 235.415 77.4113 237.991C71.9392 240.494 71.7933 243.66 76.6817 246.899C80.9134 249.696 85.2182 252.346 89.5958 254.923C93.4628 257.131 101.562 255.364 103.969 251.831C104.553 250.947 104.991 249.254 104.553 248.445C101.416 242.85 101.051 235.709 95.1409 230.925ZM24.7332 74.7172C26.6302 72.8769 27.8705 71.5519 29.3297 70.4477C33.1237 67.4295 36.6259 63.9697 40.8576 61.6877C52.6044 55.2833 65.6645 52.1916 78.4327 48.5109C84.1237 46.8914 90.0336 46.1553 95.8705 45.0511C95.8705 44.5358 95.7976 44.0205 95.7976 43.5052C92.5143 43.5052 89.304 43.358 86.0207 43.5052C71.7933 44.1677 58.2954 47.9956 45.6001 54.3264C39.5443 57.4181 33.7804 61.0988 28.2353 64.9267C25.6087 66.8406 23.6388 69.7852 24.7332 74.7172ZM179.484 39.5301C185.613 37.7634 191.815 37.4689 195.536 31.2854C196.119 30.2548 198.162 29.1506 198.965 29.4451C200.205 29.9604 201.081 31.6535 201.81 32.9785C202.175 33.5674 201.883 34.598 201.883 35.4078C202.759 34.4508 202.905 33.4938 202.978 32.5368C203.343 24.513 198.673 20.7587 191.085 22.8199C183.059 25.0283 179.849 29.2979 179.484 39.5301ZM173.647 18.1086C170.729 14.6488 168.467 11.9987 165.549 8.53892C163.871 13.9127 162.484 18.1823 160.66 24.0713C165.622 21.7893 169.051 20.2434 173.647 18.1086Z" fill="black"/>
<path d="M82.5931 54.3266C71.576 62.1296 58.4429 66.1784 49.0309 76.1162C48.6661 76.5578 48.6661 77.294 48.3743 78.5454C63.5502 68.6076 79.3828 61.3935 96.2369 56.6086C103.679 54.5475 111.34 52.8544 118.928 51.8238C124.838 51.014 130.018 54.3266 135.636 56.0933C127.756 60.2157 118.271 59.5532 109.662 65.8839C126.735 63.4547 141.984 59.6268 157.889 59.2587C158.327 61.8352 158.546 63.3811 158.765 65.0006C159.567 63.97 160.224 63.0866 160.954 62.1296C165.769 68.2395 165.769 69.859 160.589 95.3292C166.718 86.7901 168.906 78.619 169.928 69.859C178.1 78.8399 174.743 98.421 160.37 122.198C159.64 118.444 159.057 115.794 158.692 113.07C158.254 109.463 158.108 105.782 157.743 102.102C157.233 97.1696 155.992 92.9 150.739 90.4708C146.361 88.4832 142.13 85.7595 138.409 82.6677C130.529 76.1162 121.263 74.5703 111.705 74.5703C92.8077 74.6439 66.1039 76.7787 45.3099 88.336C50.1983 86.9373 55.0137 85.3914 59.9022 84.2872C68.3657 82.4469 76.9022 80.6802 85.5116 79.2079C90.2541 78.3982 95.1425 78.3246 99.885 77.7357C117.104 75.6745 131.769 81.4899 144.683 92.6791C149.134 96.507 151.979 101.439 152.855 107.034C154.022 114.248 154.095 121.683 154.679 128.97C154.752 129.707 154.752 130.369 154.825 131.694C159.349 131.032 163.945 131.547 167.009 127.13C167.739 126.1 169.563 125.363 170.803 125.363C173.065 125.437 175.984 125.511 177.443 126.836C179.705 128.823 177.808 131.694 176.276 133.387C171.387 138.687 167.374 145.165 160.151 147.889C159.276 148.257 158.108 148.625 157.743 149.288C155.555 153.41 151.542 154.441 147.529 155.618C144.902 156.428 144.975 156.649 145.924 161.434C147.967 161.581 150.082 161.728 152.563 161.876C152.052 163.495 151.906 164.894 151.25 166.145C142.057 182.782 131.696 198.609 113.748 206.633C101.417 212.153 88.2112 214.435 74.7133 211.197C60.5588 207.81 47.8635 201.185 36.4086 192.204C27.9451 185.653 18.8979 179.911 12.6962 170.709C8.24551 164.158 5.83778 156.796 6.71332 149.214C7.29701 144.135 10.2884 139.203 12.7691 134.491C14.812 130.516 16.5631 127.425 14.6661 122.272C13.2069 118.37 15.0309 113.291 15.4687 108.285C18.8249 108.874 21.3056 109.316 23.7863 109.831C23.9322 109.61 24.0781 109.316 24.1511 109.095C21.8893 107.623 19.6275 106.15 16.782 104.236C18.8979 96.507 24.6618 91.1333 29.7691 84.7289C26.267 80.0913 29.6962 76.9995 33.1253 74.055C40.2756 67.8715 48.812 64.338 57.5674 61.3199C64.2069 59.0379 70.9193 56.9767 77.7047 54.9891C79.2369 54.5475 80.915 54.5475 82.5931 54.3266ZM30.4987 106.739C30.9365 102.985 30.1339 99.4516 28.7477 94.5931C25.3914 100.409 29.1125 103.279 30.4987 106.739C25.9022 112.408 25.7562 118.002 29.6232 124.627C33.782 131.694 40.5674 130.664 46.5502 131.621C48.1554 141.853 61.7992 154.809 71.576 155.839C74.2026 156.134 75.7348 155.03 75.8077 151.791C71.6489 149.803 67.1253 148.11 63.0395 145.681C58.8077 143.104 54.2112 140.601 52.2412 135.301C55.5245 132.651 60.5588 134.05 63.1854 129.78C60.194 129.339 57.7133 128.97 55.3056 128.676C57.5674 123.965 60.121 120.063 61.5073 115.72C63.6962 108.653 60.4129 103.132 53.4816 100.924C48.6661 99.378 43.8507 99.6724 39.3271 101.954C36.3356 103.353 33.4172 105.12 30.4987 106.739ZM126.297 100.261C120.898 97.9793 116.228 95.3292 111.194 94.0778C102.439 91.943 90.7648 102.617 90.9837 111.745C91.1296 117.929 98.8635 130.001 108.494 131.105C117.979 132.209 125.786 126.468 128.048 116.456C129.361 110.641 129.361 110.567 135.417 110.125C138.117 109.905 140.524 109.389 142.349 105.93C140.452 105.709 139.211 105.267 138.044 105.561C135.928 106.003 133.885 106.96 131.769 107.549C128.486 108.506 127.318 106.887 127.391 103.868C130.456 101.145 134.979 100.114 135.782 95.4028C135.125 94.8876 134.542 94.2986 134.396 94.3723C131.404 96.507 128.413 98.7154 126.297 100.261ZM60.5588 175.568C59.9751 176.157 59.3185 176.746 58.7348 177.261C61.1425 180.132 63.2584 183.371 66.1039 185.8C72.0867 190.879 78.8721 189.996 83.8335 183.96C85.5846 181.825 88.576 179.101 85.8034 176.451C82.4472 173.286 81.1339 177.408 79.3828 179.469C75.297 184.401 71.503 184.696 66.3228 180.573C64.3528 178.954 62.5288 177.187 60.5588 175.568ZM154.46 147.521C152.198 146.711 150.885 145.681 150.082 145.975C148.988 146.417 148.112 147.742 147.529 148.92C147.383 149.288 148.696 150.907 148.915 150.834C150.082 150.466 151.104 149.656 154.46 147.521ZM28.6747 140.749C31.5931 139.056 31.7391 137.51 29.0395 135.964C28.6017 135.743 27.7992 136.111 26.9236 136.258C26.9236 137.142 26.7047 137.878 26.9966 138.467C27.3614 139.276 28.091 139.939 28.6747 140.749Z" fill="white"/>
<path d="M141.326 193.897C144.318 189.481 147.017 185.8 149.279 181.898C153.438 174.758 157.524 167.544 161.245 160.109C162.777 156.944 164.674 154.514 167.155 152.085C172.481 146.785 177.734 141.264 181.966 135.08C186.635 128.234 181.893 119.327 174.013 120.137C173.064 120.211 172.116 120.063 170.073 119.916C172.627 113.953 175.399 108.653 177.077 102.985C178.682 97.464 179.193 91.575 180.142 85.9804C188.459 92.1639 191.888 111.156 189.116 136.553C186.927 156.649 171.532 166.881 157.305 178.954C162.996 179.101 166.936 176.672 170.657 174.169C173.648 172.182 176.202 169.458 179.12 167.249C190.064 158.931 194.661 147.153 195.682 134.123C196.777 120.726 197.069 107.181 191.961 94.2987C190.94 91.6486 189.991 88.9985 188.824 85.7595C190.064 86.3484 190.794 86.422 191.232 86.8637C201.155 96.8015 209.618 107.991 213.485 121.609C217.498 135.817 216.185 150.245 211.515 164.158C209.618 169.752 204.73 172.991 200.206 176.304C188.97 184.401 176.056 188.524 162.777 191.763C157.159 193.088 151.395 193.824 145.631 194.707C144.609 194.634 143.442 194.192 141.326 193.897Z" fill="white"/>
<path d="M110.975 254.849C112.726 252.861 113.674 251.463 114.987 250.506C120.533 246.384 124.837 241.157 128.193 235.121C130.601 230.704 134.979 229.452 139.138 232.323C143.588 235.415 149.863 236.078 152.198 242.776C150.957 244.249 149.571 245.868 148.258 247.561C145.996 250.653 143.661 253.745 141.618 256.91C137.533 263.241 133.155 264.566 126.151 261.401C121.481 259.339 116.812 257.352 110.975 254.849Z" fill="#ECA51D"/>
<path d="M153.657 40.4138C152.125 44.4625 153.584 47.1862 158.327 49.4682C158.983 47.039 159.713 45.125 159.932 43.1375C160.807 36.365 164.383 31.2857 169.417 27.1634C170.73 26.1328 172.627 25.8383 175.4 24.6605C174.816 27.4578 174.743 28.9301 174.159 30.0343C171.752 34.5247 169.344 39.0887 166.425 43.3583C164.528 46.082 162.048 48.5849 159.494 50.646C154.971 54.2531 150.082 53.7378 146.799 49.3946C140.597 41.0763 136.074 31.9482 135.271 21.2743C134.906 16.4895 137.168 13.0296 140.597 10.674C143.661 8.53923 147.455 7.50864 150.885 6.03638C151.322 6.47806 151.76 6.84612 152.198 7.2878C151.322 9.34897 150.52 11.4838 149.498 13.4713C146.799 18.6242 146.069 24.1452 146.434 29.8871C146.653 34.8928 148.477 38.7943 153.657 40.4138Z" fill="white"/>
<path d="M98.7889 217.233C105.282 215.613 111.63 214.067 117.905 212.521C119.437 220.03 121.115 227.612 122.355 235.194C122.574 236.593 121.772 238.654 120.677 239.685C117.686 242.482 114.33 244.838 111.265 247.267C100.686 237.329 96.0893 225.551 98.7889 217.233Z" fill="white"/>
<path d="M95.1421 230.925C101.052 235.71 101.49 242.85 104.627 248.445C105.065 249.255 104.627 250.948 104.043 251.831C101.636 255.291 93.464 257.057 89.67 254.923C85.2923 252.42 80.9876 249.696 76.7558 246.899C71.8674 243.66 72.0134 240.495 77.4855 237.992C83.0305 235.415 88.9404 233.354 95.1421 230.925Z" fill="#ECA51D"/>
<path d="M24.7338 74.7175C23.6394 69.7854 25.6093 66.8409 28.3089 64.927C33.781 61.0991 39.545 57.4184 45.5278 54.4003C58.2231 47.9959 71.7209 44.168 85.9484 43.5791C89.1587 43.4319 92.442 43.5791 95.7252 43.5791C95.7252 44.0944 95.7982 44.6097 95.7982 45.125C89.9613 46.2292 84.0514 46.9653 78.3604 48.5848C65.5922 52.1182 52.5321 55.21 40.7853 61.6144C36.6265 63.8964 33.0514 67.3562 29.2574 70.3743C27.8711 71.5521 26.6308 72.8772 24.7338 74.7175Z" fill="white"/>
<path d="M179.484 39.5302C179.922 29.298 183.059 25.0284 191.085 22.82C198.673 20.7588 203.27 24.5131 202.978 32.537C202.905 33.4939 202.759 34.4509 201.884 35.4079C201.884 34.5981 202.175 33.5676 201.811 32.9786C201.081 31.6536 200.205 29.9605 198.965 29.4452C198.162 29.0771 196.12 30.255 195.536 31.2855C191.815 37.4691 185.613 37.7635 179.484 39.5302Z" fill="white"/>
<path d="M153.657 40.4137C148.695 35.7024 147.966 30.0342 149.863 23.7035C151.322 18.845 153.365 14.4282 156.94 11.042C155.845 20.8326 154.751 30.6231 153.657 40.4137Z" fill="white"/>
<path d="M173.647 18.1089C168.978 20.2437 165.622 21.7896 160.66 23.998C162.484 18.1825 163.797 13.8393 165.549 8.46558C168.54 11.999 170.729 14.6491 173.647 18.1089Z" fill="white"/>
<path d="M30.4255 106.813C33.4169 105.193 36.3353 103.353 39.3267 101.881C43.8504 99.6725 48.6658 99.3044 53.4813 100.85C60.4126 103.059 63.6958 108.653 61.507 115.647C60.1937 119.99 57.64 123.891 55.3053 128.602C57.713 128.971 60.1207 129.265 63.1851 129.707C60.5585 133.976 55.5242 132.578 52.2409 135.228C54.2109 140.601 58.8074 143.104 63.0392 145.607C67.0521 148.036 71.5757 149.73 75.8074 151.717C75.7345 154.956 74.1293 156.06 71.5757 155.766C61.7259 154.735 48.1551 141.779 46.5499 131.547C40.5671 130.516 33.7817 131.621 29.6229 124.554C25.7559 117.929 25.9748 112.408 30.5714 106.666C30.4984 106.666 30.4255 106.813 30.4255 106.813ZM40.2752 128.087C48.301 127.498 54.3568 122.787 56.4727 114.984C57.9319 109.61 55.9619 106.666 50.4169 106.077C43.1207 105.267 37.9405 108.948 33.6358 114.322C31.0091 117.634 32.2495 121.683 33.5628 124.775C34.4383 126.468 38.0134 126.983 40.2752 128.087Z" fill="black"/>
<path d="M126.296 100.261C128.412 98.7154 131.404 96.507 134.468 94.3722C134.614 94.2986 135.198 94.8875 135.854 95.4028C135.052 100.04 130.528 101.145 127.464 103.868C127.318 106.887 128.558 108.432 131.842 107.549C133.957 106.96 135.927 106.003 138.116 105.561C139.284 105.341 140.597 105.782 142.421 105.93C140.597 109.389 138.262 109.905 135.49 110.125C129.434 110.567 129.434 110.641 128.12 116.456C125.786 126.541 118.052 132.283 108.567 131.105C99.0089 129.927 91.275 117.928 91.0561 111.745C90.7643 102.617 102.511 91.943 111.266 94.0778C116.228 95.3292 120.897 97.9793 126.296 100.261ZM124.108 111.009C124.035 106.003 118.271 97.6848 111.485 98.6418C105.138 99.5252 97.1849 107.107 97.3308 113.144C97.4037 118.665 104.919 125.658 110.61 125.511C117.76 125.29 124.327 118.37 124.108 111.009Z" fill="black"/>
<path d="M60.5584 175.568C62.4554 177.261 64.3524 178.954 66.3224 180.5C71.5026 184.696 75.2966 184.328 79.3824 179.395C81.1335 177.334 82.3739 173.138 85.803 176.377C88.5756 179.027 85.5842 181.751 83.8331 183.886C78.8717 189.996 72.0863 190.805 66.1035 185.726C63.258 183.371 61.2151 180.058 58.7344 177.187C59.391 176.672 59.9747 176.083 60.5584 175.568Z" fill="black"/>
<path d="M30.497 106.666C29.1107 103.279 25.3167 100.408 28.7459 94.593C30.1322 99.4515 30.9347 102.985 30.424 106.739C30.424 106.813 30.497 106.666 30.497 106.666Z" fill="black"/>
<path d="M154.46 147.521C151.177 149.582 150.155 150.466 148.988 150.907C148.769 150.981 147.383 149.288 147.601 148.993C148.185 147.815 149.061 146.49 150.155 146.049C150.885 145.681 152.198 146.711 154.46 147.521Z" fill="black"/>
<path d="M28.6737 140.749C28.09 139.939 27.3604 139.276 26.9956 138.467C26.7767 137.878 26.9226 137.142 26.9226 136.258C27.7252 136.111 28.5278 135.669 29.0385 135.964C31.7381 137.51 31.6651 139.056 28.6737 140.749Z" fill="black"/>
<path d="M40.2749 128.087C37.9402 126.983 34.365 126.467 33.6354 124.701C32.3221 121.609 31.0088 117.634 33.7084 114.248C38.0131 108.874 43.1934 105.193 50.4895 106.003C56.0346 106.592 58.0045 109.536 56.5453 114.91C54.3565 122.787 48.3736 127.498 40.2749 128.087ZM48.8844 116.971C48.0088 116.382 46.7685 114.984 45.2363 114.763C42.5367 114.248 39.9101 116.751 40.056 119.401C40.202 121.535 40.7127 123.817 43.4123 124.185C45.5281 124.406 48.6655 120.726 48.8844 116.971Z" fill="white"/>
<path d="M124.108 111.009C124.4 118.297 117.833 125.29 110.537 125.437C104.846 125.584 97.3313 118.591 97.2583 113.07C97.1854 107.034 105.065 99.4515 111.413 98.5682C118.271 97.7584 123.962 106.003 124.108 111.009ZM115.499 115.941C115.499 113.144 113.018 111.23 109.37 111.377C106.816 111.524 104.554 112.113 104.481 115.352C104.481 118.223 107.254 121.315 109.662 121.241C112.653 121.241 115.572 118.517 115.499 115.941Z" fill="white"/>
<path d="M48.8842 116.972C48.5924 120.799 45.455 124.407 43.4851 124.186C40.7125 123.818 40.2748 121.536 40.1289 119.401C39.9829 116.751 42.6095 114.321 45.3091 114.763C46.7683 114.984 48.0087 116.383 48.8842 116.972Z" fill="black"/>
<path d="M115.498 115.941C115.498 118.517 112.58 121.241 109.734 121.315C107.327 121.315 104.481 118.223 104.554 115.426C104.554 112.187 106.889 111.598 109.443 111.451C113.018 111.23 115.498 113.07 115.498 115.941Z" fill="black"/>
<path d="M162.1 56.8648C162.209 56.238 162.611 55.8828 163.118 55.4608C164.833 54.0352 166.524 52.5797 168.258 51.1743C172.658 47.6084 177.63 44.8578 182.66 42.1082C185.795 40.3947 189.08 38.6936 192.529 37.5379C193.488 37.2167 195.291 36.6783 196.241 37.2541C197.128 37.7919 197.057 39.4381 196.914 40.2562C196.474 42.7795 194.098 44.4585 191.955 45.8422C185.652 49.9102 177.782 51.9457 170.229 52.8321C167.673 53.132 164.89 53.522 162.461 54.3108C160.581 54.9216 166.418 54.8142 168.406 54.9829C172.361 55.3184 176.152 56.0389 180.065 56.5959C183.956 57.1498 187.748 58.1744 190.165 61.1962C191.168 62.4513 191.066 64.1819 189.886 65.1989C188.252 66.6064 183.138 65.8142 181.084 65.408C180.02 65.1978 179.234 64.4013 178.358 63.8697C177.239 63.1914 175.929 62.7977 174.81 62.1072C171.885 60.3019 168.939 58.5448 166.058 56.7304C165.229 56.2087 163.64 56.0087 163.053 55.2517C162.83 54.9649 162.669 54.714 162.248 54.714C158.295 54.714 154.333 56.2632 150.277 56.0582C148.73 55.9801 147.09 55.2778 145.695 54.714C144.397 54.1895 142.471 53.0407 142 51.7567" stroke="#ECA51D" stroke-width="5" stroke-linecap="round"/>
</g>
<defs>
<clipPath id="clip0_204_223">
<rect width="221" height="284" fill="white"/>
</clipPath>
</defs>
</svg>
