<svg width="506" height="528" viewBox="0 0 506 528" fill="none" xmlns="http://www.w3.org/2000/svg">
<g clip-path="url(#clip0_204_197)">
<path d="M141.339 496.908C145.143 499.923 148.757 502.938 152.562 505.953C157.888 514.998 147.236 519.332 145.143 527.058C155.606 530.261 160.171 523.289 165.307 518.39C200.879 485.225 235.691 451.495 271.643 418.895C328.33 367.829 385.018 316.762 435.998 259.666C456.923 236.111 477.467 211.992 491.164 183.349C500.485 163.94 507.333 143.777 505.811 121.73C503.718 93.2763 489.832 80.0858 461.108 79.1436C397.382 77.0708 342.217 99.1179 293.329 138.501C269.17 158.099 268.029 157.91 254.713 130.775C240.827 102.51 228.462 73.6789 212.673 46.544C178.242 -12.4367 95.3041 -11.3061 54.4056 27.135C15.7898 63.6918 2.66422 109.482 0.191289 159.606C-2.47187 214.441 16.5507 264.754 38.2364 313.559C58.0199 357.653 81.0372 400.24 104.245 442.638C114.707 461.859 128.974 479.007 141.339 496.908Z" fill="white"/>
<path d="M152.561 505.953C148.757 502.938 145.143 499.923 141.338 496.908C140.007 493.516 139.055 489.936 137.343 486.732C125.93 465.816 113.565 445.276 102.722 424.171C88.4554 396.283 77.0418 366.698 61.0629 339.752C41.2794 306.21 29.6757 270.219 18.2621 233.662C4.94635 189.944 6.65838 146.981 18.0719 103.64C26.0614 73.4905 42.2306 48.0515 66.5794 29.0194C97.396 4.89946 132.017 1.69604 168.35 17.1479C189.275 26.0044 203.161 41.8331 213.243 61.2421C222.374 79.1436 230.744 97.4219 239.304 115.512C245.011 127.383 249.957 139.632 256.425 151.126C262.892 162.621 270.121 164.505 281.534 158.099C288.192 154.518 294.47 149.996 299.986 145.096C329.471 118.904 364.473 102.887 402.328 93.8416C422.301 88.9423 443.607 87.8117 464.341 87.6232C484.505 87.4348 494.397 97.4219 497.25 117.019C498.201 124.368 498.011 132.094 496.87 139.443C492.494 166.767 479.559 190.321 463.2 212.368C434.666 250.81 401.947 286.047 366.946 318.647C312.541 369.336 257.946 419.837 203.352 470.338C188.324 484.283 173.296 498.604 157.697 513.302C155.415 509.91 154.083 508.026 152.561 505.953ZM53.8343 261.55C54.5952 263.812 55.1659 266.073 55.9268 268.334C78.9441 299.803 96.2546 334.475 111.853 369.902C114.897 376.685 119.082 383.092 123.267 389.311C130.685 399.863 135.251 401.371 147.045 394.398C158.268 387.803 168.731 379.7 178.622 371.221C185.09 365.568 186.992 358.219 183.188 349.174C179.003 339.375 176.53 329.011 174.057 318.647C169.301 298.672 157.697 282.09 145.903 265.884C141.719 260.043 132.778 255.52 125.359 254.578C99.2982 251.186 72.8569 249.867 44.323 247.418C48.1275 252.882 50.9809 257.216 53.8343 261.55ZM31.9584 208.977C55.1659 216.137 80.2757 224.24 105.385 231.777C119.462 235.923 122.125 234.227 124.788 220.471C128.022 203.889 131.256 187.306 133.919 170.535C136.392 154.141 144.952 142.458 160.17 136.24C176.91 129.456 194.031 123.426 213.243 116.266C209.629 102.133 207.346 85.7389 200.879 71.2292C190.416 47.6746 171.774 28.6425 145.143 29.2078C114.136 29.5847 84.8411 40.7025 65.8185 67.2721C40.7087 102.51 27.393 141.893 31.9584 185.987C32.7193 192.771 31.9584 199.743 31.9584 208.977ZM291.806 189.379C309.497 215.76 304.932 245.533 305.693 274.929C305.883 283.598 307.215 292.454 308.546 301.122C311.209 318.081 320.34 323.358 335.178 314.501C348.684 306.587 361.049 296.6 372.652 286.047C387.109 273.045 401.186 259.289 414.122 244.78C435.617 220.848 455.971 195.974 467.955 165.636C478.988 137.936 463.39 117.585 434.095 123.049C392.816 130.587 352.869 142.458 319.389 169.782C311.97 176 303.41 181.276 291.806 189.379ZM152.181 194.844C153.322 201.251 156.937 211.615 156.937 222.167C157.127 235.923 162.453 246.287 171.774 255.52C184.9 268.523 195.172 283.409 201.64 300.934C202.971 304.514 204.873 307.717 206.966 310.921C220.282 330.707 240.636 330.707 251.669 309.413C262.512 288.308 271.452 266.073 280.583 244.026C282.676 238.938 282.866 232.908 283.246 227.443C284.007 216.891 280.013 208.411 269.55 205.396C252.81 200.685 241.016 189.944 229.603 177.884C216.667 164.505 201.069 157.722 181.856 159.229C162.453 160.737 151.991 171.478 152.181 194.844ZM173.296 459.974C179.383 457.336 190.987 454.51 199.357 447.914C226.559 426.621 253 404.197 278.681 381.208C285.91 374.801 291.426 365.379 294.85 356.334C299.986 342.013 289.904 330.895 274.876 333.722C266.506 335.418 257.376 338.621 250.718 343.709C219.331 367.829 188.514 392.702 157.697 417.765C153.893 420.78 150.659 425.114 148.757 429.636C141.909 444.334 151.8 459.598 173.296 459.974Z" fill="white"/>
<path d="M152.561 505.953C153.893 508.026 155.415 509.91 157.507 513.113C173.106 498.415 188.134 484.283 203.161 470.15C257.756 419.649 312.351 369.148 366.755 318.458C401.757 285.67 434.476 250.621 463.01 212.18C479.369 190.321 492.114 166.578 496.679 139.255C497.821 131.906 498.201 124.18 497.06 116.831C494.206 97.2334 484.315 87.0578 464.151 87.4347C443.416 87.6232 422.111 88.7538 402.137 93.6531C364.282 102.887 329.281 118.715 299.796 144.908C294.279 149.996 287.812 154.33 281.344 157.91C269.74 164.317 262.512 162.433 256.234 150.938C249.767 139.443 244.821 127.195 239.114 115.323C230.364 97.2334 222.184 78.9551 213.053 61.0536C202.971 41.6446 189.085 25.8159 168.16 16.9593C132.017 1.69596 97.396 4.89939 66.5794 29.0193C42.2306 48.0514 26.0614 73.3019 18.0719 103.64C6.65838 146.981 4.94635 189.944 18.4524 233.473C29.8659 270.03 41.4697 306.21 61.2531 339.563C77.2321 366.51 88.4554 396.094 102.913 423.983C113.755 445.276 128.397 463.584 140 484.5C141.713 487.703 159.789 519.608 161.12 523C146.5 512 114.897 461.482 104.434 442.45C81.2268 400.051 58.0193 357.465 38.4261 313.37C16.5501 264.565 -2.28222 214.253 0.380939 159.418C2.85387 109.293 15.7892 63.3148 54.405 26.9465C95.3035 -11.3062 178.242 -12.4368 212.673 46.9208C228.461 74.0557 240.826 103.075 254.713 131.152C268.028 158.287 268.979 158.475 293.328 138.878C342.026 99.3062 397.191 77.4476 461.107 79.5204C489.831 80.4626 503.908 93.6531 505.81 122.107C507.332 144.154 500.484 164.317 491.163 183.726C477.467 212.368 457.113 236.488 435.997 260.043C385.207 316.951 328.33 368.206 271.643 419.272C235.5 451.683 200.688 485.602 165.307 518.767C160.17 523.666 163.214 524.203 152.561 521C154.844 513.086 157.888 514.998 152.561 505.953Z" fill="black"/>
<path d="M31.9571 208.976C30.9992 199.5 30.9993 208 30.9992 185.5C28.9992 141 40.5172 102.51 65.627 67.0834C84.6495 40.5138 113.944 29.3961 144.951 28.8308C171.773 28.4539 190.415 47.2976 200.687 70.8522C207.155 85.3618 209.247 101.756 213.052 115.889C193.839 123.049 176.719 129.079 159.979 135.863C144.761 142.081 136.201 153.764 133.728 170.158C131.065 186.929 127.831 203.512 124.597 220.094C121.934 234.038 119.271 235.734 105.194 231.4C80.2744 224.24 55.3548 216.325 31.9571 208.976ZM202.019 110.424C198.595 90.2612 195.361 71.229 181.855 55.7772C171.773 44.471 158.838 35.0492 144.571 36.5567C113.754 39.7601 85.6007 50.8779 68.4804 79.3318C54.4037 102.698 43.751 127.383 40.327 154.518C38.4247 169.781 38.6149 185.233 37.854 202.193C64.1052 210.861 88.4541 218.775 113.754 227.066C117.939 205.396 122.504 186.552 125.358 167.52C128.211 148.865 138.674 136.617 155.223 129.268C170.061 122.672 185.469 117.019 202.019 110.424Z" fill="black"/>
<path d="M291.807 189.379C303.22 181.276 311.78 176 319.58 169.593C353.059 142.27 392.816 130.398 434.286 122.861C463.58 117.584 478.989 137.747 468.146 165.447C456.162 195.786 435.998 220.659 414.312 244.591C401.186 259.101 387.3 272.856 372.843 285.859C361.239 296.223 348.684 306.21 335.368 314.313C320.531 323.169 311.4 317.893 308.737 300.933C307.405 292.265 306.074 283.597 305.883 274.741C305.122 245.533 309.498 215.76 291.807 189.379ZM302.001 193C305.883 213.5 314.634 230.27 312.731 249.113C311.971 257.216 312.351 265.507 312.922 273.61C313.873 285.859 314.634 298.295 320.15 310.355C338.792 306.587 350.777 294.338 363.141 283.032C375.506 271.349 387.49 259.289 398.713 246.475C414.122 229.139 429.72 211.614 443.416 192.959C451.406 182.03 456.922 168.839 461.678 156.026C467.385 140.574 460.917 131.717 444.177 131.34C435.998 131.152 427.818 133.036 419.828 134.544C374.555 143.589 338.334 160.966 302.001 193Z" fill="black"/>
<path d="M152.18 194.844C151.99 171.478 162.262 160.737 181.856 159.041C201.068 157.345 216.667 164.129 229.602 177.696C241.016 189.568 252.81 200.497 269.55 205.208C280.012 208.034 284.197 216.702 283.246 227.255C282.865 232.908 282.675 238.938 280.583 243.837C271.452 265.884 262.511 288.12 251.668 309.225C240.635 330.518 220.281 330.707 206.965 310.732C204.873 307.529 202.971 304.326 201.639 300.745C195.362 283.221 185.089 268.334 171.774 255.332C162.453 246.099 157.126 235.735 156.936 221.979C156.936 211.615 153.512 201.251 152.18 194.844ZM275.066 215.949C252.239 209.73 236.26 195.974 221.422 180.334C210.96 169.405 197.074 165.259 181.475 167.52C167.589 169.593 159.599 176.189 159.98 189.191C160.55 212.934 162.833 236.111 181.095 255.332C192.128 267.015 199.166 282.09 207.916 295.846C210.199 299.615 211.531 303.949 214.004 307.529C222.944 320.343 235.309 321.096 242.347 307.341C254.331 283.409 264.223 258.159 274.305 233.285C275.827 228.951 274.686 223.486 275.066 215.949Z" fill="black"/>
<path d="M173.296 459.974C151.8 459.409 141.909 444.334 148.757 429.636C150.849 425.302 154.083 420.779 157.697 417.764C188.514 392.891 219.14 367.829 250.718 343.709C257.375 338.621 266.316 335.229 274.876 333.722C289.904 330.707 299.986 341.824 294.85 356.334C291.616 365.379 285.909 374.801 278.681 381.208C253 404.197 226.559 426.621 199.357 447.914C190.987 454.698 179.383 457.336 173.296 459.974ZM283.246 339.752C274.496 343.143 265.175 345.216 257.375 349.739C222.564 370.278 190.606 394.21 163.594 424.548C157.317 431.52 152.942 438.492 158.268 448.48C169.681 452.248 180.524 450.364 190.226 443.392C199.927 436.42 210.2 429.824 219.14 422.098C238.543 405.139 257.946 387.991 276.398 370.09C284.197 362.929 290.855 353.884 283.246 339.752Z" fill="black"/>
<path d="M47.5473 251.5C60.8727 256 72.5005 278.5 79.5148 291.889C93.5915 315.632 105.385 340.505 118.511 364.814C123.076 373.482 128.403 381.773 134.68 392.325C145.523 385.919 154.844 381.396 163.404 375.178C174.628 367.075 179.193 356.899 172.345 342.767C167.97 333.91 167.779 323.169 163.595 314.124C156.556 298.861 148.186 284.163 139.246 270.03C136.582 265.884 130.115 262.869 124.979 262.304C103.673 260.043 82.178 258.724 60.8727 257.405C58.7802 257.216 56.4975 260.231 54.2148 261.739C51.3614 257.405 48.508 252.882 45.084 247.794C73.6178 250.244 100.059 251.563 126.12 254.955C133.539 255.897 142.289 260.608 146.664 266.261C158.458 282.278 170.062 298.861 174.818 319.024C177.291 329.388 179.764 339.752 183.949 349.55C187.753 358.595 185.851 366.133 179.383 371.597C169.492 380.077 159.029 388.18 147.806 394.775C136.012 401.747 131.446 400.051 124.028 389.687C119.652 383.469 115.658 377.062 112.614 370.278C96.2547 334.475 70.5646 282.969 47.5473 251.5Z" fill="black"/>
<path d="M275.066 215.949C274.685 223.486 275.826 228.951 273.924 233.285C263.842 258.158 253.951 283.221 241.966 307.34C235.118 321.096 222.563 320.343 213.623 307.529C211.15 303.949 209.818 299.615 207.535 295.846C198.785 282.09 191.747 267.015 180.714 255.332C162.452 236.111 160.169 212.934 159.599 189.191C159.218 176.188 167.398 169.593 181.094 167.52C196.502 165.259 210.579 169.405 221.041 180.334C236.45 195.974 252.239 209.73 275.066 215.949Z" fill="white"/>
</g>
<defs>
<clipPath id="clip0_204_197">
<rect width="506" height="528" fill="white"/>
</clipPath>
</defs>
</svg>
