<svg width="432" height="220" viewBox="0 0 432 220" fill="none" xmlns="http://www.w3.org/2000/svg">
<g clip-path="url(#clip0_204_247)">
<path d="M227.034 219.784C177.508 219.784 132.151 209.627 88.7544 191.69C76.986 186.935 65.953 181.316 55.4105 174.833C44.1324 167.918 32.6091 161.002 22.8021 152.574C13.2402 144.362 5.63975 134.853 1.96211 123.183C-1.22518 113.026 -0.244478 102.652 2.45246 92.7112C9.07221 68.0747 24.7635 49.057 47.81 34.3615C69.1403 20.7466 93.1676 12.7505 117.685 6.05113C137.79 0.648378 158.63 -1.29661 179.96 0.648379C189.522 1.51282 199.084 2.59337 208.891 2.37726C215.51 2.37726 221.885 3.45781 228.26 5.18669C236.105 7.13168 244.441 7.78001 252.287 10.1572C271.901 16.2083 291.515 22.4755 307.697 34.7938C310.393 36.9549 313.09 38.8998 315.787 40.8448C332.95 52.947 346.434 68.0747 357.958 84.4991C368.991 100.707 373.404 118.644 372.913 137.662C372.913 141.984 371.687 146.307 368.991 149.764C359.183 163.595 349.131 177.21 335.892 188.664C326.33 196.876 315.297 202.279 303.038 205.521C290.289 208.978 277.295 212.436 264.3 215.678C251.551 219.568 238.557 220.432 227.034 219.784ZM228.75 214.165C243.706 214.165 258.171 212.22 272.391 207.898C279.011 205.737 285.876 204.224 292.741 202.495C306.225 199.253 318.975 194.499 329.272 185.422C342.266 174.185 352.073 161.002 361.635 147.603C363.842 144.578 365.313 141.12 365.313 137.446C366.048 118.212 361.145 100.275 349.622 83.8507C345.208 77.3674 338.834 72.3969 334.176 66.3458C325.349 54.892 313.09 46.8959 301.322 38.4676C296.664 35.226 292.005 31.5521 286.611 29.6071C270.675 23.556 254.984 15.9922 237.576 14.0472C229.485 13.1828 221.885 9.29278 213.549 9.50889C199.819 9.29278 185.844 7.34779 171.624 6.48335C154.216 5.61891 137.054 7.34779 120.627 11.67C96.8452 17.9372 73.5535 25.501 53.2039 38.8999C30.6477 54.0276 13.9757 71.9647 10.2981 98.114C8.33668 113.026 9.80774 126.857 19.3696 139.823C23.0472 144.794 28.1959 148.252 32.8543 151.925C40.9451 158.193 48.7907 164.676 57.8622 169.646C68.1596 175.481 78.7022 181.1 89.9803 185.855C133.867 204.224 180.205 213.733 228.75 214.165Z" fill="black"/>
<path d="M368.99 201.847C367.519 197.957 368.99 194.283 370.952 191.041C374.629 184.558 380.513 180.02 388.359 177.858C396.695 175.481 401.844 179.803 400.373 187.367C399.147 193.635 395.714 199.037 390.32 203.143C385.417 207.033 380.023 206.817 375.12 202.711C372.668 200.55 372.668 200.55 368.99 201.847ZM383.701 200.334C385.662 200.334 387.624 199.253 389.095 197.525C391.792 194.715 393.508 191.473 394.488 187.8C395.224 184.558 393.998 183.261 390.32 183.91C384.681 184.774 378.307 191.69 378.307 196.66C378.307 199.686 380.513 200.118 383.701 200.334Z" fill="black"/>
<path d="M413.367 206.601C413.367 202.927 416.8 197.957 420.232 197.092C423.665 196.228 427.097 196.012 430.039 198.605C432.736 200.766 432.001 203.576 431.51 206.385C431.02 208.546 429.794 210.275 428.078 211.788C425.381 214.165 422.439 216.974 418.271 215.462C414.103 213.733 414.348 209.41 413.367 206.601ZM419.497 210.707C425.381 207.465 425.871 206.601 424.89 201.847C421.458 204.008 419.006 206.601 419.497 210.707Z" fill="black"/>
</g>
<defs>
<clipPath id="clip0_204_247">
<rect width="432" height="220" fill="white"/>
</clipPath>
</defs>
</svg>
