<svg width="200" height="211" viewBox="0 0 200 211" fill="none" xmlns="http://www.w3.org/2000/svg">
<path d="M0.0251054 54.7426C-0.110479 54.1151 0.323391 53.6967 0.838613 53.3713C9.54314 48.1416 17.5969 42.0752 27.142 37.9147C33.6501 35.0558 40.131 32.1504 46.6119 29.2451C48.8355 28.2456 51.2761 27.5948 53.6352 26.8046C62.8821 23.69 71.8307 19.9944 80.9691 16.6706C88.6974 13.8582 96.4528 11.0923 104.181 8.32639C111.855 5.58371 119.828 3.65454 128.017 2.28321C129.346 2.07402 130.512 1.72538 131.407 0.656199C132.301 -0.412978 133.413 -0.134062 133.983 1.19079C134.498 2.42267 134.986 3.67779 135.311 4.95615C135.908 7.25721 137.047 9.34908 138.294 11.4177C141.413 16.4847 143.962 21.7608 146.294 27.1532C148.626 32.5921 151.663 37.7985 153.886 43.2838C155.757 47.8859 157.656 52.4881 160.015 56.9275C160.937 58.6707 161.723 60.5301 162.238 62.3896C163.838 68.1306 166.252 73.6159 168.421 79.1942C171.648 87.5617 174.712 95.9757 177.668 104.436C179.946 110.944 182.766 117.336 185.288 123.798C188.732 132.607 192.989 141.16 196.948 149.806C197.87 151.829 198.412 153.967 199.768 155.826C200.392 156.686 199.633 156.965 198.955 157.43C192.311 162.125 184.583 165.124 176.854 168.145C167.716 171.701 158.957 175.862 150.171 179.999C146.917 181.533 143.663 183.021 140.219 184.229C133.115 186.74 126.363 189.877 119.312 192.481C109.36 196.153 99.5442 200.081 89.6194 203.8C83.1655 206.217 76.3592 207.333 69.8511 209.332C68.2241 209.82 66.5971 210.285 64.9972 210.819C64.0752 211.121 63.5329 211.121 63.1261 210.215C59.6552 202.405 55.2894 194.921 51.3303 187.274C48.8627 182.533 46.5306 177.768 44.3884 172.933C42.4902 168.657 41.5411 164.147 40.131 159.754C38.4498 154.455 36.877 149.132 35.5483 143.763C35.1144 142.02 34.4636 140.323 33.7857 138.65C31.9417 134.187 30.6672 129.608 29.23 125.053C27.7115 120.288 25.515 115.686 23.888 110.921C20.4984 100.95 16.0783 91.3271 12.0379 81.565C8.59405 73.1511 4.33669 65.0393 0.621677 56.7415C0.323391 56.0907 -0.00201152 55.4399 0.0251054 54.7426ZM67.0852 205.776C68.3597 205.45 70.2579 205.334 72.0205 204.706C75.5999 203.451 79.2607 202.312 83.0571 201.569C90.6227 200.081 97.5104 197.106 104.344 194.201C110.011 191.783 115.652 189.343 121.4 187.111C130.918 183.393 140.192 179.279 149.358 174.932C156.056 171.748 162.51 168.168 169.397 165.263C177.099 162.009 184.908 159.011 192.392 155.408C194.182 154.548 194.236 154.571 193.396 152.967C191.172 148.83 189.382 144.507 187.322 140.3C182.413 130.166 177.288 120.079 173.6 109.55C171.404 103.251 169.289 96.9286 167.336 90.5833C165.845 85.7953 164.543 80.9607 162.482 76.3586C160.937 72.8954 159.337 69.4554 158.09 65.8993C156.354 61.0182 154.347 56.2069 151.771 51.6048C150.768 49.7919 149.71 47.9557 149.141 46.0265C147.866 41.7033 145.724 37.7288 143.392 33.8007C142.443 32.2202 141.874 30.5002 141.06 28.8732C139.406 25.4565 138.511 21.7841 136.504 18.4836C135.583 16.9728 134.85 15.3923 134.281 13.7652C133.44 11.3712 132.003 9.23286 130.946 6.93181C130.512 5.97884 129.888 5.67668 128.668 5.88587C118.716 7.58261 109.144 10.2788 99.8153 13.6955C89.6194 17.4609 79.3421 21.11 69.2003 24.9684C59.7094 28.571 49.7033 31.151 40.5649 35.4277C38.6667 36.3109 36.6329 36.985 34.7076 37.8217C29.9622 39.8671 24.9184 41.4244 20.417 43.9346C15.4004 46.7006 10.4109 49.4665 5.36714 52.2091C4.33669 52.767 3.57742 53.2318 4.63498 54.3475C5.12308 54.8588 5.34002 55.6026 5.55695 56.2534C8.13306 64.2025 12.7972 71.4078 16.8918 78.7991C18.1121 80.984 19.3595 83.1223 20.1187 85.4234C22.9118 93.8373 26.3014 102.065 29.23 110.456C31.8061 117.871 34.4365 125.262 36.7685 132.723C39.7785 142.462 43.6562 151.968 47.561 161.428C51.7642 171.655 55.8046 181.905 59.4654 192.271C60.9026 196.339 62.4753 200.383 64.2651 204.358C64.6447 205.264 65.1599 206.008 67.0852 205.776Z" fill="black"/>
<path d="M66.9164 172C65.2321 171.907 64.1183 170.703 63.1132 169.405C60.9399 166.555 59.2013 163.497 57.68 160.346C54.6374 153.998 52.111 147.487 49.5574 140.977C48.009 137.061 46.1617 133.192 44.6132 129.254C41.7065 121.863 37.5501 114.889 34.426 107.568C33.9099 106.34 33.4752 105.065 33.1492 103.791C32.7689 102.192 32.1713 100.663 31.302 99.2037C29.509 96.1454 28.5039 92.8786 27.2814 89.635C25.5156 84.9317 22.8805 80.5065 20.4628 76.0118C17.4745 70.5208 16.0347 64.5896 13.2095 59.0754C12.6118 57.8938 13.3725 57.1756 14.4863 56.6195C18.4525 54.6038 22.3644 52.4955 26.4121 50.6188C33.0677 47.491 40.0494 44.9193 47.2212 42.7182C54.0398 40.633 60.5324 37.9455 66.8078 34.8409C71.5618 32.4776 76.5331 30.3229 81.7761 28.8865C88.1601 27.1257 94.2996 24.8551 100.575 22.9089C105.764 21.3103 110.952 19.7348 116.25 18.391C118.504 17.8118 120.651 16.9777 122.824 16.2132C124.101 15.7729 124.861 16.0046 125.758 17.0009C132.549 24.4149 136.597 32.9874 140.4 41.6756C143.008 47.6068 145.426 53.5844 148.061 59.4924C151.103 66.3504 154.119 73.2083 156.591 80.2285C159.932 89.774 164.306 98.9952 168.653 108.216C171.396 114.009 173.325 120.056 175.797 125.94C176.232 126.96 175.987 127.655 174.874 128.281C172.673 129.485 170.527 130.783 168.028 131.57C165.746 132.289 163.518 133.192 161.399 134.235C156.618 136.598 151.348 138.081 146.512 140.421C132.739 147.094 118.287 152.654 103.835 158.145C100.548 159.396 97.2607 160.717 93.8378 161.713C90.7409 162.617 88.133 164.401 85.1719 165.513C80.4722 167.297 76.0442 169.59 71.2086 171.166C69.9318 171.513 68.6822 171.93 66.9164 172ZM106.769 125.801C106.416 125.639 106.117 125.593 105.981 125.431C103.971 123.276 101.118 122.002 98.5918 120.403C96.9075 119.337 94.8701 118.828 92.7783 118.689C88.8393 118.434 85.0904 118.805 81.4502 120.357C77.5383 122.048 74.4142 124.365 72.0779 127.47C68.6279 132.034 68.166 137.154 68.1932 142.367C68.1932 143.827 68.0846 145.333 68.655 146.746C70.5295 151.472 71.3445 156.477 74.061 160.995C75.3922 163.196 76.2071 163.59 78.7879 162.385C79.9832 161.829 81.1785 161.296 82.3738 160.786C86.503 159.049 90.7137 157.473 94.8429 155.736C99.7056 153.697 104.758 151.982 109.594 149.897C111.115 149.248 112.745 148.715 114.484 148.576C115.38 148.507 116.195 148.159 117.01 147.789C125.35 143.919 133.663 140.027 142.22 136.505C146.105 134.907 149.745 132.822 153.983 131.802C155.287 131.478 155.45 130.528 155.178 129.532C153.059 122.349 150.261 115.515 143.497 110.348C138.987 106.896 133.989 105.459 128.04 106.849C126.817 107.127 125.595 107.429 124.399 107.799C116.63 110.093 111.305 114.426 108.833 121.214C108.29 122.79 107.475 124.272 106.769 125.801ZM131.381 89.4033C131.381 88.7778 131.463 88.1522 131.381 87.5498C130.186 80.4833 124.345 76.1971 115.788 79.5334C110.219 81.6881 106.687 85.2793 104.921 90.1679C102.911 95.7747 105.682 99.8756 111.251 102.331C116.304 104.579 123.449 104.115 127.849 99.1342C130.403 96.2381 131.408 92.9481 131.381 89.4033ZM86.9648 107.683C86.9105 104.95 86.0412 102.331 84.7916 99.8756C82.8628 96.0759 79.1139 94.6163 74.387 95.4735C73.5992 95.6126 72.8114 95.7979 71.9964 95.9138C66.6719 96.7015 62.923 99.7134 61.9994 104.208C61.4289 107.035 61.3474 109.908 61.9451 112.734C63.249 119.013 71.426 121.979 77.7013 118.503C78.9781 117.785 80.282 117.067 81.5045 116.279C84.9002 114.148 87.1007 111.46 86.9648 107.683ZM85.0904 73.3705C83.8951 72.6291 83.0258 71.9341 81.912 71.5634C79.9017 70.8683 78.0273 71.9572 78.0544 73.8339C78.0544 74.529 78.2174 75.224 78.7607 75.7801C80.9068 77.9579 82.9986 80.1821 85.2262 82.2905C86.6932 83.6806 88.0786 83.3794 88.8393 81.5723C89.4369 80.1126 90.2519 78.7457 90.9311 77.3092C91.8004 75.5252 92.5338 73.6949 92.3437 71.7255C92.235 70.6829 91.909 69.7099 90.6594 69.2697C89.4913 68.8758 88.5948 69.455 87.6711 69.9879C86.3129 70.7756 85.9054 72.0962 85.0904 73.3705Z" fill="black"/>
</svg>
