<svg width="768" height="423" viewBox="0 0 768 423" fill="none" xmlns="http://www.w3.org/2000/svg">
<g clip-path="url(#clip0_204_291)">
<path d="M403.614 422.584C315.568 422.584 234.933 403.055 157.784 368.567C136.862 359.425 117.248 348.622 98.506 336.156C78.456 322.859 57.9702 309.563 40.5355 293.357C23.5366 277.568 10.0247 259.285 3.48667 236.847C-2.17962 217.317 -0.436146 197.372 4.35841 178.258C16.1269 130.889 44.0224 94.3231 84.994 66.0677C122.915 39.8899 165.63 24.5156 209.217 11.6345C244.958 1.24646 282.007 -2.49323 319.927 1.24646C336.926 2.90854 353.925 4.98614 371.359 4.57062C383.128 4.57062 394.461 6.64822 405.793 9.97239C419.741 13.7121 434.56 14.9586 448.508 19.5294C483.378 31.1639 518.247 43.214 547.014 66.8987C551.809 71.0539 556.604 74.7936 561.398 78.5333C591.909 101.802 615.882 130.889 636.367 162.468C655.982 193.632 663.827 228.121 662.955 264.687C662.955 272.997 660.776 281.307 655.982 287.956C638.547 314.549 620.676 340.727 597.139 362.749C580.14 378.539 560.526 388.927 538.733 395.16C516.068 401.808 492.967 408.457 469.866 414.689C447.201 422.169 424.1 423.831 403.614 422.584ZM406.665 411.781C433.253 411.781 458.969 408.041 484.249 399.731C496.018 395.576 508.222 392.667 520.426 389.343C544.399 383.11 567.064 373.968 585.371 356.517C608.472 334.91 625.907 309.563 642.905 283.801C646.828 277.983 649.443 271.335 649.443 264.271C650.751 227.29 642.034 192.801 621.548 161.222C613.702 148.756 602.37 139.199 594.088 127.565C578.397 105.542 556.604 90.1679 535.682 73.9626C527.4 67.7297 519.119 60.6659 509.53 56.9262C481.198 45.2916 453.303 30.7484 422.356 27.0087C407.972 25.3467 394.461 17.8673 379.641 18.2828C355.232 17.8673 330.388 14.1276 305.108 12.4655C274.161 10.8034 243.65 14.1276 214.447 22.438C172.168 34.4881 130.76 49.0313 94.5832 74.7936C54.4833 103.88 24.8442 138.368 18.3062 188.646C14.8192 217.317 17.4345 243.91 34.4333 268.842C40.9713 278.399 50.1246 285.047 58.4061 292.111C72.7897 304.161 86.7375 316.627 102.865 326.184C121.171 337.403 139.913 348.206 159.963 357.348C237.984 392.667 320.363 410.95 406.665 411.781Z" fill="black"/>
<path d="M655.982 388.096C653.367 380.617 655.982 373.553 659.469 367.32C666.007 354.855 676.468 346.129 690.416 341.974C705.235 337.403 714.389 345.713 711.773 360.257C709.594 372.307 703.492 382.695 693.903 390.59C685.185 398.069 675.596 397.653 666.879 389.759C662.52 385.603 662.52 385.603 655.982 388.096ZM682.134 385.188C685.621 385.188 689.108 383.11 691.724 379.786C696.518 374.384 699.569 368.151 701.313 361.088C702.62 354.855 700.441 352.362 693.903 353.608C683.878 355.27 672.545 368.567 672.545 378.124C672.545 383.941 676.468 384.772 682.134 385.188Z" fill="black"/>
<path d="M734.875 397.238C734.875 390.174 740.977 380.617 747.079 378.955C753.181 377.293 759.284 376.877 764.514 381.864C769.309 386.019 768.001 391.421 767.129 396.822C766.257 400.978 764.078 404.302 761.027 407.21C756.233 411.781 751.002 417.183 743.592 414.274C736.183 410.95 736.618 402.64 734.875 397.238ZM745.772 405.133C756.233 398.9 757.104 397.238 755.361 388.096C749.259 392.252 744.9 397.238 745.772 405.133Z" fill="black"/>
</g>
<defs>
<clipPath id="clip0_204_291">
<rect width="768" height="423" fill="white"/>
</clipPath>
</defs>
</svg>
