<svg width="727" height="345" viewBox="0 0 727 345" fill="none" xmlns="http://www.w3.org/2000/svg">
<g clip-path="url(#clip0_204_324)">
<path d="M382.067 344.661C298.722 344.661 222.391 328.733 149.361 300.604C129.557 293.148 110.99 284.337 93.2479 274.17C74.2683 263.325 54.8761 252.48 38.3721 239.263C22.2808 226.385 9.4902 211.473 3.30121 193.173C-2.06259 177.245 -0.412188 160.977 4.1264 145.388C15.2666 106.753 41.6729 76.9302 80.4573 53.885C116.353 32.5343 156.788 19.9951 198.048 9.48916C231.881 1.01666 266.952 -2.03343 302.848 1.01666C318.94 2.37226 335.031 4.06676 351.535 3.72786C362.675 3.72786 373.403 5.42236 384.13 8.13356C397.334 11.1837 411.362 12.2004 424.565 15.9283C457.573 25.4174 490.581 35.2455 517.813 54.5628C522.351 57.9518 526.89 61.0019 531.428 64.052C560.31 83.0304 583.003 106.753 602.395 132.51C620.962 157.927 628.389 186.056 627.564 215.879C627.564 222.657 625.501 229.435 620.962 234.858C604.458 256.547 587.542 277.898 565.261 295.859C549.17 308.738 530.603 317.21 509.973 322.294C488.518 327.716 466.65 333.138 444.782 338.222C423.327 344.322 401.46 345.678 382.067 344.661ZM384.956 335.85C410.124 335.85 434.467 332.8 458.398 326.022C469.538 322.633 481.091 320.26 492.644 317.549C515.337 312.466 536.792 305.01 554.121 290.776C575.989 273.153 592.493 252.48 608.584 231.469C612.298 226.724 614.773 221.302 614.773 215.54C616.011 185.378 607.759 157.249 588.367 131.493C580.94 121.326 570.213 113.531 562.373 104.042C547.52 86.0805 526.89 73.5412 507.085 60.3241C499.246 55.2406 491.406 49.4793 482.329 46.4292C455.51 36.94 429.104 25.0785 399.809 22.0285C386.193 20.6729 373.403 14.5727 359.374 14.9116C336.269 14.5727 312.751 11.5226 288.82 10.167C259.525 8.81136 230.643 11.5226 202.999 18.3006C162.977 28.1286 123.78 39.9901 89.5345 61.0019C51.5753 84.7249 23.5186 112.854 17.3296 153.86C14.0288 177.245 16.5044 198.934 32.5958 219.268C38.7847 227.063 47.4493 232.485 55.2887 238.247C68.9045 248.075 82.1077 258.242 97.3739 266.036C114.703 275.187 132.445 283.998 151.424 291.454C225.28 320.26 303.261 335.172 384.956 335.85Z" fill="black"/>
<path d="M620.963 316.532C618.487 310.432 620.963 304.671 624.264 299.587C630.453 289.42 640.355 282.303 653.558 278.914C667.586 275.186 676.251 281.964 673.775 293.826C671.712 303.654 665.936 312.126 656.859 318.566C648.607 324.666 639.53 324.327 631.278 317.888C627.152 314.499 627.152 314.499 620.963 316.532ZM645.719 314.16C649.019 314.16 652.32 312.465 654.796 309.754C659.334 305.349 662.223 300.265 663.873 294.504C665.111 289.42 663.048 287.387 656.859 288.404C647.369 289.759 636.642 300.604 636.642 308.399C636.642 313.143 640.355 313.821 645.719 314.16Z" fill="black"/>
<path d="M695.643 323.988C695.643 318.227 701.419 310.432 707.195 309.077C712.972 307.721 718.748 307.382 723.699 311.449C728.238 314.838 727 319.244 726.175 323.649C725.35 327.038 723.287 329.749 720.399 332.122C715.86 335.85 710.909 340.255 703.895 337.883C696.88 335.172 697.293 328.394 695.643 323.988ZM705.958 330.427C715.86 325.344 716.685 323.988 715.035 316.532C709.258 319.921 705.132 323.988 705.958 330.427Z" fill="black"/>
</g>
<defs>
<clipPath id="clip0_204_324">
<rect width="727" height="345" fill="white"/>
</clipPath>
</defs>
</svg>
