<svg width="736" height="345" viewBox="0 0 736 345" fill="none" xmlns="http://www.w3.org/2000/svg">
<g clip-path="url(#clip0_204_354)">
<path d="M386.798 344.661C302.421 344.661 225.145 328.733 151.211 300.604C131.161 293.149 112.364 284.337 94.4029 274.17C75.1884 263.325 55.5562 252.481 38.8479 239.263C22.5573 226.385 9.60838 211.474 3.34277 193.173C-2.08742 177.245 -0.41659 160.978 4.17819 145.388C15.4563 106.754 42.1895 76.9305 81.454 53.8853C117.795 32.5346 158.73 19.9953 200.501 9.4894C234.753 1.01691 270.258 -2.03319 306.598 1.01691C322.889 2.37251 339.179 4.06701 355.888 3.72811C367.166 3.72811 378.026 5.42261 388.886 8.1338C402.253 11.1839 416.455 12.2006 429.822 15.9285C463.238 25.4177 496.655 35.2458 524.224 54.5631C528.818 57.9521 533.413 61.0022 538.008 64.0523C567.247 83.0307 590.221 106.754 609.853 132.51C628.65 157.927 636.169 186.056 635.334 215.879C635.334 222.657 633.245 229.435 628.65 234.858C611.942 256.547 594.816 277.898 572.26 295.86C555.969 308.738 537.172 317.21 516.287 322.294C494.566 327.716 472.428 333.139 450.289 338.222C428.569 344.322 406.43 345.678 386.798 344.661ZM389.722 335.85C415.202 335.85 439.847 332.8 464.074 326.022C475.352 322.633 487.048 320.261 498.743 317.549C521.717 312.466 543.438 305.01 560.982 290.776C583.12 273.153 599.829 252.481 616.119 231.469C619.878 226.724 622.385 221.302 622.385 215.54C623.638 185.378 615.284 157.25 595.651 131.493C588.133 121.326 577.272 113.532 569.336 104.042C554.298 86.0808 533.413 73.5415 513.363 60.3244C505.427 55.2409 497.49 49.4796 488.301 46.4295C461.15 36.9403 434.417 25.0788 404.759 22.0287C390.975 20.6731 378.026 14.5729 363.824 14.9118C340.432 14.5729 316.623 11.5228 292.396 10.1672C262.739 8.8116 233.499 11.5228 205.513 18.3008C164.995 28.1289 125.313 39.9904 90.6436 61.0022C52.2145 84.7252 23.8104 112.854 17.5448 153.861C14.2032 177.245 16.7094 198.934 33 219.268C39.2656 227.063 48.0374 232.485 55.9739 238.247C69.7582 248.075 83.1248 258.242 98.58 266.037C116.124 275.187 134.085 283.998 153.3 291.454C228.069 320.261 307.016 335.172 389.722 335.85Z" fill="black"/>
<path d="M628.649 316.532C626.143 310.432 628.649 304.671 631.991 299.587C638.256 289.42 648.281 282.303 661.648 278.914C675.85 275.186 684.622 281.964 682.116 293.826C680.027 303.654 674.179 312.126 664.99 318.566C656.635 324.666 647.446 324.327 639.092 317.888C634.915 314.499 634.915 314.499 628.649 316.532ZM653.711 314.16C657.053 314.16 660.395 312.465 662.901 309.754C667.496 305.349 670.42 300.265 672.091 294.504C673.344 289.42 671.255 287.387 664.99 288.404C655.382 289.759 644.522 300.604 644.522 308.399C644.522 313.143 648.281 313.821 653.711 314.16Z" fill="black"/>
<path d="M704.254 323.988C704.254 318.227 710.102 310.432 715.95 309.077C721.798 307.721 727.645 307.382 732.658 311.449C737.253 314.838 736 319.244 735.164 323.649C734.329 327.038 732.24 329.749 729.316 332.122C724.722 335.85 719.709 340.255 712.608 337.883C705.507 335.172 705.925 328.394 704.254 323.988ZM714.697 330.427C724.722 325.344 725.557 323.988 723.886 316.532C718.038 319.921 713.861 323.988 714.697 330.427Z" fill="black"/>
</g>
<defs>
<clipPath id="clip0_204_354">
<rect width="736" height="345" fill="white"/>
</clipPath>
</defs>
</svg>
