<svg width="253" height="124" viewBox="0 0 253 124" fill="none" xmlns="http://www.w3.org/2000/svg">
<path d="M28.5474 0.789062V5.80371H6.26709V47H0.17334V0.789062H28.5474ZM4.83887 19.6099H17.439C20.8244 19.6099 23.6808 20.1812 26.0083 21.3237C28.3358 22.4451 30.1025 24.0215 31.3086 26.0527C32.5146 28.084 33.1177 30.4644 33.1177 33.1938C33.1177 35.2251 32.7791 37.0871 32.1021 38.7798C31.425 40.4513 30.4199 41.9113 29.0869 43.1597C27.7539 44.3869 26.1141 45.339 24.1675 46.0161C22.2209 46.672 19.978 47 17.439 47H0.17334V0.789062H6.29883V42.0171H17.439C19.703 42.0171 21.5332 41.6045 22.9297 40.7793C24.3473 39.9329 25.3841 38.8327 26.04 37.4785C26.696 36.1243 27.0239 34.675 27.0239 33.1304C27.0239 31.5858 26.696 30.1681 26.04 28.8774C25.3841 27.5868 24.3473 26.5605 22.9297 25.7988C21.5332 25.016 19.703 24.6245 17.439 24.6245H4.83887V19.6099ZM55.1123 31.6704L67.3315 0.789062H74.3774L58.0322 39.2876C57.5667 40.3667 57.0483 41.4141 56.4771 42.4297C55.9058 43.4242 55.2075 44.3128 54.3823 45.0957C53.5571 45.8786 52.5309 46.5028 51.3037 46.9683C50.0977 47.4338 48.5954 47.6665 46.7969 47.6665C46.2891 47.6665 45.686 47.6348 44.9878 47.5713C44.2896 47.529 43.8346 47.4761 43.623 47.4126L43.8135 42.5249C44.0462 42.5672 44.5011 42.6095 45.1782 42.6519C45.8553 42.673 46.3525 42.6836 46.6699 42.6836C47.876 42.6836 48.8281 42.4403 49.5264 41.9536C50.2246 41.467 50.7853 40.8534 51.2085 40.1128C51.6528 39.3511 52.0549 38.5788 52.4146 37.7959L55.1123 31.6704ZM44.7339 0.789062L57.5879 29.5757L59.1113 35.2568L53.9697 35.6377L37.8784 0.789062H44.7339ZM115.415 42.0171V47H80.4395V42.0171H115.415ZM81.4233 42.0171V58.3623H75.3613L75.3296 42.0171H81.4233ZM120.747 42.0171L120.684 58.3306H114.622V42.0171H120.747ZM109.417 0.789062V5.80371H89.1675V0.789062H109.417ZM114.685 0.789062V47H108.591V0.789062H114.685ZM87.0728 0.789062H93.1982L92.2461 19.3877C92.1191 22.1807 91.8547 24.762 91.4526 27.1318C91.0506 29.4805 90.5534 31.6281 89.9609 33.5747C89.3685 35.5213 88.6914 37.2669 87.9297 38.8115C87.168 40.335 86.3534 41.6574 85.4858 42.7788C84.6183 43.8791 83.7085 44.7889 82.7563 45.5083C81.8254 46.2065 80.8838 46.7038 79.9316 47H77.1387V42.0171H79.1064C79.6566 41.4246 80.2808 40.5677 80.979 39.4463C81.6984 38.3249 82.4072 36.8755 83.1055 35.0981C83.8249 33.2996 84.4491 31.1097 84.978 28.5283C85.5282 25.9469 85.8984 22.9001 86.0889 19.3877L87.0728 0.789062ZM131.411 19.6099H144.011C147.397 19.6099 150.253 20.1812 152.581 21.3237C154.908 22.4451 156.675 24.0215 157.881 26.0527C159.087 28.084 159.69 30.4644 159.69 33.1938C159.69 35.2251 159.351 37.0871 158.674 38.7798C157.997 40.4513 156.992 41.9113 155.659 43.1597C154.326 44.3869 152.686 45.339 150.74 46.0161C148.793 46.672 146.55 47 144.011 47H126.746V0.789062H132.871V42.0171H144.011C146.275 42.0171 148.105 41.6045 149.502 40.7793C150.92 39.9329 151.956 38.8327 152.612 37.4785C153.268 36.1243 153.596 34.675 153.596 33.1304C153.596 31.5858 153.268 30.1681 152.612 28.8774C151.956 27.5868 150.92 26.5605 149.502 25.7988C148.105 25.016 146.275 24.6245 144.011 24.6245H131.411V19.6099ZM16.8359 101.386H5.12451L5.06104 96.4668H15.6934C17.4495 96.4668 18.9836 96.1706 20.2954 95.5781C21.6073 94.9857 22.6229 94.1393 23.3423 93.0391C24.0828 91.9176 24.4531 90.5846 24.4531 89.04C24.4531 87.3473 24.1252 85.972 23.4692 84.9141C22.8345 83.835 21.8506 83.0521 20.5176 82.5654C19.2057 82.0576 17.5342 81.8037 15.5029 81.8037H6.48926V123H0.36377V76.7891H15.5029C17.8727 76.7891 19.9886 77.0324 21.8506 77.519C23.7126 77.9845 25.2889 78.7251 26.5796 79.7407C27.8914 80.7352 28.8859 82.0047 29.563 83.5493C30.2401 85.0939 30.5786 86.9453 30.5786 89.1035C30.5786 91.0078 30.092 92.7323 29.1187 94.2769C28.1453 95.8003 26.7912 97.0487 25.0562 98.022C23.3423 98.9953 21.3322 99.6195 19.0259 99.8945L16.8359 101.386ZM16.5503 123H2.7124L6.17188 118.017H16.5503C18.4969 118.017 20.1473 117.679 21.5015 117.001C22.8768 116.324 23.9242 115.372 24.6436 114.145C25.363 112.897 25.7227 111.426 25.7227 109.733C25.7227 108.02 25.4159 106.538 24.8022 105.29C24.1886 104.042 23.2259 103.079 21.9141 102.402C20.6022 101.725 18.9095 101.386 16.8359 101.386H8.10791L8.17139 96.4668H20.105L21.4062 98.2441C23.6279 98.4346 25.5111 99.0693 27.0557 100.148C28.6003 101.206 29.7746 102.561 30.5786 104.211C31.4038 105.861 31.8164 107.681 31.8164 109.67C31.8164 112.548 31.1816 114.981 29.9121 116.97C28.6637 118.938 26.897 120.44 24.6118 121.477C22.3267 122.492 19.6395 123 16.5503 123ZM63.396 76.7891V123H57.2705V76.7891H63.396ZM91.8652 76.7891L71.8066 102.211H60.9521L60 97.1333H68.1567L84.2798 76.7891H91.8652ZM85.708 123L68.3472 101.418L71.7749 96.0542L93.1982 123H85.708ZM113.066 107.67L125.286 76.7891H132.332L115.986 115.288C115.521 116.367 115.002 117.414 114.431 118.43C113.86 119.424 113.162 120.313 112.336 121.096C111.511 121.879 110.485 122.503 109.258 122.968C108.052 123.434 106.549 123.667 104.751 123.667C104.243 123.667 103.64 123.635 102.942 123.571C102.244 123.529 101.789 123.476 101.577 123.413L101.768 118.525C102 118.567 102.455 118.61 103.132 118.652C103.809 118.673 104.307 118.684 104.624 118.684C105.83 118.684 106.782 118.44 107.48 117.954C108.179 117.467 108.739 116.853 109.163 116.113C109.607 115.351 110.009 114.579 110.369 113.796L113.066 107.67ZM102.688 76.7891L115.542 105.576L117.065 111.257L111.924 111.638L95.8325 76.7891H102.688ZM156.675 104.877H144.329V99.8945H156.675C159.066 99.8945 161.002 99.5137 162.483 98.752C163.964 97.9902 165.043 96.9323 165.72 95.5781C166.418 94.224 166.768 92.6794 166.768 90.9443C166.768 89.3574 166.418 87.8657 165.72 86.4692C165.043 85.0728 163.964 83.9513 162.483 83.105C161.002 82.2375 159.066 81.8037 156.675 81.8037H145.757V123H139.631V76.7891H156.675C160.166 76.7891 163.118 77.3921 165.53 78.5981C167.942 79.8042 169.772 81.4757 171.021 83.6128C172.269 85.7287 172.893 88.1514 172.893 90.8809C172.893 93.8431 172.269 96.3716 171.021 98.4663C169.772 100.561 167.942 102.159 165.53 103.259C163.118 104.338 160.166 104.877 156.675 104.877ZM208.535 108.305H214.629C214.312 111.225 213.476 113.838 212.122 116.145C210.767 118.451 208.853 120.281 206.377 121.635C203.901 122.968 200.812 123.635 197.109 123.635C194.401 123.635 191.936 123.127 189.714 122.111C187.514 121.096 185.62 119.657 184.033 117.795C182.446 115.912 181.219 113.658 180.352 111.035C179.505 108.39 179.082 105.449 179.082 102.211V97.6094C179.082 94.3721 179.505 91.4416 180.352 88.8179C181.219 86.173 182.457 83.909 184.065 82.0259C185.694 80.1427 187.651 78.6934 189.937 77.6777C192.222 76.6621 194.792 76.1543 197.649 76.1543C201.14 76.1543 204.092 76.8102 206.504 78.1221C208.916 79.4339 210.789 81.2536 212.122 83.5811C213.476 85.8874 214.312 88.564 214.629 91.6108H208.535C208.239 89.4526 207.689 87.6012 206.885 86.0566C206.081 84.4909 204.938 83.2848 203.457 82.4385C201.976 81.5921 200.04 81.1689 197.649 81.1689C195.597 81.1689 193.787 81.5604 192.222 82.3433C190.677 83.1261 189.376 84.237 188.318 85.6758C187.281 87.1146 186.498 88.839 185.969 90.8491C185.44 92.8592 185.176 95.0915 185.176 97.5459V102.211C185.176 104.475 185.409 106.602 185.874 108.591C186.361 110.58 187.091 112.325 188.064 113.828C189.037 115.33 190.275 116.515 191.777 117.382C193.28 118.229 195.057 118.652 197.109 118.652C199.712 118.652 201.785 118.239 203.33 117.414C204.875 116.589 206.038 115.404 206.821 113.859C207.625 112.315 208.197 110.463 208.535 108.305ZM252.334 118.017V123H227.864V118.017H252.334ZM229.102 76.7891V123H222.976V76.7891H229.102ZM249.097 96.6572V101.64H227.864V96.6572H249.097ZM252.017 76.7891V81.8037H227.864V76.7891H252.017Z" fill="black"/>
</svg>
