<svg width="93" height="93" viewBox="0 0 93 93" fill="none" xmlns="http://www.w3.org/2000/svg">
<g clip-path="url(#clip0_204_280)">
<path d="M63.6809 73.2319C67.3197 67.784 71.5214 62.4882 74.5306 56.6748C76.2912 53.3133 77.5103 48.6685 76.5844 45.2563C74.4046 37.0821 71.4483 28.8225 67.5583 21.3233C63.7377 13.8961 56.2997 10.7857 48.1414 12.1172C35.9387 14.1505 25.5823 19.5425 19.7001 31.4547C13.3003 44.5594 13.6902 57.6505 22.4571 69.0606C35.6422 86.2118 47.7063 87.7828 63.6809 73.2319Z" fill="white"/>
<path d="M63.6809 73.2319C47.7063 87.7828 35.6422 86.2118 22.4571 69.0606C13.6902 57.6505 13.3003 44.5594 19.7001 31.4547C25.5103 19.6119 35.7973 14.1478 48.1414 12.1172C56.2997 10.7857 63.7377 13.8961 67.5583 21.3233C71.4483 28.8225 74.4046 37.0821 76.5124 45.3257C77.4383 48.7379 76.2192 53.3826 74.4585 56.7442C71.4494 62.5575 67.3197 67.784 63.6809 73.2319ZM27.3328 31.7399C25.9403 34.3304 24.561 36.214 23.8141 38.3216C20.0821 48.7183 26.5949 67.1583 36.0366 72.7819C37.9255 73.8783 40.3079 75.0547 42.4315 74.9533C51.1394 74.4808 58.9054 71.4445 62.6748 62.8166C64.7449 58.0464 66.2601 52.7 66.8522 47.5483C68.8606 31.0369 56.4654 20.7608 40.6025 25.6248C35.9792 27.0229 31.6146 29.6989 27.3328 31.7399Z" fill="black"/>
<path d="M27.3328 31.7398C31.6147 29.6988 35.9072 27.0921 40.6025 25.6247C56.5375 20.6913 68.7912 30.9648 66.8522 47.5482C66.2601 52.6999 64.6756 57.9743 62.6749 62.8165C58.9055 71.4444 51.2115 74.4113 42.4316 74.9532C40.308 75.0546 37.9229 74.0196 36.0367 72.7818C26.595 67.1582 20.0821 48.7182 23.8141 38.3215C24.5611 36.2139 26.0123 34.261 27.3328 31.7398Z" fill="white"/>
</g>
<defs>
<clipPath id="clip0_204_280">
<rect width="66.8" height="62.7" fill="white" transform="translate(92.2051 45.7627) rotate(136.079)"/>
</clipPath>
</defs>
</svg>
