<svg width="67" height="63" viewBox="0 0 67 63" fill="none" xmlns="http://www.w3.org/2000/svg">
<g clip-path="url(#clip0_204_286)">
<path d="M39.6001 0C33.2001 1.4 26.5001 2.3 20.3001 4.4C16.7001 5.6 12.6001 8.1 10.9001 11.2C6.80014 18.6 3.20015 26.6 0.800145 34.7C-1.59986 42.7 1.60014 50.1 8.40014 54.8C18.6001 61.8 29.8001 65.1 42.3001 60.6C56.0001 55.6 64.8001 45.9 66.4001 31.6C68.8001 10.1 61.2001 0.6 39.6001 0Z" fill="white"/>
<path d="M39.6001 0C61.2001 0.6 68.8001 10.1 66.4001 31.6C64.8001 45.9 56.0001 55.6 42.3001 60.6C29.9001 65.1 18.7001 61.9 8.40014 54.8C1.60014 50.1 -1.59986 42.7 0.800145 34.7C3.20015 26.6 6.80015 18.6 11.0001 11.2C12.7001 8.1 16.8001 5.6 20.4001 4.4C26.6001 2.3 33.2001 1.4 39.6001 0ZM37.0001 55.1C39.8001 54.2 42.1001 53.8 44.1001 52.8C54.0001 47.9 62.1001 30.1 59.2001 19.5C58.6001 17.4 57.7001 14.9 56.1001 13.5C49.5001 7.8 41.8001 4.6 33.1001 8.2C28.3001 10.2 23.5001 13 19.5001 16.3C6.60015 26.8 8.40015 42.8 23.2001 50.3C27.5001 52.5 32.5001 53.6 37.0001 55.1Z" fill="black"/>
<path d="M36.9993 55.1C32.4993 53.6 27.5993 52.5 23.1993 50.3C8.29935 42.8 6.59935 26.9 19.4993 16.3C23.4993 13 28.2993 10.3 33.0993 8.19999C41.7993 4.59999 49.3993 7.79999 56.0993 13.5C57.6993 14.9 58.6993 17.3 59.1993 19.5C62.0993 30.1 53.9993 47.9 44.0993 52.8C42.0993 53.8 39.6993 54.2 36.9993 55.1Z" fill="white"/>
</g>
<defs>
<clipPath id="clip0_204_286">
<rect width="66.8" height="62.7" fill="white"/>
</clipPath>
</defs>
</svg>
