<svg width="400" height="172" viewBox="0 0 400 172" fill="none" xmlns="http://www.w3.org/2000/svg">
<g clip-path="url(#clip0_214_1018)">
<path d="M46.1194 49.4071C48.4072 51.2393 50.7047 52.8734 52.7894 54.6958C54.6772 56.3762 55.9741 56.2406 57.8255 54.4772C64.6539 48.1236 71.5501 41.7732 78.769 35.7695C82.5913 32.5794 86.475 29.5247 89.9101 25.9186C94.7804 20.7275 100.804 21.1527 106.206 25.9826C107.832 27.4517 109.82 28.475 111.992 29.9044C112.456 28.7355 112.846 27.6954 113.233 26.7213C114.777 22.8909 118.61 22.2829 121.524 25.2047C123.731 27.2978 126.297 29.0111 128.975 31.1933C126.386 39.7388 123.643 48.674 120.968 57.6124C121.3 57.761 121.632 57.9095 122.032 58.0613C123.732 55.2314 125.428 52.4676 127.196 49.6409C132.646 40.9035 137.96 32.1595 143.543 23.4948C146.036 19.7105 149.181 16.4875 154.511 17.2099C155.253 17.3122 156.059 17.4838 156.65 17.9096C159.402 19.963 162.294 21.957 164.688 24.3901C165.789 25.5027 165.957 27.6291 166.215 29.2965C166.474 30.9639 166.32 32.7436 165.865 33.7144C169.181 31.1616 172.694 28.7508 175.88 26.0594C179 23.3647 182.7 22.684 186.314 23.7864C188.788 24.5686 190.635 27.1075 192.942 28.5435C199.34 32.429 197.435 38.0952 196.43 43.408C195.595 48.001 194.151 52.5643 193.046 57.1442C192.788 58.2569 192.933 59.4555 193.608 60.9445C196.72 56.9918 199.897 53.1084 202.813 49.0137C208.711 40.8277 214.478 32.569 220.309 24.3796C221.112 23.2272 222.183 22.1539 223.247 21.2128C225.725 19.1488 228.754 19.6932 231.023 21.9217C233.23 24.0148 235.863 25.7314 239.268 28.346C238.385 32.5395 237.321 37.6509 236.19 42.759C234.35 51.2747 232.439 59.8532 230.599 68.3689C230.999 68.5207 231.328 68.7353 231.728 68.8872C232.361 68.4545 233.125 68.0945 233.693 67.5926C242.395 59.0132 249 48.8757 255.008 38.4444C258.271 32.778 261.267 27.0323 264.595 21.4353C266.669 17.8954 270.334 17.9412 273.245 20.929C275.055 22.8042 277.649 23.9232 279.457 25.8644C280.425 26.9044 280.938 28.9152 280.664 30.3581C279.923 34.4261 278.576 38.3984 277.699 42.4598C275.669 52.0915 273.707 61.7266 271.741 71.4277C271.38 73.2636 271.155 75.1061 270.794 76.9419C270.162 80.1547 270.292 83.0735 273.948 84.7075C274.413 84.9286 274.726 85.4734 275.045 85.8861C275.678 86.8436 276.31 87.801 277.285 88.7089C276.77 92.3245 274.067 94.8409 271.047 96.8785C268.376 98.7345 266.266 96.0503 264.001 95.1459C263.068 94.7696 262.432 93.8782 261.571 93.4392C255.676 90.3725 253.797 85.7138 254.989 79.351C255.64 75.742 255.416 71.9581 255.628 67.5996C253.69 69.756 251.903 71.5888 250.18 73.4909C245.446 78.6886 240.582 83.7476 233.859 86.532C231.917 87.3643 228.913 87.6817 227.19 86.8036C223.221 84.6249 219.485 81.8617 216.309 78.7287C215.012 77.4741 214.74 74.6808 214.843 72.5676C214.987 68.2058 215.673 63.8704 216.265 58.6699C214.966 60.2616 214.03 61.3414 213.095 62.4212C205.599 71.324 198.171 80.2301 190.544 89.0602C187.95 92.1114 183.83 91.6464 181.207 88.3416C180.629 87.6516 179.629 87.272 178.696 86.8957C174.705 85.1793 172.978 82.9771 173.526 78.7012C174.604 70.4794 175.954 62.2708 177.236 54.059C177.539 52.0217 177.842 49.9844 177.883 47.7358C166.762 61.3607 157.878 76.4843 148.641 91.8557C145.273 89.9047 141.943 88.5514 139.335 86.3065C137.448 84.6261 135.511 82.5461 136.769 79.0328C139.896 70.5797 142.423 61.8988 145.147 53.3598C145.234 52.9669 145.251 52.6367 144.873 52.0226C142.141 56.5234 139.61 61.1001 136.746 65.5282C131.683 73.2915 126.552 81.0516 121.356 88.7422C120.476 90.0895 119.131 91.2156 117.856 92.279C115.16 94.6633 112.73 94.3466 110.488 91.5899C109.978 90.9031 109.332 90.2098 108.532 89.9062C103.076 87.589 101.562 85.1986 102.38 79.5457C102.477 78.9547 102.37 78.3538 102.379 76.7656C99.3477 80.4574 97.0223 83.5879 94.371 86.4377C91.3585 89.7334 88.1524 92.821 85.014 95.912C82.8723 98.0585 80.2688 98.5277 77.6293 96.9431C74.9898 95.3586 72.3535 93.708 69.9334 91.8031C66.329 89.1126 66.5151 85.2824 67.0433 81.4026C67.6195 76.5323 67.9926 71.6522 68.5364 66.0521C66.2884 68.9878 62.9785 70.0184 63.7088 74.555C66.8367 94.0356 58.6589 109.988 46.2155 124.277C38.952 132.595 31.2271 140.626 23.57 148.66C22.2121 150.051 20.3314 151.018 18.7121 152.197C16.3219 153.868 13.712 154.47 11.2144 152.76C8.19087 150.693 5.1028 148.557 2.71793 145.926C1.29799 144.401 0.40688 141.776 0.509591 139.663C1.17366 124.603 5.85794 110.665 15.6629 98.9619C24.8905 87.959 35.1023 77.6658 44.8526 67.0854C47.0008 64.8068 46.5026 59.6857 43.7212 58.2266C41.9982 57.3486 40.4206 57.6691 39.0466 59.3895C36.2987 62.8304 33.2862 66.126 30.2092 69.3523C28.9932 70.6171 27.5126 71.7366 26.0416 72.658C22.4739 74.8014 19.7089 74.4022 16.511 71.7314C15.0105 70.467 13.1551 69.5163 11.6578 68.1859C8.35009 64.9802 8.20357 59.6114 11.5096 55.8667C15.2477 51.6134 19.6959 48.1228 25.39 46.9433C29.3 46.1404 31.1739 43.9147 32.5475 40.8042C34.9884 35.2964 39.1039 30.2671 38.1536 23.2706C35.6378 26.1271 32.8607 28.7722 30.7418 31.8465C27.7457 36.202 25.1432 40.8415 22.4763 45.4116C21.5088 47.1518 20.2928 48.4166 18.3084 47.3272C15.2624 45.7229 11.2939 44.9343 10.1186 41.1703C9.76663 40.0279 9.84367 38.443 10.3725 37.3434C15.5189 26.4731 22.1141 16.5336 32.7592 9.90213C37.7333 6.76803 40.6951 7.30915 44.9225 11.1553C46.3521 12.4824 47.9236 13.6841 49.6466 14.5622C53.2282 16.3249 53.4097 19.5772 53.5944 22.7635C54.1513 30.8661 52.424 38.4606 48.2122 45.471C47.4705 46.7588 46.8675 47.9872 46.1194 49.4071ZM47.6453 87.8735C34.6981 99.9533 23.0029 112.822 18.7486 130.488C30.7052 117.83 42.991 105.387 47.6453 87.8735ZM84.5563 71.7953C84.8886 71.9438 85.15 72.1551 85.4823 72.3037C91.0424 64.1011 96.5346 55.8953 102.159 47.7621C103.91 45.2657 101.184 44.0741 100.867 42.2053C99.4092 42.8625 97.4251 43.1633 96.4898 44.2431C94.903 46.1518 93.8357 48.549 92.707 50.811C89.1888 57.5241 85.8707 64.3131 84.5563 71.7953Z" fill="black"/>
<path d="M319.549 47.7375C311.105 59.3743 303.665 71.3247 303.895 86.1632C304.153 86.4405 304.479 86.7212 304.734 87.0645C308.727 84.5447 313.043 82.3715 316.588 79.3003C326.229 70.9652 335.748 62.3593 345.005 53.5422C353.408 45.544 359.903 36.2617 363.894 25.4014C364.594 23.5819 365.629 21.845 366.529 20.1015C368.174 17.0042 371.716 16.7792 374.24 19.351C376.444 21.5101 378.935 23.3523 381.613 25.5344C380.222 34.6015 374.152 42.1173 370.831 50.3625C375.722 50.3354 380.342 50.2952 384.959 50.321C385.907 50.3671 387.049 50.6212 387.769 51.1857C390.063 52.8859 391.987 55.23 394.432 56.6065C398.398 58.8513 397.634 61.9914 396.935 65.2009C395.034 73.5813 389.505 79.7334 383.138 84.9841C377.196 89.8584 370.935 94.32 364.481 98.5737C357.674 103.075 353.283 102.597 346.662 97.7076C345.219 96.6446 343.558 95.9019 342.186 94.7761C337.752 90.9862 337.77 86.4197 339.46 81.0077C338.611 81.6946 337.763 82.3815 336.847 83.0651C330.025 87.8966 323.454 93.1375 316.254 97.3549C310.59 100.72 304.594 98.3107 299.525 95.0194C296.828 93.2334 294.643 90.6781 292.171 88.4397C288.202 84.8709 288.833 80.2681 289.39 75.794C291.013 63.3623 296.698 52.5843 303.913 42.4764C308.867 35.5683 314.401 29.2841 322.456 25.6378C328.15 23.0683 332.657 23.9493 337.411 28.1519C338.714 29.2744 340.157 30.3374 341.751 31.0768C344.209 32.1892 344.665 33.9986 344.217 36.2274C342.548 44.0233 338.552 50.7794 333.566 56.9578C332.772 57.9121 330.291 58.6521 329.162 58.1338C324.642 56.1269 319.57 54.2917 319.549 47.7375ZM356.586 84.9512C365.128 81.0638 377.646 69.4265 378.339 64.959C368.967 69.1371 362.317 76.0289 356.586 84.9512ZM324.581 44.8048C324.368 44.9931 324.155 45.1813 323.942 45.3695C322.984 45.5215 322.029 45.6075 320.387 45.8587C324.285 48.1001 326.714 45.6366 328.638 38.1841C326.361 40.324 324.651 41.9619 322.587 43.9136C323.387 44.2173 323.984 44.511 324.581 44.8048Z" fill="black"/>
</g>
<defs>
<clipPath id="clip0_214_1018">
<rect width="392.546" height="153.123" fill="white" transform="translate(7.43372) rotate(2.78266)"/>
</clipPath>
</defs>
</svg>
